<?xml version="1.0" encoding="UTF-8" standalone="no"?>
<!DOCTYPE svg PUBLIC "-//W3C//DTD SVG 1.1//EN"
 "http://www.w3.org/Graphics/SVG/1.1/DTD/svg11.dtd">
<!-- Generated by graphviz version 2.40.1 (20161225.0304)
 -->
<!-- Title: snakemake_dag Pages: 1 -->
<svg width="141pt" height="476pt"
 viewBox="0.00 0.00 141.00 476.00" xmlns="http://www.w3.org/2000/svg" xmlns:xlink="http://www.w3.org/1999/xlink">
<g id="graph0" class="graph" transform="scale(1 1) rotate(0) translate(4 472)">
<title>snakemake_dag</title>
<polygon fill="#ffffff" stroke="transparent" points="-4,4 -4,-472 137,-472 137,4 -4,4"/>
<!-- 0 -->
<g id="node1" class="node">
<title>0</title>
<path fill="none" stroke="#d85656" stroke-width="2" d="M83.5,-36C83.5,-36 49.5,-36 49.5,-36 43.5,-36 37.5,-30 37.5,-24 37.5,-24 37.5,-12 37.5,-12 37.5,-6 43.5,0 49.5,0 49.5,0 83.5,0 83.5,0 89.5,0 95.5,-6 95.5,-12 95.5,-12 95.5,-24 95.5,-24 95.5,-30 89.5,-36 83.5,-36"/>
<text text-anchor="middle" x="66.5" y="-15.5" font-family="sans" font-size="10.00" fill="#000000">VcfTabix</text>
</g>
<!-- 1 -->
<g id="node2" class="node">
<title>1</title>
<path fill="none" stroke="#d8a456" stroke-width="2" d="M106.5,-108C106.5,-108 26.5,-108 26.5,-108 20.5,-108 14.5,-102 14.5,-96 14.5,-96 14.5,-84 14.5,-84 14.5,-78 20.5,-72 26.5,-72 26.5,-72 106.5,-72 106.5,-72 112.5,-72 118.5,-78 118.5,-84 118.5,-84 118.5,-96 118.5,-96 118.5,-102 112.5,-108 106.5,-108"/>
<text text-anchor="middle" x="66.5" y="-87.5" font-family="sans" font-size="10.00" fill="#000000">VCFCallFrequency</text>
</g>
<!-- 1&#45;&gt;0 -->
<g id="edge1" class="edge">
<title>1&#45;&gt;0</title>
<path fill="none" stroke="#c0c0c0" stroke-width="2" d="M66.5,-71.8314C66.5,-64.131 66.5,-54.9743 66.5,-46.4166"/>
<polygon fill="#c0c0c0" stroke="#c0c0c0" stroke-width="2" points="70.0001,-46.4132 66.5,-36.4133 63.0001,-46.4133 70.0001,-46.4132"/>
</g>
<!-- 2 -->
<g id="node3" class="node">
<title>2</title>
<path fill="none" stroke="#56a2d8" stroke-width="2" d="M121,-180C121,-180 12,-180 12,-180 6,-180 0,-174 0,-168 0,-168 0,-156 0,-156 0,-150 6,-144 12,-144 12,-144 121,-144 121,-144 127,-144 133,-150 133,-156 133,-156 133,-168 133,-168 133,-174 127,-180 121,-180"/>
<text text-anchor="middle" x="66.5" y="-159.5" font-family="sans" font-size="10.00" fill="#000000">VCFBackgroundChecker</text>
</g>
<!-- 2&#45;&gt;1 -->
<g id="edge2" class="edge">
<title>2&#45;&gt;1</title>
<path fill="none" stroke="#c0c0c0" stroke-width="2" d="M66.5,-143.8314C66.5,-136.131 66.5,-126.9743 66.5,-118.4166"/>
<polygon fill="#c0c0c0" stroke="#c0c0c0" stroke-width="2" points="70.0001,-118.4132 66.5,-108.4133 63.0001,-118.4133 70.0001,-118.4132"/>
</g>
<!-- 3 -->
<g id="node4" class="node">
<title>3</title>
<path fill="none" stroke="#56d87b" stroke-width="2" d="M92,-252C92,-252 41,-252 41,-252 35,-252 29,-246 29,-240 29,-240 29,-228 29,-228 29,-222 35,-216 41,-216 41,-216 92,-216 92,-216 98,-216 104,-222 104,-228 104,-228 104,-240 104,-240 104,-246 98,-252 92,-252"/>
<text text-anchor="middle" x="66.5" y="-231.5" font-family="sans" font-size="10.00" fill="#000000">StrelkaFilter</text>
</g>
<!-- 3&#45;&gt;2 -->
<g id="edge3" class="edge">
<title>3&#45;&gt;2</title>
<path fill="none" stroke="#c0c0c0" stroke-width="2" d="M66.5,-215.8314C66.5,-208.131 66.5,-198.9743 66.5,-190.4166"/>
<polygon fill="#c0c0c0" stroke="#c0c0c0" stroke-width="2" points="70.0001,-190.4132 66.5,-180.4133 63.0001,-190.4133 70.0001,-190.4132"/>
</g>
<!-- 4 -->
<g id="node5" class="node">
<title>4</title>
<path fill="none" stroke="#78d856" stroke-width="2" d="M95,-324C95,-324 38,-324 38,-324 32,-324 26,-318 26,-312 26,-312 26,-300 26,-300 26,-294 32,-288 38,-288 38,-288 95,-288 95,-288 101,-288 107,-294 107,-300 107,-300 107,-312 107,-312 107,-318 101,-324 95,-324"/>
<text text-anchor="middle" x="66.5" y="-303.5" font-family="sans" font-size="10.00" fill="#000000">StrelkaMerge</text>
</g>
<!-- 4&#45;&gt;3 -->
<g id="edge4" class="edge">
<title>4&#45;&gt;3</title>
<path fill="none" stroke="#c0c0c0" stroke-width="2" d="M66.5,-287.8314C66.5,-280.131 66.5,-270.9743 66.5,-262.4166"/>
<polygon fill="#c0c0c0" stroke="#c0c0c0" stroke-width="2" points="70.0001,-262.4132 66.5,-252.4133 63.0001,-262.4133 70.0001,-262.4132"/>
</g>
<!-- 5 -->
<g id="node6" class="node">
<title>5</title>
<path fill="none" stroke="#56d8c9" stroke-width="2" d="M81.5,-396C81.5,-396 51.5,-396 51.5,-396 45.5,-396 39.5,-390 39.5,-384 39.5,-384 39.5,-372 39.5,-372 39.5,-366 45.5,-360 51.5,-360 51.5,-360 81.5,-360 81.5,-360 87.5,-360 93.5,-366 93.5,-372 93.5,-372 93.5,-384 93.5,-384 93.5,-390 87.5,-396 81.5,-396"/>
<text text-anchor="middle" x="66.5" y="-375.5" font-family="sans" font-size="10.00" fill="#000000">Strelka</text>
</g>
<!-- 5&#45;&gt;4 -->
<g id="edge5" class="edge">
<title>5&#45;&gt;4</title>
<path fill="none" stroke="#c0c0c0" stroke-width="2" d="M66.5,-359.8314C66.5,-352.131 66.5,-342.9743 66.5,-334.4166"/>
<polygon fill="#c0c0c0" stroke="#c0c0c0" stroke-width="2" points="70.0001,-334.4132 66.5,-324.4133 63.0001,-334.4133 70.0001,-334.4132"/>
</g>
<!-- 6 -->
<g id="node7" class="node">
<title>6</title>
<path fill="none" stroke="#c6d856" stroke-width="2" d="M81.5,-468C81.5,-468 51.5,-468 51.5,-468 45.5,-468 39.5,-462 39.5,-456 39.5,-456 39.5,-444 39.5,-444 39.5,-438 45.5,-432 51.5,-432 51.5,-432 81.5,-432 81.5,-432 87.5,-432 93.5,-438 93.5,-444 93.5,-444 93.5,-456 93.5,-456 93.5,-462 87.5,-468 81.5,-468"/>
<text text-anchor="middle" x="66.5" y="-447.5" font-family="sans" font-size="10.00" fill="#000000">Manta</text>
</g>
<!-- 6&#45;&gt;5 -->
<g id="edge6" class="edge">
<title>6&#45;&gt;5</title>
<path fill="none" stroke="#c0c0c0" stroke-width="2" d="M66.5,-431.8314C66.5,-424.131 66.5,-414.9743 66.5,-406.4166"/>
<polygon fill="#c0c0c0" stroke="#c0c0c0" stroke-width="2" points="70.0001,-406.4132 66.5,-396.4133 63.0001,-406.4133 70.0001,-406.4132"/>
</g>
</g>
</svg>
