<?xml version="1.0" encoding="UTF-8" standalone="no"?>
<!DOCTYPE svg PUBLIC "-//W3C//DTD SVG 1.1//EN"
 "http://www.w3.org/Graphics/SVG/1.1/DTD/svg11.dtd">
<!-- Generated by graphviz version 2.30.1 (20150306.0020)
 -->
<!-- Title: snakemake_dag Pages: 1 -->
<svg width="677pt" height="836pt"
 viewBox="0.00 0.00 677.00 836.00" xmlns="http://www.w3.org/2000/svg" xmlns:xlink="http://www.w3.org/1999/xlink">
<g id="graph0" class="graph" transform="scale(1 1) rotate(0) translate(4 832)">
<title>snakemake_dag</title>
<polygon fill="white" stroke="white" points="-4,5 -4,-832 674,-832 674,5 -4,5"/>
<!-- 0 -->
<g id="node1" class="node"><title>0</title>
<path fill="none" stroke="#d8d356" stroke-width="2" d="M304.25,-756C304.25,-756 241.75,-756 241.75,-756 235.75,-756 229.75,-750 229.75,-744 229.75,-744 229.75,-732 229.75,-732 229.75,-726 235.75,-720 241.75,-720 241.75,-720 304.25,-720 304.25,-720 310.25,-720 316.25,-726 316.25,-732 316.25,-732 316.25,-744 316.25,-744 316.25,-750 310.25,-756 304.25,-756"/>
<text text-anchor="middle" x="273" y="-735.5" font-family="sans" font-size="10.00">CheckGzipFiles</text>
</g>
<!-- 2 -->
<g id="node3" class="node"><title>2</title>
<path fill="none" stroke="#d87556" stroke-width="2" d="M301,-684C301,-684 245,-684 245,-684 239,-684 233,-678 233,-672 233,-672 233,-660 233,-660 233,-654 239,-648 245,-648 245,-648 301,-648 301,-648 307,-648 313,-654 313,-660 313,-660 313,-672 313,-672 313,-678 307,-684 301,-684"/>
<text text-anchor="middle" x="273" y="-663.5" font-family="sans" font-size="10.00">TrimAdapters</text>
</g>
<!-- 0&#45;&gt;2 -->
<g id="edge3" class="edge"><title>0&#45;&gt;2</title>
<path fill="none" stroke="grey" stroke-width="2" d="M273,-719.697C273,-711.983 273,-702.712 273,-694.112"/>
<polygon fill="grey" stroke="grey" points="276.5,-694.104 273,-684.104 269.5,-694.104 276.5,-694.104"/>
</g>
<!-- 15 -->
<g id="node16" class="node"><title>15</title>
<path fill="none" stroke="#5692d8" stroke-width="2" d="M287,-36C287,-36 255,-36 255,-36 249,-36 243,-30 243,-24 243,-24 243,-12 243,-12 243,-6 249,-0 255,-0 255,-0 287,-0 287,-0 293,-0 299,-6 299,-12 299,-12 299,-24 299,-24 299,-30 293,-36 287,-36"/>
<text text-anchor="middle" x="271" y="-15.5" font-family="sans" font-size="10.00">Cleanup</text>
</g>
<!-- 0&#45;&gt;15 -->
<g id="edge23" class="edge"><title>0&#45;&gt;15</title>
<path fill="none" stroke="grey" stroke-width="2" d="M229.742,-733.983C152.764,-726.013 0,-697.307 0,-595 0,-595 0,-595 0,-161 0,-57.1301 158.13,-29.0897 232.807,-21.6389"/>
<polygon fill="grey" stroke="grey" points="233.13,-25.1241 242.765,-20.7185 232.485,-18.1538 233.13,-25.1241"/>
</g>
<!-- 1 -->
<g id="node2" class="node"><title>1</title>
<path fill="none" stroke="#d89556" stroke-width="2" d="M261,-108C261,-108 125,-108 125,-108 119,-108 113,-102 113,-96 113,-96 113,-84 113,-84 113,-78 119,-72 125,-72 125,-72 261,-72 261,-72 267,-72 273,-78 273,-84 273,-84 273,-96 273,-96 273,-102 267,-108 261,-108"/>
<text text-anchor="middle" x="193" y="-87.5" font-family="sans" font-size="10.00">PicardCollectInsertSizeMetrics</text>
</g>
<!-- 1&#45;&gt;15 -->
<g id="edge21" class="edge"><title>1&#45;&gt;15</title>
<path fill="none" stroke="grey" stroke-width="2" d="M212.281,-71.6966C221.915,-63.0503 233.729,-52.4486 244.227,-43.027"/>
<polygon fill="grey" stroke="grey" points="246.836,-45.3883 251.941,-36.1043 242.161,-40.1786 246.836,-45.3883"/>
</g>
<!-- 11 -->
<g id="node12" class="node"><title>11</title>
<path fill="none" stroke="#56d8a2" stroke-width="2" d="M290.25,-612C290.25,-612 255.75,-612 255.75,-612 249.75,-612 243.75,-606 243.75,-600 243.75,-600 243.75,-588 243.75,-588 243.75,-582 249.75,-576 255.75,-576 255.75,-576 290.25,-576 290.25,-576 296.25,-576 302.25,-582 302.25,-588 302.25,-588 302.25,-600 302.25,-600 302.25,-606 296.25,-612 290.25,-612"/>
<text text-anchor="middle" x="273" y="-591.5" font-family="sans" font-size="10.00">BwaAlign</text>
</g>
<!-- 2&#45;&gt;11 -->
<g id="edge15" class="edge"><title>2&#45;&gt;11</title>
<path fill="none" stroke="grey" stroke-width="2" d="M273,-647.697C273,-639.983 273,-630.712 273,-622.112"/>
<polygon fill="grey" stroke="grey" points="276.5,-622.104 273,-612.104 269.5,-622.104 276.5,-622.104"/>
</g>
<!-- 3 -->
<g id="node4" class="node"><title>3</title>
<path fill="none" stroke="#d8b456" stroke-width="2" d="M576.25,-108C576.25,-108 475.75,-108 475.75,-108 469.75,-108 463.75,-102 463.75,-96 463.75,-96 463.75,-84 463.75,-84 463.75,-78 469.75,-72 475.75,-72 475.75,-72 576.25,-72 576.25,-72 582.25,-72 588.25,-78 588.25,-84 588.25,-84 588.25,-96 588.25,-96 588.25,-102 582.25,-108 576.25,-108"/>
<text text-anchor="middle" x="526" y="-87.5" font-family="sans" font-size="10.00">PicardCollectHsMetrics</text>
</g>
<!-- 3&#45;&gt;15 -->
<g id="edge20" class="edge"><title>3&#45;&gt;15</title>
<path fill="none" stroke="grey" stroke-width="2" d="M463.946,-71.9656C415.564,-58.6841 349.931,-40.6673 309.041,-29.4427"/>
<polygon fill="grey" stroke="grey" points="309.774,-26.0145 299.204,-26.7424 307.921,-32.7648 309.774,-26.0145"/>
</g>
<!-- 4 -->
<g id="node5" class="node"><title>4</title>
<path fill="none" stroke="#9fd856" stroke-width="2" d="M370,-252C370,-252 296,-252 296,-252 290,-252 284,-246 284,-240 284,-240 284,-228 284,-228 284,-222 290,-216 296,-216 296,-216 370,-216 370,-216 376,-216 382,-222 382,-228 382,-228 382,-240 382,-240 382,-246 376,-252 370,-252"/>
<text text-anchor="middle" x="333" y="-231.5" font-family="sans" font-size="10.00">RecalibrateBases</text>
</g>
<!-- 13 -->
<g id="node14" class="node"><title>13</title>
<path fill="none" stroke="#56d0d8" stroke-width="2" d="M408.25,-180C408.25,-180 313.75,-180 313.75,-180 307.75,-180 301.75,-174 301.75,-168 301.75,-168 301.75,-156 301.75,-156 301.75,-150 307.75,-144 313.75,-144 313.75,-144 408.25,-144 408.25,-144 414.25,-144 420.25,-150 420.25,-156 420.25,-156 420.25,-168 420.25,-168 420.25,-174 414.25,-180 408.25,-180"/>
<text text-anchor="middle" x="361" y="-159.5" font-family="sans" font-size="10.00">PrintRecalibratedBam</text>
</g>
<!-- 4&#45;&gt;13 -->
<g id="edge17" class="edge"><title>4&#45;&gt;13</title>
<path fill="none" stroke="grey" stroke-width="2" d="M339.921,-215.697C343.075,-207.813 346.878,-198.304 350.381,-189.546"/>
<polygon fill="grey" stroke="grey" points="353.694,-190.689 354.158,-180.104 347.195,-188.089 353.694,-190.689"/>
</g>
<!-- 5 -->
<g id="node6" class="node"><title>5</title>
<path fill="none" stroke="#bed856" stroke-width="2" d="M314.25,-540C314.25,-540 231.75,-540 231.75,-540 225.75,-540 219.75,-534 219.75,-528 219.75,-528 219.75,-516 219.75,-516 219.75,-510 225.75,-504 231.75,-504 231.75,-504 314.25,-504 314.25,-504 320.25,-504 326.25,-510 326.25,-516 326.25,-516 326.25,-528 326.25,-528 326.25,-534 320.25,-540 314.25,-540"/>
<text text-anchor="middle" x="273" y="-519.5" font-family="sans" font-size="10.00">FixMateInformation</text>
</g>
<!-- 6 -->
<g id="node7" class="node"><title>6</title>
<path fill="none" stroke="#88d856" stroke-width="2" d="M225.25,-396C225.25,-396 40.75,-396 40.75,-396 34.75,-396 28.75,-390 28.75,-384 28.75,-384 28.75,-372 28.75,-372 28.75,-366 34.75,-360 40.75,-360 40.75,-360 225.25,-360 225.25,-360 231.25,-360 237.25,-366 237.25,-372 237.25,-372 237.25,-384 237.25,-384 237.25,-390 231.25,-396 225.25,-396"/>
<text text-anchor="middle" x="133" y="-375.5" font-family="sans" font-size="10.00">PicardCollectAlignmentSummaryMetrics</text>
</g>
<!-- 5&#45;&gt;6 -->
<g id="edge9" class="edge"><title>5&#45;&gt;6</title>
<path fill="none" stroke="grey" stroke-width="2" d="M256.113,-503.871C231.411,-478.817 185.305,-432.052 157.062,-403.406"/>
<polygon fill="grey" stroke="grey" points="159.46,-400.853 149.947,-396.189 154.476,-405.768 159.46,-400.853"/>
</g>
<!-- 12 -->
<g id="node13" class="node"><title>12</title>
<path fill="none" stroke="#56d8c1" stroke-width="2" d="M386.25,-468C386.25,-468 305.75,-468 305.75,-468 299.75,-468 293.75,-462 293.75,-456 293.75,-456 293.75,-444 293.75,-444 293.75,-438 299.75,-432 305.75,-432 305.75,-432 386.25,-432 386.25,-432 392.25,-432 398.25,-438 398.25,-444 398.25,-444 398.25,-456 398.25,-456 398.25,-462 392.25,-468 386.25,-468"/>
<text text-anchor="middle" x="346" y="-447.5" font-family="sans" font-size="10.00">RemoveDuplicates</text>
</g>
<!-- 5&#45;&gt;12 -->
<g id="edge16" class="edge"><title>5&#45;&gt;12</title>
<path fill="none" stroke="grey" stroke-width="2" d="M291.045,-503.697C300.062,-495.05 311.118,-484.449 320.943,-475.027"/>
<polygon fill="grey" stroke="grey" points="323.367,-477.552 328.163,-468.104 318.522,-472.499 323.367,-477.552"/>
</g>
<!-- 6&#45;&gt;15 -->
<g id="edge24" class="edge"><title>6&#45;&gt;15</title>
<path fill="none" stroke="grey" stroke-width="2" d="M123.054,-359.706C108.995,-333.584 85,-282.102 85,-235 85,-235 85,-235 85,-161 85,-120.553 76.8197,-101.953 104,-72 136.884,-35.761 194.388,-24.1383 232.583,-20.5043"/>
<polygon fill="grey" stroke="grey" points="233.122,-23.9723 242.807,-19.6774 232.557,-16.9951 233.122,-23.9723"/>
</g>
<!-- 7 -->
<g id="node8" class="node"><title>7</title>
<path fill="none" stroke="#68d856" stroke-width="2" d="M544,-684C544,-684 460,-684 460,-684 454,-684 448,-678 448,-672 448,-672 448,-660 448,-660 448,-654 454,-648 460,-648 460,-648 544,-648 544,-648 550,-648 556,-654 556,-660 556,-660 556,-672 556,-672 556,-678 550,-684 544,-684"/>
<text text-anchor="middle" x="502" y="-663.5" font-family="sans" font-size="10.00">PicardIntervalForRC</text>
</g>
<!-- 7&#45;&gt;3 -->
<g id="edge6" class="edge"><title>7&#45;&gt;3</title>
<path fill="none" stroke="grey" stroke-width="2" d="M502,-647.951C502,-621.292 502,-568.115 502,-523 502,-523 502,-523 502,-233 502,-192.65 511.538,-146.742 518.588,-118.319"/>
<polygon fill="grey" stroke="grey" points="522.056,-118.885 521.143,-108.329 515.274,-117.15 522.056,-118.885"/>
</g>
<!-- 8 -->
<g id="node9" class="node"><title>8</title>
<path fill="none" stroke="#56d863" stroke-width="2" d="M424,-396C424,-396 268,-396 268,-396 262,-396 256,-390 256,-384 256,-384 256,-372 256,-372 256,-366 262,-360 268,-360 268,-360 424,-360 424,-360 430,-360 436,-366 436,-372 436,-372 436,-384 436,-384 436,-390 430,-396 424,-396"/>
<text text-anchor="middle" x="346" y="-375.5" font-family="sans" font-size="10.00">CreateTargetsForIndelRealignment</text>
</g>
<!-- 10 -->
<g id="node11" class="node"><title>10</title>
<path fill="none" stroke="#d85656" stroke-width="2" d="M405,-324C405,-324 351,-324 351,-324 345,-324 339,-318 339,-312 339,-312 339,-300 339,-300 339,-294 345,-288 351,-288 351,-288 405,-288 405,-288 411,-288 417,-294 417,-300 417,-300 417,-312 417,-312 417,-318 411,-324 405,-324"/>
<text text-anchor="middle" x="378" y="-303.5" font-family="sans" font-size="10.00">RealignIndels</text>
</g>
<!-- 8&#45;&gt;10 -->
<g id="edge13" class="edge"><title>8&#45;&gt;10</title>
<path fill="none" stroke="grey" stroke-width="2" d="M353.91,-359.697C357.553,-351.728 361.954,-342.1 365.994,-333.264"/>
<polygon fill="grey" stroke="grey" points="369.206,-334.654 370.181,-324.104 362.84,-331.744 369.206,-334.654"/>
</g>
<!-- 9 -->
<g id="node10" class="node"><title>9</title>
<path fill="none" stroke="#56d882" stroke-width="2" d="M394.25,-108C394.25,-108 303.75,-108 303.75,-108 297.75,-108 291.75,-102 291.75,-96 291.75,-96 291.75,-84 291.75,-84 291.75,-78 297.75,-72 303.75,-72 303.75,-72 394.25,-72 394.25,-72 400.25,-72 406.25,-78 406.25,-84 406.25,-84 406.25,-96 406.25,-96 406.25,-102 400.25,-108 394.25,-108"/>
<text text-anchor="middle" x="349" y="-87.5" font-family="sans" font-size="10.00">GatkHaplotypeCaller</text>
</g>
<!-- 9&#45;&gt;15 -->
<g id="edge25" class="edge"><title>9&#45;&gt;15</title>
<path fill="none" stroke="grey" stroke-width="2" d="M329.719,-71.6966C320.085,-63.0503 308.271,-52.4486 297.773,-43.027"/>
<polygon fill="grey" stroke="grey" points="299.839,-40.1786 290.059,-36.1043 295.164,-45.3883 299.839,-40.1786"/>
</g>
<!-- 10&#45;&gt;4 -->
<g id="edge7" class="edge"><title>10&#45;&gt;4</title>
<path fill="none" stroke="grey" stroke-width="2" d="M366.876,-287.697C361.645,-279.559 355.3,-269.689 349.522,-260.701"/>
<polygon fill="grey" stroke="grey" points="352.347,-258.623 343.996,-252.104 346.459,-262.409 352.347,-258.623"/>
</g>
<!-- 10&#45;&gt;13 -->
<g id="edge18" class="edge"><title>10&#45;&gt;13</title>
<path fill="none" stroke="grey" stroke-width="2" d="M384.577,-287.708C390.526,-269.605 397.443,-240.463 391,-216 388.508,-206.539 383.898,-196.993 379.027,-188.66"/>
<polygon fill="grey" stroke="grey" points="381.986,-186.79 373.727,-180.155 376.045,-190.493 381.986,-186.79"/>
</g>
<!-- 11&#45;&gt;5 -->
<g id="edge8" class="edge"><title>11&#45;&gt;5</title>
<path fill="none" stroke="grey" stroke-width="2" d="M273,-575.697C273,-567.983 273,-558.712 273,-550.112"/>
<polygon fill="grey" stroke="grey" points="276.5,-550.104 273,-540.104 269.5,-550.104 276.5,-550.104"/>
</g>
<!-- 12&#45;&gt;8 -->
<g id="edge11" class="edge"><title>12&#45;&gt;8</title>
<path fill="none" stroke="grey" stroke-width="2" d="M346,-431.697C346,-423.983 346,-414.712 346,-406.112"/>
<polygon fill="grey" stroke="grey" points="349.5,-406.104 346,-396.104 342.5,-406.104 349.5,-406.104"/>
</g>
<!-- 12&#45;&gt;10 -->
<g id="edge14" class="edge"><title>12&#45;&gt;10</title>
<path fill="none" stroke="grey" stroke-width="2" d="M398.501,-433.413C416.466,-425.287 434.632,-413.311 445,-396 453.221,-382.274 451.971,-374.402 445,-360 439.239,-348.097 429.363,-338.056 418.938,-330.024"/>
<polygon fill="grey" stroke="grey" points="420.699,-326.98 410.527,-324.016 416.63,-332.676 420.699,-326.98"/>
</g>
<!-- 13&#45;&gt;1 -->
<g id="edge2" class="edge"><title>13&#45;&gt;1</title>
<path fill="none" stroke="grey" stroke-width="2" d="M319.903,-143.876C296.834,-134.264 267.864,-122.193 243.43,-112.013"/>
<polygon fill="grey" stroke="grey" points="244.541,-108.684 233.964,-108.068 241.849,-115.145 244.541,-108.684"/>
</g>
<!-- 13&#45;&gt;3 -->
<g id="edge4" class="edge"><title>13&#45;&gt;3</title>
<path fill="none" stroke="grey" stroke-width="2" d="M401.364,-143.876C424.02,-134.264 452.473,-122.193 476.47,-112.013"/>
<polygon fill="grey" stroke="grey" points="477.929,-115.196 485.768,-108.068 475.195,-108.752 477.929,-115.196"/>
</g>
<!-- 13&#45;&gt;9 -->
<g id="edge12" class="edge"><title>13&#45;&gt;9</title>
<path fill="none" stroke="grey" stroke-width="2" d="M358.034,-143.697C356.711,-135.983 355.122,-126.712 353.648,-118.112"/>
<polygon fill="grey" stroke="grey" points="357.072,-117.369 351.932,-108.104 350.172,-118.552 357.072,-117.369"/>
</g>
<!-- 13&#45;&gt;15 -->
<g id="edge22" class="edge"><title>13&#45;&gt;15</title>
<path fill="none" stroke="grey" stroke-width="2" d="M383.874,-143.863C405.353,-125.637 431.854,-96.1619 415,-72 391.313,-38.0414 343.31,-25.7811 309.248,-21.3892"/>
<polygon fill="grey" stroke="grey" points="309.493,-17.895 299.167,-20.2635 308.717,-24.8517 309.493,-17.895"/>
</g>
<!-- 14 -->
<g id="node15" class="node"><title>14</title>
<path fill="none" stroke="#56b1d8" stroke-width="2" d="M657.25,-612C657.25,-612 542.75,-612 542.75,-612 536.75,-612 530.75,-606 530.75,-600 530.75,-600 530.75,-588 530.75,-588 530.75,-582 536.75,-576 542.75,-576 542.75,-576 657.25,-576 657.25,-576 663.25,-576 669.25,-582 669.25,-588 669.25,-588 669.25,-600 669.25,-600 669.25,-606 663.25,-612 657.25,-612"/>
<text text-anchor="middle" x="600" y="-591.5" font-family="sans" font-size="10.00">PicardIntervalForOnTarget</text>
</g>
<!-- 14&#45;&gt;3 -->
<g id="edge5" class="edge"><title>14&#45;&gt;3</title>
<path fill="none" stroke="grey" stroke-width="2" d="M593.929,-575.76C585.163,-549.283 570,-496.858 570,-451 570,-451 570,-451 570,-233 570,-191.212 552.4,-145.482 539.462,-117.511"/>
<polygon fill="grey" stroke="grey" points="542.579,-115.915 535.117,-108.394 536.26,-118.927 542.579,-115.915"/>
</g>
<!-- 16 -->
<g id="node17" class="node"><title>16</title>
<path fill="none" stroke="#5673d8" stroke-width="2" d="M537.25,-828C537.25,-828 466.75,-828 466.75,-828 460.75,-828 454.75,-822 454.75,-816 454.75,-816 454.75,-804 454.75,-804 454.75,-798 460.75,-792 466.75,-792 466.75,-792 537.25,-792 537.25,-792 543.25,-792 549.25,-798 549.25,-804 549.25,-804 549.25,-816 549.25,-816 549.25,-822 543.25,-828 537.25,-828"/>
<text text-anchor="middle" x="502" y="-807.5" font-family="sans" font-size="10.00">CheckResources</text>
</g>
<!-- 16&#45;&gt;0 -->
<g id="edge1" class="edge"><title>16&#45;&gt;0</title>
<path fill="none" stroke="grey" stroke-width="2" d="M454.551,-794.496C417.112,-783.052 364.905,-767.093 326.08,-755.225"/>
<polygon fill="grey" stroke="grey" points="327.101,-751.878 316.515,-752.302 325.055,-758.572 327.101,-751.878"/>
</g>
<!-- 16&#45;&gt;7 -->
<g id="edge10" class="edge"><title>16&#45;&gt;7</title>
<path fill="none" stroke="grey" stroke-width="2" d="M502,-791.871C502,-767.67 502,-723.211 502,-694.393"/>
<polygon fill="grey" stroke="grey" points="505.5,-694.189 502,-684.189 498.5,-694.189 505.5,-694.189"/>
</g>
<!-- 16&#45;&gt;14 -->
<g id="edge19" class="edge"><title>16&#45;&gt;14</title>
<path fill="none" stroke="grey" stroke-width="2" d="M511.276,-791.852C524.04,-767.988 547.431,-723.262 565,-684 574.227,-663.381 583.532,-639.54 590.226,-621.726"/>
<polygon fill="grey" stroke="grey" points="593.543,-622.849 593.752,-612.256 586.983,-620.406 593.543,-622.849"/>
</g>
</g>
</svg>
