<?xml version="1.0" encoding="UTF-8" standalone="no"?>
<!DOCTYPE svg PUBLIC "-//W3C//DTD SVG 1.1//EN"
 "http://www.w3.org/Graphics/SVG/1.1/DTD/svg11.dtd">
<!-- Generated by graphviz version 2.30.1 (20150306.0020)
 -->
<!-- Title: snakemake_dag Pages: 1 -->
<svg width="577pt" height="1052pt"
 viewBox="0.00 0.00 577.00 1052.00" xmlns="http://www.w3.org/2000/svg" xmlns:xlink="http://www.w3.org/1999/xlink">
<g id="graph0" class="graph" transform="scale(1 1) rotate(0) translate(4 1048)">
<title>snakemake_dag</title>
<polygon fill="white" stroke="white" points="-4,5 -4,-1048 574,-1048 574,5 -4,5"/>
<!-- 0 -->
<g id="node1" class="node"><title>0</title>
<path fill="none" stroke="#d8a456" stroke-width="2" d="M263.25,-612C263.25,-612 78.75,-612 78.75,-612 72.75,-612 66.75,-606 66.75,-600 66.75,-600 66.75,-588 66.75,-588 66.75,-582 72.75,-576 78.75,-576 78.75,-576 263.25,-576 263.25,-576 269.25,-576 275.25,-582 275.25,-588 275.25,-588 275.25,-600 275.25,-600 275.25,-606 269.25,-612 263.25,-612"/>
<text text-anchor="middle" x="171" y="-591.5" font-family="sans" font-size="10.00">PicardCollectAlignmentSummaryMetrics</text>
</g>
<!-- 3 -->
<g id="node4" class="node"><title>3</title>
<path fill="none" stroke="#56d8c9" stroke-width="2" d="M186,-36C186,-36 154,-36 154,-36 148,-36 142,-30 142,-24 142,-24 142,-12 142,-12 142,-6 148,-0 154,-0 154,-0 186,-0 186,-0 192,-0 198,-6 198,-12 198,-12 198,-24 198,-24 198,-30 192,-36 186,-36"/>
<text text-anchor="middle" x="170" y="-15.5" font-family="sans" font-size="10.00">Cleanup</text>
</g>
<!-- 0&#45;&gt;3 -->
<g id="edge5" class="edge"><title>0&#45;&gt;3</title>
<path fill="none" stroke="grey" stroke-width="2" d="M149.67,-575.728C121.936,-551.179 77,-503.33 77,-451 77,-451 77,-451 77,-161 77,-113.322 114.145,-69.1915 141.485,-43.1679"/>
<polygon fill="grey" stroke="grey" points="143.927,-45.6769 148.897,-36.3201 139.177,-40.5352 143.927,-45.6769"/>
</g>
<!-- 1 -->
<g id="node2" class="node"><title>1</title>
<path fill="none" stroke="#97d856" stroke-width="2" d="M422,-540C422,-540 266,-540 266,-540 260,-540 254,-534 254,-528 254,-528 254,-516 254,-516 254,-510 260,-504 266,-504 266,-504 422,-504 422,-504 428,-504 434,-510 434,-516 434,-516 434,-528 434,-528 434,-534 428,-540 422,-540"/>
<text text-anchor="middle" x="344" y="-519.5" font-family="sans" font-size="10.00">CreateTargetsForIndelRealignment</text>
</g>
<!-- 7 -->
<g id="node8" class="node"><title>7</title>
<path fill="none" stroke="#d8bc56" stroke-width="2" d="M328,-468C328,-468 274,-468 274,-468 268,-468 262,-462 262,-456 262,-456 262,-444 262,-444 262,-438 268,-432 274,-432 274,-432 328,-432 328,-432 334,-432 340,-438 340,-444 340,-444 340,-456 340,-456 340,-462 334,-468 328,-468"/>
<text text-anchor="middle" x="301" y="-447.5" font-family="sans" font-size="10.00">RealignIndels</text>
</g>
<!-- 1&#45;&gt;7 -->
<g id="edge13" class="edge"><title>1&#45;&gt;7</title>
<path fill="none" stroke="grey" stroke-width="2" d="M333.371,-503.697C328.372,-495.559 322.309,-485.689 316.788,-476.701"/>
<polygon fill="grey" stroke="grey" points="319.723,-474.793 311.507,-468.104 313.759,-478.457 319.723,-474.793"/>
</g>
<!-- 2 -->
<g id="node3" class="node"><title>2</title>
<path fill="none" stroke="#d88556" stroke-width="2" d="M175,-900C175,-900 119,-900 119,-900 113,-900 107,-894 107,-888 107,-888 107,-876 107,-876 107,-870 113,-864 119,-864 119,-864 175,-864 175,-864 181,-864 187,-870 187,-876 187,-876 187,-888 187,-888 187,-894 181,-900 175,-900"/>
<text text-anchor="middle" x="147" y="-879.5" font-family="sans" font-size="10.00">TrimAdapters</text>
</g>
<!-- 17 -->
<g id="node18" class="node"><title>17</title>
<path fill="none" stroke="#d86e56" stroke-width="2" d="M183.25,-828C183.25,-828 148.75,-828 148.75,-828 142.75,-828 136.75,-822 136.75,-816 136.75,-816 136.75,-804 136.75,-804 136.75,-798 142.75,-792 148.75,-792 148.75,-792 183.25,-792 183.25,-792 189.25,-792 195.25,-798 195.25,-804 195.25,-804 195.25,-816 195.25,-816 195.25,-822 189.25,-828 183.25,-828"/>
<text text-anchor="middle" x="166" y="-807.5" font-family="sans" font-size="10.00">BwaAlign</text>
</g>
<!-- 2&#45;&gt;17 -->
<g id="edge26" class="edge"><title>2&#45;&gt;17</title>
<path fill="none" stroke="grey" stroke-width="2" d="M151.697,-863.697C153.813,-855.898 156.362,-846.509 158.718,-837.829"/>
<polygon fill="grey" stroke="grey" points="162.116,-838.672 161.357,-828.104 155.36,-836.838 162.116,-838.672"/>
</g>
<!-- 4 -->
<g id="node5" class="node"><title>4</title>
<path fill="none" stroke="#d85656" stroke-width="2" d="M437.25,-1044C437.25,-1044 366.75,-1044 366.75,-1044 360.75,-1044 354.75,-1038 354.75,-1032 354.75,-1032 354.75,-1020 354.75,-1020 354.75,-1014 360.75,-1008 366.75,-1008 366.75,-1008 437.25,-1008 437.25,-1008 443.25,-1008 449.25,-1014 449.25,-1020 449.25,-1020 449.25,-1032 449.25,-1032 449.25,-1038 443.25,-1044 437.25,-1044"/>
<text text-anchor="middle" x="402" y="-1023.5" font-family="sans" font-size="10.00">CheckResources</text>
</g>
<!-- 11 -->
<g id="node12" class="node"><title>11</title>
<path fill="none" stroke="#56d892" stroke-width="2" d="M139.25,-972C139.25,-972 76.75,-972 76.75,-972 70.75,-972 64.75,-966 64.75,-960 64.75,-960 64.75,-948 64.75,-948 64.75,-942 70.75,-936 76.75,-936 76.75,-936 139.25,-936 139.25,-936 145.25,-936 151.25,-942 151.25,-948 151.25,-948 151.25,-960 151.25,-960 151.25,-966 145.25,-972 139.25,-972"/>
<text text-anchor="middle" x="108" y="-951.5" font-family="sans" font-size="10.00">CheckGzipFiles</text>
</g>
<!-- 4&#45;&gt;11 -->
<g id="edge20" class="edge"><title>4&#45;&gt;11</title>
<path fill="none" stroke="grey" stroke-width="2" d="M354.437,-1013.68C301.654,-1001.11 216.672,-980.874 161.58,-967.757"/>
<polygon fill="grey" stroke="grey" points="162.195,-964.306 151.656,-965.394 160.573,-971.115 162.195,-964.306"/>
</g>
<!-- 12 -->
<g id="node13" class="node"><title>12</title>
<path fill="none" stroke="#d8d356" stroke-width="2" d="M452,-828C452,-828 368,-828 368,-828 362,-828 356,-822 356,-816 356,-816 356,-804 356,-804 356,-798 362,-792 368,-792 368,-792 452,-792 452,-792 458,-792 464,-798 464,-804 464,-804 464,-816 464,-816 464,-822 458,-828 452,-828"/>
<text text-anchor="middle" x="410" y="-807.5" font-family="sans" font-size="10.00">PicardIntervalForRC</text>
</g>
<!-- 4&#45;&gt;12 -->
<g id="edge21" class="edge"><title>4&#45;&gt;12</title>
<path fill="none" stroke="grey" stroke-width="2" d="M402.641,-1007.85C404.025,-970.832 407.302,-883.181 408.976,-838.386"/>
<polygon fill="grey" stroke="grey" points="412.48,-838.356 409.356,-828.232 405.485,-838.095 412.48,-838.356"/>
</g>
<!-- 16 -->
<g id="node17" class="node"><title>16</title>
<path fill="none" stroke="#c6d856" stroke-width="2" d="M557.25,-900C557.25,-900 442.75,-900 442.75,-900 436.75,-900 430.75,-894 430.75,-888 430.75,-888 430.75,-876 430.75,-876 430.75,-870 436.75,-864 442.75,-864 442.75,-864 557.25,-864 557.25,-864 563.25,-864 569.25,-870 569.25,-876 569.25,-876 569.25,-888 569.25,-888 569.25,-894 563.25,-900 557.25,-900"/>
<text text-anchor="middle" x="500" y="-879.5" font-family="sans" font-size="10.00">PicardIntervalForOnTarget</text>
</g>
<!-- 4&#45;&gt;16 -->
<g id="edge25" class="edge"><title>4&#45;&gt;16</title>
<path fill="none" stroke="grey" stroke-width="2" d="M413.821,-1007.87C430.891,-983.137 462.565,-937.242 482.393,-908.512"/>
<polygon fill="grey" stroke="grey" points="485.338,-910.408 488.137,-900.189 479.576,-906.432 485.338,-910.408"/>
</g>
<!-- 5 -->
<g id="node6" class="node"><title>5</title>
<path fill="none" stroke="#afd856" stroke-width="2" d="M422,-180C422,-180 286,-180 286,-180 280,-180 274,-174 274,-168 274,-168 274,-156 274,-156 274,-150 280,-144 286,-144 286,-144 422,-144 422,-144 428,-144 434,-150 434,-156 434,-156 434,-168 434,-168 434,-174 428,-180 422,-180"/>
<text text-anchor="middle" x="354" y="-159.5" font-family="sans" font-size="10.00">PicardCollectInsertSizeMetrics</text>
</g>
<!-- 5&#45;&gt;3 -->
<g id="edge6" class="edge"><title>5&#45;&gt;3</title>
<path fill="none" stroke="grey" stroke-width="2" d="M338.043,-143.71C320.114,-124.825 289.629,-94.2978 260,-72 243.497,-59.5801 223.862,-47.7197 207.149,-38.3799"/>
<polygon fill="grey" stroke="grey" points="208.653,-35.2126 198.203,-33.4629 205.281,-41.347 208.653,-35.2126"/>
</g>
<!-- 6 -->
<g id="node7" class="node"><title>6</title>
<path fill="none" stroke="#61d856" stroke-width="2" d="M193.25,-180C193.25,-180 146.75,-180 146.75,-180 140.75,-180 134.75,-174 134.75,-168 134.75,-168 134.75,-156 134.75,-156 134.75,-150 140.75,-144 146.75,-144 146.75,-144 193.25,-144 193.25,-144 199.25,-144 205.25,-150 205.25,-156 205.25,-156 205.25,-168 205.25,-168 205.25,-174 199.25,-180 193.25,-180"/>
<text text-anchor="middle" x="170" y="-159.5" font-family="sans" font-size="10.00">Sam2USeq</text>
</g>
<!-- 9 -->
<g id="node10" class="node"><title>9</title>
<path fill="none" stroke="#56d87b" stroke-width="2" d="M204,-108C204,-108 136,-108 136,-108 130,-108 124,-102 124,-96 124,-96 124,-84 124,-84 124,-78 130,-72 136,-72 136,-72 204,-72 204,-72 210,-72 216,-78 216,-84 216,-84 216,-96 216,-96 216,-102 210,-108 204,-108"/>
<text text-anchor="middle" x="170" y="-87.5" font-family="sans" font-size="10.00">USeq2UCSCBig</text>
</g>
<!-- 6&#45;&gt;9 -->
<g id="edge16" class="edge"><title>6&#45;&gt;9</title>
<path fill="none" stroke="grey" stroke-width="2" d="M170,-143.697C170,-135.983 170,-126.712 170,-118.112"/>
<polygon fill="grey" stroke="grey" points="173.5,-118.104 170,-108.104 166.5,-118.104 173.5,-118.104"/>
</g>
<!-- 8 -->
<g id="node9" class="node"><title>8</title>
<path fill="none" stroke="#78d856" stroke-width="2" d="M343,-396C343,-396 269,-396 269,-396 263,-396 257,-390 257,-384 257,-384 257,-372 257,-372 257,-366 263,-360 269,-360 269,-360 343,-360 343,-360 349,-360 355,-366 355,-372 355,-372 355,-384 355,-384 355,-390 349,-396 343,-396"/>
<text text-anchor="middle" x="306" y="-375.5" font-family="sans" font-size="10.00">RecalibrateBases</text>
</g>
<!-- 7&#45;&gt;8 -->
<g id="edge15" class="edge"><title>7&#45;&gt;8</title>
<path fill="none" stroke="grey" stroke-width="2" d="M302.236,-431.697C302.787,-423.983 303.449,-414.712 304.063,-406.112"/>
<polygon fill="grey" stroke="grey" points="307.557,-406.328 304.778,-396.104 300.575,-405.83 307.557,-406.328"/>
</g>
<!-- 18 -->
<g id="node19" class="node"><title>18</title>
<path fill="none" stroke="#56a2d8" stroke-width="2" d="M332.25,-324C332.25,-324 237.75,-324 237.75,-324 231.75,-324 225.75,-318 225.75,-312 225.75,-312 225.75,-300 225.75,-300 225.75,-294 231.75,-288 237.75,-288 237.75,-288 332.25,-288 332.25,-288 338.25,-288 344.25,-294 344.25,-300 344.25,-300 344.25,-312 344.25,-312 344.25,-318 338.25,-324 332.25,-324"/>
<text text-anchor="middle" x="285" y="-303.5" font-family="sans" font-size="10.00">PrintRecalibratedBam</text>
</g>
<!-- 7&#45;&gt;18 -->
<g id="edge28" class="edge"><title>7&#45;&gt;18</title>
<path fill="none" stroke="grey" stroke-width="2" d="M276.523,-431.768C265.596,-422.555 253.876,-410.186 248,-396 241.877,-381.218 243.199,-375.263 248,-360 251.099,-350.148 256.751,-340.53 262.721,-332.251"/>
<polygon fill="grey" stroke="grey" points="265.629,-334.211 268.963,-324.154 260.086,-329.937 265.629,-334.211"/>
</g>
<!-- 8&#45;&gt;18 -->
<g id="edge27" class="edge"><title>8&#45;&gt;18</title>
<path fill="none" stroke="grey" stroke-width="2" d="M300.809,-359.697C298.469,-351.898 295.653,-342.509 293.049,-333.829"/>
<polygon fill="grey" stroke="grey" points="296.357,-332.677 290.131,-324.104 289.652,-334.688 296.357,-332.677"/>
</g>
<!-- 9&#45;&gt;3 -->
<g id="edge9" class="edge"><title>9&#45;&gt;3</title>
<path fill="none" stroke="grey" stroke-width="2" d="M170,-71.6966C170,-63.9827 170,-54.7125 170,-46.1124"/>
<polygon fill="grey" stroke="grey" points="173.5,-46.1043 170,-36.1043 166.5,-46.1044 173.5,-46.1043"/>
</g>
<!-- 10 -->
<g id="node11" class="node"><title>10</title>
<path fill="none" stroke="#56d863" stroke-width="2" d="M512.25,-252C512.25,-252 411.75,-252 411.75,-252 405.75,-252 399.75,-246 399.75,-240 399.75,-240 399.75,-228 399.75,-228 399.75,-222 405.75,-216 411.75,-216 411.75,-216 512.25,-216 512.25,-216 518.25,-216 524.25,-222 524.25,-228 524.25,-228 524.25,-240 524.25,-240 524.25,-246 518.25,-252 512.25,-252"/>
<text text-anchor="middle" x="462" y="-231.5" font-family="sans" font-size="10.00">PicardCollectHsMetrics</text>
</g>
<!-- 10&#45;&gt;3 -->
<g id="edge10" class="edge"><title>10&#45;&gt;3</title>
<path fill="none" stroke="grey" stroke-width="2" d="M462.605,-215.742C462.394,-196.32 459.264,-164.776 443,-144 383.74,-68.2985 268.177,-36.7952 208.19,-25.097"/>
<polygon fill="grey" stroke="grey" points="208.482,-21.5912 198.01,-23.1988 207.199,-28.4726 208.482,-21.5912"/>
</g>
<!-- 11&#45;&gt;2 -->
<g id="edge3" class="edge"><title>11&#45;&gt;2</title>
<path fill="none" stroke="grey" stroke-width="2" d="M117.64,-935.697C122.127,-927.644 127.559,-917.894 132.524,-908.982"/>
<polygon fill="grey" stroke="grey" points="135.661,-910.544 137.47,-900.104 129.546,-907.137 135.661,-910.544"/>
</g>
<!-- 11&#45;&gt;3 -->
<g id="edge4" class="edge"><title>11&#45;&gt;3</title>
<path fill="none" stroke="grey" stroke-width="2" d="M82.6788,-935.832C50.7572,-911.922 0,-865.357 0,-811 0,-811 0,-811 0,-161 0,-114.733 19.4307,-102.751 54,-72 76.3917,-52.0818 107.532,-38.41 131.911,-29.9475"/>
<polygon fill="grey" stroke="grey" points="133.174,-33.2161 141.562,-26.7436 130.969,-26.5727 133.174,-33.2161"/>
</g>
<!-- 19 -->
<g id="node20" class="node"><title>19</title>
<path fill="none" stroke="#568ad8" stroke-width="2" d="M87.25,-756C87.25,-756 40.75,-756 40.75,-756 34.75,-756 28.75,-750 28.75,-744 28.75,-744 28.75,-732 28.75,-732 28.75,-726 34.75,-720 40.75,-720 40.75,-720 87.25,-720 87.25,-720 93.25,-720 99.25,-726 99.25,-732 99.25,-732 99.25,-744 99.25,-744 99.25,-750 93.25,-756 87.25,-756"/>
<text text-anchor="middle" x="64" y="-735.5" font-family="sans" font-size="10.00">FastqCount</text>
</g>
<!-- 11&#45;&gt;19 -->
<g id="edge29" class="edge"><title>11&#45;&gt;19</title>
<path fill="none" stroke="grey" stroke-width="2" d="M104.474,-935.849C96.8465,-898.753 78.7647,-810.81 69.5725,-766.103"/>
<polygon fill="grey" stroke="grey" points="72.9854,-765.323 67.5431,-756.232 66.1289,-766.732 72.9854,-765.323"/>
</g>
<!-- 12&#45;&gt;10 -->
<g id="edge17" class="edge"><title>12&#45;&gt;10</title>
<path fill="none" stroke="grey" stroke-width="2" d="M420.774,-791.813C436.006,-765.828 462,-714.519 462,-667 462,-667 462,-667 462,-377 462,-336.996 462,-290.653 462,-262.08"/>
<polygon fill="grey" stroke="grey" points="465.5,-262.049 462,-252.049 458.5,-262.049 465.5,-262.049"/>
</g>
<!-- 13 -->
<g id="node14" class="node"><title>13</title>
<path fill="none" stroke="#56d8a9" stroke-width="2" d="M223,-252C223,-252 117,-252 117,-252 111,-252 105,-246 105,-240 105,-240 105,-228 105,-228 105,-222 111,-216 117,-216 117,-216 223,-216 223,-216 229,-216 235,-222 235,-228 235,-228 235,-240 235,-240 235,-246 229,-252 223,-252"/>
<text text-anchor="middle" x="170" y="-231.5" font-family="sans" font-size="10.00">MergePairedAlignments</text>
</g>
<!-- 13&#45;&gt;6 -->
<g id="edge12" class="edge"><title>13&#45;&gt;6</title>
<path fill="none" stroke="grey" stroke-width="2" d="M170,-215.697C170,-207.983 170,-198.712 170,-190.112"/>
<polygon fill="grey" stroke="grey" points="173.5,-190.104 170,-180.104 166.5,-190.104 173.5,-190.104"/>
</g>
<!-- 14 -->
<g id="node15" class="node"><title>14</title>
<path fill="none" stroke="#56b9d8" stroke-width="2" d="M359.25,-684C359.25,-684 252.75,-684 252.75,-684 246.75,-684 240.75,-678 240.75,-672 240.75,-672 240.75,-660 240.75,-660 240.75,-654 246.75,-648 252.75,-648 252.75,-648 359.25,-648 359.25,-648 365.25,-648 371.25,-654 371.25,-660 371.25,-660 371.25,-672 371.25,-672 371.25,-678 365.25,-684 359.25,-684"/>
<text text-anchor="middle" x="306" y="-663.5" font-family="sans" font-size="10.00">SamAlignmentExtractor</text>
</g>
<!-- 20 -->
<g id="node21" class="node"><title>20</title>
<path fill="none" stroke="#5673d8" stroke-width="2" d="M386.25,-612C386.25,-612 305.75,-612 305.75,-612 299.75,-612 293.75,-606 293.75,-600 293.75,-600 293.75,-588 293.75,-588 293.75,-582 299.75,-576 305.75,-576 305.75,-576 386.25,-576 386.25,-576 392.25,-576 398.25,-582 398.25,-588 398.25,-588 398.25,-600 398.25,-600 398.25,-606 392.25,-612 386.25,-612"/>
<text text-anchor="middle" x="346" y="-591.5" font-family="sans" font-size="10.00">RemoveDuplicates</text>
</g>
<!-- 14&#45;&gt;20 -->
<g id="edge30" class="edge"><title>14&#45;&gt;20</title>
<path fill="none" stroke="grey" stroke-width="2" d="M315.888,-647.697C320.489,-639.644 326.06,-629.894 331.153,-620.982"/>
<polygon fill="grey" stroke="grey" points="334.304,-622.523 336.226,-612.104 328.226,-619.05 334.304,-622.523"/>
</g>
<!-- 15 -->
<g id="node16" class="node"><title>15</title>
<path fill="none" stroke="#56d0d8" stroke-width="2" d="M212.25,-756C212.25,-756 129.75,-756 129.75,-756 123.75,-756 117.75,-750 117.75,-744 117.75,-744 117.75,-732 117.75,-732 117.75,-726 123.75,-720 129.75,-720 129.75,-720 212.25,-720 212.25,-720 218.25,-720 224.25,-726 224.25,-732 224.25,-732 224.25,-744 224.25,-744 224.25,-750 218.25,-756 212.25,-756"/>
<text text-anchor="middle" x="171" y="-735.5" font-family="sans" font-size="10.00">FixMateInformation</text>
</g>
<!-- 15&#45;&gt;0 -->
<g id="edge1" class="edge"><title>15&#45;&gt;0</title>
<path fill="none" stroke="grey" stroke-width="2" d="M171,-719.871C171,-695.67 171,-651.211 171,-622.393"/>
<polygon fill="grey" stroke="grey" points="174.5,-622.189 171,-612.189 167.5,-622.189 174.5,-622.189"/>
</g>
<!-- 15&#45;&gt;14 -->
<g id="edge23" class="edge"><title>15&#45;&gt;14</title>
<path fill="none" stroke="grey" stroke-width="2" d="M204.025,-719.876C222.085,-710.512 244.645,-698.814 263.951,-688.803"/>
<polygon fill="grey" stroke="grey" points="265.582,-691.9 272.848,-684.19 262.36,-685.686 265.582,-691.9"/>
</g>
<!-- 16&#45;&gt;10 -->
<g id="edge18" class="edge"><title>16&#45;&gt;10</title>
<path fill="none" stroke="grey" stroke-width="2" d="M500,-863.951C500,-837.292 500,-784.115 500,-739 500,-739 500,-739 500,-377 500,-335.633 484.765,-289.722 473.588,-261.605"/>
<polygon fill="grey" stroke="grey" points="476.721,-260.019 469.69,-252.093 470.244,-262.673 476.721,-260.019"/>
</g>
<!-- 17&#45;&gt;15 -->
<g id="edge24" class="edge"><title>17&#45;&gt;15</title>
<path fill="none" stroke="grey" stroke-width="2" d="M167.236,-791.697C167.787,-783.983 168.449,-774.712 169.063,-766.112"/>
<polygon fill="grey" stroke="grey" points="172.557,-766.328 169.778,-756.104 165.575,-765.83 172.557,-766.328"/>
</g>
<!-- 18&#45;&gt;3 -->
<g id="edge7" class="edge"><title>18&#45;&gt;3</title>
<path fill="none" stroke="grey" stroke-width="2" d="M281.835,-287.797C272.941,-240.516 246.938,-109.617 225,-72 218.685,-61.1716 209.534,-51.1134 200.503,-42.7332"/>
<polygon fill="grey" stroke="grey" points="202.82,-40.1099 193.01,-36.1083 198.183,-45.3542 202.82,-40.1099"/>
</g>
<!-- 18&#45;&gt;5 -->
<g id="edge11" class="edge"><title>18&#45;&gt;5</title>
<path fill="none" stroke="grey" stroke-width="2" d="M293.323,-287.871C305.238,-263.35 327.259,-218.032 341.24,-189.259"/>
<polygon fill="grey" stroke="grey" points="344.425,-190.713 345.647,-180.189 338.129,-187.654 344.425,-190.713"/>
</g>
<!-- 18&#45;&gt;10 -->
<g id="edge19" class="edge"><title>18&#45;&gt;10</title>
<path fill="none" stroke="grey" stroke-width="2" d="M328.299,-287.876C352.711,-278.222 383.396,-266.087 409.21,-255.878"/>
<polygon fill="grey" stroke="grey" points="410.83,-259.001 418.842,-252.068 408.255,-252.491 410.83,-259.001"/>
</g>
<!-- 18&#45;&gt;13 -->
<g id="edge22" class="edge"><title>18&#45;&gt;13</title>
<path fill="none" stroke="grey" stroke-width="2" d="M256.868,-287.876C241.832,-278.724 223.133,-267.342 206.94,-257.485"/>
<polygon fill="grey" stroke="grey" points="208.602,-254.4 198.24,-252.19 204.962,-260.379 208.602,-254.4"/>
</g>
<!-- 19&#45;&gt;3 -->
<g id="edge8" class="edge"><title>19&#45;&gt;3</title>
<path fill="none" stroke="grey" stroke-width="2" d="M58.7385,-719.698C51.1412,-693.142 38,-640.614 38,-595 38,-595 38,-595 38,-161 38,-105.066 93.6211,-61.9143 132.652,-38.5191"/>
<polygon fill="grey" stroke="grey" points="134.791,-41.3244 141.683,-33.2769 131.277,-35.2705 134.791,-41.3244"/>
</g>
<!-- 20&#45;&gt;1 -->
<g id="edge2" class="edge"><title>20&#45;&gt;1</title>
<path fill="none" stroke="grey" stroke-width="2" d="M345.506,-575.697C345.285,-567.983 345.02,-558.712 344.775,-550.112"/>
<polygon fill="grey" stroke="grey" points="348.273,-550 344.489,-540.104 341.276,-550.2 348.273,-550"/>
</g>
<!-- 20&#45;&gt;7 -->
<g id="edge14" class="edge"><title>20&#45;&gt;7</title>
<path fill="none" stroke="grey" stroke-width="2" d="M293.529,-578.122C274.862,-570.022 255.809,-557.878 245,-540 236.722,-526.308 238.674,-518.696 245,-504 249.789,-492.874 258.19,-482.991 267.05,-474.863"/>
<polygon fill="grey" stroke="grey" points="269.541,-477.338 274.876,-468.184 264.997,-472.013 269.541,-477.338"/>
</g>
</g>
</svg>
