<?xml version="1.0" encoding="UTF-8" standalone="no"?>
<!DOCTYPE svg PUBLIC "-//W3C//DTD SVG 1.1//EN"
 "http://www.w3.org/Graphics/SVG/1.1/DTD/svg11.dtd">
<!-- Generated by graphviz version 2.26.0 (20091210.2329)
 -->
<!-- Title: snakemake_dag Pages: 1 -->
<svg width="348pt" height="908pt"
 viewBox="0.00 0.00 348.00 908.00" xmlns="http://www.w3.org/2000/svg" xmlns:xlink="http://www.w3.org/1999/xlink">
<g id="graph1" class="graph" transform="scale(1 1) rotate(0) translate(4 904)">
<title>snakemake_dag</title>
<polygon fill="white" stroke="white" points="-4,5 -4,-904 345,-904 345,5 -4,5"/>
<!-- 0 -->
<g id="node1" class="node"><title>0</title>
<polyline fill="none" stroke="#569ad8" stroke-width="2" points="304,-252 192,-252 "/>
<path fill="none" stroke="#569ad8" stroke-width="2" d="M192,-252C186,-252 180,-246 180,-240"/>
<polyline fill="none" stroke="#569ad8" stroke-width="2" points="180,-240 180,-228 "/>
<path fill="none" stroke="#569ad8" stroke-width="2" d="M180,-228C180,-222 186,-216 192,-216"/>
<polyline fill="none" stroke="#569ad8" stroke-width="2" points="192,-216 304,-216 "/>
<path fill="none" stroke="#569ad8" stroke-width="2" d="M304,-216C310,-216 316,-222 316,-228"/>
<polyline fill="none" stroke="#569ad8" stroke-width="2" points="316,-228 316,-240 "/>
<path fill="none" stroke="#569ad8" stroke-width="2" d="M316,-240C316,-246 310,-252 304,-252"/>
<text text-anchor="middle" x="248" y="-231.5" font-family="sans" font-size="10.00">MergePairedAlignments</text>
</g>
<!-- 2 -->
<g id="node3" class="node"><title>2</title>
<polyline fill="none" stroke="#56d86b" stroke-width="2" points="271,-180 225,-180 "/>
<path fill="none" stroke="#56d86b" stroke-width="2" d="M225,-180C219,-180 213,-174 213,-168"/>
<polyline fill="none" stroke="#56d86b" stroke-width="2" points="213,-168 213,-156 "/>
<path fill="none" stroke="#56d86b" stroke-width="2" d="M213,-156C213,-150 219,-144 225,-144"/>
<polyline fill="none" stroke="#56d86b" stroke-width="2" points="225,-144 271,-144 "/>
<path fill="none" stroke="#56d86b" stroke-width="2" d="M271,-144C277,-144 283,-150 283,-156"/>
<polyline fill="none" stroke="#56d86b" stroke-width="2" points="283,-156 283,-168 "/>
<path fill="none" stroke="#56d86b" stroke-width="2" d="M283,-168C283,-174 277,-180 271,-180"/>
<text text-anchor="middle" x="248" y="-159.5" font-family="sans" font-size="10.00">Sam2USeq</text>
</g>
<!-- 0&#45;&gt;2 -->
<g id="edge6" class="edge"><title>0&#45;&gt;2</title>
<path fill="none" stroke="grey" stroke-width="2" d="M248,-215.831C248,-208.131 248,-198.974 248,-190.417"/>
<polygon fill="grey" stroke="grey" points="251.5,-190.413 248,-180.413 244.5,-190.413 251.5,-190.413"/>
</g>
<!-- 1 -->
<g id="node2" class="node"><title>1</title>
<polyline fill="none" stroke="#68d856" stroke-width="2" points="305,-684 191,-684 "/>
<path fill="none" stroke="#68d856" stroke-width="2" d="M191,-684C185,-684 179,-678 179,-672"/>
<polyline fill="none" stroke="#68d856" stroke-width="2" points="179,-672 179,-660 "/>
<path fill="none" stroke="#68d856" stroke-width="2" d="M179,-660C179,-654 185,-648 191,-648"/>
<polyline fill="none" stroke="#68d856" stroke-width="2" points="191,-648 305,-648 "/>
<path fill="none" stroke="#68d856" stroke-width="2" d="M305,-648C311,-648 317,-654 317,-660"/>
<polyline fill="none" stroke="#68d856" stroke-width="2" points="317,-660 317,-672 "/>
<path fill="none" stroke="#68d856" stroke-width="2" d="M317,-672C317,-678 311,-684 305,-684"/>
<text text-anchor="middle" x="248" y="-663.5" font-family="sans" font-size="10.00">SamAlignmentExtractor</text>
</g>
<!-- 12 -->
<g id="node13" class="node"><title>12</title>
<polyline fill="none" stroke="#d87556" stroke-width="2" points="292,-612 204,-612 "/>
<path fill="none" stroke="#d87556" stroke-width="2" d="M204,-612C198,-612 192,-606 192,-600"/>
<polyline fill="none" stroke="#d87556" stroke-width="2" points="192,-600 192,-588 "/>
<path fill="none" stroke="#d87556" stroke-width="2" d="M192,-588C192,-582 198,-576 204,-576"/>
<polyline fill="none" stroke="#d87556" stroke-width="2" points="204,-576 292,-576 "/>
<path fill="none" stroke="#d87556" stroke-width="2" d="M292,-576C298,-576 304,-582 304,-588"/>
<polyline fill="none" stroke="#d87556" stroke-width="2" points="304,-588 304,-600 "/>
<path fill="none" stroke="#d87556" stroke-width="2" d="M304,-600C304,-606 298,-612 292,-612"/>
<text text-anchor="middle" x="248" y="-591.5" font-family="sans" font-size="10.00">RemoveDuplicates</text>
</g>
<!-- 1&#45;&gt;12 -->
<g id="edge30" class="edge"><title>1&#45;&gt;12</title>
<path fill="none" stroke="grey" stroke-width="2" d="M248,-647.831C248,-640.131 248,-630.974 248,-622.417"/>
<polygon fill="grey" stroke="grey" points="251.5,-622.413 248,-612.413 244.5,-622.413 251.5,-622.413"/>
</g>
<!-- 7 -->
<g id="node8" class="node"><title>7</title>
<polyline fill="none" stroke="#56c1d8" stroke-width="2" points="282,-108 214,-108 "/>
<path fill="none" stroke="#56c1d8" stroke-width="2" d="M214,-108C208,-108 202,-102 202,-96"/>
<polyline fill="none" stroke="#56c1d8" stroke-width="2" points="202,-96 202,-84 "/>
<path fill="none" stroke="#56c1d8" stroke-width="2" d="M202,-84C202,-78 208,-72 214,-72"/>
<polyline fill="none" stroke="#56c1d8" stroke-width="2" points="214,-72 282,-72 "/>
<path fill="none" stroke="#56c1d8" stroke-width="2" d="M282,-72C288,-72 294,-78 294,-84"/>
<polyline fill="none" stroke="#56c1d8" stroke-width="2" points="294,-84 294,-96 "/>
<path fill="none" stroke="#56c1d8" stroke-width="2" d="M294,-96C294,-102 288,-108 282,-108"/>
<text text-anchor="middle" x="248" y="-87.5" font-family="sans" font-size="10.00">USeq2UCSCBig</text>
</g>
<!-- 2&#45;&gt;7 -->
<g id="edge14" class="edge"><title>2&#45;&gt;7</title>
<path fill="none" stroke="grey" stroke-width="2" d="M248,-143.831C248,-136.131 248,-126.974 248,-118.417"/>
<polygon fill="grey" stroke="grey" points="251.5,-118.413 248,-108.413 244.5,-118.413 251.5,-118.413"/>
</g>
<!-- 3 -->
<g id="node4" class="node"><title>3</title>
<polyline fill="none" stroke="#d85656" stroke-width="2" points="271,-540 101,-540 "/>
<path fill="none" stroke="#d85656" stroke-width="2" d="M101,-540C95,-540 89,-534 89,-528"/>
<polyline fill="none" stroke="#d85656" stroke-width="2" points="89,-528 89,-516 "/>
<path fill="none" stroke="#d85656" stroke-width="2" d="M89,-516C89,-510 95,-504 101,-504"/>
<polyline fill="none" stroke="#d85656" stroke-width="2" points="101,-504 271,-504 "/>
<path fill="none" stroke="#d85656" stroke-width="2" d="M271,-504C277,-504 283,-510 283,-516"/>
<polyline fill="none" stroke="#d85656" stroke-width="2" points="283,-516 283,-528 "/>
<path fill="none" stroke="#d85656" stroke-width="2" d="M283,-528C283,-534 277,-540 271,-540"/>
<text text-anchor="middle" x="186" y="-519.5" font-family="sans" font-size="10.00">CreateTargetsForIndelRealignment</text>
</g>
<!-- 8 -->
<g id="node9" class="node"><title>8</title>
<polyline fill="none" stroke="#ced856" stroke-width="2" points="277,-468 219,-468 "/>
<path fill="none" stroke="#ced856" stroke-width="2" d="M219,-468C213,-468 207,-462 207,-456"/>
<polyline fill="none" stroke="#ced856" stroke-width="2" points="207,-456 207,-444 "/>
<path fill="none" stroke="#ced856" stroke-width="2" d="M207,-444C207,-438 213,-432 219,-432"/>
<polyline fill="none" stroke="#ced856" stroke-width="2" points="219,-432 277,-432 "/>
<path fill="none" stroke="#ced856" stroke-width="2" d="M277,-432C283,-432 289,-438 289,-444"/>
<polyline fill="none" stroke="#ced856" stroke-width="2" points="289,-444 289,-456 "/>
<path fill="none" stroke="#ced856" stroke-width="2" d="M289,-456C289,-462 283,-468 277,-468"/>
<text text-anchor="middle" x="248" y="-447.5" font-family="sans" font-size="10.00">RealignIndels</text>
</g>
<!-- 3&#45;&gt;8 -->
<g id="edge18" class="edge"><title>3&#45;&gt;8</title>
<path fill="none" stroke="grey" stroke-width="2" d="M201.645,-503.831C208.859,-495.454 217.557,-485.353 225.46,-476.175"/>
<polygon fill="grey" stroke="grey" points="228.271,-478.275 232.144,-468.413 222.967,-473.707 228.271,-478.275"/>
</g>
<!-- 4 -->
<g id="node5" class="node"><title>4</title>
<polyline fill="none" stroke="#56d8a9" stroke-width="2" points="62,-108 12,-108 "/>
<path fill="none" stroke="#56d8a9" stroke-width="2" d="M12,-108C6,-108 2.96059e-14,-102 2.36848e-14,-96"/>
<polyline fill="none" stroke="#56d8a9" stroke-width="2" points="2.36848e-14,-96 1.18424e-14,-84 "/>
<path fill="none" stroke="#56d8a9" stroke-width="2" d="M1.18424e-14,-84C5.92119e-15,-78 6,-72 12,-72"/>
<polyline fill="none" stroke="#56d8a9" stroke-width="2" points="12,-72 62,-72 "/>
<path fill="none" stroke="#56d8a9" stroke-width="2" d="M62,-72C68,-72 74,-78 74,-84"/>
<polyline fill="none" stroke="#56d8a9" stroke-width="2" points="74,-84 74,-96 "/>
<path fill="none" stroke="#56d8a9" stroke-width="2" d="M74,-96C74,-102 68,-108 62,-108"/>
<text text-anchor="middle" x="37" y="-87.5" font-family="sans" font-size="10.00">FastqCount</text>
</g>
<!-- 9 -->
<g id="node10" class="node"><title>9</title>
<polyline fill="none" stroke="#56d88a" stroke-width="2" points="154,-36 122,-36 "/>
<path fill="none" stroke="#56d88a" stroke-width="2" d="M122,-36C116,-36 110,-30 110,-24"/>
<polyline fill="none" stroke="#56d88a" stroke-width="2" points="110,-24 110,-12 "/>
<path fill="none" stroke="#56d88a" stroke-width="2" d="M110,-12C110,-6 116,-1.6241e-14 122,-1.47184e-14"/>
<polyline fill="none" stroke="#56d88a" stroke-width="2" points="122,-1.47184e-14 154,-6.5979e-15 "/>
<path fill="none" stroke="#56d88a" stroke-width="2" d="M154,-6.5979e-15C160,-5.07531e-15 166,-6 166,-12"/>
<polyline fill="none" stroke="#56d88a" stroke-width="2" points="166,-12 166,-24 "/>
<path fill="none" stroke="#56d88a" stroke-width="2" d="M166,-24C166,-30 160,-36 154,-36"/>
<text text-anchor="middle" x="138" y="-15.5" font-family="sans" font-size="10.00">Cleanup</text>
</g>
<!-- 4&#45;&gt;9 -->
<g id="edge24" class="edge"><title>4&#45;&gt;9</title>
<path fill="none" stroke="grey" stroke-width="2" d="M62.4866,-71.8314C75.1659,-62.7927 90.6596,-51.7476 104.306,-42.0198"/>
<polygon fill="grey" stroke="grey" points="106.41,-44.8176 112.522,-36.1628 102.347,-39.1176 106.41,-44.8176"/>
</g>
<!-- 5 -->
<g id="node6" class="node"><title>5</title>
<polyline fill="none" stroke="#d8bc56" stroke-width="2" points="300,-324 196,-324 "/>
<path fill="none" stroke="#d8bc56" stroke-width="2" d="M196,-324C190,-324 184,-318 184,-312"/>
<polyline fill="none" stroke="#d8bc56" stroke-width="2" points="184,-312 184,-300 "/>
<path fill="none" stroke="#d8bc56" stroke-width="2" d="M184,-300C184,-294 190,-288 196,-288"/>
<polyline fill="none" stroke="#d8bc56" stroke-width="2" points="196,-288 300,-288 "/>
<path fill="none" stroke="#d8bc56" stroke-width="2" d="M300,-288C306,-288 312,-294 312,-300"/>
<polyline fill="none" stroke="#d8bc56" stroke-width="2" points="312,-300 312,-312 "/>
<path fill="none" stroke="#d8bc56" stroke-width="2" d="M312,-312C312,-318 306,-324 300,-324"/>
<text text-anchor="middle" x="248" y="-303.5" font-family="sans" font-size="10.00">PrintRecalibratedBam</text>
</g>
<!-- 5&#45;&gt;0 -->
<g id="edge2" class="edge"><title>5&#45;&gt;0</title>
<path fill="none" stroke="grey" stroke-width="2" d="M248,-287.831C248,-280.131 248,-270.974 248,-262.417"/>
<polygon fill="grey" stroke="grey" points="251.5,-262.413 248,-252.413 244.5,-262.413 251.5,-262.413"/>
</g>
<!-- 6 -->
<g id="node7" class="node"><title>6</title>
<polyline fill="none" stroke="#56d8d0" stroke-width="2" points="286,-900 210,-900 "/>
<path fill="none" stroke="#56d8d0" stroke-width="2" d="M210,-900C204,-900 198,-894 198,-888"/>
<polyline fill="none" stroke="#56d8d0" stroke-width="2" points="198,-888 198,-876 "/>
<path fill="none" stroke="#56d8d0" stroke-width="2" d="M198,-876C198,-870 204,-864 210,-864"/>
<polyline fill="none" stroke="#56d8d0" stroke-width="2" points="210,-864 286,-864 "/>
<path fill="none" stroke="#56d8d0" stroke-width="2" d="M286,-864C292,-864 298,-870 298,-876"/>
<polyline fill="none" stroke="#56d8d0" stroke-width="2" points="298,-876 298,-888 "/>
<path fill="none" stroke="#56d8d0" stroke-width="2" d="M298,-888C298,-894 292,-900 286,-900"/>
<text text-anchor="middle" x="248" y="-879.5" font-family="sans" font-size="10.00">CheckResources</text>
</g>
<!-- 11 -->
<g id="node12" class="node"><title>11</title>
<polyline fill="none" stroke="#88d856" stroke-width="2" points="310,-828 186,-828 "/>
<path fill="none" stroke="#88d856" stroke-width="2" d="M186,-828C180,-828 174,-822 174,-816"/>
<polyline fill="none" stroke="#88d856" stroke-width="2" points="174,-816 174,-804 "/>
<path fill="none" stroke="#88d856" stroke-width="2" d="M174,-804C174,-798 180,-792 186,-792"/>
<polyline fill="none" stroke="#88d856" stroke-width="2" points="186,-792 310,-792 "/>
<path fill="none" stroke="#88d856" stroke-width="2" d="M310,-792C316,-792 322,-798 322,-804"/>
<polyline fill="none" stroke="#88d856" stroke-width="2" points="322,-804 322,-816 "/>
<path fill="none" stroke="#88d856" stroke-width="2" d="M322,-816C322,-822 316,-828 310,-828"/>
<text text-anchor="middle" x="248" y="-807.5" font-family="sans" font-size="10.00">AlignWithAdapterTrimming</text>
</g>
<!-- 6&#45;&gt;11 -->
<g id="edge28" class="edge"><title>6&#45;&gt;11</title>
<path fill="none" stroke="grey" stroke-width="2" d="M248,-863.831C248,-856.131 248,-846.974 248,-838.417"/>
<polygon fill="grey" stroke="grey" points="251.5,-838.413 248,-828.413 244.5,-838.413 251.5,-838.413"/>
</g>
<!-- 7&#45;&gt;9 -->
<g id="edge22" class="edge"><title>7&#45;&gt;9</title>
<path fill="none" stroke="grey" stroke-width="2" d="M220.242,-71.8314C206.303,-62.7074 189.24,-51.539 174.277,-41.7449"/>
<polygon fill="grey" stroke="grey" points="176.033,-38.711 165.749,-36.1628 172.199,-44.5679 176.033,-38.711"/>
</g>
<!-- 8&#45;&gt;5 -->
<g id="edge12" class="edge"><title>8&#45;&gt;5</title>
<path fill="none" stroke="grey" stroke-width="2" d="M238.842,-431.513C234.299,-421.312 229.3,-408.259 227,-396 224.05,-380.274 224.05,-375.726 227,-360 228.635,-351.284 231.634,-342.168 234.864,-333.96"/>
<polygon fill="grey" stroke="grey" points="238.197,-335.062 238.842,-324.487 231.743,-332.352 238.197,-335.062"/>
</g>
<!-- 14 -->
<g id="node15" class="node"><title>14</title>
<polyline fill="none" stroke="#567bd8" stroke-width="2" points="328,-396 248,-396 "/>
<path fill="none" stroke="#567bd8" stroke-width="2" d="M248,-396C242,-396 236,-390 236,-384"/>
<polyline fill="none" stroke="#567bd8" stroke-width="2" points="236,-384 236,-372 "/>
<path fill="none" stroke="#567bd8" stroke-width="2" d="M236,-372C236,-366 242,-360 248,-360"/>
<polyline fill="none" stroke="#567bd8" stroke-width="2" points="248,-360 328,-360 "/>
<path fill="none" stroke="#567bd8" stroke-width="2" d="M328,-360C334,-360 340,-366 340,-372"/>
<polyline fill="none" stroke="#567bd8" stroke-width="2" points="340,-372 340,-384 "/>
<path fill="none" stroke="#567bd8" stroke-width="2" d="M340,-384C340,-390 334,-396 328,-396"/>
<text text-anchor="middle" x="288" y="-375.5" font-family="sans" font-size="10.00">RecalibrateBases</text>
</g>
<!-- 8&#45;&gt;14 -->
<g id="edge32" class="edge"><title>8&#45;&gt;14</title>
<path fill="none" stroke="grey" stroke-width="2" d="M258.094,-431.831C262.56,-423.792 267.907,-414.167 272.838,-405.292"/>
<polygon fill="grey" stroke="grey" points="275.973,-406.855 277.77,-396.413 269.854,-403.455 275.973,-406.855"/>
</g>
<!-- 10 -->
<g id="node11" class="node"><title>10</title>
<polyline fill="none" stroke="#afd856" stroke-width="2" points="293,-756 203,-756 "/>
<path fill="none" stroke="#afd856" stroke-width="2" d="M203,-756C197,-756 191,-750 191,-744"/>
<polyline fill="none" stroke="#afd856" stroke-width="2" points="191,-744 191,-732 "/>
<path fill="none" stroke="#afd856" stroke-width="2" d="M191,-732C191,-726 197,-720 203,-720"/>
<polyline fill="none" stroke="#afd856" stroke-width="2" points="203,-720 293,-720 "/>
<path fill="none" stroke="#afd856" stroke-width="2" d="M293,-720C299,-720 305,-726 305,-732"/>
<polyline fill="none" stroke="#afd856" stroke-width="2" points="305,-732 305,-744 "/>
<path fill="none" stroke="#afd856" stroke-width="2" d="M305,-744C305,-750 299,-756 293,-756"/>
<text text-anchor="middle" x="248" y="-735.5" font-family="sans" font-size="10.00">FixMateInformation</text>
</g>
<!-- 10&#45;&gt;1 -->
<g id="edge4" class="edge"><title>10&#45;&gt;1</title>
<path fill="none" stroke="grey" stroke-width="2" d="M248,-719.831C248,-712.131 248,-702.974 248,-694.417"/>
<polygon fill="grey" stroke="grey" points="251.5,-694.413 248,-684.413 244.5,-694.413 251.5,-694.413"/>
</g>
<!-- 11&#45;&gt;10 -->
<g id="edge26" class="edge"><title>11&#45;&gt;10</title>
<path fill="none" stroke="grey" stroke-width="2" d="M248,-791.831C248,-784.131 248,-774.974 248,-766.417"/>
<polygon fill="grey" stroke="grey" points="251.5,-766.413 248,-756.413 244.5,-766.413 251.5,-766.413"/>
</g>
<!-- 12&#45;&gt;3 -->
<g id="edge8" class="edge"><title>12&#45;&gt;3</title>
<path fill="none" stroke="grey" stroke-width="2" d="M232.355,-575.831C225.141,-567.454 216.443,-557.353 208.54,-548.175"/>
<polygon fill="grey" stroke="grey" points="211.033,-545.707 201.856,-540.413 205.729,-550.275 211.033,-545.707"/>
</g>
<!-- 12&#45;&gt;8 -->
<g id="edge16" class="edge"><title>12&#45;&gt;8</title>
<path fill="none" stroke="grey" stroke-width="2" d="M268.403,-575.563C277.494,-565.967 287.216,-553.444 292,-540 297.364,-524.926 297.364,-519.074 292,-504 288.412,-493.917 282.047,-484.352 275.252,-476.151"/>
<polygon fill="grey" stroke="grey" points="277.66,-473.591 268.403,-468.437 272.425,-478.239 277.66,-473.591"/>
</g>
<!-- 13 -->
<g id="node14" class="node"><title>13</title>
<polyline fill="none" stroke="#d89c56" stroke-width="2" points="172,-108 104,-108 "/>
<path fill="none" stroke="#d89c56" stroke-width="2" d="M104,-108C98,-108 92,-102 92,-96"/>
<polyline fill="none" stroke="#d89c56" stroke-width="2" points="92,-96 92,-84 "/>
<path fill="none" stroke="#d89c56" stroke-width="2" d="M92,-84C92,-78 98,-72 104,-72"/>
<polyline fill="none" stroke="#d89c56" stroke-width="2" points="104,-72 172,-72 "/>
<path fill="none" stroke="#d89c56" stroke-width="2" d="M172,-72C178,-72 184,-78 184,-84"/>
<polyline fill="none" stroke="#d89c56" stroke-width="2" points="184,-84 184,-96 "/>
<path fill="none" stroke="#d89c56" stroke-width="2" d="M184,-96C184,-102 178,-108 172,-108"/>
<text text-anchor="middle" x="138" y="-87.5" font-family="sans" font-size="10.00">CheckGzipFiles</text>
</g>
<!-- 13&#45;&gt;9 -->
<g id="edge20" class="edge"><title>13&#45;&gt;9</title>
<path fill="none" stroke="grey" stroke-width="2" d="M138,-71.8314C138,-64.131 138,-54.9743 138,-46.4166"/>
<polygon fill="grey" stroke="grey" points="141.5,-46.4132 138,-36.4133 134.5,-46.4133 141.5,-46.4132"/>
</g>
<!-- 14&#45;&gt;5 -->
<g id="edge10" class="edge"><title>14&#45;&gt;5</title>
<path fill="none" stroke="grey" stroke-width="2" d="M277.906,-359.831C273.44,-351.792 268.093,-342.167 263.162,-333.292"/>
<polygon fill="grey" stroke="grey" points="266.146,-331.455 258.23,-324.413 260.027,-334.855 266.146,-331.455"/>
</g>
</g>
</svg>
