<?xml version="1.0" encoding="UTF-8" standalone="no"?>
<!DOCTYPE svg PUBLIC "-//W3C//DTD SVG 1.1//EN"
 "http://www.w3.org/Graphics/SVG/1.1/DTD/svg11.dtd">
<!-- Generated by graphviz version 2.30.1 (20150306.0020)
 -->
<!-- Title: snakemake_dag Pages: 1 -->
<svg width="726pt" height="836pt"
 viewBox="0.00 0.00 726.00 836.00" xmlns="http://www.w3.org/2000/svg" xmlns:xlink="http://www.w3.org/1999/xlink">
<g id="graph0" class="graph" transform="scale(1 1) rotate(0) translate(4 832)">
<title>snakemake_dag</title>
<polygon fill="white" stroke="white" points="-4,5 -4,-832 723,-832 723,5 -4,5"/>
<!-- 0 -->
<g id="node1" class="node"><title>0</title>
<path fill="none" stroke="#d85656" stroke-width="2" d="M416,-252C416,-252 342,-252 342,-252 336,-252 330,-246 330,-240 330,-240 330,-228 330,-228 330,-222 336,-216 342,-216 342,-216 416,-216 416,-216 422,-216 428,-222 428,-228 428,-228 428,-240 428,-240 428,-246 422,-252 416,-252"/>
<text text-anchor="middle" x="379" y="-231.5" font-family="sans" font-size="10.00">RecalibrateBases</text>
</g>
<!-- 7 -->
<g id="node8" class="node"><title>7</title>
<path fill="none" stroke="#78d856" stroke-width="2" d="M412.25,-180C412.25,-180 317.75,-180 317.75,-180 311.75,-180 305.75,-174 305.75,-168 305.75,-168 305.75,-156 305.75,-156 305.75,-150 311.75,-144 317.75,-144 317.75,-144 412.25,-144 412.25,-144 418.25,-144 424.25,-150 424.25,-156 424.25,-156 424.25,-168 424.25,-168 424.25,-174 418.25,-180 412.25,-180"/>
<text text-anchor="middle" x="365" y="-159.5" font-family="sans" font-size="10.00">PrintRecalibratedBam</text>
</g>
<!-- 0&#45;&gt;7 -->
<g id="edge12" class="edge"><title>0&#45;&gt;7</title>
<path fill="none" stroke="grey" stroke-width="2" d="M375.539,-215.697C373.997,-207.983 372.142,-198.712 370.422,-190.112"/>
<polygon fill="grey" stroke="grey" points="373.814,-189.224 368.421,-180.104 366.95,-190.597 373.814,-189.224"/>
</g>
<!-- 1 -->
<g id="node2" class="node"><title>1</title>
<path fill="none" stroke="#d87556" stroke-width="2" d="M597,-684C597,-684 513,-684 513,-684 507,-684 501,-678 501,-672 501,-672 501,-660 501,-660 501,-654 507,-648 513,-648 513,-648 597,-648 597,-648 603,-648 609,-654 609,-660 609,-660 609,-672 609,-672 609,-678 603,-684 597,-684"/>
<text text-anchor="middle" x="555" y="-663.5" font-family="sans" font-size="10.00">PicardIntervalForRC</text>
</g>
<!-- 15 -->
<g id="node16" class="node"><title>15</title>
<path fill="none" stroke="#567bd8" stroke-width="2" d="M614.25,-108C614.25,-108 513.75,-108 513.75,-108 507.75,-108 501.75,-102 501.75,-96 501.75,-96 501.75,-84 501.75,-84 501.75,-78 507.75,-72 513.75,-72 513.75,-72 614.25,-72 614.25,-72 620.25,-72 626.25,-78 626.25,-84 626.25,-84 626.25,-96 626.25,-96 626.25,-102 620.25,-108 614.25,-108"/>
<text text-anchor="middle" x="564" y="-87.5" font-family="sans" font-size="10.00">PicardCollectHsMetrics</text>
</g>
<!-- 1&#45;&gt;15 -->
<g id="edge22" class="edge"><title>1&#45;&gt;15</title>
<path fill="none" stroke="grey" stroke-width="2" d="M554.21,-647.955C553.044,-621.302 551,-568.132 551,-523 551,-523 551,-523 551,-233 551,-192.829 556.223,-146.53 560.048,-118.013"/>
<polygon fill="grey" stroke="grey" points="563.529,-118.388 561.432,-108.003 556.595,-117.43 563.529,-118.388"/>
</g>
<!-- 2 -->
<g id="node3" class="node"><title>2</title>
<path fill="none" stroke="#d8b456" stroke-width="2" d="M395.25,-540C395.25,-540 312.75,-540 312.75,-540 306.75,-540 300.75,-534 300.75,-528 300.75,-528 300.75,-516 300.75,-516 300.75,-510 306.75,-504 312.75,-504 312.75,-504 395.25,-504 395.25,-504 401.25,-504 407.25,-510 407.25,-516 407.25,-516 407.25,-528 407.25,-528 407.25,-534 401.25,-540 395.25,-540"/>
<text text-anchor="middle" x="354" y="-519.5" font-family="sans" font-size="10.00">FixMateInformation</text>
</g>
<!-- 3 -->
<g id="node4" class="node"><title>3</title>
<path fill="none" stroke="#d89556" stroke-width="2" d="M394.25,-468C394.25,-468 313.75,-468 313.75,-468 307.75,-468 301.75,-462 301.75,-456 301.75,-456 301.75,-444 301.75,-444 301.75,-438 307.75,-432 313.75,-432 313.75,-432 394.25,-432 394.25,-432 400.25,-432 406.25,-438 406.25,-444 406.25,-444 406.25,-456 406.25,-456 406.25,-462 400.25,-468 394.25,-468"/>
<text text-anchor="middle" x="354" y="-447.5" font-family="sans" font-size="10.00">RemoveDuplicates</text>
</g>
<!-- 2&#45;&gt;3 -->
<g id="edge4" class="edge"><title>2&#45;&gt;3</title>
<path fill="none" stroke="grey" stroke-width="2" d="M354,-503.697C354,-495.983 354,-486.712 354,-478.112"/>
<polygon fill="grey" stroke="grey" points="357.5,-478.104 354,-468.104 350.5,-478.104 357.5,-478.104"/>
</g>
<!-- 4 -->
<g id="node5" class="node"><title>4</title>
<path fill="none" stroke="#d6d856" stroke-width="2" d="M196.25,-396C196.25,-396 11.75,-396 11.75,-396 5.75,-396 -0.25,-390 -0.25,-384 -0.25,-384 -0.25,-372 -0.25,-372 -0.25,-366 5.75,-360 11.75,-360 11.75,-360 196.25,-360 196.25,-360 202.25,-360 208.25,-366 208.25,-372 208.25,-372 208.25,-384 208.25,-384 208.25,-390 202.25,-396 196.25,-396"/>
<text text-anchor="middle" x="104" y="-375.5" font-family="sans" font-size="10.00">PicardCollectAlignmentSummaryMetrics</text>
</g>
<!-- 2&#45;&gt;4 -->
<g id="edge5" class="edge"><title>2&#45;&gt;4</title>
<path fill="none" stroke="grey" stroke-width="2" d="M323.844,-503.871C278.609,-478.178 193.172,-429.65 143.169,-401.248"/>
<polygon fill="grey" stroke="grey" points="144.687,-398.085 134.263,-396.189 141.229,-404.172 144.687,-398.085"/>
</g>
<!-- 10 -->
<g id="node11" class="node"><title>10</title>
<path fill="none" stroke="#56d8d8" stroke-width="2" d="M395,-396C395,-396 239,-396 239,-396 233,-396 227,-390 227,-384 227,-384 227,-372 227,-372 227,-366 233,-360 239,-360 239,-360 395,-360 395,-360 401,-360 407,-366 407,-372 407,-372 407,-384 407,-384 407,-390 401,-396 395,-396"/>
<text text-anchor="middle" x="317" y="-375.5" font-family="sans" font-size="10.00">CreateTargetsForIndelRealignment</text>
</g>
<!-- 3&#45;&gt;10 -->
<g id="edge16" class="edge"><title>3&#45;&gt;10</title>
<path fill="none" stroke="grey" stroke-width="2" d="M344.854,-431.697C340.597,-423.644 335.444,-413.894 330.734,-404.982"/>
<polygon fill="grey" stroke="grey" points="333.808,-403.31 326.041,-396.104 327.62,-406.581 333.808,-403.31"/>
</g>
<!-- 12 -->
<g id="node13" class="node"><title>12</title>
<path fill="none" stroke="#569ad8" stroke-width="2" d="M375,-324C375,-324 321,-324 321,-324 315,-324 309,-318 309,-312 309,-312 309,-300 309,-300 309,-294 315,-288 321,-288 321,-288 375,-288 375,-288 381,-288 387,-294 387,-300 387,-300 387,-312 387,-312 387,-318 381,-324 375,-324"/>
<text text-anchor="middle" x="348" y="-303.5" font-family="sans" font-size="10.00">RealignIndels</text>
</g>
<!-- 3&#45;&gt;12 -->
<g id="edge18" class="edge"><title>3&#45;&gt;12</title>
<path fill="none" stroke="grey" stroke-width="2" d="M383.505,-431.937C395.982,-422.988 409.185,-410.79 416,-396 422.695,-381.468 423.022,-374.377 416,-360 410.194,-348.114 400.293,-338.119 389.816,-330.125"/>
<polygon fill="grey" stroke="grey" points="391.544,-327.059 381.358,-324.145 387.503,-332.775 391.544,-327.059"/>
</g>
<!-- 5 -->
<g id="node6" class="node"><title>5</title>
<path fill="none" stroke="#b6d856" stroke-width="2" d="M381,-36C381,-36 349,-36 349,-36 343,-36 337,-30 337,-24 337,-24 337,-12 337,-12 337,-6 343,-0 349,-0 349,-0 381,-0 381,-0 387,-0 393,-6 393,-12 393,-12 393,-24 393,-24 393,-30 387,-36 381,-36"/>
<text text-anchor="middle" x="365" y="-15.5" font-family="sans" font-size="10.00">Cleanup</text>
</g>
<!-- 4&#45;&gt;5 -->
<g id="edge6" class="edge"><title>4&#45;&gt;5</title>
<path fill="none" stroke="grey" stroke-width="2" d="M116.018,-359.989C133.006,-334.227 162,-283.2 162,-235 162,-235 162,-235 162,-161 162,-81.4758 267.897,-42.7503 326.72,-27.3734"/>
<polygon fill="grey" stroke="grey" points="327.925,-30.6797 336.774,-24.8524 326.223,-23.8899 327.925,-30.6797"/>
</g>
<!-- 6 -->
<g id="node7" class="node"><title>6</title>
<path fill="none" stroke="#97d856" stroke-width="2" d="M433,-108C433,-108 297,-108 297,-108 291,-108 285,-102 285,-96 285,-96 285,-84 285,-84 285,-78 291,-72 297,-72 297,-72 433,-72 433,-72 439,-72 445,-78 445,-84 445,-84 445,-96 445,-96 445,-102 439,-108 433,-108"/>
<text text-anchor="middle" x="365" y="-87.5" font-family="sans" font-size="10.00">PicardCollectInsertSizeMetrics</text>
</g>
<!-- 6&#45;&gt;5 -->
<g id="edge9" class="edge"><title>6&#45;&gt;5</title>
<path fill="none" stroke="grey" stroke-width="2" d="M365,-71.6966C365,-63.9827 365,-54.7125 365,-46.1124"/>
<polygon fill="grey" stroke="grey" points="368.5,-46.1043 365,-36.1043 361.5,-46.1044 368.5,-46.1043"/>
</g>
<!-- 7&#45;&gt;5 -->
<g id="edge7" class="edge"><title>7&#45;&gt;5</title>
<path fill="none" stroke="grey" stroke-width="2" d="M316.968,-143.85C301.034,-135.601 285.064,-123.947 276,-108 268.094,-94.0899 268.094,-85.9101 276,-72 287.023,-52.6063 308.259,-39.5633 327.223,-31.27"/>
<polygon fill="grey" stroke="grey" points="328.635,-34.4742 336.581,-27.4655 325.999,-27.9897 328.635,-34.4742"/>
</g>
<!-- 7&#45;&gt;6 -->
<g id="edge11" class="edge"><title>7&#45;&gt;6</title>
<path fill="none" stroke="grey" stroke-width="2" d="M365,-143.697C365,-135.983 365,-126.712 365,-118.112"/>
<polygon fill="grey" stroke="grey" points="368.5,-118.104 365,-108.104 361.5,-118.104 368.5,-118.104"/>
</g>
<!-- 7&#45;&gt;15 -->
<g id="edge21" class="edge"><title>7&#45;&gt;15</title>
<path fill="none" stroke="grey" stroke-width="2" d="M413.426,-143.966C441.231,-134.185 476.336,-121.836 505.654,-111.524"/>
<polygon fill="grey" stroke="grey" points="507.084,-114.731 515.356,-108.111 504.762,-108.127 507.084,-114.731"/>
</g>
<!-- 8 -->
<g id="node9" class="node"><title>8</title>
<path fill="none" stroke="#59d856" stroke-width="2" d="M384.25,-612C384.25,-612 349.75,-612 349.75,-612 343.75,-612 337.75,-606 337.75,-600 337.75,-600 337.75,-588 337.75,-588 337.75,-582 343.75,-576 349.75,-576 349.75,-576 384.25,-576 384.25,-576 390.25,-576 396.25,-582 396.25,-588 396.25,-588 396.25,-600 396.25,-600 396.25,-606 390.25,-612 384.25,-612"/>
<text text-anchor="middle" x="367" y="-591.5" font-family="sans" font-size="10.00">BwaAlign</text>
</g>
<!-- 8&#45;&gt;2 -->
<g id="edge3" class="edge"><title>8&#45;&gt;2</title>
<path fill="none" stroke="grey" stroke-width="2" d="M363.787,-575.697C362.354,-567.983 360.632,-558.712 359.035,-550.112"/>
<polygon fill="grey" stroke="grey" points="362.444,-549.297 357.177,-540.104 355.561,-550.575 362.444,-549.297"/>
</g>
<!-- 9 -->
<g id="node10" class="node"><title>9</title>
<path fill="none" stroke="#56d87b" stroke-width="2" d="M706.25,-612C706.25,-612 591.75,-612 591.75,-612 585.75,-612 579.75,-606 579.75,-600 579.75,-600 579.75,-588 579.75,-588 579.75,-582 585.75,-576 591.75,-576 591.75,-576 706.25,-576 706.25,-576 712.25,-576 718.25,-582 718.25,-588 718.25,-588 718.25,-600 718.25,-600 718.25,-606 712.25,-612 706.25,-612"/>
<text text-anchor="middle" x="649" y="-591.5" font-family="sans" font-size="10.00">PicardIntervalForOnTarget</text>
</g>
<!-- 9&#45;&gt;15 -->
<g id="edge23" class="edge"><title>9&#45;&gt;15</title>
<path fill="none" stroke="grey" stroke-width="2" d="M642.929,-575.76C634.163,-549.283 619,-496.858 619,-451 619,-451 619,-451 619,-233 619,-190.008 596.807,-144.337 580.616,-116.738"/>
<polygon fill="grey" stroke="grey" points="583.564,-114.849 575.396,-108.101 577.573,-118.47 583.564,-114.849"/>
</g>
<!-- 10&#45;&gt;12 -->
<g id="edge17" class="edge"><title>10&#45;&gt;12</title>
<path fill="none" stroke="grey" stroke-width="2" d="M324.663,-359.697C328.192,-351.728 332.456,-342.1 336.369,-333.264"/>
<polygon fill="grey" stroke="grey" points="339.576,-334.665 340.425,-324.104 333.176,-331.831 339.576,-334.665"/>
</g>
<!-- 11 -->
<g id="node12" class="node"><title>11</title>
<path fill="none" stroke="#56b9d8" stroke-width="2" d="M590.25,-828C590.25,-828 519.75,-828 519.75,-828 513.75,-828 507.75,-822 507.75,-816 507.75,-816 507.75,-804 507.75,-804 507.75,-798 513.75,-792 519.75,-792 519.75,-792 590.25,-792 590.25,-792 596.25,-792 602.25,-798 602.25,-804 602.25,-804 602.25,-816 602.25,-816 602.25,-822 596.25,-828 590.25,-828"/>
<text text-anchor="middle" x="555" y="-807.5" font-family="sans" font-size="10.00">CheckResources</text>
</g>
<!-- 11&#45;&gt;1 -->
<g id="edge2" class="edge"><title>11&#45;&gt;1</title>
<path fill="none" stroke="grey" stroke-width="2" d="M555,-791.871C555,-767.67 555,-723.211 555,-694.393"/>
<polygon fill="grey" stroke="grey" points="558.5,-694.189 555,-684.189 551.5,-694.189 558.5,-694.189"/>
</g>
<!-- 11&#45;&gt;9 -->
<g id="edge15" class="edge"><title>11&#45;&gt;9</title>
<path fill="none" stroke="grey" stroke-width="2" d="M564.499,-791.949C577.52,-768.197 601.21,-723.602 618,-684 626.649,-663.6 634.822,-639.878 640.603,-622.057"/>
<polygon fill="grey" stroke="grey" points="644.006,-622.907 643.716,-612.316 637.338,-620.776 644.006,-622.907"/>
</g>
<!-- 13 -->
<g id="node14" class="node"><title>13</title>
<path fill="none" stroke="#56d89a" stroke-width="2" d="M504.25,-756C504.25,-756 441.75,-756 441.75,-756 435.75,-756 429.75,-750 429.75,-744 429.75,-744 429.75,-732 429.75,-732 429.75,-726 435.75,-720 441.75,-720 441.75,-720 504.25,-720 504.25,-720 510.25,-720 516.25,-726 516.25,-732 516.25,-732 516.25,-744 516.25,-744 516.25,-750 510.25,-756 504.25,-756"/>
<text text-anchor="middle" x="473" y="-735.5" font-family="sans" font-size="10.00">CheckGzipFiles</text>
</g>
<!-- 11&#45;&gt;13 -->
<g id="edge19" class="edge"><title>11&#45;&gt;13</title>
<path fill="none" stroke="grey" stroke-width="2" d="M534.73,-791.697C524.502,-782.965 511.939,-772.24 500.822,-762.75"/>
<polygon fill="grey" stroke="grey" points="502.915,-759.935 493.037,-756.104 498.37,-765.259 502.915,-759.935"/>
</g>
<!-- 12&#45;&gt;0 -->
<g id="edge1" class="edge"><title>12&#45;&gt;0</title>
<path fill="none" stroke="grey" stroke-width="2" d="M355.663,-287.697C359.192,-279.728 363.456,-270.1 367.369,-261.264"/>
<polygon fill="grey" stroke="grey" points="370.576,-262.665 371.425,-252.104 364.176,-259.831 370.576,-262.665"/>
</g>
<!-- 12&#45;&gt;7 -->
<g id="edge13" class="edge"><title>12&#45;&gt;7</title>
<path fill="none" stroke="grey" stroke-width="2" d="M336.16,-287.765C325.29,-269.709 312.118,-240.604 321,-216 324.754,-205.6 331.536,-195.8 338.668,-187.522"/>
<polygon fill="grey" stroke="grey" points="341.322,-189.807 345.526,-180.082 336.175,-185.062 341.322,-189.807"/>
</g>
<!-- 13&#45;&gt;5 -->
<g id="edge8" class="edge"><title>13&#45;&gt;5</title>
<path fill="none" stroke="grey" stroke-width="2" d="M473,-719.951C473,-693.292 473,-640.115 473,-595 473,-595 473,-595 473,-161 473,-120.553 477.567,-104.872 454,-72 441.329,-54.3267 420.771,-41.5243 402.604,-32.9344"/>
<polygon fill="grey" stroke="grey" points="403.935,-29.6958 393.376,-28.8229 401.086,-36.0898 403.935,-29.6958"/>
</g>
<!-- 14 -->
<g id="node15" class="node"><title>14</title>
<path fill="none" stroke="#56d8b9" stroke-width="2" d="M420,-684C420,-684 364,-684 364,-684 358,-684 352,-678 352,-672 352,-672 352,-660 352,-660 352,-654 358,-648 364,-648 364,-648 420,-648 420,-648 426,-648 432,-654 432,-660 432,-660 432,-672 432,-672 432,-678 426,-684 420,-684"/>
<text text-anchor="middle" x="392" y="-663.5" font-family="sans" font-size="10.00">TrimAdapters</text>
</g>
<!-- 13&#45;&gt;14 -->
<g id="edge20" class="edge"><title>13&#45;&gt;14</title>
<path fill="none" stroke="grey" stroke-width="2" d="M452.978,-719.697C442.874,-710.965 430.464,-700.24 419.482,-690.75"/>
<polygon fill="grey" stroke="grey" points="421.647,-687.995 411.792,-684.104 417.07,-693.291 421.647,-687.995"/>
</g>
<!-- 14&#45;&gt;8 -->
<g id="edge14" class="edge"><title>14&#45;&gt;8</title>
<path fill="none" stroke="grey" stroke-width="2" d="M385.82,-647.697C383.005,-639.813 379.609,-630.304 376.481,-621.546"/>
<polygon fill="grey" stroke="grey" points="379.768,-620.345 373.109,-612.104 373.176,-622.699 379.768,-620.345"/>
</g>
<!-- 15&#45;&gt;5 -->
<g id="edge10" class="edge"><title>15&#45;&gt;5</title>
<path fill="none" stroke="grey" stroke-width="2" d="M515.574,-71.9656C480.75,-59.7161 434.475,-43.4385 402.46,-32.1768"/>
<polygon fill="grey" stroke="grey" points="403.605,-28.8694 393.01,-28.8528 401.282,-35.4728 403.605,-28.8694"/>
</g>
</g>
</svg>
