<?xml version="1.0" encoding="UTF-8" standalone="no"?>
<!DOCTYPE svg PUBLIC "-//W3C//DTD SVG 1.1//EN"
 "http://www.w3.org/Graphics/SVG/1.1/DTD/svg11.dtd">
<!-- Generated by graphviz version 2.30.1 (20150306.0020)
 -->
<!-- Title: snakemake_dag Pages: 1 -->
<svg width="648pt" height="836pt"
 viewBox="0.00 0.00 648.00 836.00" xmlns="http://www.w3.org/2000/svg" xmlns:xlink="http://www.w3.org/1999/xlink">
<g id="graph0" class="graph" transform="scale(1 1) rotate(0) translate(4 832)">
<title>snakemake_dag</title>
<polygon fill="white" stroke="white" points="-4,5 -4,-832 645,-832 645,5 -4,5"/>
<!-- 0 -->
<g id="node1" class="node"><title>0</title>
<path fill="none" stroke="#d85656" stroke-width="2" d="M620.25,-108C620.25,-108 519.75,-108 519.75,-108 513.75,-108 507.75,-102 507.75,-96 507.75,-96 507.75,-84 507.75,-84 507.75,-78 513.75,-72 519.75,-72 519.75,-72 620.25,-72 620.25,-72 626.25,-72 632.25,-78 632.25,-84 632.25,-84 632.25,-96 632.25,-96 632.25,-102 626.25,-108 620.25,-108"/>
<text text-anchor="middle" x="570" y="-87.5" font-family="sans" font-size="10.00">PicardCollectHsMetrics</text>
</g>
<!-- 2 -->
<g id="node3" class="node"><title>2</title>
<path fill="none" stroke="#d8d356" stroke-width="2" d="M308,-36C308,-36 276,-36 276,-36 270,-36 264,-30 264,-24 264,-24 264,-12 264,-12 264,-6 270,-0 276,-0 276,-0 308,-0 308,-0 314,-0 320,-6 320,-12 320,-12 320,-24 320,-24 320,-30 314,-36 308,-36"/>
<text text-anchor="middle" x="292" y="-15.5" font-family="sans" font-size="10.00">Cleanup</text>
</g>
<!-- 0&#45;&gt;2 -->
<g id="edge6" class="edge"><title>0&#45;&gt;2</title>
<path fill="none" stroke="grey" stroke-width="2" d="M507.611,-73.2906C453.14,-59.5748 375.841,-40.1111 330.115,-28.5972"/>
<polygon fill="grey" stroke="grey" points="330.857,-25.1749 320.305,-26.1272 329.148,-31.9631 330.857,-25.1749"/>
</g>
<!-- 1 -->
<g id="node2" class="node"><title>1</title>
<path fill="none" stroke="#d8b456" stroke-width="2" d="M477.25,-108C477.25,-108 386.75,-108 386.75,-108 380.75,-108 374.75,-102 374.75,-96 374.75,-96 374.75,-84 374.75,-84 374.75,-78 380.75,-72 386.75,-72 386.75,-72 477.25,-72 477.25,-72 483.25,-72 489.25,-78 489.25,-84 489.25,-84 489.25,-96 489.25,-96 489.25,-102 483.25,-108 477.25,-108"/>
<text text-anchor="middle" x="432" y="-87.5" font-family="sans" font-size="10.00">GatkHaplotypeCaller</text>
</g>
<!-- 1&#45;&gt;2 -->
<g id="edge7" class="edge"><title>1&#45;&gt;2</title>
<path fill="none" stroke="grey" stroke-width="2" d="M397.752,-71.8761C377.021,-61.5103 350.57,-48.2849 329.308,-37.6541"/>
<polygon fill="grey" stroke="grey" points="330.755,-34.4645 320.246,-33.1228 327.625,-40.7255 330.755,-34.4645"/>
</g>
<!-- 3 -->
<g id="node4" class="node"><title>3</title>
<path fill="none" stroke="#bed856" stroke-width="2" d="M323.25,-612C323.25,-612 288.75,-612 288.75,-612 282.75,-612 276.75,-606 276.75,-600 276.75,-600 276.75,-588 276.75,-588 276.75,-582 282.75,-576 288.75,-576 288.75,-576 323.25,-576 323.25,-576 329.25,-576 335.25,-582 335.25,-588 335.25,-588 335.25,-600 335.25,-600 335.25,-606 329.25,-612 323.25,-612"/>
<text text-anchor="middle" x="306" y="-591.5" font-family="sans" font-size="10.00">BwaAlign</text>
</g>
<!-- 16 -->
<g id="node17" class="node"><title>16</title>
<path fill="none" stroke="#5673d8" stroke-width="2" d="M347.25,-540C347.25,-540 264.75,-540 264.75,-540 258.75,-540 252.75,-534 252.75,-528 252.75,-528 252.75,-516 252.75,-516 252.75,-510 258.75,-504 264.75,-504 264.75,-504 347.25,-504 347.25,-504 353.25,-504 359.25,-510 359.25,-516 359.25,-516 359.25,-528 359.25,-528 359.25,-534 353.25,-540 347.25,-540"/>
<text text-anchor="middle" x="306" y="-519.5" font-family="sans" font-size="10.00">FixMateInformation</text>
</g>
<!-- 3&#45;&gt;16 -->
<g id="edge26" class="edge"><title>3&#45;&gt;16</title>
<path fill="none" stroke="grey" stroke-width="2" d="M306,-575.697C306,-567.983 306,-558.712 306,-550.112"/>
<polygon fill="grey" stroke="grey" points="309.5,-550.104 306,-540.104 302.5,-550.104 309.5,-550.104"/>
</g>
<!-- 4 -->
<g id="node5" class="node"><title>4</title>
<path fill="none" stroke="#9fd856" stroke-width="2" d="M537.25,-828C537.25,-828 466.75,-828 466.75,-828 460.75,-828 454.75,-822 454.75,-816 454.75,-816 454.75,-804 454.75,-804 454.75,-798 460.75,-792 466.75,-792 466.75,-792 537.25,-792 537.25,-792 543.25,-792 549.25,-798 549.25,-804 549.25,-804 549.25,-816 549.25,-816 549.25,-822 543.25,-828 537.25,-828"/>
<text text-anchor="middle" x="502" y="-807.5" font-family="sans" font-size="10.00">CheckResources</text>
</g>
<!-- 5 -->
<g id="node6" class="node"><title>5</title>
<path fill="none" stroke="#88d856" stroke-width="2" d="M337.25,-756C337.25,-756 274.75,-756 274.75,-756 268.75,-756 262.75,-750 262.75,-744 262.75,-744 262.75,-732 262.75,-732 262.75,-726 268.75,-720 274.75,-720 274.75,-720 337.25,-720 337.25,-720 343.25,-720 349.25,-726 349.25,-732 349.25,-732 349.25,-744 349.25,-744 349.25,-750 343.25,-756 337.25,-756"/>
<text text-anchor="middle" x="306" y="-735.5" font-family="sans" font-size="10.00">CheckGzipFiles</text>
</g>
<!-- 4&#45;&gt;5 -->
<g id="edge13" class="edge"><title>4&#45;&gt;5</title>
<path fill="none" stroke="grey" stroke-width="2" d="M454.554,-792.055C425.623,-781.722 388.597,-768.499 358.748,-757.838"/>
<polygon fill="grey" stroke="grey" points="359.922,-754.542 349.328,-754.474 357.568,-761.134 359.922,-754.542"/>
</g>
<!-- 7 -->
<g id="node8" class="node"><title>7</title>
<path fill="none" stroke="#68d856" stroke-width="2" d="M628,-684C628,-684 544,-684 544,-684 538,-684 532,-678 532,-672 532,-672 532,-660 532,-660 532,-654 538,-648 544,-648 544,-648 628,-648 628,-648 634,-648 640,-654 640,-660 640,-660 640,-672 640,-672 640,-678 634,-684 628,-684"/>
<text text-anchor="middle" x="586" y="-663.5" font-family="sans" font-size="10.00">PicardIntervalForRC</text>
</g>
<!-- 4&#45;&gt;7 -->
<g id="edge16" class="edge"><title>4&#45;&gt;7</title>
<path fill="none" stroke="grey" stroke-width="2" d="M512.132,-791.871C526.701,-767.244 553.679,-721.638 570.688,-692.885"/>
<polygon fill="grey" stroke="grey" points="573.753,-694.578 575.832,-684.189 567.728,-691.014 573.753,-694.578"/>
</g>
<!-- 11 -->
<g id="node12" class="node"><title>11</title>
<path fill="none" stroke="#56d8c1" stroke-width="2" d="M550.25,-180C550.25,-180 435.75,-180 435.75,-180 429.75,-180 423.75,-174 423.75,-168 423.75,-168 423.75,-156 423.75,-156 423.75,-150 429.75,-144 435.75,-144 435.75,-144 550.25,-144 550.25,-144 556.25,-144 562.25,-150 562.25,-156 562.25,-156 562.25,-168 562.25,-168 562.25,-174 556.25,-180 550.25,-180"/>
<text text-anchor="middle" x="493" y="-159.5" font-family="sans" font-size="10.00">PicardIntervalForOnTarget</text>
</g>
<!-- 4&#45;&gt;11 -->
<g id="edge21" class="edge"><title>4&#45;&gt;11</title>
<path fill="none" stroke="grey" stroke-width="2" d="M502,-791.951C502,-765.292 502,-712.115 502,-667 502,-667 502,-667 502,-305 502,-264.916 498.384,-218.594 495.736,-190.048"/>
<polygon fill="grey" stroke="grey" points="499.214,-189.649 494.778,-180.027 492.246,-190.315 499.214,-189.649"/>
</g>
<!-- 5&#45;&gt;2 -->
<g id="edge10" class="edge"><title>5&#45;&gt;2</title>
<path fill="none" stroke="grey" stroke-width="2" d="M262.483,-736.124C178.001,-731.874 0,-709.351 0,-595 0,-595 0,-595 0,-161 0,-49.4609 174.44,-25.5118 253.666,-20.3867"/>
<polygon fill="grey" stroke="grey" points="253.955,-23.8759 263.736,-19.804 253.551,-16.8875 253.955,-23.8759"/>
</g>
<!-- 12 -->
<g id="node13" class="node"><title>12</title>
<path fill="none" stroke="#56d0d8" stroke-width="2" d="M334,-684C334,-684 278,-684 278,-684 272,-684 266,-678 266,-672 266,-672 266,-660 266,-660 266,-654 272,-648 278,-648 278,-648 334,-648 334,-648 340,-648 346,-654 346,-660 346,-660 346,-672 346,-672 346,-678 340,-684 334,-684"/>
<text text-anchor="middle" x="306" y="-663.5" font-family="sans" font-size="10.00">TrimAdapters</text>
</g>
<!-- 5&#45;&gt;12 -->
<g id="edge22" class="edge"><title>5&#45;&gt;12</title>
<path fill="none" stroke="grey" stroke-width="2" d="M306,-719.697C306,-711.983 306,-702.712 306,-694.112"/>
<polygon fill="grey" stroke="grey" points="309.5,-694.104 306,-684.104 302.5,-694.104 309.5,-694.104"/>
</g>
<!-- 6 -->
<g id="node7" class="node"><title>6</title>
<path fill="none" stroke="#d87556" stroke-width="2" d="M390,-324C390,-324 336,-324 336,-324 330,-324 324,-318 324,-312 324,-312 324,-300 324,-300 324,-294 330,-288 336,-288 336,-288 390,-288 390,-288 396,-288 402,-294 402,-300 402,-300 402,-312 402,-312 402,-318 396,-324 390,-324"/>
<text text-anchor="middle" x="363" y="-303.5" font-family="sans" font-size="10.00">RealignIndels</text>
</g>
<!-- 9 -->
<g id="node10" class="node"><title>9</title>
<path fill="none" stroke="#56d863" stroke-width="2" d="M393.25,-180C393.25,-180 298.75,-180 298.75,-180 292.75,-180 286.75,-174 286.75,-168 286.75,-168 286.75,-156 286.75,-156 286.75,-150 292.75,-144 298.75,-144 298.75,-144 393.25,-144 393.25,-144 399.25,-144 405.25,-150 405.25,-156 405.25,-156 405.25,-168 405.25,-168 405.25,-174 399.25,-180 393.25,-180"/>
<text text-anchor="middle" x="346" y="-159.5" font-family="sans" font-size="10.00">PrintRecalibratedBam</text>
</g>
<!-- 6&#45;&gt;9 -->
<g id="edge18" class="edge"><title>6&#45;&gt;9</title>
<path fill="none" stroke="grey" stroke-width="2" d="M370.715,-287.704C377.726,-269.598 385.991,-240.453 379,-216 376.287,-206.51 371.328,-197.065 366.065,-188.834"/>
<polygon fill="grey" stroke="grey" points="368.858,-186.717 360.327,-180.434 363.078,-190.666 368.858,-186.717"/>
</g>
<!-- 15 -->
<g id="node16" class="node"><title>15</title>
<path fill="none" stroke="#5692d8" stroke-width="2" d="M358,-252C358,-252 284,-252 284,-252 278,-252 272,-246 272,-240 272,-240 272,-228 272,-228 272,-222 278,-216 284,-216 284,-216 358,-216 358,-216 364,-216 370,-222 370,-228 370,-228 370,-240 370,-240 370,-246 364,-252 358,-252"/>
<text text-anchor="middle" x="321" y="-231.5" font-family="sans" font-size="10.00">RecalibrateBases</text>
</g>
<!-- 6&#45;&gt;15 -->
<g id="edge25" class="edge"><title>6&#45;&gt;15</title>
<path fill="none" stroke="grey" stroke-width="2" d="M352.618,-287.697C347.735,-279.559 341.813,-269.689 336.421,-260.701"/>
<polygon fill="grey" stroke="grey" points="339.409,-258.879 331.263,-252.104 333.406,-262.48 339.409,-258.879"/>
</g>
<!-- 7&#45;&gt;0 -->
<g id="edge3" class="edge"><title>7&#45;&gt;0</title>
<path fill="none" stroke="grey" stroke-width="2" d="M586.988,-647.958C588.445,-621.308 591,-568.143 591,-523 591,-523 591,-523 591,-233 591,-192.782 582.654,-146.839 576.485,-118.372"/>
<polygon fill="grey" stroke="grey" points="579.846,-117.362 574.25,-108.366 573.015,-118.889 579.846,-117.362"/>
</g>
<!-- 8 -->
<g id="node9" class="node"><title>8</title>
<path fill="none" stroke="#56d882" stroke-width="2" d="M424,-396C424,-396 268,-396 268,-396 262,-396 256,-390 256,-384 256,-384 256,-372 256,-372 256,-366 262,-360 268,-360 268,-360 424,-360 424,-360 430,-360 436,-366 436,-372 436,-372 436,-384 436,-384 436,-390 430,-396 424,-396"/>
<text text-anchor="middle" x="346" y="-375.5" font-family="sans" font-size="10.00">CreateTargetsForIndelRealignment</text>
</g>
<!-- 8&#45;&gt;6 -->
<g id="edge14" class="edge"><title>8&#45;&gt;6</title>
<path fill="none" stroke="grey" stroke-width="2" d="M350.202,-359.697C352.096,-351.898 354.377,-342.509 356.484,-333.829"/>
<polygon fill="grey" stroke="grey" points="359.887,-334.648 358.846,-324.104 353.085,-332.996 359.887,-334.648"/>
</g>
<!-- 9&#45;&gt;0 -->
<g id="edge1" class="edge"><title>9&#45;&gt;0</title>
<path fill="none" stroke="grey" stroke-width="2" d="M400.51,-143.966C432.216,-134.057 472.355,-121.514 505.613,-111.121"/>
<polygon fill="grey" stroke="grey" points="506.745,-114.434 515.245,-108.111 504.657,-107.753 506.745,-114.434"/>
</g>
<!-- 9&#45;&gt;1 -->
<g id="edge4" class="edge"><title>9&#45;&gt;1</title>
<path fill="none" stroke="grey" stroke-width="2" d="M367.258,-143.697C378.089,-134.881 391.418,-124.032 403.16,-114.474"/>
<polygon fill="grey" stroke="grey" points="405.44,-117.132 410.986,-108.104 401.021,-111.703 405.44,-117.132"/>
</g>
<!-- 9&#45;&gt;2 -->
<g id="edge8" class="edge"><title>9&#45;&gt;2</title>
<path fill="none" stroke="grey" stroke-width="2" d="M344.242,-143.7C341.937,-125.338 336.957,-95.7505 327,-72 323.013,-62.4902 317.269,-52.8559 311.583,-44.4569"/>
<polygon fill="grey" stroke="grey" points="314.384,-42.3558 305.754,-36.2085 308.667,-46.3953 314.384,-42.3558"/>
</g>
<!-- 10 -->
<g id="node11" class="node"><title>10</title>
<path fill="none" stroke="#56d8a2" stroke-width="2" d="M306,-108C306,-108 170,-108 170,-108 164,-108 158,-102 158,-96 158,-96 158,-84 158,-84 158,-78 164,-72 170,-72 170,-72 306,-72 306,-72 312,-72 318,-78 318,-84 318,-84 318,-96 318,-96 318,-102 312,-108 306,-108"/>
<text text-anchor="middle" x="238" y="-87.5" font-family="sans" font-size="10.00">PicardCollectInsertSizeMetrics</text>
</g>
<!-- 9&#45;&gt;10 -->
<g id="edge20" class="edge"><title>9&#45;&gt;10</title>
<path fill="none" stroke="grey" stroke-width="2" d="M319.58,-143.876C305.59,-134.808 288.224,-123.552 273.114,-113.759"/>
<polygon fill="grey" stroke="grey" points="274.817,-110.692 264.521,-108.19 271.009,-116.566 274.817,-110.692"/>
</g>
<!-- 10&#45;&gt;2 -->
<g id="edge11" class="edge"><title>10&#45;&gt;2</title>
<path fill="none" stroke="grey" stroke-width="2" d="M251.348,-71.6966C257.757,-63.3893 265.558,-53.2771 272.606,-44.1407"/>
<polygon fill="grey" stroke="grey" points="275.468,-46.16 278.805,-36.1043 269.926,-41.8844 275.468,-46.16"/>
</g>
<!-- 11&#45;&gt;0 -->
<g id="edge2" class="edge"><title>11&#45;&gt;0</title>
<path fill="none" stroke="grey" stroke-width="2" d="M512.034,-143.697C521.545,-135.05 533.207,-124.449 543.57,-115.027"/>
<polygon fill="grey" stroke="grey" points="546.14,-117.421 551.185,-108.104 541.431,-112.241 546.14,-117.421"/>
</g>
<!-- 11&#45;&gt;1 -->
<g id="edge5" class="edge"><title>11&#45;&gt;1</title>
<path fill="none" stroke="grey" stroke-width="2" d="M477.921,-143.697C470.608,-135.305 461.69,-125.07 453.665,-115.861"/>
<polygon fill="grey" stroke="grey" points="456.114,-113.344 446.905,-108.104 450.836,-117.943 456.114,-113.344"/>
</g>
<!-- 12&#45;&gt;3 -->
<g id="edge12" class="edge"><title>12&#45;&gt;3</title>
<path fill="none" stroke="grey" stroke-width="2" d="M306,-647.697C306,-639.983 306,-630.712 306,-622.112"/>
<polygon fill="grey" stroke="grey" points="309.5,-622.104 306,-612.104 302.5,-622.104 309.5,-622.104"/>
</g>
<!-- 13 -->
<g id="node14" class="node"><title>13</title>
<path fill="none" stroke="#d89556" stroke-width="2" d="M225.25,-396C225.25,-396 40.75,-396 40.75,-396 34.75,-396 28.75,-390 28.75,-384 28.75,-384 28.75,-372 28.75,-372 28.75,-366 34.75,-360 40.75,-360 40.75,-360 225.25,-360 225.25,-360 231.25,-360 237.25,-366 237.25,-372 237.25,-372 237.25,-384 237.25,-384 237.25,-390 231.25,-396 225.25,-396"/>
<text text-anchor="middle" x="133" y="-375.5" font-family="sans" font-size="10.00">PicardCollectAlignmentSummaryMetrics</text>
</g>
<!-- 13&#45;&gt;2 -->
<g id="edge9" class="edge"><title>13&#45;&gt;2</title>
<path fill="none" stroke="grey" stroke-width="2" d="M132.407,-359.953C131.533,-333.297 130,-280.125 130,-235 130,-235 130,-235 130,-161 130,-120.553 122.541,-102.592 149,-72 175.413,-41.462 221.101,-28.4995 253.728,-23.0097"/>
<polygon fill="grey" stroke="grey" points="254.459,-26.4388 263.821,-21.4771 253.409,-19.5181 254.459,-26.4388"/>
</g>
<!-- 14 -->
<g id="node15" class="node"><title>14</title>
<path fill="none" stroke="#56b1d8" stroke-width="2" d="M386.25,-468C386.25,-468 305.75,-468 305.75,-468 299.75,-468 293.75,-462 293.75,-456 293.75,-456 293.75,-444 293.75,-444 293.75,-438 299.75,-432 305.75,-432 305.75,-432 386.25,-432 386.25,-432 392.25,-432 398.25,-438 398.25,-444 398.25,-444 398.25,-456 398.25,-456 398.25,-462 392.25,-468 386.25,-468"/>
<text text-anchor="middle" x="346" y="-447.5" font-family="sans" font-size="10.00">RemoveDuplicates</text>
</g>
<!-- 14&#45;&gt;6 -->
<g id="edge15" class="edge"><title>14&#45;&gt;6</title>
<path fill="none" stroke="grey" stroke-width="2" d="M398.501,-433.413C416.466,-425.287 434.632,-413.311 445,-396 453.221,-382.274 452.65,-374.053 445,-360 437.421,-346.077 424.437,-335.254 411.008,-327.124"/>
<polygon fill="grey" stroke="grey" points="412.605,-324.007 402.172,-322.164 409.179,-330.111 412.605,-324.007"/>
</g>
<!-- 14&#45;&gt;8 -->
<g id="edge17" class="edge"><title>14&#45;&gt;8</title>
<path fill="none" stroke="grey" stroke-width="2" d="M346,-431.697C346,-423.983 346,-414.712 346,-406.112"/>
<polygon fill="grey" stroke="grey" points="349.5,-406.104 346,-396.104 342.5,-406.104 349.5,-406.104"/>
</g>
<!-- 15&#45;&gt;9 -->
<g id="edge19" class="edge"><title>15&#45;&gt;9</title>
<path fill="none" stroke="grey" stroke-width="2" d="M327.18,-215.697C329.995,-207.813 333.391,-198.304 336.519,-189.546"/>
<polygon fill="grey" stroke="grey" points="339.824,-190.699 339.891,-180.104 333.232,-188.345 339.824,-190.699"/>
</g>
<!-- 16&#45;&gt;13 -->
<g id="edge23" class="edge"><title>16&#45;&gt;13</title>
<path fill="none" stroke="grey" stroke-width="2" d="M285.132,-503.871C254.349,-478.604 196.662,-431.254 161.848,-402.679"/>
<polygon fill="grey" stroke="grey" points="163.892,-399.828 153.942,-396.189 159.451,-405.239 163.892,-399.828"/>
</g>
<!-- 16&#45;&gt;14 -->
<g id="edge24" class="edge"><title>16&#45;&gt;14</title>
<path fill="none" stroke="grey" stroke-width="2" d="M315.888,-503.697C320.489,-495.644 326.06,-485.894 331.153,-476.982"/>
<polygon fill="grey" stroke="grey" points="334.304,-478.523 336.226,-468.104 328.226,-475.05 334.304,-478.523"/>
</g>
</g>
</svg>
