<?xml version="1.0" encoding="UTF-8" standalone="no"?>
<!DOCTYPE svg PUBLIC "-//W3C//DTD SVG 1.1//EN"
 "http://www.w3.org/Graphics/SVG/1.1/DTD/svg11.dtd">
<!-- Generated by graphviz version 2.26.0 (20091210.2329)
 -->
<!-- Title: snakemake_dag Pages: 1 -->
<svg width="646pt" height="1412pt"
 viewBox="0.00 0.00 646.00 1412.00" xmlns="http://www.w3.org/2000/svg" xmlns:xlink="http://www.w3.org/1999/xlink">
<g id="graph1" class="graph" transform="scale(1 1) rotate(0) translate(4 1408)">
<title>snakemake_dag</title>
<polygon fill="white" stroke="white" points="-4,5 -4,-1408 643,-1408 643,5 -4,5"/>
<!-- 0 -->
<g id="node1" class="node"><title>0</title>
<polyline fill="none" stroke="#d86656" stroke-width="2" points="441,-36 411,-36 "/>
<path fill="none" stroke="#d86656" stroke-width="2" d="M411,-36C405,-36 399,-30 399,-24"/>
<polyline fill="none" stroke="#d86656" stroke-width="2" points="399,-24 399,-12 "/>
<path fill="none" stroke="#d86656" stroke-width="2" d="M399,-12C399,-6 405,-1.61846e-14 411,-1.46056e-14"/>
<polyline fill="none" stroke="#d86656" stroke-width="2" points="411,-1.46056e-14 441,-6.71068e-15 "/>
<path fill="none" stroke="#d86656" stroke-width="2" d="M441,-6.71068e-15C447,-5.1317e-15 453,-6 453,-12"/>
<polyline fill="none" stroke="#d86656" stroke-width="2" points="453,-12 453,-24 "/>
<path fill="none" stroke="#d86656" stroke-width="2" d="M453,-24C453,-30 447,-36 441,-36"/>
<text text-anchor="middle" x="426" y="-15.5" font-family="sans" font-size="10.00">Results</text>
</g>
<!-- 1 -->
<g id="node2" class="node"><title>1</title>
<polyline fill="none" stroke="#56d89a" stroke-width="2" points="435,-396 359,-396 "/>
<path fill="none" stroke="#56d89a" stroke-width="2" d="M359,-396C353,-396 347,-390 347,-384"/>
<polyline fill="none" stroke="#56d89a" stroke-width="2" points="347,-384 347,-372 "/>
<path fill="none" stroke="#56d89a" stroke-width="2" d="M347,-372C347,-366 353,-360 359,-360"/>
<polyline fill="none" stroke="#56d89a" stroke-width="2" points="359,-360 435,-360 "/>
<path fill="none" stroke="#56d89a" stroke-width="2" d="M435,-360C441,-360 447,-366 447,-372"/>
<polyline fill="none" stroke="#56d89a" stroke-width="2" points="447,-372 447,-384 "/>
<path fill="none" stroke="#56d89a" stroke-width="2" d="M447,-384C447,-390 441,-396 435,-396"/>
<text text-anchor="middle" x="397" y="-375.5" font-family="sans" font-size="10.00">SplitMutectBam</text>
</g>
<!-- 1&#45;&gt;0 -->
<g id="edge2" class="edge"><title>1&#45;&gt;0</title>
<path fill="none" stroke="grey" stroke-width="2" d="M397.207,-359.815C397.5,-332.499 398,-279.251 398,-234 398,-234 398,-234 398,-162 398,-121.171 408.98,-75.0082 417.189,-46.2028"/>
<polygon fill="grey" stroke="grey" points="420.603,-46.9987 420.062,-36.4177 413.886,-45.0265 420.603,-46.9987"/>
</g>
<!-- 2 -->
<g id="node3" class="node"><title>2</title>
<polyline fill="none" stroke="#d89556" stroke-width="2" points="347,-108 313,-108 "/>
<path fill="none" stroke="#d89556" stroke-width="2" d="M313,-108C307,-108 301,-102 301,-96"/>
<polyline fill="none" stroke="#d89556" stroke-width="2" points="301,-96 301,-84 "/>
<path fill="none" stroke="#d89556" stroke-width="2" d="M301,-84C301,-78 307,-72 313,-72"/>
<polyline fill="none" stroke="#d89556" stroke-width="2" points="313,-72 347,-72 "/>
<path fill="none" stroke="#d89556" stroke-width="2" d="M347,-72C353,-72 359,-78 359,-84"/>
<polyline fill="none" stroke="#d89556" stroke-width="2" points="359,-84 359,-96 "/>
<path fill="none" stroke="#d89556" stroke-width="2" d="M359,-96C359,-102 353,-108 347,-108"/>
<text text-anchor="middle" x="330" y="-87.5" font-family="sans" font-size="10.00">VcfTabix</text>
</g>
<!-- 2&#45;&gt;0 -->
<g id="edge4" class="edge"><title>2&#45;&gt;0</title>
<path fill="none" stroke="grey" stroke-width="2" d="M354.225,-71.8314C366.163,-62.8779 380.726,-51.9558 393.606,-42.2955"/>
<polygon fill="grey" stroke="grey" points="395.883,-44.9629 401.783,-36.1628 391.683,-39.3629 395.883,-44.9629"/>
</g>
<!-- 3 -->
<g id="node4" class="node"><title>3</title>
<polyline fill="none" stroke="#56a2d8" stroke-width="2" points="508,-324 440,-324 "/>
<path fill="none" stroke="#56a2d8" stroke-width="2" d="M440,-324C434,-324 428,-318 428,-312"/>
<polyline fill="none" stroke="#56a2d8" stroke-width="2" points="428,-312 428,-300 "/>
<path fill="none" stroke="#56a2d8" stroke-width="2" d="M428,-300C428,-294 434,-288 440,-288"/>
<polyline fill="none" stroke="#56a2d8" stroke-width="2" points="440,-288 508,-288 "/>
<path fill="none" stroke="#56a2d8" stroke-width="2" d="M508,-288C514,-288 520,-294 520,-300"/>
<polyline fill="none" stroke="#56a2d8" stroke-width="2" points="520,-300 520,-312 "/>
<path fill="none" stroke="#56a2d8" stroke-width="2" d="M520,-312C520,-318 514,-324 508,-324"/>
<text text-anchor="middle" x="474" y="-303.5" font-family="sans" font-size="10.00">USeq2UCSCBig</text>
</g>
<!-- 3&#45;&gt;0 -->
<g id="edge6" class="edge"><title>3&#45;&gt;0</title>
<path fill="none" stroke="grey" stroke-width="2" d="M470.997,-287.984C462.882,-239.294 440.466,-104.796 430.676,-46.0573"/>
<polygon fill="grey" stroke="grey" points="434.098,-45.2974 429.001,-36.0089 427.193,-46.4482 434.098,-45.2974"/>
</g>
<!-- 4 -->
<g id="node5" class="node"><title>4</title>
<polyline fill="none" stroke="#d8a456" stroke-width="2" points="603,-612 515,-612 "/>
<path fill="none" stroke="#d8a456" stroke-width="2" d="M515,-612C509,-612 503,-606 503,-600"/>
<polyline fill="none" stroke="#d8a456" stroke-width="2" points="503,-600 503,-588 "/>
<path fill="none" stroke="#d8a456" stroke-width="2" d="M503,-588C503,-582 509,-576 515,-576"/>
<polyline fill="none" stroke="#d8a456" stroke-width="2" points="515,-576 603,-576 "/>
<path fill="none" stroke="#d8a456" stroke-width="2" d="M603,-576C609,-576 615,-582 615,-588"/>
<polyline fill="none" stroke="#d8a456" stroke-width="2" points="615,-588 615,-600 "/>
<path fill="none" stroke="#d8a456" stroke-width="2" d="M615,-600C615,-606 609,-612 603,-612"/>
<text text-anchor="middle" x="559" y="-591.5" font-family="sans" font-size="10.00">AggregateQCStats</text>
</g>
<!-- 4&#45;&gt;0 -->
<g id="edge8" class="edge"><title>4&#45;&gt;0</title>
<path fill="none" stroke="grey" stroke-width="2" d="M557.964,-575.822C556.499,-548.514 554,-495.277 554,-450 554,-450 554,-450 554,-162 554,-106.261 499.763,-62.0711 461.9,-38.013"/>
<polygon fill="grey" stroke="grey" points="463.495,-34.885 453.146,-32.6194 459.823,-40.8447 463.495,-34.885"/>
</g>
<!-- 5 -->
<g id="node6" class="node"><title>5</title>
<polyline fill="none" stroke="#9fd856" stroke-width="2" points="381,-612 351,-612 "/>
<path fill="none" stroke="#9fd856" stroke-width="2" d="M351,-612C345,-612 339,-606 339,-600"/>
<polyline fill="none" stroke="#9fd856" stroke-width="2" points="339,-600 339,-588 "/>
<path fill="none" stroke="#9fd856" stroke-width="2" d="M339,-588C339,-582 345,-576 351,-576"/>
<polyline fill="none" stroke="#9fd856" stroke-width="2" points="351,-576 381,-576 "/>
<path fill="none" stroke="#9fd856" stroke-width="2" d="M381,-576C387,-576 393,-582 393,-588"/>
<polyline fill="none" stroke="#9fd856" stroke-width="2" points="393,-588 393,-600 "/>
<path fill="none" stroke="#9fd856" stroke-width="2" d="M393,-600C393,-606 387,-612 381,-612"/>
<text text-anchor="middle" x="366" y="-591.5" font-family="sans" font-size="10.00">Mutect</text>
</g>
<!-- 5&#45;&gt;1 -->
<g id="edge10" class="edge"><title>5&#45;&gt;1</title>
<path fill="none" stroke="grey" stroke-width="2" d="M383.711,-575.652C391.894,-565.895 400.73,-553.204 405,-540 419.619,-494.789 411.491,-438.796 404.251,-405.877"/>
<polygon fill="grey" stroke="grey" points="407.637,-404.989 401.961,-396.043 400.82,-406.576 407.637,-404.989"/>
</g>
<!-- 29 -->
<g id="node30" class="node"><title>29</title>
<polyline fill="none" stroke="#80d856" stroke-width="2" points="384,-540 328,-540 "/>
<path fill="none" stroke="#80d856" stroke-width="2" d="M328,-540C322,-540 316,-534 316,-528"/>
<polyline fill="none" stroke="#80d856" stroke-width="2" points="316,-528 316,-516 "/>
<path fill="none" stroke="#80d856" stroke-width="2" d="M316,-516C316,-510 322,-504 328,-504"/>
<polyline fill="none" stroke="#80d856" stroke-width="2" points="328,-504 384,-504 "/>
<path fill="none" stroke="#80d856" stroke-width="2" d="M384,-504C390,-504 396,-510 396,-516"/>
<polyline fill="none" stroke="#80d856" stroke-width="2" points="396,-516 396,-528 "/>
<path fill="none" stroke="#80d856" stroke-width="2" d="M396,-528C396,-534 390,-540 384,-540"/>
<text text-anchor="middle" x="356" y="-519.5" font-family="sans" font-size="10.00">MutectFilter</text>
</g>
<!-- 5&#45;&gt;29 -->
<g id="edge82" class="edge"><title>5&#45;&gt;29</title>
<path fill="none" stroke="grey" stroke-width="2" d="M363.477,-575.831C362.407,-568.131 361.135,-558.974 359.947,-550.417"/>
<polygon fill="grey" stroke="grey" points="363.4,-549.837 358.557,-540.413 356.466,-550.8 363.4,-549.837"/>
</g>
<!-- 6 -->
<g id="node7" class="node"><title>6</title>
<polyline fill="none" stroke="#56d0d8" stroke-width="2" points="323,-180 293,-180 "/>
<path fill="none" stroke="#56d0d8" stroke-width="2" d="M293,-180C287,-180 281,-174 281,-168"/>
<polyline fill="none" stroke="#56d0d8" stroke-width="2" points="281,-168 281,-156 "/>
<path fill="none" stroke="#56d0d8" stroke-width="2" d="M281,-156C281,-150 287,-144 293,-144"/>
<polyline fill="none" stroke="#56d0d8" stroke-width="2" points="293,-144 323,-144 "/>
<path fill="none" stroke="#56d0d8" stroke-width="2" d="M323,-144C329,-144 335,-150 335,-156"/>
<polyline fill="none" stroke="#56d0d8" stroke-width="2" points="335,-156 335,-168 "/>
<path fill="none" stroke="#56d0d8" stroke-width="2" d="M335,-168C335,-174 329,-180 323,-180"/>
<text text-anchor="middle" x="308" y="-159.5" font-family="sans" font-size="10.00">SnpEff</text>
</g>
<!-- 6&#45;&gt;2 -->
<g id="edge12" class="edge"><title>6&#45;&gt;2</title>
<path fill="none" stroke="grey" stroke-width="2" d="M313.552,-143.831C315.93,-136.046 318.764,-126.773 321.403,-118.135"/>
<polygon fill="grey" stroke="grey" points="324.799,-119 324.374,-108.413 318.104,-116.954 324.799,-119"/>
</g>
<!-- 7 -->
<g id="node8" class="node"><title>7</title>
<polyline fill="none" stroke="#70d856" stroke-width="2" points="489,-684 443,-684 "/>
<path fill="none" stroke="#70d856" stroke-width="2" d="M443,-684C437,-684 431,-678 431,-672"/>
<polyline fill="none" stroke="#70d856" stroke-width="2" points="431,-672 431,-660 "/>
<path fill="none" stroke="#70d856" stroke-width="2" d="M431,-660C431,-654 437,-648 443,-648"/>
<polyline fill="none" stroke="#70d856" stroke-width="2" points="443,-648 489,-648 "/>
<path fill="none" stroke="#70d856" stroke-width="2" d="M489,-648C495,-648 501,-654 501,-660"/>
<polyline fill="none" stroke="#70d856" stroke-width="2" points="501,-660 501,-672 "/>
<path fill="none" stroke="#70d856" stroke-width="2" d="M501,-672C501,-678 495,-684 489,-684"/>
<text text-anchor="middle" x="466" y="-663.5" font-family="sans" font-size="10.00">Sam2USeq</text>
</g>
<!-- 7&#45;&gt;3 -->
<g id="edge14" class="edge"><title>7&#45;&gt;3</title>
<path fill="none" stroke="grey" stroke-width="2" d="M467.865,-647.837C470.501,-620.55 475,-567.338 475,-522 475,-522 475,-522 475,-450 475,-409.875 474.607,-363.462 474.314,-334.417"/>
<polygon fill="grey" stroke="grey" points="477.811,-334.148 474.207,-324.185 470.812,-334.221 477.811,-334.148"/>
</g>
<!-- 7&#45;&gt;4 -->
<g id="edge16" class="edge"><title>7&#45;&gt;4</title>
<path fill="none" stroke="grey" stroke-width="2" d="M489.468,-647.831C501.033,-638.878 515.14,-627.956 527.618,-618.295"/>
<polygon fill="grey" stroke="grey" points="529.775,-621.052 535.54,-612.163 525.49,-615.517 529.775,-621.052"/>
</g>
<!-- 8 -->
<g id="node9" class="node"><title>8</title>
<polyline fill="none" stroke="#d8c356" stroke-width="2" points="626,-1260 576,-1260 "/>
<path fill="none" stroke="#d8c356" stroke-width="2" d="M576,-1260C570,-1260 564,-1254 564,-1248"/>
<polyline fill="none" stroke="#d8c356" stroke-width="2" points="564,-1248 564,-1236 "/>
<path fill="none" stroke="#d8c356" stroke-width="2" d="M564,-1236C564,-1230 570,-1224 576,-1224"/>
<polyline fill="none" stroke="#d8c356" stroke-width="2" points="576,-1224 626,-1224 "/>
<path fill="none" stroke="#d8c356" stroke-width="2" d="M626,-1224C632,-1224 638,-1230 638,-1236"/>
<polyline fill="none" stroke="#d8c356" stroke-width="2" points="638,-1236 638,-1248 "/>
<path fill="none" stroke="#d8c356" stroke-width="2" d="M638,-1248C638,-1254 632,-1260 626,-1260"/>
<text text-anchor="middle" x="601" y="-1239.5" font-family="sans" font-size="10.00">CountFastq</text>
</g>
<!-- 8&#45;&gt;4 -->
<g id="edge18" class="edge"><title>8&#45;&gt;4</title>
<path fill="none" stroke="grey" stroke-width="2" d="M601.829,-1223.82C603,-1196.51 605,-1143.27 605,-1098 605,-1098 605,-1098 605,-738 605,-695.742 586.802,-649.676 573.299,-621.309"/>
<polygon fill="grey" stroke="grey" points="576.302,-619.484 568.755,-612.048 570.018,-622.568 576.302,-619.484"/>
</g>
<!-- 9 -->
<g id="node10" class="node"><title>9</title>
<polyline fill="none" stroke="#56d87b" stroke-width="2" points="565,-1188 451,-1188 "/>
<path fill="none" stroke="#56d87b" stroke-width="2" d="M451,-1188C445,-1188 439,-1182 439,-1176"/>
<polyline fill="none" stroke="#56d87b" stroke-width="2" points="439,-1176 439,-1164 "/>
<path fill="none" stroke="#56d87b" stroke-width="2" d="M439,-1164C439,-1158 445,-1152 451,-1152"/>
<polyline fill="none" stroke="#56d87b" stroke-width="2" points="451,-1152 565,-1152 "/>
<path fill="none" stroke="#56d87b" stroke-width="2" d="M565,-1152C571,-1152 577,-1158 577,-1164"/>
<polyline fill="none" stroke="#56d87b" stroke-width="2" points="577,-1164 577,-1176 "/>
<path fill="none" stroke="#56d87b" stroke-width="2" d="M577,-1176C577,-1182 571,-1188 565,-1188"/>
<text text-anchor="middle" x="508" y="-1167.5" font-family="sans" font-size="10.00">SamAlignmentExtractor</text>
</g>
<!-- 9&#45;&gt;4 -->
<g id="edge20" class="edge"><title>9&#45;&gt;4</title>
<path fill="none" stroke="grey" stroke-width="2" d="M520.802,-1151.88C538.154,-1125.49 567,-1074.36 567,-1026 567,-1026 567,-1026 567,-738 567,-697.814 563.856,-651.417 561.509,-622.392"/>
<polygon fill="grey" stroke="grey" points="564.976,-621.842 560.658,-612.167 558,-622.424 564.976,-621.842"/>
</g>
<!-- 21 -->
<g id="node22" class="node"><title>21</title>
<polyline fill="none" stroke="#5692d8" stroke-width="2" points="486,-1116 398,-1116 "/>
<path fill="none" stroke="#5692d8" stroke-width="2" d="M398,-1116C392,-1116 386,-1110 386,-1104"/>
<polyline fill="none" stroke="#5692d8" stroke-width="2" points="386,-1104 386,-1092 "/>
<path fill="none" stroke="#5692d8" stroke-width="2" d="M386,-1092C386,-1086 392,-1080 398,-1080"/>
<polyline fill="none" stroke="#5692d8" stroke-width="2" points="398,-1080 486,-1080 "/>
<path fill="none" stroke="#5692d8" stroke-width="2" d="M486,-1080C492,-1080 498,-1086 498,-1092"/>
<polyline fill="none" stroke="#5692d8" stroke-width="2" points="498,-1092 498,-1104 "/>
<path fill="none" stroke="#5692d8" stroke-width="2" d="M498,-1104C498,-1110 492,-1116 486,-1116"/>
<text text-anchor="middle" x="442" y="-1095.5" font-family="sans" font-size="10.00">RemoveDuplicates</text>
</g>
<!-- 9&#45;&gt;21 -->
<g id="edge62" class="edge"><title>9&#45;&gt;21</title>
<path fill="none" stroke="grey" stroke-width="2" d="M491.345,-1151.83C483.589,-1143.37 474.22,-1133.15 465.739,-1123.9"/>
<polygon fill="grey" stroke="grey" points="468.216,-1121.42 458.879,-1116.41 463.056,-1126.15 468.216,-1121.42"/>
</g>
<!-- 10 -->
<g id="node11" class="node"><title>10</title>
<polyline fill="none" stroke="#5673d8" stroke-width="2" points="522,-756 410,-756 "/>
<path fill="none" stroke="#5673d8" stroke-width="2" d="M410,-756C404,-756 398,-750 398,-744"/>
<polyline fill="none" stroke="#5673d8" stroke-width="2" points="398,-744 398,-732 "/>
<path fill="none" stroke="#5673d8" stroke-width="2" d="M398,-732C398,-726 404,-720 410,-720"/>
<polyline fill="none" stroke="#5673d8" stroke-width="2" points="410,-720 522,-720 "/>
<path fill="none" stroke="#5673d8" stroke-width="2" d="M522,-720C528,-720 534,-726 534,-732"/>
<polyline fill="none" stroke="#5673d8" stroke-width="2" points="534,-732 534,-744 "/>
<path fill="none" stroke="#5673d8" stroke-width="2" d="M534,-744C534,-750 528,-756 522,-756"/>
<text text-anchor="middle" x="466" y="-735.5" font-family="sans" font-size="10.00">MergePairedAlignments</text>
</g>
<!-- 10&#45;&gt;4 -->
<g id="edge22" class="edge"><title>10&#45;&gt;4</title>
<path fill="none" stroke="grey" stroke-width="2" d="M482.365,-719.666C491.059,-709.509 501.643,-696.451 510,-684 523.531,-663.841 536.561,-639.598 545.778,-621.354"/>
<polygon fill="grey" stroke="grey" points="549.033,-622.669 550.359,-612.158 542.768,-619.548 549.033,-622.669"/>
</g>
<!-- 10&#45;&gt;7 -->
<g id="edge30" class="edge"><title>10&#45;&gt;7</title>
<path fill="none" stroke="grey" stroke-width="2" d="M466,-719.831C466,-712.131 466,-702.974 466,-694.417"/>
<polygon fill="grey" stroke="grey" points="469.5,-694.413 466,-684.413 462.5,-694.413 469.5,-694.413"/>
</g>
<!-- 11 -->
<g id="node12" class="node"><title>11</title>
<polyline fill="none" stroke="#56c1d8" stroke-width="2" points="311,-684 281,-684 "/>
<path fill="none" stroke="#56c1d8" stroke-width="2" d="M281,-684C275,-684 269,-678 269,-672"/>
<polyline fill="none" stroke="#56c1d8" stroke-width="2" points="269,-672 269,-660 "/>
<path fill="none" stroke="#56c1d8" stroke-width="2" d="M269,-660C269,-654 275,-648 281,-648"/>
<polyline fill="none" stroke="#56c1d8" stroke-width="2" points="281,-648 311,-648 "/>
<path fill="none" stroke="#56c1d8" stroke-width="2" d="M311,-648C317,-648 323,-654 323,-660"/>
<polyline fill="none" stroke="#56c1d8" stroke-width="2" points="323,-660 323,-672 "/>
<path fill="none" stroke="#56c1d8" stroke-width="2" d="M323,-672C323,-678 317,-684 311,-684"/>
<text text-anchor="middle" x="296" y="-663.5" font-family="sans" font-size="10.00">Lofreq</text>
</g>
<!-- 11&#45;&gt;5 -->
<g id="edge24" class="edge"><title>11&#45;&gt;5</title>
<path fill="none" stroke="grey" stroke-width="2" d="M313.664,-647.831C321.973,-639.285 332.026,-628.944 341.092,-619.62"/>
<polygon fill="grey" stroke="grey" points="343.637,-622.023 348.098,-612.413 338.618,-617.143 343.637,-622.023"/>
</g>
<!-- 30 -->
<g id="node31" class="node"><title>30</title>
<polyline fill="none" stroke="#ced856" stroke-width="2" points="309,-612 253,-612 "/>
<path fill="none" stroke="#ced856" stroke-width="2" d="M253,-612C247,-612 241,-606 241,-600"/>
<polyline fill="none" stroke="#ced856" stroke-width="2" points="241,-600 241,-588 "/>
<path fill="none" stroke="#ced856" stroke-width="2" d="M241,-588C241,-582 247,-576 253,-576"/>
<polyline fill="none" stroke="#ced856" stroke-width="2" points="253,-576 309,-576 "/>
<path fill="none" stroke="#ced856" stroke-width="2" d="M309,-576C315,-576 321,-582 321,-588"/>
<polyline fill="none" stroke="#ced856" stroke-width="2" points="321,-588 321,-600 "/>
<path fill="none" stroke="#ced856" stroke-width="2" d="M321,-600C321,-606 315,-612 309,-612"/>
<text text-anchor="middle" x="281" y="-591.5" font-family="sans" font-size="10.00">LofreqMerge</text>
</g>
<!-- 11&#45;&gt;30 -->
<g id="edge84" class="edge"><title>11&#45;&gt;30</title>
<path fill="none" stroke="grey" stroke-width="2" d="M292.215,-647.831C290.611,-640.131 288.703,-630.974 286.92,-622.417"/>
<polygon fill="grey" stroke="grey" points="290.302,-621.489 284.836,-612.413 283.449,-622.917 290.302,-621.489"/>
</g>
<!-- 12 -->
<g id="node13" class="node"><title>12</title>
<polyline fill="none" stroke="#d85656" stroke-width="2" points="399,-828 295,-828 "/>
<path fill="none" stroke="#d85656" stroke-width="2" d="M295,-828C289,-828 283,-822 283,-816"/>
<polyline fill="none" stroke="#d85656" stroke-width="2" points="283,-816 283,-804 "/>
<path fill="none" stroke="#d85656" stroke-width="2" d="M283,-804C283,-798 289,-792 295,-792"/>
<polyline fill="none" stroke="#d85656" stroke-width="2" points="295,-792 399,-792 "/>
<path fill="none" stroke="#d85656" stroke-width="2" d="M399,-792C405,-792 411,-798 411,-804"/>
<polyline fill="none" stroke="#d85656" stroke-width="2" points="411,-804 411,-816 "/>
<path fill="none" stroke="#d85656" stroke-width="2" d="M411,-816C411,-822 405,-828 399,-828"/>
<text text-anchor="middle" x="347" y="-807.5" font-family="sans" font-size="10.00">PrintRecalibratedBam</text>
</g>
<!-- 12&#45;&gt;5 -->
<g id="edge26" class="edge"><title>12&#45;&gt;5</title>
<path fill="none" stroke="grey" stroke-width="2" d="M348.587,-791.955C351.898,-754.314 359.562,-667.187 363.526,-622.125"/>
<polygon fill="grey" stroke="grey" points="367.014,-622.413 364.404,-612.145 360.041,-621.8 367.014,-622.413"/>
</g>
<!-- 12&#45;&gt;10 -->
<g id="edge36" class="edge"><title>12&#45;&gt;10</title>
<path fill="none" stroke="grey" stroke-width="2" d="M377.029,-791.831C392.25,-782.622 410.913,-771.33 427.208,-761.471"/>
<polygon fill="grey" stroke="grey" points="429.237,-764.334 435.981,-756.163 425.613,-758.345 429.237,-764.334"/>
</g>
<!-- 12&#45;&gt;11 -->
<g id="edge38" class="edge"><title>12&#45;&gt;11</title>
<path fill="none" stroke="grey" stroke-width="2" d="M340.541,-791.762C331.765,-766.985 316,-722.471 305.773,-693.594"/>
<polygon fill="grey" stroke="grey" points="309.044,-692.347 302.407,-684.09 302.446,-694.684 309.044,-692.347"/>
</g>
<!-- 16 -->
<g id="node17" class="node"><title>16</title>
<polyline fill="none" stroke="#5682d8" stroke-width="2" points="288,-756 258,-756 "/>
<path fill="none" stroke="#5682d8" stroke-width="2" d="M258,-756C252,-756 246,-750 246,-744"/>
<polyline fill="none" stroke="#5682d8" stroke-width="2" points="246,-744 246,-732 "/>
<path fill="none" stroke="#5682d8" stroke-width="2" d="M246,-732C246,-726 252,-720 258,-720"/>
<polyline fill="none" stroke="#5682d8" stroke-width="2" points="258,-720 288,-720 "/>
<path fill="none" stroke="#5682d8" stroke-width="2" d="M288,-720C294,-720 300,-726 300,-732"/>
<polyline fill="none" stroke="#5682d8" stroke-width="2" points="300,-732 300,-744 "/>
<path fill="none" stroke="#5682d8" stroke-width="2" d="M300,-744C300,-750 294,-756 288,-756"/>
<text text-anchor="middle" x="273" y="-735.5" font-family="sans" font-size="10.00">Strelka</text>
</g>
<!-- 12&#45;&gt;16 -->
<g id="edge50" class="edge"><title>12&#45;&gt;16</title>
<path fill="none" stroke="grey" stroke-width="2" d="M328.327,-791.831C319.475,-783.219 308.751,-772.785 299.111,-763.405"/>
<polygon fill="grey" stroke="grey" points="301.275,-760.628 291.667,-756.163 296.394,-765.645 301.275,-760.628"/>
</g>
<!-- 13 -->
<g id="node14" class="node"><title>13</title>
<polyline fill="none" stroke="#5663d8" stroke-width="2" points="338,-252 256,-252 "/>
<path fill="none" stroke="#5663d8" stroke-width="2" d="M256,-252C250,-252 244,-246 244,-240"/>
<polyline fill="none" stroke="#5663d8" stroke-width="2" points="244,-240 244,-228 "/>
<path fill="none" stroke="#5663d8" stroke-width="2" d="M244,-228C244,-222 250,-216 256,-216"/>
<polyline fill="none" stroke="#5663d8" stroke-width="2" points="256,-216 338,-216 "/>
<path fill="none" stroke="#5663d8" stroke-width="2" d="M338,-216C344,-216 350,-222 350,-228"/>
<polyline fill="none" stroke="#5663d8" stroke-width="2" points="350,-228 350,-240 "/>
<path fill="none" stroke="#5663d8" stroke-width="2" d="M350,-240C350,-246 344,-252 338,-252"/>
<text text-anchor="middle" x="297" y="-231.5" font-family="sans" font-size="10.00">VCFSpliceScanner</text>
</g>
<!-- 13&#45;&gt;6 -->
<g id="edge28" class="edge"><title>13&#45;&gt;6</title>
<path fill="none" stroke="grey" stroke-width="2" d="M299.776,-215.831C300.952,-208.131 302.351,-198.974 303.659,-190.417"/>
<polygon fill="grey" stroke="grey" points="307.136,-190.827 305.187,-180.413 300.217,-189.77 307.136,-190.827"/>
</g>
<!-- 14 -->
<g id="node15" class="node"><title>14</title>
<polyline fill="none" stroke="#afd856" stroke-width="2" points="585,-1404 537,-1404 "/>
<path fill="none" stroke="#afd856" stroke-width="2" d="M537,-1404C531,-1404 525,-1398 525,-1392"/>
<polyline fill="none" stroke="#afd856" stroke-width="2" points="525,-1392 525,-1380 "/>
<path fill="none" stroke="#afd856" stroke-width="2" d="M525,-1380C525,-1374 531,-1368 537,-1368"/>
<polyline fill="none" stroke="#afd856" stroke-width="2" points="537,-1368 585,-1368 "/>
<path fill="none" stroke="#afd856" stroke-width="2" d="M585,-1368C591,-1368 597,-1374 597,-1380"/>
<polyline fill="none" stroke="#afd856" stroke-width="2" points="597,-1380 597,-1392 "/>
<path fill="none" stroke="#afd856" stroke-width="2" d="M597,-1392C597,-1398 591,-1404 585,-1404"/>
<text text-anchor="middle" x="561" y="-1383.5" font-family="sans" font-size="10.00">Sam2Fastq</text>
</g>
<!-- 14&#45;&gt;8 -->
<g id="edge32" class="edge"><title>14&#45;&gt;8</title>
<path fill="none" stroke="grey" stroke-width="2" d="M566.066,-1367.76C572.919,-1343.09 585.206,-1298.86 593.23,-1269.97"/>
<polygon fill="grey" stroke="grey" points="596.671,-1270.66 595.975,-1260.09 589.926,-1268.79 596.671,-1270.66"/>
</g>
<!-- 20 -->
<g id="node21" class="node"><title>20</title>
<polyline fill="none" stroke="#d8d356" stroke-width="2" points="545,-1332 515,-1332 "/>
<path fill="none" stroke="#d8d356" stroke-width="2" d="M515,-1332C509,-1332 503,-1326 503,-1320"/>
<polyline fill="none" stroke="#d8d356" stroke-width="2" points="503,-1320 503,-1308 "/>
<path fill="none" stroke="#d8d356" stroke-width="2" d="M503,-1308C503,-1302 509,-1296 515,-1296"/>
<polyline fill="none" stroke="#d8d356" stroke-width="2" points="515,-1296 545,-1296 "/>
<path fill="none" stroke="#d8d356" stroke-width="2" d="M545,-1296C551,-1296 557,-1302 557,-1308"/>
<polyline fill="none" stroke="#d8d356" stroke-width="2" points="557,-1308 557,-1320 "/>
<path fill="none" stroke="#d8d356" stroke-width="2" d="M557,-1320C557,-1326 551,-1332 545,-1332"/>
<text text-anchor="middle" x="530" y="-1311.5" font-family="sans" font-size="10.00">Align</text>
</g>
<!-- 14&#45;&gt;20 -->
<g id="edge60" class="edge"><title>14&#45;&gt;20</title>
<path fill="none" stroke="grey" stroke-width="2" d="M553.177,-1367.83C549.789,-1359.96 545.746,-1350.57 541.992,-1341.85"/>
<polygon fill="grey" stroke="grey" points="545.097,-1340.21 537.928,-1332.41 538.668,-1342.98 545.097,-1340.21"/>
</g>
<!-- 15 -->
<g id="node16" class="node"><title>15</title>
<polyline fill="none" stroke="#56d85b" stroke-width="2" points="531,-1260 497,-1260 "/>
<path fill="none" stroke="#56d85b" stroke-width="2" d="M497,-1260C491,-1260 485,-1254 485,-1248"/>
<polyline fill="none" stroke="#56d85b" stroke-width="2" points="485,-1248 485,-1236 "/>
<path fill="none" stroke="#56d85b" stroke-width="2" d="M485,-1236C485,-1230 491,-1224 497,-1224"/>
<polyline fill="none" stroke="#56d85b" stroke-width="2" points="497,-1224 531,-1224 "/>
<path fill="none" stroke="#56d85b" stroke-width="2" d="M531,-1224C537,-1224 543,-1230 543,-1236"/>
<polyline fill="none" stroke="#56d85b" stroke-width="2" points="543,-1236 543,-1248 "/>
<path fill="none" stroke="#56d85b" stroke-width="2" d="M543,-1248C543,-1254 537,-1260 531,-1260"/>
<text text-anchor="middle" x="514" y="-1239.5" font-family="sans" font-size="10.00">SortSam</text>
</g>
<!-- 15&#45;&gt;9 -->
<g id="edge34" class="edge"><title>15&#45;&gt;9</title>
<path fill="none" stroke="grey" stroke-width="2" d="M512.486,-1223.83C511.844,-1216.13 511.081,-1206.97 510.368,-1198.42"/>
<polygon fill="grey" stroke="grey" points="513.853,-1198.09 509.534,-1188.41 506.877,-1198.67 513.853,-1198.09"/>
</g>
<!-- 16&#45;&gt;11 -->
<g id="edge40" class="edge"><title>16&#45;&gt;11</title>
<path fill="none" stroke="grey" stroke-width="2" d="M278.804,-719.831C281.291,-712.046 284.253,-702.773 287.013,-694.135"/>
<polygon fill="grey" stroke="grey" points="290.409,-695.004 290.118,-684.413 283.741,-692.874 290.409,-695.004"/>
</g>
<!-- 32 -->
<g id="node33" class="node"><title>32</title>
<polyline fill="none" stroke="#d88556" stroke-width="2" points="230,-684 156,-684 "/>
<path fill="none" stroke="#d88556" stroke-width="2" d="M156,-684C150,-684 144,-678 144,-672"/>
<polyline fill="none" stroke="#d88556" stroke-width="2" points="144,-672 144,-660 "/>
<path fill="none" stroke="#d88556" stroke-width="2" d="M144,-660C144,-654 150,-648 156,-648"/>
<polyline fill="none" stroke="#d88556" stroke-width="2" points="156,-648 230,-648 "/>
<path fill="none" stroke="#d88556" stroke-width="2" d="M230,-648C236,-648 242,-654 242,-660"/>
<polyline fill="none" stroke="#d88556" stroke-width="2" points="242,-660 242,-672 "/>
<path fill="none" stroke="#d88556" stroke-width="2" d="M242,-672C242,-678 236,-684 230,-684"/>
<text text-anchor="middle" x="193" y="-663.5" font-family="sans" font-size="10.00">StrelkaPostProc</text>
</g>
<!-- 16&#45;&gt;32 -->
<g id="edge88" class="edge"><title>16&#45;&gt;32</title>
<path fill="none" stroke="grey" stroke-width="2" d="M252.813,-719.831C243.149,-711.134 231.42,-700.578 220.918,-691.127"/>
<polygon fill="grey" stroke="grey" points="222.955,-688.251 213.181,-684.163 218.272,-693.454 222.955,-688.251"/>
</g>
<!-- 17 -->
<g id="node18" class="node"><title>17</title>
<polyline fill="none" stroke="#56d86b" stroke-width="2" points="373,-972 315,-972 "/>
<path fill="none" stroke="#56d86b" stroke-width="2" d="M315,-972C309,-972 303,-966 303,-960"/>
<polyline fill="none" stroke="#56d86b" stroke-width="2" points="303,-960 303,-948 "/>
<path fill="none" stroke="#56d86b" stroke-width="2" d="M303,-948C303,-942 309,-936 315,-936"/>
<polyline fill="none" stroke="#56d86b" stroke-width="2" points="315,-936 373,-936 "/>
<path fill="none" stroke="#56d86b" stroke-width="2" d="M373,-936C379,-936 385,-942 385,-948"/>
<polyline fill="none" stroke="#56d86b" stroke-width="2" points="385,-948 385,-960 "/>
<path fill="none" stroke="#56d86b" stroke-width="2" d="M385,-960C385,-966 379,-972 373,-972"/>
<text text-anchor="middle" x="344" y="-951.5" font-family="sans" font-size="10.00">RealignIndels</text>
</g>
<!-- 17&#45;&gt;12 -->
<g id="edge42" class="edge"><title>17&#45;&gt;12</title>
<path fill="none" stroke="grey" stroke-width="2" d="M341.184,-935.716C338.758,-917.523 335.946,-888.814 338,-864 338.695,-855.608 339.986,-846.558 341.379,-838.309"/>
<polygon fill="grey" stroke="grey" points="344.835,-838.861 343.159,-828.4 337.946,-837.623 344.835,-838.861"/>
</g>
<!-- 18 -->
<g id="node19" class="node"><title>18</title>
<polyline fill="none" stroke="#56d8b9" stroke-width="2" points="439,-900 359,-900 "/>
<path fill="none" stroke="#56d8b9" stroke-width="2" d="M359,-900C353,-900 347,-894 347,-888"/>
<polyline fill="none" stroke="#56d8b9" stroke-width="2" points="347,-888 347,-876 "/>
<path fill="none" stroke="#56d8b9" stroke-width="2" d="M347,-876C347,-870 353,-864 359,-864"/>
<polyline fill="none" stroke="#56d8b9" stroke-width="2" points="359,-864 439,-864 "/>
<path fill="none" stroke="#56d8b9" stroke-width="2" d="M439,-864C445,-864 451,-870 451,-876"/>
<polyline fill="none" stroke="#56d8b9" stroke-width="2" points="451,-876 451,-888 "/>
<path fill="none" stroke="#56d8b9" stroke-width="2" d="M451,-888C451,-894 445,-900 439,-900"/>
<text text-anchor="middle" x="399" y="-879.5" font-family="sans" font-size="10.00">RecalibrateBases</text>
</g>
<!-- 17&#45;&gt;18 -->
<g id="edge56" class="edge"><title>17&#45;&gt;18</title>
<path fill="none" stroke="grey" stroke-width="2" d="M357.879,-935.831C364.214,-927.539 371.838,-917.557 378.793,-908.453"/>
<polygon fill="grey" stroke="grey" points="381.645,-910.485 384.934,-900.413 376.083,-906.235 381.645,-910.485"/>
</g>
<!-- 18&#45;&gt;12 -->
<g id="edge44" class="edge"><title>18&#45;&gt;12</title>
<path fill="none" stroke="grey" stroke-width="2" d="M385.878,-863.831C379.95,-855.623 372.827,-845.761 366.307,-836.732"/>
<polygon fill="grey" stroke="grey" points="368.991,-834.471 360.298,-828.413 363.316,-838.569 368.991,-834.471"/>
</g>
<!-- 19 -->
<g id="node20" class="node"><title>19</title>
<polyline fill="none" stroke="#56b1d8" stroke-width="2" points="333,-324 221,-324 "/>
<path fill="none" stroke="#56b1d8" stroke-width="2" d="M221,-324C215,-324 209,-318 209,-312"/>
<polyline fill="none" stroke="#56b1d8" stroke-width="2" points="209,-312 209,-300 "/>
<path fill="none" stroke="#56b1d8" stroke-width="2" d="M209,-300C209,-294 215,-288 221,-288"/>
<polyline fill="none" stroke="#56b1d8" stroke-width="2" points="221,-288 333,-288 "/>
<path fill="none" stroke="#56b1d8" stroke-width="2" d="M333,-288C339,-288 345,-294 345,-300"/>
<polyline fill="none" stroke="#56b1d8" stroke-width="2" points="345,-300 345,-312 "/>
<path fill="none" stroke="#56b1d8" stroke-width="2" d="M345,-312C345,-318 339,-324 333,-324"/>
<text text-anchor="middle" x="277" y="-303.5" font-family="sans" font-size="10.00">VCFBackgroundChecker</text>
</g>
<!-- 19&#45;&gt;13 -->
<g id="edge46" class="edge"><title>19&#45;&gt;13</title>
<path fill="none" stroke="grey" stroke-width="2" d="M282.047,-287.831C284.209,-280.046 286.785,-270.773 289.185,-262.135"/>
<polygon fill="grey" stroke="grey" points="292.581,-262.985 291.885,-252.413 285.836,-261.112 292.581,-262.985"/>
</g>
<!-- 20&#45;&gt;15 -->
<g id="edge48" class="edge"><title>20&#45;&gt;15</title>
<path fill="none" stroke="grey" stroke-width="2" d="M525.963,-1295.83C524.251,-1288.13 522.217,-1278.97 520.315,-1270.42"/>
<polygon fill="grey" stroke="grey" points="523.678,-1269.42 518.092,-1260.41 516.845,-1270.93 523.678,-1269.42"/>
</g>
<!-- 21&#45;&gt;17 -->
<g id="edge52" class="edge"><title>21&#45;&gt;17</title>
<path fill="none" stroke="grey" stroke-width="2" d="M385.86,-1082.75C366.634,-1074.54 347.17,-1062.23 336,-1044 324.605,-1025.41 327.945,-1000.47 333.377,-981.557"/>
<polygon fill="grey" stroke="grey" points="336.715,-982.609 336.435,-972.018 330.049,-980.472 336.715,-982.609"/>
</g>
<!-- 22 -->
<g id="node23" class="node"><title>22</title>
<polyline fill="none" stroke="#61d856" stroke-width="2" points="527,-1044 357,-1044 "/>
<path fill="none" stroke="#61d856" stroke-width="2" d="M357,-1044C351,-1044 345,-1038 345,-1032"/>
<polyline fill="none" stroke="#61d856" stroke-width="2" points="345,-1032 345,-1020 "/>
<path fill="none" stroke="#61d856" stroke-width="2" d="M345,-1020C345,-1014 351,-1008 357,-1008"/>
<polyline fill="none" stroke="#61d856" stroke-width="2" points="357,-1008 527,-1008 "/>
<path fill="none" stroke="#61d856" stroke-width="2" d="M527,-1008C533,-1008 539,-1014 539,-1020"/>
<polyline fill="none" stroke="#61d856" stroke-width="2" points="539,-1020 539,-1032 "/>
<path fill="none" stroke="#61d856" stroke-width="2" d="M539,-1032C539,-1038 533,-1044 527,-1044"/>
<text text-anchor="middle" x="442" y="-1023.5" font-family="sans" font-size="10.00">CreateTargetsForIndelRealignment</text>
</g>
<!-- 21&#45;&gt;22 -->
<g id="edge64" class="edge"><title>21&#45;&gt;22</title>
<path fill="none" stroke="grey" stroke-width="2" d="M442,-1079.83C442,-1072.13 442,-1062.97 442,-1054.42"/>
<polygon fill="grey" stroke="grey" points="445.5,-1054.41 442,-1044.41 438.5,-1054.41 445.5,-1054.41"/>
</g>
<!-- 22&#45;&gt;17 -->
<g id="edge54" class="edge"><title>22&#45;&gt;17</title>
<path fill="none" stroke="grey" stroke-width="2" d="M417.27,-1007.83C405.084,-998.878 390.218,-987.956 377.069,-978.295"/>
<polygon fill="grey" stroke="grey" points="378.853,-975.263 368.722,-972.163 374.708,-980.904 378.853,-975.263"/>
</g>
<!-- 23 -->
<g id="node24" class="node"><title>23</title>
<polyline fill="none" stroke="#56d8a9" stroke-width="2" points="317,-396 193,-396 "/>
<path fill="none" stroke="#56d8a9" stroke-width="2" d="M193,-396C187,-396 181,-390 181,-384"/>
<polyline fill="none" stroke="#56d8a9" stroke-width="2" points="181,-384 181,-372 "/>
<path fill="none" stroke="#56d8a9" stroke-width="2" d="M181,-372C181,-366 187,-360 193,-360"/>
<polyline fill="none" stroke="#56d8a9" stroke-width="2" points="193,-360 317,-360 "/>
<path fill="none" stroke="#56d8a9" stroke-width="2" d="M317,-360C323,-360 329,-366 329,-372"/>
<polyline fill="none" stroke="#56d8a9" stroke-width="2" points="329,-372 329,-384 "/>
<path fill="none" stroke="#56d8a9" stroke-width="2" d="M329,-384C329,-390 323,-396 317,-396"/>
<text text-anchor="middle" x="255" y="-375.5" font-family="sans" font-size="10.00">FoundationVcfComparator</text>
</g>
<!-- 23&#45;&gt;19 -->
<g id="edge58" class="edge"><title>23&#45;&gt;19</title>
<path fill="none" stroke="grey" stroke-width="2" d="M260.552,-359.831C262.93,-352.046 265.764,-342.773 268.403,-334.135"/>
<polygon fill="grey" stroke="grey" points="271.799,-335 271.374,-324.413 265.104,-332.954 271.799,-335"/>
</g>
<!-- 24 -->
<g id="node25" class="node"><title>24</title>
<polyline fill="none" stroke="#8fd856" stroke-width="2" points="135,-468 77,-468 "/>
<path fill="none" stroke="#8fd856" stroke-width="2" d="M77,-468C71,-468 65,-462 65,-456"/>
<polyline fill="none" stroke="#8fd856" stroke-width="2" points="65,-456 65,-444 "/>
<path fill="none" stroke="#8fd856" stroke-width="2" d="M65,-444C65,-438 71,-432 77,-432"/>
<polyline fill="none" stroke="#8fd856" stroke-width="2" points="77,-432 135,-432 "/>
<path fill="none" stroke="#8fd856" stroke-width="2" d="M135,-432C141,-432 147,-438 147,-444"/>
<polyline fill="none" stroke="#8fd856" stroke-width="2" points="147,-444 147,-456 "/>
<path fill="none" stroke="#8fd856" stroke-width="2" d="M147,-456C147,-462 141,-468 135,-468"/>
<text text-anchor="middle" x="106" y="-447.5" font-family="sans" font-size="10.00">NormalizeVcf</text>
</g>
<!-- 24&#45;&gt;23 -->
<g id="edge66" class="edge"><title>24&#45;&gt;23</title>
<path fill="none" stroke="grey" stroke-width="2" d="M143.599,-431.831C163.35,-422.287 187.73,-410.506 208.642,-400.401"/>
<polygon fill="grey" stroke="grey" points="210.19,-403.54 217.671,-396.038 207.145,-397.238 210.19,-403.54"/>
</g>
<!-- 25 -->
<g id="node26" class="node"><title>25</title>
<polyline fill="none" stroke="#56d88a" stroke-width="2" points="293,-468 227,-468 "/>
<path fill="none" stroke="#56d88a" stroke-width="2" d="M227,-468C221,-468 215,-462 215,-456"/>
<polyline fill="none" stroke="#56d88a" stroke-width="2" points="215,-456 215,-444 "/>
<path fill="none" stroke="#56d88a" stroke-width="2" d="M215,-444C215,-438 221,-432 227,-432"/>
<polyline fill="none" stroke="#56d88a" stroke-width="2" points="227,-432 293,-432 "/>
<path fill="none" stroke="#56d88a" stroke-width="2" d="M293,-432C299,-432 305,-438 305,-444"/>
<polyline fill="none" stroke="#56d88a" stroke-width="2" points="305,-444 305,-456 "/>
<path fill="none" stroke="#56d88a" stroke-width="2" d="M305,-456C305,-462 299,-468 293,-468"/>
<text text-anchor="middle" x="260" y="-447.5" font-family="sans" font-size="10.00">VCFConsensus</text>
</g>
<!-- 25&#45;&gt;23 -->
<g id="edge68" class="edge"><title>25&#45;&gt;23</title>
<path fill="none" stroke="grey" stroke-width="2" d="M258.738,-431.831C258.204,-424.131 257.568,-414.974 256.973,-406.417"/>
<polygon fill="grey" stroke="grey" points="260.463,-406.147 256.279,-396.413 253.48,-406.632 260.463,-406.147"/>
</g>
<!-- 26 -->
<g id="node27" class="node"><title>26</title>
<polyline fill="none" stroke="#56d8c9" stroke-width="2" points="100,-540 12,-540 "/>
<path fill="none" stroke="#56d8c9" stroke-width="2" d="M12,-540C6,-540 4.14483e-14,-534 3.31587e-14,-528"/>
<polyline fill="none" stroke="#56d8c9" stroke-width="2" points="3.31587e-14,-528 1.65793e-14,-516 "/>
<path fill="none" stroke="#56d8c9" stroke-width="2" d="M1.65793e-14,-516C8.28967e-15,-510 6,-504 12,-504"/>
<polyline fill="none" stroke="#56d8c9" stroke-width="2" points="12,-504 100,-504 "/>
<path fill="none" stroke="#56d8c9" stroke-width="2" d="M100,-504C106,-504 112,-510 112,-516"/>
<polyline fill="none" stroke="#56d8c9" stroke-width="2" points="112,-516 112,-528 "/>
<path fill="none" stroke="#56d8c9" stroke-width="2" d="M112,-528C112,-534 106,-540 100,-540"/>
<text text-anchor="middle" x="56" y="-519.5" font-family="sans" font-size="10.00">FoundationXml2Vcf</text>
</g>
<!-- 26&#45;&gt;24 -->
<g id="edge70" class="edge"><title>26&#45;&gt;24</title>
<path fill="none" stroke="grey" stroke-width="2" d="M68.6171,-503.831C74.3172,-495.623 81.1663,-485.761 87.4359,-476.732"/>
<polygon fill="grey" stroke="grey" points="90.3838,-478.623 93.213,-468.413 84.6342,-474.631 90.3838,-478.623"/>
</g>
<!-- 27 -->
<g id="node28" class="node"><title>27</title>
<polyline fill="none" stroke="#d87556" stroke-width="2" points="286,-540 236,-540 "/>
<path fill="none" stroke="#d87556" stroke-width="2" d="M236,-540C230,-540 224,-534 224,-528"/>
<polyline fill="none" stroke="#d87556" stroke-width="2" points="224,-528 224,-516 "/>
<path fill="none" stroke="#d87556" stroke-width="2" d="M224,-516C224,-510 230,-504 236,-504"/>
<polyline fill="none" stroke="#d87556" stroke-width="2" points="236,-504 286,-504 "/>
<path fill="none" stroke="#d87556" stroke-width="2" d="M286,-504C292,-504 298,-510 298,-516"/>
<polyline fill="none" stroke="#d87556" stroke-width="2" points="298,-516 298,-528 "/>
<path fill="none" stroke="#d87556" stroke-width="2" d="M298,-528C298,-534 292,-540 286,-540"/>
<text text-anchor="middle" x="261" y="-519.5" font-family="sans" font-size="10.00">LofreqFilter</text>
</g>
<!-- 27&#45;&gt;25 -->
<g id="edge72" class="edge"><title>27&#45;&gt;25</title>
<path fill="none" stroke="grey" stroke-width="2" d="M260.748,-503.831C260.641,-496.131 260.514,-486.974 260.395,-478.417"/>
<polygon fill="grey" stroke="grey" points="263.894,-478.364 260.256,-468.413 256.895,-478.461 263.894,-478.364"/>
</g>
<!-- 28 -->
<g id="node29" class="node"><title>28</title>
<polyline fill="none" stroke="#bed856" stroke-width="2" points="194,-540 142,-540 "/>
<path fill="none" stroke="#bed856" stroke-width="2" d="M142,-540C136,-540 130,-534 130,-528"/>
<polyline fill="none" stroke="#bed856" stroke-width="2" points="130,-528 130,-516 "/>
<path fill="none" stroke="#bed856" stroke-width="2" d="M130,-516C130,-510 136,-504 142,-504"/>
<polyline fill="none" stroke="#bed856" stroke-width="2" points="142,-504 194,-504 "/>
<path fill="none" stroke="#bed856" stroke-width="2" d="M194,-504C200,-504 206,-510 206,-516"/>
<polyline fill="none" stroke="#bed856" stroke-width="2" points="206,-516 206,-528 "/>
<path fill="none" stroke="#bed856" stroke-width="2" d="M206,-528C206,-534 200,-540 194,-540"/>
<text text-anchor="middle" x="168" y="-519.5" font-family="sans" font-size="10.00">StrelkaFilter</text>
</g>
<!-- 28&#45;&gt;25 -->
<g id="edge74" class="edge"><title>28&#45;&gt;25</title>
<path fill="none" stroke="grey" stroke-width="2" d="M191.215,-503.831C202.547,-494.963 216.346,-484.164 228.603,-474.572"/>
<polygon fill="grey" stroke="grey" points="231.074,-477.082 236.792,-468.163 226.76,-471.57 231.074,-477.082"/>
</g>
<!-- 29&#45;&gt;25 -->
<g id="edge76" class="edge"><title>29&#45;&gt;25</title>
<path fill="none" stroke="grey" stroke-width="2" d="M331.775,-503.831C319.837,-494.878 305.274,-483.956 292.394,-474.295"/>
<polygon fill="grey" stroke="grey" points="294.317,-471.363 284.217,-468.163 290.117,-476.963 294.317,-471.363"/>
</g>
<!-- 30&#45;&gt;27 -->
<g id="edge78" class="edge"><title>30&#45;&gt;27</title>
<path fill="none" stroke="grey" stroke-width="2" d="M275.953,-575.831C273.791,-568.046 271.215,-558.773 268.815,-550.135"/>
<polygon fill="grey" stroke="grey" points="272.164,-549.112 266.115,-540.413 265.419,-550.985 272.164,-549.112"/>
</g>
<!-- 31 -->
<g id="node32" class="node"><title>31</title>
<polyline fill="none" stroke="#d8b456" stroke-width="2" points="211,-612 125,-612 "/>
<path fill="none" stroke="#d8b456" stroke-width="2" d="M125,-612C119,-612 113,-606 113,-600"/>
<polyline fill="none" stroke="#d8b456" stroke-width="2" points="113,-600 113,-588 "/>
<path fill="none" stroke="#d8b456" stroke-width="2" d="M113,-588C113,-582 119,-576 125,-576"/>
<polyline fill="none" stroke="#d8b456" stroke-width="2" points="125,-576 211,-576 "/>
<path fill="none" stroke="#d8b456" stroke-width="2" d="M211,-576C217,-576 223,-582 223,-588"/>
<polyline fill="none" stroke="#d8b456" stroke-width="2" points="223,-588 223,-600 "/>
<path fill="none" stroke="#d8b456" stroke-width="2" d="M223,-600C223,-606 217,-612 211,-612"/>
<text text-anchor="middle" x="168" y="-591.5" font-family="sans" font-size="10.00">StrelkaRegionFilter</text>
</g>
<!-- 31&#45;&gt;28 -->
<g id="edge80" class="edge"><title>31&#45;&gt;28</title>
<path fill="none" stroke="grey" stroke-width="2" d="M168,-575.831C168,-568.131 168,-558.974 168,-550.417"/>
<polygon fill="grey" stroke="grey" points="171.5,-550.413 168,-540.413 164.5,-550.413 171.5,-550.413"/>
</g>
<!-- 32&#45;&gt;31 -->
<g id="edge86" class="edge"><title>32&#45;&gt;31</title>
<path fill="none" stroke="grey" stroke-width="2" d="M186.691,-647.831C183.988,-640.046 180.768,-630.773 177.769,-622.135"/>
<polygon fill="grey" stroke="grey" points="180.98,-620.712 174.393,-612.413 174.367,-623.008 180.98,-620.712"/>
</g>
</g>
</svg>
