<?xml version="1.0" encoding="UTF-8" standalone="no"?>
<!DOCTYPE svg PUBLIC "-//W3C//DTD SVG 1.1//EN"
 "http://www.w3.org/Graphics/SVG/1.1/DTD/svg11.dtd">
<!-- Generated by graphviz version 2.40.1 (20161225.0304)
 -->
<!-- Title: snakemake_dag Pages: 1 -->
<svg width="268pt" height="476pt"
 viewBox="0.00 0.00 267.50 476.00" xmlns="http://www.w3.org/2000/svg" xmlns:xlink="http://www.w3.org/1999/xlink">
<g id="graph0" class="graph" transform="scale(1 1) rotate(0) translate(4 472)">
<title>snakemake_dag</title>
<polygon fill="#ffffff" stroke="transparent" points="-4,4 -4,-472 263.5,-472 263.5,4 -4,4"/>
<!-- 0 -->
<g id="node1" class="node">
<title>0</title>
<path fill="none" stroke="#d8cb56" stroke-width="2" d="M140,-36C140,-36 106,-36 106,-36 100,-36 94,-30 94,-24 94,-24 94,-12 94,-12 94,-6 100,0 106,0 106,0 140,0 140,0 146,0 152,-6 152,-12 152,-12 152,-24 152,-24 152,-30 146,-36 140,-36"/>
<text text-anchor="middle" x="123" y="-15.5" font-family="sans" font-size="10.00" fill="#000000">VcfTabix</text>
</g>
<!-- 1 -->
<g id="node2" class="node">
<title>1</title>
<path fill="none" stroke="#5692d8" stroke-width="2" d="M91.5,-108C91.5,-108 54.5,-108 54.5,-108 48.5,-108 42.5,-102 42.5,-96 42.5,-96 42.5,-84 42.5,-84 42.5,-78 48.5,-72 54.5,-72 54.5,-72 91.5,-72 91.5,-72 97.5,-72 103.5,-78 103.5,-84 103.5,-84 103.5,-96 103.5,-96 103.5,-102 97.5,-108 91.5,-108"/>
<text text-anchor="middle" x="73" y="-87.5" font-family="sans" font-size="10.00" fill="#000000">BedTabix</text>
</g>
<!-- 1&#45;&gt;0 -->
<g id="edge1" class="edge">
<title>1&#45;&gt;0</title>
<path fill="none" stroke="#c0c0c0" stroke-width="2" d="M85.6171,-71.8314C91.3172,-63.6232 98.1663,-53.7606 104.4359,-44.7323"/>
<polygon fill="#c0c0c0" stroke="#c0c0c0" stroke-width="2" points="107.3838,-46.6234 110.213,-36.4133 101.6342,-42.6306 107.3838,-46.6234"/>
</g>
<!-- 2 -->
<g id="node3" class="node">
<title>2</title>
<path fill="none" stroke="#afd856" stroke-width="2" d="M223,-108C223,-108 143,-108 143,-108 137,-108 131,-102 131,-96 131,-96 131,-84 131,-84 131,-78 137,-72 143,-72 143,-72 223,-72 223,-72 229,-72 235,-78 235,-84 235,-84 235,-96 235,-96 235,-102 229,-108 223,-108"/>
<text text-anchor="middle" x="183" y="-87.5" font-family="sans" font-size="10.00" fill="#000000">VCFCallFrequency</text>
</g>
<!-- 2&#45;&gt;0 -->
<g id="edge2" class="edge">
<title>2&#45;&gt;0</title>
<path fill="none" stroke="#c0c0c0" stroke-width="2" d="M167.8595,-71.8314C160.8783,-63.454 152.4609,-53.3531 144.8124,-44.1749"/>
<polygon fill="#c0c0c0" stroke="#c0c0c0" stroke-width="2" points="147.4351,-41.8548 138.3444,-36.4133 142.0575,-46.3362 147.4351,-41.8548"/>
</g>
<!-- 3 -->
<g id="node4" class="node">
<title>3</title>
<path fill="none" stroke="#56c9d8" stroke-width="2" d="M96,-180C96,-180 12,-180 12,-180 6,-180 0,-174 0,-168 0,-168 0,-156 0,-156 0,-150 6,-144 12,-144 12,-144 96,-144 96,-144 102,-144 108,-150 108,-156 108,-156 108,-168 108,-168 108,-174 102,-180 96,-180"/>
<text text-anchor="middle" x="54" y="-159.5" font-family="sans" font-size="10.00" fill="#000000">FindSharedRegions</text>
</g>
<!-- 3&#45;&gt;1 -->
<g id="edge3" class="edge">
<title>3&#45;&gt;1</title>
<path fill="none" stroke="#c0c0c0" stroke-width="2" d="M58.7945,-143.8314C60.8489,-136.0463 63.296,-126.7729 65.5756,-118.1347"/>
<polygon fill="#c0c0c0" stroke="#c0c0c0" stroke-width="2" points="68.9735,-118.9753 68.1409,-108.4133 62.2052,-117.1892 68.9735,-118.9753"/>
</g>
<!-- 4 -->
<g id="node5" class="node">
<title>4</title>
<path fill="none" stroke="#d85656" stroke-width="2" d="M247.5,-180C247.5,-180 138.5,-180 138.5,-180 132.5,-180 126.5,-174 126.5,-168 126.5,-168 126.5,-156 126.5,-156 126.5,-150 132.5,-144 138.5,-144 138.5,-144 247.5,-144 247.5,-144 253.5,-144 259.5,-150 259.5,-156 259.5,-156 259.5,-168 259.5,-168 259.5,-174 253.5,-180 247.5,-180"/>
<text text-anchor="middle" x="193" y="-159.5" font-family="sans" font-size="10.00" fill="#000000">VCFBackgroundChecker</text>
</g>
<!-- 4&#45;&gt;2 -->
<g id="edge4" class="edge">
<title>4&#45;&gt;2</title>
<path fill="none" stroke="#c0c0c0" stroke-width="2" d="M190.4766,-143.8314C189.4071,-136.131 188.1353,-126.9743 186.9468,-118.4166"/>
<polygon fill="#c0c0c0" stroke="#c0c0c0" stroke-width="2" points="190.3999,-117.8367 185.5574,-108.4133 183.4664,-118.7997 190.3999,-117.8367"/>
</g>
<!-- 5 -->
<g id="node6" class="node">
<title>5</title>
<path fill="none" stroke="#56d8a9" stroke-width="2" d="M218.5,-252C218.5,-252 167.5,-252 167.5,-252 161.5,-252 155.5,-246 155.5,-240 155.5,-240 155.5,-228 155.5,-228 155.5,-222 161.5,-216 167.5,-216 167.5,-216 218.5,-216 218.5,-216 224.5,-216 230.5,-222 230.5,-228 230.5,-228 230.5,-240 230.5,-240 230.5,-246 224.5,-252 218.5,-252"/>
<text text-anchor="middle" x="193" y="-231.5" font-family="sans" font-size="10.00" fill="#000000">StrelkaFilter</text>
</g>
<!-- 5&#45;&gt;4 -->
<g id="edge5" class="edge">
<title>5&#45;&gt;4</title>
<path fill="none" stroke="#c0c0c0" stroke-width="2" d="M193,-215.8314C193,-208.131 193,-198.9743 193,-190.4166"/>
<polygon fill="#c0c0c0" stroke="#c0c0c0" stroke-width="2" points="196.5001,-190.4132 193,-180.4133 189.5001,-190.4133 196.5001,-190.4132"/>
</g>
<!-- 6 -->
<g id="node7" class="node">
<title>6</title>
<path fill="none" stroke="#d88d56" stroke-width="2" d="M221.5,-324C221.5,-324 164.5,-324 164.5,-324 158.5,-324 152.5,-318 152.5,-312 152.5,-312 152.5,-300 152.5,-300 152.5,-294 158.5,-288 164.5,-288 164.5,-288 221.5,-288 221.5,-288 227.5,-288 233.5,-294 233.5,-300 233.5,-300 233.5,-312 233.5,-312 233.5,-318 227.5,-324 221.5,-324"/>
<text text-anchor="middle" x="193" y="-303.5" font-family="sans" font-size="10.00" fill="#000000">StrelkaMerge</text>
</g>
<!-- 6&#45;&gt;5 -->
<g id="edge6" class="edge">
<title>6&#45;&gt;5</title>
<path fill="none" stroke="#c0c0c0" stroke-width="2" d="M193,-287.8314C193,-280.131 193,-270.9743 193,-262.4166"/>
<polygon fill="#c0c0c0" stroke="#c0c0c0" stroke-width="2" points="196.5001,-262.4132 193,-252.4133 189.5001,-262.4133 196.5001,-262.4132"/>
</g>
<!-- 7 -->
<g id="node8" class="node">
<title>7</title>
<path fill="none" stroke="#70d856" stroke-width="2" d="M208,-396C208,-396 178,-396 178,-396 172,-396 166,-390 166,-384 166,-384 166,-372 166,-372 166,-366 172,-360 178,-360 178,-360 208,-360 208,-360 214,-360 220,-366 220,-372 220,-372 220,-384 220,-384 220,-390 214,-396 208,-396"/>
<text text-anchor="middle" x="193" y="-375.5" font-family="sans" font-size="10.00" fill="#000000">Strelka</text>
</g>
<!-- 7&#45;&gt;6 -->
<g id="edge7" class="edge">
<title>7&#45;&gt;6</title>
<path fill="none" stroke="#c0c0c0" stroke-width="2" d="M193,-359.8314C193,-352.131 193,-342.9743 193,-334.4166"/>
<polygon fill="#c0c0c0" stroke="#c0c0c0" stroke-width="2" points="196.5001,-334.4132 193,-324.4133 189.5001,-334.4133 196.5001,-334.4132"/>
</g>
<!-- 8 -->
<g id="node9" class="node">
<title>8</title>
<path fill="none" stroke="#56d873" stroke-width="2" d="M208,-468C208,-468 178,-468 178,-468 172,-468 166,-462 166,-456 166,-456 166,-444 166,-444 166,-438 172,-432 178,-432 178,-432 208,-432 208,-432 214,-432 220,-438 220,-444 220,-444 220,-456 220,-456 220,-462 214,-468 208,-468"/>
<text text-anchor="middle" x="193" y="-447.5" font-family="sans" font-size="10.00" fill="#000000">Manta</text>
</g>
<!-- 8&#45;&gt;7 -->
<g id="edge8" class="edge">
<title>8&#45;&gt;7</title>
<path fill="none" stroke="#c0c0c0" stroke-width="2" d="M193,-431.8314C193,-424.131 193,-414.9743 193,-406.4166"/>
<polygon fill="#c0c0c0" stroke="#c0c0c0" stroke-width="2" points="196.5001,-406.4132 193,-396.4133 189.5001,-406.4133 196.5001,-406.4132"/>
</g>
</g>
</svg>
