<?xml version="1.0" encoding="UTF-8" standalone="no"?>
<!DOCTYPE svg PUBLIC "-//W3C//DTD SVG 1.1//EN"
 "http://www.w3.org/Graphics/SVG/1.1/DTD/svg11.dtd">
<!-- Generated by graphviz version 2.40.1 (20161225.0304)
 -->
<!-- Title: snakemake_dag Pages: 1 -->
<svg width="141pt" height="404pt"
 viewBox="0.00 0.00 141.00 404.00" xmlns="http://www.w3.org/2000/svg" xmlns:xlink="http://www.w3.org/1999/xlink">
<g id="graph0" class="graph" transform="scale(1 1) rotate(0) translate(4 400)">
<title>snakemake_dag</title>
<polygon fill="#ffffff" stroke="transparent" points="-4,4 -4,-400 137,-400 137,4 -4,4"/>
<!-- 0 -->
<g id="node1" class="node">
<title>0</title>
<path fill="none" stroke="#afd856" stroke-width="2" d="M83.5,-36C83.5,-36 49.5,-36 49.5,-36 43.5,-36 37.5,-30 37.5,-24 37.5,-24 37.5,-12 37.5,-12 37.5,-6 43.5,0 49.5,0 49.5,0 83.5,0 83.5,0 89.5,0 95.5,-6 95.5,-12 95.5,-12 95.5,-24 95.5,-24 95.5,-30 89.5,-36 83.5,-36"/>
<text text-anchor="middle" x="66.5" y="-15.5" font-family="sans" font-size="10.00" fill="#000000">VcfTabix</text>
</g>
<!-- 1 -->
<g id="node2" class="node">
<title>1</title>
<path fill="none" stroke="#d85656" stroke-width="2" d="M121,-108C121,-108 12,-108 12,-108 6,-108 0,-102 0,-96 0,-96 0,-84 0,-84 0,-78 6,-72 12,-72 12,-72 121,-72 121,-72 127,-72 133,-78 133,-84 133,-84 133,-96 133,-96 133,-102 127,-108 121,-108"/>
<text text-anchor="middle" x="66.5" y="-87.5" font-family="sans" font-size="10.00" fill="#000000">VCFBackgroundChecker</text>
</g>
<!-- 1&#45;&gt;0 -->
<g id="edge1" class="edge">
<title>1&#45;&gt;0</title>
<path fill="none" stroke="#c0c0c0" stroke-width="2" d="M66.5,-71.8314C66.5,-64.131 66.5,-54.9743 66.5,-46.4166"/>
<polygon fill="#c0c0c0" stroke="#c0c0c0" stroke-width="2" points="70.0001,-46.4132 66.5,-36.4133 63.0001,-46.4133 70.0001,-46.4132"/>
</g>
<!-- 2 -->
<g id="node3" class="node">
<title>2</title>
<path fill="none" stroke="#56a9d8" stroke-width="2" d="M92,-180C92,-180 41,-180 41,-180 35,-180 29,-174 29,-168 29,-168 29,-156 29,-156 29,-150 35,-144 41,-144 41,-144 92,-144 92,-144 98,-144 104,-150 104,-156 104,-156 104,-168 104,-168 104,-174 98,-180 92,-180"/>
<text text-anchor="middle" x="66.5" y="-159.5" font-family="sans" font-size="10.00" fill="#000000">StrelkaFilter</text>
</g>
<!-- 2&#45;&gt;1 -->
<g id="edge2" class="edge">
<title>2&#45;&gt;1</title>
<path fill="none" stroke="#c0c0c0" stroke-width="2" d="M66.5,-143.8314C66.5,-136.131 66.5,-126.9743 66.5,-118.4166"/>
<polygon fill="#c0c0c0" stroke="#c0c0c0" stroke-width="2" points="70.0001,-118.4132 66.5,-108.4133 63.0001,-118.4133 70.0001,-118.4132"/>
</g>
<!-- 3 -->
<g id="node4" class="node">
<title>3</title>
<path fill="none" stroke="#59d856" stroke-width="2" d="M95,-252C95,-252 38,-252 38,-252 32,-252 26,-246 26,-240 26,-240 26,-228 26,-228 26,-222 32,-216 38,-216 38,-216 95,-216 95,-216 101,-216 107,-222 107,-228 107,-228 107,-240 107,-240 107,-246 101,-252 95,-252"/>
<text text-anchor="middle" x="66.5" y="-231.5" font-family="sans" font-size="10.00" fill="#000000">StrelkaMerge</text>
</g>
<!-- 3&#45;&gt;2 -->
<g id="edge3" class="edge">
<title>3&#45;&gt;2</title>
<path fill="none" stroke="#c0c0c0" stroke-width="2" d="M66.5,-215.8314C66.5,-208.131 66.5,-198.9743 66.5,-190.4166"/>
<polygon fill="#c0c0c0" stroke="#c0c0c0" stroke-width="2" points="70.0001,-190.4132 66.5,-180.4133 63.0001,-190.4133 70.0001,-190.4132"/>
</g>
<!-- 4 -->
<g id="node5" class="node">
<title>4</title>
<path fill="none" stroke="#56d8a9" stroke-width="2" d="M81.5,-324C81.5,-324 51.5,-324 51.5,-324 45.5,-324 39.5,-318 39.5,-312 39.5,-312 39.5,-300 39.5,-300 39.5,-294 45.5,-288 51.5,-288 51.5,-288 81.5,-288 81.5,-288 87.5,-288 93.5,-294 93.5,-300 93.5,-300 93.5,-312 93.5,-312 93.5,-318 87.5,-324 81.5,-324"/>
<text text-anchor="middle" x="66.5" y="-303.5" font-family="sans" font-size="10.00" fill="#000000">Strelka</text>
</g>
<!-- 4&#45;&gt;3 -->
<g id="edge4" class="edge">
<title>4&#45;&gt;3</title>
<path fill="none" stroke="#c0c0c0" stroke-width="2" d="M66.5,-287.8314C66.5,-280.131 66.5,-270.9743 66.5,-262.4166"/>
<polygon fill="#c0c0c0" stroke="#c0c0c0" stroke-width="2" points="70.0001,-262.4132 66.5,-252.4133 63.0001,-262.4133 70.0001,-262.4132"/>
</g>
<!-- 5 -->
<g id="node6" class="node">
<title>5</title>
<path fill="none" stroke="#d8ac56" stroke-width="2" d="M81.5,-396C81.5,-396 51.5,-396 51.5,-396 45.5,-396 39.5,-390 39.5,-384 39.5,-384 39.5,-372 39.5,-372 39.5,-366 45.5,-360 51.5,-360 51.5,-360 81.5,-360 81.5,-360 87.5,-360 93.5,-366 93.5,-372 93.5,-372 93.5,-384 93.5,-384 93.5,-390 87.5,-396 81.5,-396"/>
<text text-anchor="middle" x="66.5" y="-375.5" font-family="sans" font-size="10.00" fill="#000000">Manta</text>
</g>
<!-- 5&#45;&gt;4 -->
<g id="edge5" class="edge">
<title>5&#45;&gt;4</title>
<path fill="none" stroke="#c0c0c0" stroke-width="2" d="M66.5,-359.8314C66.5,-352.131 66.5,-342.9743 66.5,-334.4166"/>
<polygon fill="#c0c0c0" stroke="#c0c0c0" stroke-width="2" points="70.0001,-334.4132 66.5,-324.4133 63.0001,-334.4133 70.0001,-334.4132"/>
</g>
</g>
</svg>
