<?xml version="1.0" encoding="UTF-8" standalone="no"?>
<!DOCTYPE svg PUBLIC "-//W3C//DTD SVG 1.1//EN"
 "http://www.w3.org/Graphics/SVG/1.1/DTD/svg11.dtd">
<!-- Generated by graphviz version 2.30.1 (20201013.1554)
 -->
<!-- Title: snakemake_dag Pages: 1 -->
<svg width="142pt" height="476pt"
 viewBox="0.00 0.00 142.00 476.00" xmlns="http://www.w3.org/2000/svg" xmlns:xlink="http://www.w3.org/1999/xlink">
<g id="graph0" class="graph" transform="scale(1 1) rotate(0) translate(4 472)">
<title>snakemake_dag</title>
<polygon fill="white" stroke="white" points="-4,5 -4,-472 139,-472 139,5 -4,5"/>
<!-- 0 -->
<g id="node1" class="node"><title>0</title>
<path fill="none" stroke="#56d87b" stroke-width="2" d="M84,-36C84,-36 50,-36 50,-36 44,-36 38,-30 38,-24 38,-24 38,-12 38,-12 38,-6 44,-0 50,-0 50,-0 84,-0 84,-0 90,-0 96,-6 96,-12 96,-12 96,-24 96,-24 96,-30 90,-36 84,-36"/>
<text text-anchor="middle" x="67" y="-15.5" font-family="sans" font-size="10.00">VcfTabix</text>
</g>
<!-- 1 -->
<g id="node2" class="node"><title>1</title>
<path fill="none" stroke="#c6d856" stroke-width="2" d="M122,-108C122,-108 12,-108 12,-108 6,-108 0,-102 0,-96 0,-96 0,-84 0,-84 0,-78 6,-72 12,-72 12,-72 122,-72 122,-72 128,-72 134,-78 134,-84 134,-84 134,-96 134,-96 134,-102 128,-108 122,-108"/>
<text text-anchor="middle" x="67" y="-87.5" font-family="sans" font-size="10.00">JointGenotypeVCFParser</text>
</g>
<!-- 1&#45;&gt;0 -->
<g id="edge1" class="edge"><title>1&#45;&gt;0</title>
<path fill="none" stroke="grey" stroke-width="2" d="M67,-71.6966C67,-63.9827 67,-54.7125 67,-46.1124"/>
<polygon fill="grey" stroke="grey" points="70.5001,-46.1043 67,-36.1043 63.5001,-46.1044 70.5001,-46.1043"/>
</g>
<!-- 2 -->
<g id="node3" class="node"><title>2</title>
<path fill="none" stroke="#56a2d8" stroke-width="2" d="M93.25,-180C93.25,-180 40.75,-180 40.75,-180 34.75,-180 28.75,-174 28.75,-168 28.75,-168 28.75,-156 28.75,-156 28.75,-150 34.75,-144 40.75,-144 40.75,-144 93.25,-144 93.25,-144 99.25,-144 105.25,-150 105.25,-156 105.25,-156 105.25,-168 105.25,-168 105.25,-174 99.25,-180 93.25,-180"/>
<text text-anchor="middle" x="67" y="-159.5" font-family="sans" font-size="10.00">VtNormalize</text>
</g>
<!-- 2&#45;&gt;1 -->
<g id="edge2" class="edge"><title>2&#45;&gt;1</title>
<path fill="none" stroke="grey" stroke-width="2" d="M67,-143.697C67,-135.983 67,-126.712 67,-118.112"/>
<polygon fill="grey" stroke="grey" points="70.5001,-118.104 67,-108.104 63.5001,-118.104 70.5001,-118.104"/>
</g>
<!-- 3 -->
<g id="node4" class="node"><title>3</title>
<path fill="none" stroke="#56d8c9" stroke-width="2" d="M97.25,-252C97.25,-252 36.75,-252 36.75,-252 30.75,-252 24.75,-246 24.75,-240 24.75,-240 24.75,-228 24.75,-228 24.75,-222 30.75,-216 36.75,-216 36.75,-216 97.25,-216 97.25,-216 103.25,-216 109.25,-222 109.25,-228 109.25,-228 109.25,-240 109.25,-240 109.25,-246 103.25,-252 97.25,-252"/>
<text text-anchor="middle" x="67" y="-231.5" font-family="sans" font-size="10.00">VtDecompose</text>
</g>
<!-- 3&#45;&gt;2 -->
<g id="edge3" class="edge"><title>3&#45;&gt;2</title>
<path fill="none" stroke="grey" stroke-width="2" d="M67,-215.697C67,-207.983 67,-198.712 67,-190.112"/>
<polygon fill="grey" stroke="grey" points="70.5001,-190.104 67,-180.104 63.5001,-190.104 70.5001,-190.104"/>
</g>
<!-- 4 -->
<g id="node5" class="node"><title>4</title>
<path fill="none" stroke="#d85656" stroke-width="2" d="M82,-324C82,-324 52,-324 52,-324 46,-324 40,-318 40,-312 40,-312 40,-300 40,-300 40,-294 46,-288 52,-288 52,-288 82,-288 82,-288 88,-288 94,-294 94,-300 94,-300 94,-312 94,-312 94,-318 88,-324 82,-324"/>
<text text-anchor="middle" x="67" y="-303.5" font-family="sans" font-size="10.00">Strelka</text>
</g>
<!-- 4&#45;&gt;3 -->
<g id="edge4" class="edge"><title>4&#45;&gt;3</title>
<path fill="none" stroke="grey" stroke-width="2" d="M67,-287.697C67,-279.983 67,-270.712 67,-262.112"/>
<polygon fill="grey" stroke="grey" points="70.5001,-262.104 67,-252.104 63.5001,-262.104 70.5001,-262.104"/>
</g>
<!-- 5 -->
<g id="node6" class="node"><title>5</title>
<path fill="none" stroke="#d8a456" stroke-width="2" d="M108,-468C108,-468 26,-468 26,-468 20,-468 14,-462 14,-456 14,-456 14,-444 14,-444 14,-438 20,-432 26,-432 26,-432 108,-432 108,-432 114,-432 120,-438 120,-444 120,-444 120,-456 120,-456 120,-462 114,-468 108,-468"/>
<text text-anchor="middle" x="67" y="-447.5" font-family="sans" font-size="10.00">CreateSampleMap</text>
</g>
<!-- 5&#45;&gt;4 -->
<g id="edge5" class="edge"><title>5&#45;&gt;4</title>
<path fill="none" stroke="grey" stroke-width="2" d="M63.7517,-431.888C61.9542,-421.542 59.9053,-408.063 59,-396 57.8026,-380.045 57.8026,-375.955 59,-360 59.6366,-351.518 60.8384,-342.336 62.1208,-334.036"/>
<polygon fill="grey" stroke="grey" points="65.5836,-334.547 63.7517,-324.112 58.6763,-333.412 65.5836,-334.547"/>
</g>
<!-- 6 -->
<g id="node7" class="node"><title>6</title>
<path fill="none" stroke="#78d856" stroke-width="2" d="M110,-396C110,-396 80,-396 80,-396 74,-396 68,-390 68,-384 68,-384 68,-372 68,-372 68,-366 74,-360 80,-360 80,-360 110,-360 110,-360 116,-360 122,-366 122,-372 122,-372 122,-384 122,-384 122,-390 116,-396 110,-396"/>
<text text-anchor="middle" x="95" y="-375.5" font-family="sans" font-size="10.00">Manta</text>
</g>
<!-- 5&#45;&gt;6 -->
<g id="edge7" class="edge"><title>5&#45;&gt;6</title>
<path fill="none" stroke="grey" stroke-width="2" d="M73.9214,-431.697C77.0747,-423.813 80.8783,-414.304 84.3814,-405.546"/>
<polygon fill="grey" stroke="grey" points="87.694,-406.689 88.1583,-396.104 81.1946,-404.089 87.694,-406.689"/>
</g>
<!-- 6&#45;&gt;4 -->
<g id="edge6" class="edge"><title>6&#45;&gt;4</title>
<path fill="none" stroke="grey" stroke-width="2" d="M88.0786,-359.697C84.9253,-351.813 81.1217,-342.304 77.6186,-333.546"/>
<polygon fill="grey" stroke="grey" points="80.8054,-332.089 73.8417,-324.104 74.306,-334.689 80.8054,-332.089"/>
</g>
</g>
</svg>
