<?xml version="1.0" encoding="UTF-8" standalone="no"?>
<!DOCTYPE svg PUBLIC "-//W3C//DTD SVG 1.1//EN"
 "http://www.w3.org/Graphics/SVG/1.1/DTD/svg11.dtd">
<!-- Generated by graphviz version 2.40.1 (20161225.0304)
 -->
<!-- Title: snakemake_dag Pages: 1 -->
<svg width="270pt" height="332pt"
 viewBox="0.00 0.00 269.50 332.00" xmlns="http://www.w3.org/2000/svg" xmlns:xlink="http://www.w3.org/1999/xlink">
<g id="graph0" class="graph" transform="scale(1 1) rotate(0) translate(4 328)">
<title>snakemake_dag</title>
<polygon fill="#ffffff" stroke="transparent" points="-4,4 -4,-328 265.5,-328 265.5,4 -4,4"/>
<!-- 0 -->
<g id="node1" class="node">
<title>0</title>
<path fill="none" stroke="#d85656" stroke-width="2" d="M126,-36C126,-36 90,-36 90,-36 84,-36 78,-30 78,-24 78,-24 78,-12 78,-12 78,-6 84,0 90,0 90,0 126,0 126,0 132,0 138,-6 138,-12 138,-12 138,-24 138,-24 138,-30 132,-36 126,-36"/>
<text text-anchor="middle" x="108" y="-15.5" font-family="sans" font-size="10.00" fill="#000000">Organize</text>
</g>
<!-- 1 -->
<g id="node2" class="node">
<title>1</title>
<path fill="none" stroke="#d8ac56" stroke-width="2" d="M68,-108C68,-108 12,-108 12,-108 6,-108 0,-102 0,-96 0,-96 0,-84 0,-84 0,-78 6,-72 12,-72 12,-72 68,-72 68,-72 74,-72 80,-78 80,-84 80,-84 80,-96 80,-96 80,-102 74,-108 68,-108"/>
<text text-anchor="middle" x="40" y="-87.5" font-family="sans" font-size="10.00" fill="#000000">WigToBigWig</text>
</g>
<!-- 1&#45;&gt;0 -->
<g id="edge1" class="edge">
<title>1&#45;&gt;0</title>
<path fill="none" stroke="#c0c0c0" stroke-width="2" d="M57.1593,-71.8314C65.1511,-63.3694 74.8038,-53.1489 83.5416,-43.8971"/>
<polygon fill="#c0c0c0" stroke="#c0c0c0" stroke-width="2" points="86.288,-46.0866 90.6097,-36.4133 81.1989,-41.2802 86.288,-46.0866"/>
</g>
<!-- 2 -->
<g id="node3" class="node">
<title>2</title>
<path fill="none" stroke="#56d8a9" stroke-width="2" d="M154.5,-180C154.5,-180 89.5,-180 89.5,-180 83.5,-180 77.5,-174 77.5,-168 77.5,-168 77.5,-156 77.5,-156 77.5,-150 83.5,-144 89.5,-144 89.5,-144 154.5,-144 154.5,-144 160.5,-144 166.5,-150 166.5,-156 166.5,-156 166.5,-168 166.5,-168 166.5,-174 160.5,-180 154.5,-180"/>
<text text-anchor="middle" x="122" y="-159.5" font-family="sans" font-size="10.00" fill="#000000">SamtoolsIndex</text>
</g>
<!-- 2&#45;&gt;0 -->
<g id="edge2" class="edge">
<title>2&#45;&gt;0</title>
<path fill="none" stroke="#c0c0c0" stroke-width="2" d="M120.2269,-143.7623C117.839,-119.201 113.5657,-75.2474 110.7566,-46.3541"/>
<polygon fill="#c0c0c0" stroke="#c0c0c0" stroke-width="2" points="114.21,-45.704 109.7587,-36.0896 107.2429,-46.3814 114.21,-45.704"/>
</g>
<!-- 3 -->
<g id="node4" class="node">
<title>3</title>
<path fill="none" stroke="#56a9d8" stroke-width="2" d="M249.5,-108C249.5,-108 148.5,-108 148.5,-108 142.5,-108 136.5,-102 136.5,-96 136.5,-96 136.5,-84 136.5,-84 136.5,-78 142.5,-72 148.5,-72 148.5,-72 249.5,-72 249.5,-72 255.5,-72 261.5,-78 261.5,-84 261.5,-84 261.5,-96 261.5,-96 261.5,-102 255.5,-108 249.5,-108"/>
<text text-anchor="middle" x="199" y="-87.5" font-family="sans" font-size="10.00" fill="#000000">CollectRNASeqMetrics</text>
</g>
<!-- 2&#45;&gt;3 -->
<g id="edge6" class="edge">
<title>2&#45;&gt;3</title>
<path fill="none" stroke="#c0c0c0" stroke-width="2" d="M141.4304,-143.8314C150.732,-135.1337 162.0204,-124.5783 172.1286,-115.1265"/>
<polygon fill="#c0c0c0" stroke="#c0c0c0" stroke-width="2" points="174.6621,-117.5493 179.5759,-108.1628 169.8811,-112.4363 174.6621,-117.5493"/>
</g>
<!-- 3&#45;&gt;0 -->
<g id="edge3" class="edge">
<title>3&#45;&gt;0</title>
<path fill="none" stroke="#c0c0c0" stroke-width="2" d="M176.0369,-71.8314C164.8285,-62.9632 151.1791,-52.1637 139.0561,-42.5718"/>
<polygon fill="#c0c0c0" stroke="#c0c0c0" stroke-width="2" points="140.9697,-39.6229 130.9558,-36.1628 136.6263,-45.1125 140.9697,-39.6229"/>
</g>
<!-- 4 -->
<g id="node5" class="node">
<title>4</title>
<path fill="none" stroke="#59d856" stroke-width="2" d="M153,-252C153,-252 91,-252 91,-252 85,-252 79,-246 79,-240 79,-240 79,-228 79,-228 79,-222 85,-216 91,-216 91,-216 153,-216 153,-216 159,-216 165,-222 165,-228 165,-228 165,-240 165,-240 165,-246 159,-252 153,-252"/>
<text text-anchor="middle" x="122" y="-231.5" font-family="sans" font-size="10.00" fill="#000000">StarAlignment</text>
</g>
<!-- 4&#45;&gt;1 -->
<g id="edge4" class="edge">
<title>4&#45;&gt;1</title>
<path fill="none" stroke="#c0c0c0" stroke-width="2" d="M99.1672,-215.7592C88.4011,-206.1216 76.1591,-193.5038 68,-180 56.4866,-160.9446 49.3024,-136.7229 45.0978,-118.2085"/>
<polygon fill="#c0c0c0" stroke="#c0c0c0" stroke-width="2" points="48.4991,-117.3755 43.008,-108.3147 41.6502,-118.8221 48.4991,-117.3755"/>
</g>
<!-- 4&#45;&gt;2 -->
<g id="edge5" class="edge">
<title>4&#45;&gt;2</title>
<path fill="none" stroke="#c0c0c0" stroke-width="2" d="M122,-215.8314C122,-208.131 122,-198.9743 122,-190.4166"/>
<polygon fill="#c0c0c0" stroke="#c0c0c0" stroke-width="2" points="125.5001,-190.4132 122,-180.4133 118.5001,-190.4133 125.5001,-190.4132"/>
</g>
<!-- 4&#45;&gt;3 -->
<g id="edge7" class="edge">
<title>4&#45;&gt;3</title>
<path fill="none" stroke="#c0c0c0" stroke-width="2" d="M144.6364,-215.8235C155.2588,-206.2017 167.2555,-193.5786 175,-180 185.9001,-160.8885 191.9931,-136.6703 195.3098,-118.1716"/>
<polygon fill="#c0c0c0" stroke="#c0c0c0" stroke-width="2" points="198.7665,-118.72 196.9184,-108.2876 191.8574,-117.5955 198.7665,-118.72"/>
</g>
<!-- 5 -->
<g id="node6" class="node">
<title>5</title>
<path fill="none" stroke="#afd856" stroke-width="2" d="M145,-324C145,-324 99,-324 99,-324 93,-324 87,-318 87,-312 87,-312 87,-300 87,-300 87,-294 93,-288 99,-288 99,-288 145,-288 145,-288 151,-288 157,-294 157,-300 157,-300 157,-312 157,-312 157,-318 151,-324 145,-324"/>
<text text-anchor="middle" x="122" y="-303.5" font-family="sans" font-size="10.00" fill="#000000">Sam2Fastq</text>
</g>
<!-- 5&#45;&gt;4 -->
<g id="edge8" class="edge">
<title>5&#45;&gt;4</title>
<path fill="none" stroke="#c0c0c0" stroke-width="2" d="M122,-287.8314C122,-280.131 122,-270.9743 122,-262.4166"/>
<polygon fill="#c0c0c0" stroke="#c0c0c0" stroke-width="2" points="125.5001,-262.4132 122,-252.4133 118.5001,-262.4133 125.5001,-262.4132"/>
</g>
</g>
</svg>
