<?xml version="1.0" encoding="UTF-8" standalone="no"?>
<!DOCTYPE svg PUBLIC "-//W3C//DTD SVG 1.1//EN"
 "http://www.w3.org/Graphics/SVG/1.1/DTD/svg11.dtd">
<!-- Generated by graphviz version 2.40.1 (20161225.0304)
 -->
<!-- Title: snakemake_dag Pages: 1 -->
<svg width="271pt" height="764pt"
 viewBox="0.00 0.00 271.00 764.00" xmlns="http://www.w3.org/2000/svg" xmlns:xlink="http://www.w3.org/1999/xlink">
<g id="graph0" class="graph" transform="scale(1 1) rotate(0) translate(4 760)">
<title>snakemake_dag</title>
<polygon fill="#ffffff" stroke="transparent" points="-4,4 -4,-760 267,-760 267,4 -4,4"/>
<!-- 0 -->
<g id="node1" class="node">
<title>0</title>
<path fill="none" stroke="#56d8d8" stroke-width="2" d="M146.5,-36C146.5,-36 64.5,-36 64.5,-36 58.5,-36 52.5,-30 52.5,-24 52.5,-24 52.5,-12 52.5,-12 52.5,-6 58.5,0 64.5,0 64.5,0 146.5,0 146.5,0 152.5,0 158.5,-6 158.5,-12 158.5,-12 158.5,-24 158.5,-24 158.5,-30 152.5,-36 146.5,-36"/>
<text text-anchor="middle" x="105.5" y="-15.5" font-family="sans" font-size="10.00" fill="#000000">AggregateQCStats</text>
</g>
<!-- 1 -->
<g id="node2" class="node">
<title>1</title>
<path fill="none" stroke="#d88556" stroke-width="2" d="M59,-612C59,-612 12,-612 12,-612 6,-612 0,-606 0,-600 0,-600 0,-588 0,-588 0,-582 6,-576 12,-576 12,-576 59,-576 59,-576 65,-576 71,-582 71,-588 71,-588 71,-600 71,-600 71,-606 65,-612 59,-612"/>
<text text-anchor="middle" x="35.5" y="-591.5" font-family="sans" font-size="10.00" fill="#000000">CountFastq</text>
</g>
<!-- 1&#45;&gt;0 -->
<g id="edge1" class="edge">
<title>1&#45;&gt;0</title>
<path fill="none" stroke="#c0c0c0" stroke-width="2" d="M34.2568,-575.8247C32.4994,-548.5213 29.5,-495.2893 29.5,-450 29.5,-450 29.5,-450 29.5,-162 29.5,-116.656 59.3384,-71.5999 81.6226,-44.2735"/>
<polygon fill="#c0c0c0" stroke="#c0c0c0" stroke-width="2" points="84.5006,-46.2889 88.2544,-36.3814 79.1415,-41.7856 84.5006,-46.2889"/>
</g>
<!-- 2 -->
<g id="node3" class="node">
<title>2</title>
<path fill="none" stroke="#d85656" stroke-width="2" d="M251,-108C251,-108 184,-108 184,-108 178,-108 172,-102 172,-96 172,-96 172,-84 172,-84 172,-78 178,-72 184,-72 184,-72 251,-72 251,-72 257,-72 263,-78 263,-84 263,-84 263,-96 263,-96 263,-102 257,-108 251,-108"/>
<text text-anchor="middle" x="217.5" y="-87.5" font-family="sans" font-size="10.00" fill="#000000">USeq2UCSCBig</text>
</g>
<!-- 2&#45;&gt;0 -->
<g id="edge2" class="edge">
<title>2&#45;&gt;0</title>
<path fill="none" stroke="#c0c0c0" stroke-width="2" d="M189.2377,-71.8314C175.0448,-62.7074 157.6718,-51.539 142.4364,-41.7449"/>
<polygon fill="#c0c0c0" stroke="#c0c0c0" stroke-width="2" points="144.0578,-38.6263 133.7533,-36.1628 140.2724,-44.5146 144.0578,-38.6263"/>
</g>
<!-- 3 -->
<g id="node4" class="node">
<title>3</title>
<path fill="none" stroke="#56d8a9" stroke-width="2" d="M179,-540C179,-540 70,-540 70,-540 64,-540 58,-534 58,-528 58,-528 58,-516 58,-516 58,-510 64,-504 70,-504 70,-504 179,-504 179,-504 185,-504 191,-510 191,-516 191,-516 191,-528 191,-528 191,-534 185,-540 179,-540"/>
<text text-anchor="middle" x="124.5" y="-519.5" font-family="sans" font-size="10.00" fill="#000000">SamAlignmentExtractor</text>
</g>
<!-- 3&#45;&gt;0 -->
<g id="edge3" class="edge">
<title>3&#45;&gt;0</title>
<path fill="none" stroke="#c0c0c0" stroke-width="2" d="M108.754,-503.6429C100.9748,-493.6881 92.0829,-480.8229 86.5,-468 70.1805,-430.5169 67.5,-418.8816 67.5,-378 67.5,-378 67.5,-378 67.5,-162 67.5,-120.3681 82.5328,-74.14 93.6881,-45.567"/>
<polygon fill="#c0c0c0" stroke="#c0c0c0" stroke-width="2" points="96.9578,-46.817 97.4412,-36.2332 90.4632,-44.2055 96.9578,-46.817"/>
</g>
<!-- 11 -->
<g id="node12" class="node">
<title>11</title>
<path fill="none" stroke="#59d856" stroke-width="2" d="M191.5,-468C191.5,-468 107.5,-468 107.5,-468 101.5,-468 95.5,-462 95.5,-456 95.5,-456 95.5,-444 95.5,-444 95.5,-438 101.5,-432 107.5,-432 107.5,-432 191.5,-432 191.5,-432 197.5,-432 203.5,-438 203.5,-444 203.5,-444 203.5,-456 203.5,-456 203.5,-462 197.5,-468 191.5,-468"/>
<text text-anchor="middle" x="149.5" y="-447.5" font-family="sans" font-size="10.00" fill="#000000">RemoveDuplicates</text>
</g>
<!-- 3&#45;&gt;11 -->
<g id="edge16" class="edge">
<title>3&#45;&gt;11</title>
<path fill="none" stroke="#c0c0c0" stroke-width="2" d="M130.8086,-503.8314C133.5117,-496.0463 136.7316,-486.7729 139.731,-478.1347"/>
<polygon fill="#c0c0c0" stroke="#c0c0c0" stroke-width="2" points="143.1327,-479.0081 143.1065,-468.4133 136.52,-476.7119 143.1327,-479.0081"/>
</g>
<!-- 4 -->
<g id="node5" class="node">
<title>4</title>
<path fill="none" stroke="#d6d856" stroke-width="2" d="M218.5,-252C218.5,-252 110.5,-252 110.5,-252 104.5,-252 98.5,-246 98.5,-240 98.5,-240 98.5,-228 98.5,-228 98.5,-222 104.5,-216 110.5,-216 110.5,-216 218.5,-216 218.5,-216 224.5,-216 230.5,-222 230.5,-228 230.5,-228 230.5,-240 230.5,-240 230.5,-246 224.5,-252 218.5,-252"/>
<text text-anchor="middle" x="164.5" y="-231.5" font-family="sans" font-size="10.00" fill="#000000">MergePairedAlignments</text>
</g>
<!-- 4&#45;&gt;0 -->
<g id="edge4" class="edge">
<title>4&#45;&gt;0</title>
<path fill="none" stroke="#c0c0c0" stroke-width="2" d="M147.4034,-215.9801C139.072,-206.1176 129.7418,-193.2332 124.5,-180 106.9791,-135.7677 104.272,-79.8189 104.4811,-46.5833"/>
<polygon fill="#c0c0c0" stroke="#c0c0c0" stroke-width="2" points="107.9862,-46.2873 104.6466,-36.2326 100.9871,-46.1753 107.9862,-46.2873"/>
</g>
<!-- 5 -->
<g id="node6" class="node">
<title>5</title>
<path fill="none" stroke="#5682d8" stroke-width="2" d="M191.5,-180C191.5,-180 145.5,-180 145.5,-180 139.5,-180 133.5,-174 133.5,-168 133.5,-168 133.5,-156 133.5,-156 133.5,-150 139.5,-144 145.5,-144 145.5,-144 191.5,-144 191.5,-144 197.5,-144 203.5,-150 203.5,-156 203.5,-156 203.5,-168 203.5,-168 203.5,-174 197.5,-180 191.5,-180"/>
<text text-anchor="middle" x="168.5" y="-159.5" font-family="sans" font-size="10.00" fill="#000000">Sam2USeq</text>
</g>
<!-- 4&#45;&gt;5 -->
<g id="edge10" class="edge">
<title>4&#45;&gt;5</title>
<path fill="none" stroke="#c0c0c0" stroke-width="2" d="M165.5094,-215.8314C165.9372,-208.131 166.4459,-198.9743 166.9213,-190.4166"/>
<polygon fill="#c0c0c0" stroke="#c0c0c0" stroke-width="2" points="170.4169,-190.592 167.477,-180.4133 163.4276,-190.2037 170.4169,-190.592"/>
</g>
<!-- 5&#45;&gt;0 -->
<g id="edge5" class="edge">
<title>5&#45;&gt;0</title>
<path fill="none" stroke="#c0c0c0" stroke-width="2" d="M160.521,-143.7623C149.6808,-118.9846 130.2062,-74.4714 117.5723,-45.5939"/>
<polygon fill="#c0c0c0" stroke="#c0c0c0" stroke-width="2" points="120.629,-43.8483 113.4142,-36.0896 114.2159,-46.6541 120.629,-43.8483"/>
</g>
<!-- 5&#45;&gt;2 -->
<g id="edge7" class="edge">
<title>5&#45;&gt;2</title>
<path fill="none" stroke="#c0c0c0" stroke-width="2" d="M180.8648,-143.8314C186.4509,-135.6232 193.163,-125.7606 199.3072,-116.7323"/>
<polygon fill="#c0c0c0" stroke="#c0c0c0" stroke-width="2" points="202.236,-118.6496 204.9687,-108.4133 196.449,-114.7112 202.236,-118.6496"/>
</g>
<!-- 6 -->
<g id="node7" class="node">
<title>6</title>
<path fill="none" stroke="#80d856" stroke-width="2" d="M99.5,-756C99.5,-756 53.5,-756 53.5,-756 47.5,-756 41.5,-750 41.5,-744 41.5,-744 41.5,-732 41.5,-732 41.5,-726 47.5,-720 53.5,-720 53.5,-720 99.5,-720 99.5,-720 105.5,-720 111.5,-726 111.5,-732 111.5,-732 111.5,-744 111.5,-744 111.5,-750 105.5,-756 99.5,-756"/>
<text text-anchor="middle" x="76.5" y="-735.5" font-family="sans" font-size="10.00" fill="#000000">Sam2Fastq</text>
</g>
<!-- 6&#45;&gt;1 -->
<g id="edge6" class="edge">
<title>6&#45;&gt;1</title>
<path fill="none" stroke="#c0c0c0" stroke-width="2" d="M71.3073,-719.7623C64.2834,-695.0928 51.6892,-650.8598 43.4646,-621.9731"/>
<polygon fill="#c0c0c0" stroke="#c0c0c0" stroke-width="2" points="46.7552,-620.7489 40.6505,-612.0896 40.0228,-622.6658 46.7552,-620.7489"/>
</g>
<!-- 9 -->
<g id="node10" class="node">
<title>9</title>
<path fill="none" stroke="#56a9d8" stroke-width="2" d="M134,-684C134,-684 91,-684 91,-684 85,-684 79,-678 79,-672 79,-672 79,-660 79,-660 79,-654 85,-648 91,-648 91,-648 134,-648 134,-648 140,-648 146,-654 146,-660 146,-660 146,-672 146,-672 146,-678 140,-684 134,-684"/>
<text text-anchor="middle" x="112.5" y="-663.5" font-family="sans" font-size="10.00" fill="#000000">AlignHg38</text>
</g>
<!-- 6&#45;&gt;9 -->
<g id="edge14" class="edge">
<title>6&#45;&gt;9</title>
<path fill="none" stroke="#c0c0c0" stroke-width="2" d="M85.5843,-719.8314C89.5615,-711.8771 94.3155,-702.369 98.7139,-693.5723"/>
<polygon fill="#c0c0c0" stroke="#c0c0c0" stroke-width="2" points="101.9517,-694.9228 103.2934,-684.4133 95.6907,-691.7923 101.9517,-694.9228"/>
</g>
<!-- 7 -->
<g id="node8" class="node">
<title>7</title>
<path fill="none" stroke="#d8ac56" stroke-width="2" d="M138.5,-612C138.5,-612 104.5,-612 104.5,-612 98.5,-612 92.5,-606 92.5,-600 92.5,-600 92.5,-588 92.5,-588 92.5,-582 98.5,-576 104.5,-576 104.5,-576 138.5,-576 138.5,-576 144.5,-576 150.5,-582 150.5,-588 150.5,-588 150.5,-600 150.5,-600 150.5,-606 144.5,-612 138.5,-612"/>
<text text-anchor="middle" x="121.5" y="-591.5" font-family="sans" font-size="10.00" fill="#000000">SortSam</text>
</g>
<!-- 7&#45;&gt;3 -->
<g id="edge8" class="edge">
<title>7&#45;&gt;3</title>
<path fill="none" stroke="#c0c0c0" stroke-width="2" d="M122.257,-575.8314C122.5779,-568.131 122.9594,-558.9743 123.316,-550.4166"/>
<polygon fill="#c0c0c0" stroke="#c0c0c0" stroke-width="2" points="126.8133,-550.5503 123.7328,-540.4133 119.8194,-550.2589 126.8133,-550.5503"/>
</g>
<!-- 8 -->
<g id="node9" class="node">
<title>8</title>
<path fill="none" stroke="#56d882" stroke-width="2" d="M213.5,-324C213.5,-324 115.5,-324 115.5,-324 109.5,-324 103.5,-318 103.5,-312 103.5,-312 103.5,-300 103.5,-300 103.5,-294 109.5,-288 115.5,-288 115.5,-288 213.5,-288 213.5,-288 219.5,-288 225.5,-294 225.5,-300 225.5,-300 225.5,-312 225.5,-312 225.5,-318 219.5,-324 213.5,-324"/>
<text text-anchor="middle" x="164.5" y="-303.5" font-family="sans" font-size="10.00" fill="#000000">PrintRecalibratedBam</text>
</g>
<!-- 8&#45;&gt;4 -->
<g id="edge9" class="edge">
<title>8&#45;&gt;4</title>
<path fill="none" stroke="#c0c0c0" stroke-width="2" d="M164.5,-287.8314C164.5,-280.131 164.5,-270.9743 164.5,-262.4166"/>
<polygon fill="#c0c0c0" stroke="#c0c0c0" stroke-width="2" points="168.0001,-262.4132 164.5,-252.4133 161.0001,-262.4133 168.0001,-262.4132"/>
</g>
<!-- 9&#45;&gt;7 -->
<g id="edge11" class="edge">
<title>9&#45;&gt;7</title>
<path fill="none" stroke="#c0c0c0" stroke-width="2" d="M114.7711,-647.8314C115.7336,-640.131 116.8782,-630.9743 117.9479,-622.4166"/>
<polygon fill="#c0c0c0" stroke="#c0c0c0" stroke-width="2" points="121.4309,-622.7702 119.1983,-612.4133 114.4849,-621.9019 121.4309,-622.7702"/>
</g>
<!-- 10 -->
<g id="node11" class="node">
<title>10</title>
<path fill="none" stroke="#afd856" stroke-width="2" d="M245,-396C245,-396 168,-396 168,-396 162,-396 156,-390 156,-384 156,-384 156,-372 156,-372 156,-366 162,-360 168,-360 168,-360 245,-360 245,-360 251,-360 257,-366 257,-372 257,-372 257,-384 257,-384 257,-390 251,-396 245,-396"/>
<text text-anchor="middle" x="206.5" y="-375.5" font-family="sans" font-size="10.00" fill="#000000">RecalibrateBases</text>
</g>
<!-- 10&#45;&gt;8 -->
<g id="edge12" class="edge">
<title>10&#45;&gt;8</title>
<path fill="none" stroke="#c0c0c0" stroke-width="2" d="M195.9016,-359.8314C191.2123,-351.7925 185.5972,-342.1666 180.4202,-333.2918"/>
<polygon fill="#c0c0c0" stroke="#c0c0c0" stroke-width="2" points="183.3031,-331.2875 175.2411,-324.4133 177.2566,-334.8146 183.3031,-331.2875"/>
</g>
<!-- 11&#45;&gt;8 -->
<g id="edge13" class="edge">
<title>11&#45;&gt;8</title>
<path fill="none" stroke="#c0c0c0" stroke-width="2" d="M147.2647,-431.9505C145.4323,-413.6932 143.7014,-384.716 147.5,-360 148.8374,-351.2979 151.3204,-342.074 153.9834,-333.759"/>
<polygon fill="#c0c0c0" stroke="#c0c0c0" stroke-width="2" points="157.3406,-334.7579 157.2561,-324.1634 150.7154,-332.4982 157.3406,-334.7579"/>
</g>
<!-- 11&#45;&gt;10 -->
<g id="edge15" class="edge">
<title>11&#45;&gt;10</title>
<path fill="none" stroke="#c0c0c0" stroke-width="2" d="M163.8835,-431.8314C170.4486,-423.5386 178.3507,-413.557 185.5578,-404.4533"/>
<polygon fill="#c0c0c0" stroke="#c0c0c0" stroke-width="2" points="188.4599,-406.4262 191.9228,-396.4133 182.9716,-402.0813 188.4599,-406.4262"/>
</g>
</g>
</svg>
