<?xml version="1.0" encoding="UTF-8" standalone="no"?>
<!DOCTYPE svg PUBLIC "-//W3C//DTD SVG 1.1//EN"
 "http://www.w3.org/Graphics/SVG/1.1/DTD/svg11.dtd">
<!-- Generated by graphviz version 2.40.1 (20161225.0304)
 -->
<!-- Title: snakemake_dag Pages: 1 -->
<svg width="142pt" height="260pt"
 viewBox="0.00 0.00 142.00 260.00" xmlns="http://www.w3.org/2000/svg" xmlns:xlink="http://www.w3.org/1999/xlink">
<g id="graph0" class="graph" transform="scale(1 1) rotate(0) translate(4 256)">
<title>snakemake_dag</title>
<polygon fill="#ffffff" stroke="transparent" points="-4,4 -4,-256 138,-256 138,4 -4,4"/>
<!-- 0 -->
<g id="node1" class="node">
<title>0</title>
<path fill="none" stroke="#d6d856" stroke-width="2" d="M84,-36C84,-36 50,-36 50,-36 44,-36 38,-30 38,-24 38,-24 38,-12 38,-12 38,-6 44,0 50,0 50,0 84,0 84,0 90,0 96,-6 96,-12 96,-12 96,-24 96,-24 96,-30 90,-36 84,-36"/>
<text text-anchor="middle" x="67" y="-15.5" font-family="sans" font-size="10.00" fill="#000000">VcfTabix</text>
</g>
<!-- 1 -->
<g id="node2" class="node">
<title>1</title>
<path fill="none" stroke="#56d8d8" stroke-width="2" d="M122,-108C122,-108 12,-108 12,-108 6,-108 0,-102 0,-96 0,-96 0,-84 0,-84 0,-78 6,-72 12,-72 12,-72 122,-72 122,-72 128,-72 134,-78 134,-84 134,-84 134,-96 134,-96 134,-102 128,-108 122,-108"/>
<text text-anchor="middle" x="67" y="-87.5" font-family="sans" font-size="10.00" fill="#000000">JointGenotypeVCFParser</text>
</g>
<!-- 1&#45;&gt;0 -->
<g id="edge1" class="edge">
<title>1&#45;&gt;0</title>
<path fill="none" stroke="#c0c0c0" stroke-width="2" d="M67,-71.8314C67,-64.131 67,-54.9743 67,-46.4166"/>
<polygon fill="#c0c0c0" stroke="#c0c0c0" stroke-width="2" points="70.5001,-46.4132 67,-36.4133 63.5001,-46.4133 70.5001,-46.4132"/>
</g>
<!-- 2 -->
<g id="node3" class="node">
<title>2</title>
<path fill="none" stroke="#59d856" stroke-width="2" d="M97.5,-180C97.5,-180 36.5,-180 36.5,-180 30.5,-180 24.5,-174 24.5,-168 24.5,-168 24.5,-156 24.5,-156 24.5,-150 30.5,-144 36.5,-144 36.5,-144 97.5,-144 97.5,-144 103.5,-144 109.5,-150 109.5,-156 109.5,-156 109.5,-168 109.5,-168 109.5,-174 103.5,-180 97.5,-180"/>
<text text-anchor="middle" x="67" y="-159.5" font-family="sans" font-size="10.00" fill="#000000">VtDecompose</text>
</g>
<!-- 2&#45;&gt;1 -->
<g id="edge2" class="edge">
<title>2&#45;&gt;1</title>
<path fill="none" stroke="#c0c0c0" stroke-width="2" d="M67,-143.8314C67,-136.131 67,-126.9743 67,-118.4166"/>
<polygon fill="#c0c0c0" stroke="#c0c0c0" stroke-width="2" points="70.5001,-118.4132 67,-108.4133 63.5001,-118.4133 70.5001,-118.4132"/>
</g>
<!-- 3 -->
<g id="node4" class="node">
<title>3</title>
<path fill="none" stroke="#d85656" stroke-width="2" d="M102.5,-252C102.5,-252 31.5,-252 31.5,-252 25.5,-252 19.5,-246 19.5,-240 19.5,-240 19.5,-228 19.5,-228 19.5,-222 25.5,-216 31.5,-216 31.5,-216 102.5,-216 102.5,-216 108.5,-216 114.5,-222 114.5,-228 114.5,-228 114.5,-240 114.5,-240 114.5,-246 108.5,-252 102.5,-252"/>
<text text-anchor="middle" x="67" y="-231.5" font-family="sans" font-size="10.00" fill="#000000">GenotypeGVCFs</text>
</g>
<!-- 3&#45;&gt;2 -->
<g id="edge3" class="edge">
<title>3&#45;&gt;2</title>
<path fill="none" stroke="#c0c0c0" stroke-width="2" d="M67,-215.8314C67,-208.131 67,-198.9743 67,-190.4166"/>
<polygon fill="#c0c0c0" stroke="#c0c0c0" stroke-width="2" points="70.5001,-190.4132 67,-180.4133 63.5001,-190.4133 70.5001,-190.4132"/>
</g>
</g>
</svg>
