<?xml version="1.0" encoding="UTF-8" standalone="no"?>
<!DOCTYPE svg PUBLIC "-//W3C//DTD SVG 1.1//EN"
 "http://www.w3.org/Graphics/SVG/1.1/DTD/svg11.dtd">
<!-- Generated by graphviz version 2.40.1 (20161225.0304)
 -->
<!-- Title: snakemake_dag Pages: 1 -->
<svg width="457pt" height="980pt"
 viewBox="0.00 0.00 457.00 980.00" xmlns="http://www.w3.org/2000/svg" xmlns:xlink="http://www.w3.org/1999/xlink">
<g id="graph0" class="graph" transform="scale(1 1) rotate(0) translate(4 976)">
<title>snakemake_dag</title>
<polygon fill="#ffffff" stroke="transparent" points="-4,4 -4,-976 453,-976 453,4 -4,4"/>
<!-- 0 -->
<g id="node1" class="node">
<title>0</title>
<path fill="none" stroke="#56d0d8" stroke-width="2" d="M210,-36C210,-36 128,-36 128,-36 122,-36 116,-30 116,-24 116,-24 116,-12 116,-12 116,-6 122,0 128,0 128,0 210,0 210,0 216,0 222,-6 222,-12 222,-12 222,-24 222,-24 222,-30 216,-36 210,-36"/>
<text text-anchor="middle" x="169" y="-15.5" font-family="sans" font-size="10.00" fill="#000000">AggregateQCStats</text>
</g>
<!-- 1 -->
<g id="node2" class="node">
<title>1</title>
<path fill="none" stroke="#5673d8" stroke-width="2" d="M148.5,-612C148.5,-612 39.5,-612 39.5,-612 33.5,-612 27.5,-606 27.5,-600 27.5,-600 27.5,-588 27.5,-588 27.5,-582 33.5,-576 39.5,-576 39.5,-576 148.5,-576 148.5,-576 154.5,-576 160.5,-582 160.5,-588 160.5,-588 160.5,-600 160.5,-600 160.5,-606 154.5,-612 148.5,-612"/>
<text text-anchor="middle" x="94" y="-591.5" font-family="sans" font-size="10.00" fill="#000000">SamAlignmentExtractor</text>
</g>
<!-- 1&#45;&gt;0 -->
<g id="edge1" class="edge">
<title>1&#45;&gt;0</title>
<path fill="none" stroke="#c0c0c0" stroke-width="2" d="M85.9412,-575.7668C74.7866,-548.8248 56,-496.5405 56,-450 56,-450 56,-450 56,-162 56,-111.1719 100.1105,-67.6457 133.2121,-42.1382"/>
<polygon fill="#c0c0c0" stroke="#c0c0c0" stroke-width="2" points="135.4443,-44.8395 141.3571,-36.048 131.2524,-39.2333 135.4443,-44.8395"/>
</g>
<!-- 11 -->
<g id="node12" class="node">
<title>11</title>
<path fill="none" stroke="#d8d356" stroke-width="2" d="M178,-468C178,-468 120,-468 120,-468 114,-468 108,-462 108,-456 108,-456 108,-444 108,-444 108,-438 114,-432 120,-432 120,-432 178,-432 178,-432 184,-432 190,-438 190,-444 190,-444 190,-456 190,-456 190,-462 184,-468 178,-468"/>
<text text-anchor="middle" x="149" y="-447.5" font-family="sans" font-size="10.00" fill="#000000">RealignIndels</text>
</g>
<!-- 1&#45;&gt;11 -->
<g id="edge18" class="edge">
<title>1&#45;&gt;11</title>
<path fill="none" stroke="#c0c0c0" stroke-width="2" d="M95.7905,-575.8083C98.0888,-557.1875 103.0345,-527.7008 113,-504 116.9544,-494.5953 122.6152,-485.0879 128.2805,-476.727"/>
<polygon fill="#c0c0c0" stroke="#c0c0c0" stroke-width="2" points="131.1959,-478.6664 134.1147,-468.4815 125.4816,-474.6231 131.1959,-478.6664"/>
</g>
<!-- 15 -->
<g id="node16" class="node">
<title>15</title>
<path fill="none" stroke="#d8b456" stroke-width="2" d="M294.5,-540C294.5,-540 133.5,-540 133.5,-540 127.5,-540 121.5,-534 121.5,-528 121.5,-528 121.5,-516 121.5,-516 121.5,-510 127.5,-504 133.5,-504 133.5,-504 294.5,-504 294.5,-504 300.5,-504 306.5,-510 306.5,-516 306.5,-516 306.5,-528 306.5,-528 306.5,-534 300.5,-540 294.5,-540"/>
<text text-anchor="middle" x="214" y="-519.5" font-family="sans" font-size="10.00" fill="#000000">CreateTargetsForIndelRealignment</text>
</g>
<!-- 1&#45;&gt;15 -->
<g id="edge23" class="edge">
<title>1&#45;&gt;15</title>
<path fill="none" stroke="#c0c0c0" stroke-width="2" d="M124.2811,-575.8314C139.6298,-566.6221 158.4498,-555.3301 174.8823,-545.4706"/>
<polygon fill="#c0c0c0" stroke="#c0c0c0" stroke-width="2" points="176.9544,-548.3091 183.7286,-540.1628 173.3529,-542.3066 176.9544,-548.3091"/>
</g>
<!-- 2 -->
<g id="node3" class="node">
<title>2</title>
<path fill="none" stroke="#56d882" stroke-width="2" d="M239.5,-108C239.5,-108 172.5,-108 172.5,-108 166.5,-108 160.5,-102 160.5,-96 160.5,-96 160.5,-84 160.5,-84 160.5,-78 166.5,-72 172.5,-72 172.5,-72 239.5,-72 239.5,-72 245.5,-72 251.5,-78 251.5,-84 251.5,-84 251.5,-96 251.5,-96 251.5,-102 245.5,-108 239.5,-108"/>
<text text-anchor="middle" x="206" y="-87.5" font-family="sans" font-size="10.00" fill="#000000">USeq2UCSCBig</text>
</g>
<!-- 2&#45;&gt;0 -->
<g id="edge2" class="edge">
<title>2&#45;&gt;0</title>
<path fill="none" stroke="#c0c0c0" stroke-width="2" d="M196.6633,-71.8314C192.5757,-63.8771 187.6896,-54.369 183.1691,-45.5723"/>
<polygon fill="#c0c0c0" stroke="#c0c0c0" stroke-width="2" points="186.1461,-43.7078 178.4624,-36.4133 179.9201,-46.9074 186.1461,-43.7078"/>
</g>
<!-- 3 -->
<g id="node4" class="node">
<title>3</title>
<path fill="none" stroke="#d87556" stroke-width="2" d="M328.5,-108C328.5,-108 281.5,-108 281.5,-108 275.5,-108 269.5,-102 269.5,-96 269.5,-96 269.5,-84 269.5,-84 269.5,-78 275.5,-72 281.5,-72 281.5,-72 328.5,-72 328.5,-72 334.5,-72 340.5,-78 340.5,-84 340.5,-84 340.5,-96 340.5,-96 340.5,-102 334.5,-108 328.5,-108"/>
<text text-anchor="middle" x="305" y="-87.5" font-family="sans" font-size="10.00" fill="#000000">CountFastq</text>
</g>
<!-- 3&#45;&gt;0 -->
<g id="edge3" class="edge">
<title>3&#45;&gt;0</title>
<path fill="none" stroke="#c0c0c0" stroke-width="2" d="M270.6815,-71.8314C252.9641,-62.4516 231.1655,-50.9112 212.3016,-40.9244"/>
<polygon fill="#c0c0c0" stroke="#c0c0c0" stroke-width="2" points="213.7831,-37.7485 203.3076,-36.1628 210.5078,-43.935 213.7831,-37.7485"/>
</g>
<!-- 4 -->
<g id="node5" class="node">
<title>4</title>
<path fill="none" stroke="#d85656" stroke-width="2" d="M207,-252C207,-252 99,-252 99,-252 93,-252 87,-246 87,-240 87,-240 87,-228 87,-228 87,-222 93,-216 99,-216 99,-216 207,-216 207,-216 213,-216 219,-222 219,-228 219,-228 219,-240 219,-240 219,-246 213,-252 207,-252"/>
<text text-anchor="middle" x="153" y="-231.5" font-family="sans" font-size="10.00" fill="#000000">MergePairedAlignments</text>
</g>
<!-- 4&#45;&gt;0 -->
<g id="edge4" class="edge">
<title>4&#45;&gt;0</title>
<path fill="none" stroke="#c0c0c0" stroke-width="2" d="M134.8424,-215.7286C126.451,-205.9911 117.3877,-193.2949 113,-180 107.9856,-164.8061 109.6785,-159.6514 113,-144 120.6231,-108.0782 139.2184,-69.9638 152.899,-45.183"/>
<polygon fill="#c0c0c0" stroke="#c0c0c0" stroke-width="2" points="156.005,-46.8005 157.8684,-36.3708 149.9076,-43.362 156.005,-46.8005"/>
</g>
<!-- 6 -->
<g id="node7" class="node">
<title>6</title>
<path fill="none" stroke="#5692d8" stroke-width="2" d="M180,-180C180,-180 134,-180 134,-180 128,-180 122,-174 122,-168 122,-168 122,-156 122,-156 122,-150 128,-144 134,-144 134,-144 180,-144 180,-144 186,-144 192,-150 192,-156 192,-156 192,-168 192,-168 192,-174 186,-180 180,-180"/>
<text text-anchor="middle" x="157" y="-159.5" font-family="sans" font-size="10.00" fill="#000000">Sam2USeq</text>
</g>
<!-- 4&#45;&gt;6 -->
<g id="edge10" class="edge">
<title>4&#45;&gt;6</title>
<path fill="none" stroke="#c0c0c0" stroke-width="2" d="M154.0094,-215.8314C154.4372,-208.131 154.9459,-198.9743 155.4213,-190.4166"/>
<polygon fill="#c0c0c0" stroke="#c0c0c0" stroke-width="2" points="158.9169,-190.592 155.977,-180.4133 151.9276,-190.2037 158.9169,-190.592"/>
</g>
<!-- 5 -->
<g id="node6" class="node">
<title>5</title>
<path fill="none" stroke="#56d8a2" stroke-width="2" d="M437,-108C437,-108 371,-108 371,-108 365,-108 359,-102 359,-96 359,-96 359,-84 359,-84 359,-78 365,-72 371,-72 371,-72 437,-72 437,-72 443,-72 449,-78 449,-84 449,-84 449,-96 449,-96 449,-102 443,-108 437,-108"/>
<text text-anchor="middle" x="404" y="-87.5" font-family="sans" font-size="10.00" fill="#000000">CheckGzipFiles</text>
</g>
<!-- 5&#45;&gt;0 -->
<g id="edge5" class="edge">
<title>5&#45;&gt;0</title>
<path fill="none" stroke="#c0c0c0" stroke-width="2" d="M358.9536,-74.8655C355.9269,-73.8853 352.9213,-72.9224 350,-72 311.0084,-59.6884 267.0595,-46.559 232.2331,-36.3294"/>
<polygon fill="#c0c0c0" stroke="#c0c0c0" stroke-width="2" points="232.7806,-32.8427 222.1999,-33.3884 230.8115,-39.56 232.7806,-32.8427"/>
</g>
<!-- 6&#45;&gt;0 -->
<g id="edge6" class="edge">
<title>6&#45;&gt;0</title>
<path fill="none" stroke="#c0c0c0" stroke-width="2" d="M153.4084,-143.9572C150.3337,-125.7052 146.9866,-96.732 151,-72 152.418,-63.2621 155.0475,-54.0275 157.8671,-45.7136"/>
<polygon fill="#c0c0c0" stroke="#c0c0c0" stroke-width="2" points="161.2254,-46.7187 161.3321,-36.1244 154.642,-44.3399 161.2254,-46.7187"/>
</g>
<!-- 6&#45;&gt;2 -->
<g id="edge8" class="edge">
<title>6&#45;&gt;2</title>
<path fill="none" stroke="#c0c0c0" stroke-width="2" d="M169.3648,-143.8314C174.9509,-135.6232 181.663,-125.7606 187.8072,-116.7323"/>
<polygon fill="#c0c0c0" stroke="#c0c0c0" stroke-width="2" points="190.736,-118.6496 193.4687,-108.4133 184.949,-114.7112 190.736,-118.6496"/>
</g>
<!-- 7 -->
<g id="node8" class="node">
<title>7</title>
<path fill="none" stroke="#88d856" stroke-width="2" d="M137.5,-684C137.5,-684 50.5,-684 50.5,-684 44.5,-684 38.5,-678 38.5,-672 38.5,-672 38.5,-660 38.5,-660 38.5,-654 44.5,-648 50.5,-648 50.5,-648 137.5,-648 137.5,-648 143.5,-648 149.5,-654 149.5,-660 149.5,-660 149.5,-672 149.5,-672 149.5,-678 143.5,-684 137.5,-684"/>
<text text-anchor="middle" x="94" y="-663.5" font-family="sans" font-size="10.00" fill="#000000">FixMateInformation</text>
</g>
<!-- 7&#45;&gt;1 -->
<g id="edge7" class="edge">
<title>7&#45;&gt;1</title>
<path fill="none" stroke="#c0c0c0" stroke-width="2" d="M94,-647.8314C94,-640.131 94,-630.9743 94,-622.4166"/>
<polygon fill="#c0c0c0" stroke="#c0c0c0" stroke-width="2" points="97.5001,-622.4132 94,-612.4133 90.5001,-622.4133 97.5001,-622.4132"/>
</g>
<!-- 8 -->
<g id="node9" class="node">
<title>8</title>
<path fill="none" stroke="#68d856" stroke-width="2" d="M202,-324C202,-324 104,-324 104,-324 98,-324 92,-318 92,-312 92,-312 92,-300 92,-300 92,-294 98,-288 104,-288 104,-288 202,-288 202,-288 208,-288 214,-294 214,-300 214,-300 214,-312 214,-312 214,-318 208,-324 202,-324"/>
<text text-anchor="middle" x="153" y="-303.5" font-family="sans" font-size="10.00" fill="#000000">PrintRecalibratedBam</text>
</g>
<!-- 8&#45;&gt;4 -->
<g id="edge9" class="edge">
<title>8&#45;&gt;4</title>
<path fill="none" stroke="#c0c0c0" stroke-width="2" d="M153,-287.8314C153,-280.131 153,-270.9743 153,-262.4166"/>
<polygon fill="#c0c0c0" stroke="#c0c0c0" stroke-width="2" points="156.5001,-262.4132 153,-252.4133 149.5001,-262.4133 156.5001,-262.4132"/>
</g>
<!-- 9 -->
<g id="node10" class="node">
<title>9</title>
<path fill="none" stroke="#d89556" stroke-width="2" d="M147.5,-756C147.5,-756 40.5,-756 40.5,-756 34.5,-756 28.5,-750 28.5,-744 28.5,-744 28.5,-732 28.5,-732 28.5,-726 34.5,-720 40.5,-720 40.5,-720 147.5,-720 147.5,-720 153.5,-720 159.5,-726 159.5,-732 159.5,-732 159.5,-744 159.5,-744 159.5,-750 153.5,-756 147.5,-756"/>
<text text-anchor="middle" x="94" y="-735.5" font-family="sans" font-size="10.00" fill="#000000">ConcatinateAlignments</text>
</g>
<!-- 9&#45;&gt;7 -->
<g id="edge11" class="edge">
<title>9&#45;&gt;7</title>
<path fill="none" stroke="#c0c0c0" stroke-width="2" d="M94,-719.8314C94,-712.131 94,-702.9743 94,-694.4166"/>
<polygon fill="#c0c0c0" stroke="#c0c0c0" stroke-width="2" points="97.5001,-694.4132 94,-684.4133 90.5001,-694.4133 97.5001,-694.4132"/>
</g>
<!-- 10 -->
<g id="node11" class="node">
<title>10</title>
<path fill="none" stroke="#56d863" stroke-width="2" d="M238.5,-396C238.5,-396 161.5,-396 161.5,-396 155.5,-396 149.5,-390 149.5,-384 149.5,-384 149.5,-372 149.5,-372 149.5,-366 155.5,-360 161.5,-360 161.5,-360 238.5,-360 238.5,-360 244.5,-360 250.5,-366 250.5,-372 250.5,-372 250.5,-384 250.5,-384 250.5,-390 244.5,-396 238.5,-396"/>
<text text-anchor="middle" x="200" y="-375.5" font-family="sans" font-size="10.00" fill="#000000">RecalibrateBases</text>
</g>
<!-- 10&#45;&gt;8 -->
<g id="edge12" class="edge">
<title>10&#45;&gt;8</title>
<path fill="none" stroke="#c0c0c0" stroke-width="2" d="M188.1399,-359.8314C182.8371,-351.7079 176.4763,-341.9637 170.6327,-333.0118"/>
<polygon fill="#c0c0c0" stroke="#c0c0c0" stroke-width="2" points="173.4169,-330.8739 165.0198,-324.4133 167.5552,-334.7003 173.4169,-330.8739"/>
</g>
<!-- 11&#45;&gt;8 -->
<g id="edge13" class="edge">
<title>11&#45;&gt;8</title>
<path fill="none" stroke="#c0c0c0" stroke-width="2" d="M144.8355,-431.7069C141.242,-413.5071 137.0576,-384.7937 140,-360 141.0068,-351.5166 142.8736,-342.4376 144.8847,-334.1913"/>
<polygon fill="#c0c0c0" stroke="#c0c0c0" stroke-width="2" points="148.3278,-334.8576 147.4554,-324.2988 141.5528,-333.0971 148.3278,-334.8576"/>
</g>
<!-- 11&#45;&gt;10 -->
<g id="edge17" class="edge">
<title>11&#45;&gt;10</title>
<path fill="none" stroke="#c0c0c0" stroke-width="2" d="M161.8695,-431.8314C167.6835,-423.6232 174.6696,-413.7606 181.0646,-404.7323"/>
<polygon fill="#c0c0c0" stroke="#c0c0c0" stroke-width="2" points="184.0331,-406.5966 186.9573,-396.4133 178.321,-402.5505 184.0331,-406.5966"/>
</g>
<!-- 12 -->
<g id="node13" class="node">
<title>12</title>
<path fill="none" stroke="#9fd856" stroke-width="2" d="M156.5,-828C156.5,-828 31.5,-828 31.5,-828 25.5,-828 19.5,-822 19.5,-816 19.5,-816 19.5,-804 19.5,-804 19.5,-798 25.5,-792 31.5,-792 31.5,-792 156.5,-792 156.5,-792 162.5,-792 168.5,-798 168.5,-804 168.5,-804 168.5,-816 168.5,-816 168.5,-822 162.5,-828 156.5,-828"/>
<text text-anchor="middle" x="94" y="-807.5" font-family="sans" font-size="10.00" fill="#000000">AlignPairedConsensusFastq</text>
</g>
<!-- 12&#45;&gt;9 -->
<g id="edge14" class="edge">
<title>12&#45;&gt;9</title>
<path fill="none" stroke="#c0c0c0" stroke-width="2" d="M94,-791.8314C94,-784.131 94,-774.9743 94,-766.4166"/>
<polygon fill="#c0c0c0" stroke="#c0c0c0" stroke-width="2" points="97.5001,-766.4132 94,-756.4133 90.5001,-766.4133 97.5001,-766.4132"/>
</g>
<!-- 13 -->
<g id="node14" class="node">
<title>13</title>
<path fill="none" stroke="#bed856" stroke-width="2" d="M167,-900C167,-900 21,-900 21,-900 15,-900 9,-894 9,-888 9,-888 9,-876 9,-876 9,-870 15,-864 21,-864 21,-864 167,-864 167,-864 173,-864 179,-870 179,-876 179,-876 179,-888 179,-888 179,-894 173,-900 167,-900"/>
<text text-anchor="middle" x="94" y="-879.5" font-family="sans" font-size="10.00" fill="#000000">CallConsensusOnBarcodedBam</text>
</g>
<!-- 13&#45;&gt;9 -->
<g id="edge15" class="edge">
<title>13&#45;&gt;9</title>
<path fill="none" stroke="#c0c0c0" stroke-width="2" d="M49.0211,-863.9855C33.826,-855.4759 18.5568,-843.6732 10,-828 2.333,-813.9566 2.333,-806.0434 10,-792 16.8856,-779.388 28.1175,-769.2822 40.1598,-761.3817"/>
<polygon fill="#c0c0c0" stroke="#c0c0c0" stroke-width="2" points="42.281,-764.189 49.0211,-756.0145 38.6544,-758.2016 42.281,-764.189"/>
</g>
<!-- 13&#45;&gt;12 -->
<g id="edge20" class="edge">
<title>13&#45;&gt;12</title>
<path fill="none" stroke="#c0c0c0" stroke-width="2" d="M94,-863.8314C94,-856.131 94,-846.9743 94,-838.4166"/>
<polygon fill="#c0c0c0" stroke="#c0c0c0" stroke-width="2" points="97.5001,-838.4132 94,-828.4133 90.5001,-838.4133 97.5001,-838.4132"/>
</g>
<!-- 14 -->
<g id="node15" class="node">
<title>14</title>
<path fill="none" stroke="#56b1d8" stroke-width="2" d="M339,-828C339,-828 199,-828 199,-828 193,-828 187,-822 187,-816 187,-816 187,-804 187,-804 187,-798 193,-792 199,-792 199,-792 339,-792 339,-792 345,-792 351,-798 351,-804 351,-804 351,-816 351,-816 351,-822 345,-828 339,-828"/>
<text text-anchor="middle" x="269" y="-807.5" font-family="sans" font-size="10.00" fill="#000000">AlignUnpairedConsensusFastq</text>
</g>
<!-- 13&#45;&gt;14 -->
<g id="edge22" class="edge">
<title>13&#45;&gt;14</title>
<path fill="none" stroke="#c0c0c0" stroke-width="2" d="M138.1599,-863.8314C161.7732,-854.1162 191.0202,-842.0831 215.87,-831.8592"/>
<polygon fill="#c0c0c0" stroke="#c0c0c0" stroke-width="2" points="217.2415,-835.0797 225.1577,-828.038 214.5781,-828.6061 217.2415,-835.0797"/>
</g>
<!-- 14&#45;&gt;9 -->
<g id="edge16" class="edge">
<title>14&#45;&gt;9</title>
<path fill="none" stroke="#c0c0c0" stroke-width="2" d="M224.8401,-791.8314C201.2268,-782.1162 171.9798,-770.0831 147.13,-759.8592"/>
<polygon fill="#c0c0c0" stroke="#c0c0c0" stroke-width="2" points="148.4219,-756.6061 137.8423,-756.038 145.7585,-763.0797 148.4219,-756.6061"/>
</g>
<!-- 15&#45;&gt;11 -->
<g id="edge19" class="edge">
<title>15&#45;&gt;11</title>
<path fill="none" stroke="#c0c0c0" stroke-width="2" d="M197.5978,-503.8314C189.9585,-495.3694 180.7317,-485.1489 172.3793,-475.8971"/>
<polygon fill="#c0c0c0" stroke="#c0c0c0" stroke-width="2" points="174.9221,-473.4906 165.6231,-468.4133 169.7262,-478.1813 174.9221,-473.4906"/>
</g>
<!-- 16 -->
<g id="node17" class="node">
<title>16</title>
<path fill="none" stroke="#56d8c1" stroke-width="2" d="M176,-972C176,-972 12,-972 12,-972 6,-972 0,-966 0,-960 0,-960 0,-948 0,-948 0,-942 6,-936 12,-936 12,-936 176,-936 176,-936 182,-936 188,-942 188,-948 188,-948 188,-960 188,-960 188,-966 182,-972 176,-972"/>
<text text-anchor="middle" x="94" y="-951.5" font-family="sans" font-size="10.00" fill="#000000">AlignBarcodedFastqWithConsensus</text>
</g>
<!-- 16&#45;&gt;13 -->
<g id="edge21" class="edge">
<title>16&#45;&gt;13</title>
<path fill="none" stroke="#c0c0c0" stroke-width="2" d="M94,-935.8314C94,-928.131 94,-918.9743 94,-910.4166"/>
<polygon fill="#c0c0c0" stroke="#c0c0c0" stroke-width="2" points="97.5001,-910.4132 94,-900.4133 90.5001,-910.4133 97.5001,-910.4132"/>
</g>
</g>
</svg>
