<?xml version="1.0" encoding="UTF-8" standalone="no"?>
<!DOCTYPE svg PUBLIC "-//W3C//DTD SVG 1.1//EN"
 "http://www.w3.org/Graphics/SVG/1.1/DTD/svg11.dtd">
<!-- Generated by graphviz version 2.40.1 (20161225.0304)
 -->
<!-- Title: snakemake_dag Pages: 1 -->
<svg width="152pt" height="404pt"
 viewBox="0.00 0.00 152.00 404.00" xmlns="http://www.w3.org/2000/svg" xmlns:xlink="http://www.w3.org/1999/xlink">
<g id="graph0" class="graph" transform="scale(1 1) rotate(0) translate(4 400)">
<title>snakemake_dag</title>
<polygon fill="#ffffff" stroke="transparent" points="-4,4 -4,-400 148,-400 148,4 -4,4"/>
<!-- 0 -->
<g id="node1" class="node">
<title>0</title>
<path fill="none" stroke="#56a9d8" stroke-width="2" d="M89,-36C89,-36 55,-36 55,-36 49,-36 43,-30 43,-24 43,-24 43,-12 43,-12 43,-6 49,0 55,0 55,0 89,0 89,0 95,0 101,-6 101,-12 101,-12 101,-24 101,-24 101,-30 95,-36 89,-36"/>
<text text-anchor="middle" x="72" y="-15.5" font-family="sans" font-size="10.00" fill="#000000">VcfTabix</text>
</g>
<!-- 1 -->
<g id="node2" class="node">
<title>1</title>
<path fill="none" stroke="#d8ac56" stroke-width="2" d="M132,-108C132,-108 12,-108 12,-108 6,-108 0,-102 0,-96 0,-96 0,-84 0,-84 0,-78 6,-72 12,-72 12,-72 132,-72 132,-72 138,-72 144,-78 144,-84 144,-84 144,-96 144,-96 144,-102 138,-108 132,-108"/>
<text text-anchor="middle" x="72" y="-87.5" font-family="sans" font-size="10.00" fill="#000000">FoundationVcfComparator</text>
</g>
<!-- 1&#45;&gt;0 -->
<g id="edge1" class="edge">
<title>1&#45;&gt;0</title>
<path fill="none" stroke="#c0c0c0" stroke-width="2" d="M72,-71.8314C72,-64.131 72,-54.9743 72,-46.4166"/>
<polygon fill="#c0c0c0" stroke="#c0c0c0" stroke-width="2" points="75.5001,-46.4132 72,-36.4133 68.5001,-46.4133 75.5001,-46.4132"/>
</g>
<!-- 2 -->
<g id="node3" class="node">
<title>2</title>
<path fill="none" stroke="#56d8a9" stroke-width="2" d="M107,-180C107,-180 37,-180 37,-180 31,-180 25,-174 25,-168 25,-168 25,-156 25,-156 25,-150 31,-144 37,-144 37,-144 107,-144 107,-144 113,-144 119,-150 119,-156 119,-156 119,-168 119,-168 119,-174 113,-180 107,-180"/>
<text text-anchor="middle" x="72" y="-159.5" font-family="sans" font-size="10.00" fill="#000000">ConvertVcfEnds</text>
</g>
<!-- 2&#45;&gt;1 -->
<g id="edge2" class="edge">
<title>2&#45;&gt;1</title>
<path fill="none" stroke="#c0c0c0" stroke-width="2" d="M72,-143.8314C72,-136.131 72,-126.9743 72,-118.4166"/>
<polygon fill="#c0c0c0" stroke="#c0c0c0" stroke-width="2" points="75.5001,-118.4132 72,-108.4133 68.5001,-118.4133 75.5001,-118.4132"/>
</g>
<!-- 3 -->
<g id="node4" class="node">
<title>3</title>
<path fill="none" stroke="#59d856" stroke-width="2" d="M92,-252C92,-252 52,-252 52,-252 46,-252 40,-246 40,-240 40,-240 40,-228 40,-228 40,-222 46,-216 52,-216 52,-216 92,-216 92,-216 98,-216 104,-222 104,-228 104,-228 104,-240 104,-240 104,-246 98,-252 92,-252"/>
<text text-anchor="middle" x="72" y="-231.5" font-family="sans" font-size="10.00" fill="#000000">CrossMap</text>
</g>
<!-- 3&#45;&gt;2 -->
<g id="edge3" class="edge">
<title>3&#45;&gt;2</title>
<path fill="none" stroke="#c0c0c0" stroke-width="2" d="M72,-215.8314C72,-208.131 72,-198.9743 72,-190.4166"/>
<polygon fill="#c0c0c0" stroke="#c0c0c0" stroke-width="2" points="75.5001,-190.4132 72,-180.4133 68.5001,-190.4133 75.5001,-190.4132"/>
</g>
<!-- 4 -->
<g id="node5" class="node">
<title>4</title>
<path fill="none" stroke="#afd856" stroke-width="2" d="M101.5,-324C101.5,-324 42.5,-324 42.5,-324 36.5,-324 30.5,-318 30.5,-312 30.5,-312 30.5,-300 30.5,-300 30.5,-294 36.5,-288 42.5,-288 42.5,-288 101.5,-288 101.5,-288 107.5,-288 113.5,-294 113.5,-300 113.5,-300 113.5,-312 113.5,-312 113.5,-318 107.5,-324 101.5,-324"/>
<text text-anchor="middle" x="72" y="-303.5" font-family="sans" font-size="10.00" fill="#000000">NormalizeVcf</text>
</g>
<!-- 4&#45;&gt;3 -->
<g id="edge4" class="edge">
<title>4&#45;&gt;3</title>
<path fill="none" stroke="#c0c0c0" stroke-width="2" d="M72,-287.8314C72,-280.131 72,-270.9743 72,-262.4166"/>
<polygon fill="#c0c0c0" stroke="#c0c0c0" stroke-width="2" points="75.5001,-262.4132 72,-252.4133 68.5001,-262.4133 75.5001,-262.4132"/>
</g>
<!-- 5 -->
<g id="node6" class="node">
<title>5</title>
<path fill="none" stroke="#d85656" stroke-width="2" d="M116,-396C116,-396 28,-396 28,-396 22,-396 16,-390 16,-384 16,-384 16,-372 16,-372 16,-366 22,-360 28,-360 28,-360 116,-360 116,-360 122,-360 128,-366 128,-372 128,-372 128,-384 128,-384 128,-390 122,-396 116,-396"/>
<text text-anchor="middle" x="72" y="-375.5" font-family="sans" font-size="10.00" fill="#000000">FoundationXml2Vcf</text>
</g>
<!-- 5&#45;&gt;4 -->
<g id="edge5" class="edge">
<title>5&#45;&gt;4</title>
<path fill="none" stroke="#c0c0c0" stroke-width="2" d="M72,-359.8314C72,-352.131 72,-342.9743 72,-334.4166"/>
<polygon fill="#c0c0c0" stroke="#c0c0c0" stroke-width="2" points="75.5001,-334.4132 72,-324.4133 68.5001,-334.4133 75.5001,-334.4132"/>
</g>
</g>
</svg>
