<?xml version="1.0" encoding="UTF-8" standalone="no"?>
<!DOCTYPE svg PUBLIC "-//W3C//DTD SVG 1.1//EN"
 "http://www.w3.org/Graphics/SVG/1.1/DTD/svg11.dtd">
<!-- Generated by graphviz version 2.26.0 (20091210.2329)
 -->
<!-- Title: snakemake_dag Pages: 1 -->
<svg width="383pt" height="548pt"
 viewBox="0.00 0.00 383.00 548.00" xmlns="http://www.w3.org/2000/svg" xmlns:xlink="http://www.w3.org/1999/xlink">
<g id="graph1" class="graph" transform="scale(1 1) rotate(0) translate(4 544)">
<title>snakemake_dag</title>
<polygon fill="white" stroke="white" points="-4,5 -4,-544 380,-544 380,5 -4,5"/>
<!-- 0 -->
<g id="node1" class="node"><title>0</title>
<polyline fill="none" stroke="#56d87b" stroke-width="2" points="264,-108 152,-108 "/>
<path fill="none" stroke="#56d87b" stroke-width="2" d="M152,-108C146,-108 140,-102 140,-96"/>
<polyline fill="none" stroke="#56d87b" stroke-width="2" points="140,-96 140,-84 "/>
<path fill="none" stroke="#56d87b" stroke-width="2" d="M140,-84C140,-78 146,-72 152,-72"/>
<polyline fill="none" stroke="#56d87b" stroke-width="2" points="152,-72 264,-72 "/>
<path fill="none" stroke="#56d87b" stroke-width="2" d="M264,-72C270,-72 276,-78 276,-84"/>
<polyline fill="none" stroke="#56d87b" stroke-width="2" points="276,-84 276,-96 "/>
<path fill="none" stroke="#56d87b" stroke-width="2" d="M276,-96C276,-102 270,-108 264,-108"/>
<text text-anchor="middle" x="208" y="-87.5" font-family="sans" font-size="10.00">VCFBackgroundScanner</text>
</g>
<!-- 13 -->
<g id="node14" class="node"><title>13</title>
<polyline fill="none" stroke="#567bd8" stroke-width="2" points="278,-36 244,-36 "/>
<path fill="none" stroke="#567bd8" stroke-width="2" d="M244,-36C238,-36 232,-30 232,-24"/>
<polyline fill="none" stroke="#567bd8" stroke-width="2" points="232,-24 232,-12 "/>
<path fill="none" stroke="#567bd8" stroke-width="2" d="M232,-12C232,-6 238,-1.62935e-14 244,-1.48234e-14"/>
<polyline fill="none" stroke="#567bd8" stroke-width="2" points="244,-1.48234e-14 278,-6.49289e-15 "/>
<path fill="none" stroke="#567bd8" stroke-width="2" d="M278,-6.49289e-15C284,-5.0228e-15 290,-6 290,-12"/>
<polyline fill="none" stroke="#567bd8" stroke-width="2" points="290,-12 290,-24 "/>
<path fill="none" stroke="#567bd8" stroke-width="2" d="M290,-24C290,-30 284,-36 278,-36"/>
<text text-anchor="middle" x="261" y="-15.5" font-family="sans" font-size="10.00">CleanUp</text>
</g>
<!-- 0&#45;&gt;13 -->
<g id="edge30" class="edge"><title>0&#45;&gt;13</title>
<path fill="none" stroke="grey" stroke-width="2" d="M221.374,-71.8314C227.416,-63.6232 234.676,-53.7606 241.322,-44.7323"/>
<polygon fill="grey" stroke="grey" points="244.336,-46.5415 247.446,-36.4133 238.699,-42.3918 244.336,-46.5415"/>
</g>
<!-- 1 -->
<g id="node2" class="node"><title>1</title>
<polyline fill="none" stroke="#d8c356" stroke-width="2" points="298,-252 242,-252 "/>
<path fill="none" stroke="#d8c356" stroke-width="2" d="M242,-252C236,-252 230,-246 230,-240"/>
<polyline fill="none" stroke="#d8c356" stroke-width="2" points="230,-240 230,-228 "/>
<path fill="none" stroke="#d8c356" stroke-width="2" d="M230,-228C230,-222 236,-216 242,-216"/>
<polyline fill="none" stroke="#d8c356" stroke-width="2" points="242,-216 298,-216 "/>
<path fill="none" stroke="#d8c356" stroke-width="2" d="M298,-216C304,-216 310,-222 310,-228"/>
<polyline fill="none" stroke="#d8c356" stroke-width="2" points="310,-228 310,-240 "/>
<path fill="none" stroke="#d8c356" stroke-width="2" d="M310,-240C310,-246 304,-252 298,-252"/>
<text text-anchor="middle" x="270" y="-231.5" font-family="sans" font-size="10.00">MutectFilter</text>
</g>
<!-- 9 -->
<g id="node10" class="node"><title>9</title>
<polyline fill="none" stroke="#78d856" stroke-width="2" points="220,-180 154,-180 "/>
<path fill="none" stroke="#78d856" stroke-width="2" d="M154,-180C148,-180 142,-174 142,-168"/>
<polyline fill="none" stroke="#78d856" stroke-width="2" points="142,-168 142,-156 "/>
<path fill="none" stroke="#78d856" stroke-width="2" d="M142,-156C142,-150 148,-144 154,-144"/>
<polyline fill="none" stroke="#78d856" stroke-width="2" points="154,-144 220,-144 "/>
<path fill="none" stroke="#78d856" stroke-width="2" d="M220,-144C226,-144 232,-150 232,-156"/>
<polyline fill="none" stroke="#78d856" stroke-width="2" points="232,-156 232,-168 "/>
<path fill="none" stroke="#78d856" stroke-width="2" d="M232,-168C232,-174 226,-180 220,-180"/>
<text text-anchor="middle" x="187" y="-159.5" font-family="sans" font-size="10.00">VCFConsensus</text>
</g>
<!-- 1&#45;&gt;9 -->
<g id="edge22" class="edge"><title>1&#45;&gt;9</title>
<path fill="none" stroke="grey" stroke-width="2" d="M249.056,-215.831C238.931,-207.048 226.622,-196.371 215.645,-186.849"/>
<polygon fill="grey" stroke="grey" points="217.785,-184.072 207.938,-180.163 213.198,-189.359 217.785,-184.072"/>
</g>
<!-- 2 -->
<g id="node3" class="node"><title>2</title>
<polyline fill="none" stroke="#56d8c9" stroke-width="2" points="363,-180 287,-180 "/>
<path fill="none" stroke="#56d8c9" stroke-width="2" d="M287,-180C281,-180 275,-174 275,-168"/>
<polyline fill="none" stroke="#56d8c9" stroke-width="2" points="275,-168 275,-156 "/>
<path fill="none" stroke="#56d8c9" stroke-width="2" d="M275,-156C275,-150 281,-144 287,-144"/>
<polyline fill="none" stroke="#56d8c9" stroke-width="2" points="287,-144 363,-144 "/>
<path fill="none" stroke="#56d8c9" stroke-width="2" d="M363,-144C369,-144 375,-150 375,-156"/>
<polyline fill="none" stroke="#56d8c9" stroke-width="2" points="375,-156 375,-168 "/>
<path fill="none" stroke="#56d8c9" stroke-width="2" d="M375,-168C375,-174 369,-180 363,-180"/>
<text text-anchor="middle" x="325" y="-159.5" font-family="sans" font-size="10.00">SplitMutectBam</text>
</g>
<!-- 2&#45;&gt;13 -->
<g id="edge32" class="edge"><title>2&#45;&gt;13</title>
<path fill="none" stroke="grey" stroke-width="2" d="M316.894,-143.762C305.882,-118.985 286.098,-74.4714 273.264,-45.5939"/>
<polygon fill="grey" stroke="grey" points="276.3,-43.8062 269.04,-36.0896 269.903,-46.6492 276.3,-43.8062"/>
</g>
<!-- 3 -->
<g id="node4" class="node"><title>3</title>
<polyline fill="none" stroke="#d85656" stroke-width="2" points="298,-324 268,-324 "/>
<path fill="none" stroke="#d85656" stroke-width="2" d="M268,-324C262,-324 256,-318 256,-312"/>
<polyline fill="none" stroke="#d85656" stroke-width="2" points="256,-312 256,-300 "/>
<path fill="none" stroke="#d85656" stroke-width="2" d="M256,-300C256,-294 262,-288 268,-288"/>
<polyline fill="none" stroke="#d85656" stroke-width="2" points="268,-288 298,-288 "/>
<path fill="none" stroke="#d85656" stroke-width="2" d="M298,-288C304,-288 310,-294 310,-300"/>
<polyline fill="none" stroke="#d85656" stroke-width="2" points="310,-300 310,-312 "/>
<path fill="none" stroke="#d85656" stroke-width="2" d="M310,-312C310,-318 304,-324 298,-324"/>
<text text-anchor="middle" x="283" y="-303.5" font-family="sans" font-size="10.00">Mutect</text>
</g>
<!-- 3&#45;&gt;1 -->
<g id="edge4" class="edge"><title>3&#45;&gt;1</title>
<path fill="none" stroke="grey" stroke-width="2" d="M279.72,-287.831C278.329,-280.131 276.676,-270.974 275.131,-262.417"/>
<polygon fill="grey" stroke="grey" points="278.546,-261.632 273.325,-252.413 271.657,-262.876 278.546,-261.632"/>
</g>
<!-- 3&#45;&gt;2 -->
<g id="edge6" class="edge"><title>3&#45;&gt;2</title>
<path fill="none" stroke="grey" stroke-width="2" d="M298.632,-287.802C306.198,-277.891 314.581,-265.016 319,-252 325.744,-232.136 327.073,-208.418 326.807,-190.317"/>
<polygon fill="grey" stroke="grey" points="330.299,-190.004 326.483,-180.12 323.303,-190.226 330.299,-190.004"/>
</g>
<!-- 4 -->
<g id="node5" class="node"><title>4</title>
<polyline fill="none" stroke="#56d8a2" stroke-width="2" points="226,-324 140,-324 "/>
<path fill="none" stroke="#56d8a2" stroke-width="2" d="M140,-324C134,-324 128,-318 128,-312"/>
<polyline fill="none" stroke="#56d8a2" stroke-width="2" points="128,-312 128,-300 "/>
<path fill="none" stroke="#56d8a2" stroke-width="2" d="M128,-300C128,-294 134,-288 140,-288"/>
<polyline fill="none" stroke="#56d8a2" stroke-width="2" points="140,-288 226,-288 "/>
<path fill="none" stroke="#56d8a2" stroke-width="2" d="M226,-288C232,-288 238,-294 238,-300"/>
<polyline fill="none" stroke="#56d8a2" stroke-width="2" points="238,-300 238,-312 "/>
<path fill="none" stroke="#56d8a2" stroke-width="2" d="M238,-312C238,-318 232,-324 226,-324"/>
<text text-anchor="middle" x="183" y="-303.5" font-family="sans" font-size="10.00">ScalpelRegionFilter</text>
</g>
<!-- 11 -->
<g id="node12" class="node"><title>11</title>
<polyline fill="none" stroke="#d87d56" stroke-width="2" points="200,-252 148,-252 "/>
<path fill="none" stroke="#d87d56" stroke-width="2" d="M148,-252C142,-252 136,-246 136,-240"/>
<polyline fill="none" stroke="#d87d56" stroke-width="2" points="136,-240 136,-228 "/>
<path fill="none" stroke="#d87d56" stroke-width="2" d="M136,-228C136,-222 142,-216 148,-216"/>
<polyline fill="none" stroke="#d87d56" stroke-width="2" points="148,-216 200,-216 "/>
<path fill="none" stroke="#d87d56" stroke-width="2" d="M200,-216C206,-216 212,-222 212,-228"/>
<polyline fill="none" stroke="#d87d56" stroke-width="2" points="212,-228 212,-240 "/>
<path fill="none" stroke="#d87d56" stroke-width="2" d="M212,-240C212,-246 206,-252 200,-252"/>
<text text-anchor="middle" x="174" y="-231.5" font-family="sans" font-size="10.00">ScalpelFilter</text>
</g>
<!-- 4&#45;&gt;11 -->
<g id="edge26" class="edge"><title>4&#45;&gt;11</title>
<path fill="none" stroke="grey" stroke-width="2" d="M180.729,-287.831C179.766,-280.131 178.622,-270.974 177.552,-262.417"/>
<polygon fill="grey" stroke="grey" points="181.015,-261.902 176.302,-252.413 174.069,-262.77 181.015,-261.902"/>
</g>
<!-- 5 -->
<g id="node6" class="node"><title>5</title>
<polyline fill="none" stroke="#56a2d8" stroke-width="2" points="151,-468 121,-468 "/>
<path fill="none" stroke="#56a2d8" stroke-width="2" d="M121,-468C115,-468 109,-462 109,-456"/>
<polyline fill="none" stroke="#56a2d8" stroke-width="2" points="109,-456 109,-444 "/>
<path fill="none" stroke="#56a2d8" stroke-width="2" d="M109,-444C109,-438 115,-432 121,-432"/>
<polyline fill="none" stroke="#56a2d8" stroke-width="2" points="121,-432 151,-432 "/>
<path fill="none" stroke="#56a2d8" stroke-width="2" d="M151,-432C157,-432 163,-438 163,-444"/>
<polyline fill="none" stroke="#56a2d8" stroke-width="2" points="163,-444 163,-456 "/>
<path fill="none" stroke="#56a2d8" stroke-width="2" d="M163,-456C163,-462 157,-468 151,-468"/>
<text text-anchor="middle" x="136" y="-447.5" font-family="sans" font-size="10.00">Strelka</text>
</g>
<!-- 10 -->
<g id="node11" class="node"><title>10</title>
<polyline fill="none" stroke="#c6d856" stroke-width="2" points="109,-396 35,-396 "/>
<path fill="none" stroke="#c6d856" stroke-width="2" d="M35,-396C29,-396 23,-390 23,-384"/>
<polyline fill="none" stroke="#c6d856" stroke-width="2" points="23,-384 23,-372 "/>
<path fill="none" stroke="#c6d856" stroke-width="2" d="M23,-372C23,-366 29,-360 35,-360"/>
<polyline fill="none" stroke="#c6d856" stroke-width="2" points="35,-360 109,-360 "/>
<path fill="none" stroke="#c6d856" stroke-width="2" d="M109,-360C115,-360 121,-366 121,-372"/>
<polyline fill="none" stroke="#c6d856" stroke-width="2" points="121,-372 121,-384 "/>
<path fill="none" stroke="#c6d856" stroke-width="2" d="M121,-384C121,-390 115,-396 109,-396"/>
<text text-anchor="middle" x="72" y="-375.5" font-family="sans" font-size="10.00">StrelkaPostProc</text>
</g>
<!-- 5&#45;&gt;10 -->
<g id="edge24" class="edge"><title>5&#45;&gt;10</title>
<path fill="none" stroke="grey" stroke-width="2" d="M119.85,-431.831C112.328,-423.369 103.243,-413.149 95.0196,-403.897"/>
<polygon fill="grey" stroke="grey" points="97.627,-401.562 88.3673,-396.413 92.3951,-406.213 97.627,-401.562"/>
</g>
<!-- 12 -->
<g id="node13" class="node"><title>12</title>
<polyline fill="none" stroke="#9fd856" stroke-width="2" points="198,-396 168,-396 "/>
<path fill="none" stroke="#9fd856" stroke-width="2" d="M168,-396C162,-396 156,-390 156,-384"/>
<polyline fill="none" stroke="#9fd856" stroke-width="2" points="156,-384 156,-372 "/>
<path fill="none" stroke="#9fd856" stroke-width="2" d="M156,-372C156,-366 162,-360 168,-360"/>
<polyline fill="none" stroke="#9fd856" stroke-width="2" points="168,-360 198,-360 "/>
<path fill="none" stroke="#9fd856" stroke-width="2" d="M198,-360C204,-360 210,-366 210,-372"/>
<polyline fill="none" stroke="#9fd856" stroke-width="2" points="210,-372 210,-384 "/>
<path fill="none" stroke="#9fd856" stroke-width="2" d="M210,-384C210,-390 204,-396 198,-396"/>
<text text-anchor="middle" x="183" y="-375.5" font-family="sans" font-size="10.00">Scalpel</text>
</g>
<!-- 5&#45;&gt;12 -->
<g id="edge28" class="edge"><title>5&#45;&gt;12</title>
<path fill="none" stroke="grey" stroke-width="2" d="M147.86,-431.831C153.163,-423.708 159.524,-413.964 165.367,-405.012"/>
<polygon fill="grey" stroke="grey" points="168.445,-406.7 170.98,-396.413 162.583,-402.874 168.445,-406.7"/>
</g>
<!-- 6 -->
<g id="node7" class="node"><title>6</title>
<polyline fill="none" stroke="#d8a456" stroke-width="2" points="98,-324 12,-324 "/>
<path fill="none" stroke="#d8a456" stroke-width="2" d="M12,-324C6,-324 4.73695e-14,-318 3.78956e-14,-312"/>
<polyline fill="none" stroke="#d8a456" stroke-width="2" points="3.78956e-14,-312 1.89478e-14,-300 "/>
<path fill="none" stroke="#d8a456" stroke-width="2" d="M1.89478e-14,-300C9.4739e-15,-294 6,-288 12,-288"/>
<polyline fill="none" stroke="#d8a456" stroke-width="2" points="12,-288 98,-288 "/>
<path fill="none" stroke="#d8a456" stroke-width="2" d="M98,-288C104,-288 110,-294 110,-300"/>
<polyline fill="none" stroke="#d8a456" stroke-width="2" points="110,-300 110,-312 "/>
<path fill="none" stroke="#d8a456" stroke-width="2" d="M110,-312C110,-318 104,-324 98,-324"/>
<text text-anchor="middle" x="55" y="-303.5" font-family="sans" font-size="10.00">StrelkaRegionFilter</text>
</g>
<!-- 7 -->
<g id="node8" class="node"><title>7</title>
<polyline fill="none" stroke="#56c9d8" stroke-width="2" points="98,-252 46,-252 "/>
<path fill="none" stroke="#56c9d8" stroke-width="2" d="M46,-252C40,-252 34,-246 34,-240"/>
<polyline fill="none" stroke="#56c9d8" stroke-width="2" points="34,-240 34,-228 "/>
<path fill="none" stroke="#56c9d8" stroke-width="2" d="M34,-228C34,-222 40,-216 46,-216"/>
<polyline fill="none" stroke="#56c9d8" stroke-width="2" points="46,-216 98,-216 "/>
<path fill="none" stroke="#56c9d8" stroke-width="2" d="M98,-216C104,-216 110,-222 110,-228"/>
<polyline fill="none" stroke="#56c9d8" stroke-width="2" points="110,-228 110,-240 "/>
<path fill="none" stroke="#56c9d8" stroke-width="2" d="M110,-240C110,-246 104,-252 98,-252"/>
<text text-anchor="middle" x="72" y="-231.5" font-family="sans" font-size="10.00">StrelkaFilter</text>
</g>
<!-- 6&#45;&gt;7 -->
<g id="edge16" class="edge"><title>6&#45;&gt;7</title>
<path fill="none" stroke="grey" stroke-width="2" d="M59.2898,-287.831C61.108,-280.131 63.2699,-270.974 65.2905,-262.417"/>
<polygon fill="grey" stroke="grey" points="68.7608,-262.95 67.6524,-252.413 61.9481,-261.341 68.7608,-262.95"/>
</g>
<!-- 7&#45;&gt;9 -->
<g id="edge20" class="edge"><title>7&#45;&gt;9</title>
<path fill="none" stroke="grey" stroke-width="2" d="M101.019,-215.831C115.729,-206.622 133.764,-195.33 149.512,-185.471"/>
<polygon fill="grey" stroke="grey" points="151.371,-188.436 157.99,-180.163 147.657,-182.503 151.371,-188.436"/>
</g>
<!-- 8 -->
<g id="node9" class="node"><title>8</title>
<polyline fill="none" stroke="#59d856" stroke-width="2" points="174,-540 98,-540 "/>
<path fill="none" stroke="#59d856" stroke-width="2" d="M98,-540C92,-540 86,-534 86,-528"/>
<polyline fill="none" stroke="#59d856" stroke-width="2" points="86,-528 86,-516 "/>
<path fill="none" stroke="#59d856" stroke-width="2" d="M86,-516C86,-510 92,-504 98,-504"/>
<polyline fill="none" stroke="#59d856" stroke-width="2" points="98,-504 174,-504 "/>
<path fill="none" stroke="#59d856" stroke-width="2" d="M174,-504C180,-504 186,-510 186,-516"/>
<polyline fill="none" stroke="#59d856" stroke-width="2" points="186,-516 186,-528 "/>
<path fill="none" stroke="#59d856" stroke-width="2" d="M186,-528C186,-534 180,-540 174,-540"/>
<text text-anchor="middle" x="136" y="-519.5" font-family="sans" font-size="10.00">CheckResources</text>
</g>
<!-- 8&#45;&gt;5 -->
<g id="edge12" class="edge"><title>8&#45;&gt;5</title>
<path fill="none" stroke="grey" stroke-width="2" d="M136,-503.831C136,-496.131 136,-486.974 136,-478.417"/>
<polygon fill="grey" stroke="grey" points="139.5,-478.413 136,-468.413 132.5,-478.413 139.5,-478.413"/>
</g>
<!-- 9&#45;&gt;0 -->
<g id="edge2" class="edge"><title>9&#45;&gt;0</title>
<path fill="none" stroke="grey" stroke-width="2" d="M192.299,-143.831C194.57,-136.046 197.275,-126.773 199.794,-118.135"/>
<polygon fill="grey" stroke="grey" points="203.189,-118.993 202.629,-108.413 196.469,-117.033 203.189,-118.993"/>
</g>
<!-- 10&#45;&gt;6 -->
<g id="edge14" class="edge"><title>10&#45;&gt;6</title>
<path fill="none" stroke="grey" stroke-width="2" d="M67.7102,-359.831C65.892,-352.131 63.7301,-342.974 61.7095,-334.417"/>
<polygon fill="grey" stroke="grey" points="65.0519,-333.341 59.3476,-324.413 58.2392,-334.95 65.0519,-333.341"/>
</g>
<!-- 11&#45;&gt;9 -->
<g id="edge18" class="edge"><title>11&#45;&gt;9</title>
<path fill="none" stroke="grey" stroke-width="2" d="M177.28,-215.831C178.671,-208.131 180.324,-198.974 181.869,-190.417"/>
<polygon fill="grey" stroke="grey" points="185.343,-190.876 183.675,-180.413 178.454,-189.632 185.343,-190.876"/>
</g>
<!-- 12&#45;&gt;3 -->
<g id="edge8" class="edge"><title>12&#45;&gt;3</title>
<path fill="none" stroke="grey" stroke-width="2" d="M208.234,-359.831C220.788,-350.793 236.128,-339.748 249.639,-330.02"/>
<polygon fill="grey" stroke="grey" points="251.704,-332.846 257.774,-324.163 247.613,-327.166 251.704,-332.846"/>
</g>
<!-- 12&#45;&gt;4 -->
<g id="edge10" class="edge"><title>12&#45;&gt;4</title>
<path fill="none" stroke="grey" stroke-width="2" d="M183,-359.831C183,-352.131 183,-342.974 183,-334.417"/>
<polygon fill="grey" stroke="grey" points="186.5,-334.413 183,-324.413 179.5,-334.413 186.5,-334.413"/>
</g>
</g>
</svg>
