<?xml version="1.0" encoding="UTF-8" standalone="no"?>
<!DOCTYPE svg PUBLIC "-//W3C//DTD SVG 1.1//EN"
 "http://www.w3.org/Graphics/SVG/1.1/DTD/svg11.dtd">
<!-- Generated by graphviz version 2.30.1 (20150306.0020)
 -->
<!-- Title: snakemake_dag Pages: 1 -->
<svg width="337pt" height="692pt"
 viewBox="0.00 0.00 337.00 692.00" xmlns="http://www.w3.org/2000/svg" xmlns:xlink="http://www.w3.org/1999/xlink">
<g id="graph0" class="graph" transform="scale(1 1) rotate(0) translate(4 688)">
<title>snakemake_dag</title>
<polygon fill="white" stroke="white" points="-4,5 -4,-688 334,-688 334,5 -4,5"/>
<!-- 0 -->
<g id="node1" class="node"><title>0</title>
<path fill="none" stroke="#56b9d8" stroke-width="2" d="M99,-468C99,-468 69,-468 69,-468 63,-468 57,-462 57,-456 57,-456 57,-444 57,-444 57,-438 63,-432 69,-432 69,-432 99,-432 99,-432 105,-432 111,-438 111,-444 111,-444 111,-456 111,-456 111,-462 105,-468 99,-468"/>
<text text-anchor="middle" x="84" y="-447.5" font-family="sans" font-size="10.00">Mutect</text>
</g>
<!-- 10 -->
<g id="node11" class="node"><title>10</title>
<path fill="none" stroke="#d6d856" stroke-width="2" d="M80.25,-324C80.25,-324 11.75,-324 11.75,-324 5.75,-324 -0.25,-318 -0.25,-312 -0.25,-312 -0.25,-300 -0.25,-300 -0.25,-294 5.75,-288 11.75,-288 11.75,-288 80.25,-288 80.25,-288 86.25,-288 92.25,-294 92.25,-300 92.25,-300 92.25,-312 92.25,-312 92.25,-318 86.25,-324 80.25,-324"/>
<text text-anchor="middle" x="46" y="-303.5" font-family="sans" font-size="10.00">SplitMutectBam</text>
</g>
<!-- 0&#45;&gt;10 -->
<g id="edge11" class="edge"><title>0&#45;&gt;10</title>
<path fill="none" stroke="grey" stroke-width="2" d="M65.8312,-431.677C57.1151,-422.097 47.5884,-409.43 43,-396 36.2213,-376.159 37.4669,-352.362 40.1372,-334.369"/>
<polygon fill="grey" stroke="grey" points="43.6298,-334.71 41.8743,-324.262 36.7309,-333.524 43.6298,-334.71"/>
</g>
<!-- 11 -->
<g id="node12" class="node"><title>11</title>
<path fill="none" stroke="#d85656" stroke-width="2" d="M112,-396C112,-396 64,-396 64,-396 58,-396 52,-390 52,-384 52,-384 52,-372 52,-372 52,-366 58,-360 64,-360 64,-360 112,-360 112,-360 118,-360 124,-366 124,-372 124,-372 124,-384 124,-384 124,-390 118,-396 112,-396"/>
<text text-anchor="middle" x="88" y="-375.5" font-family="sans" font-size="10.00">MutectFilter</text>
</g>
<!-- 0&#45;&gt;11 -->
<g id="edge12" class="edge"><title>0&#45;&gt;11</title>
<path fill="none" stroke="grey" stroke-width="2" d="M84.9888,-431.697C85.4296,-423.983 85.9593,-414.712 86.4507,-406.112"/>
<polygon fill="grey" stroke="grey" points="89.9463,-406.288 87.0226,-396.104 82.9577,-405.888 89.9463,-406.288"/>
</g>
<!-- 1 -->
<g id="node2" class="node"><title>1</title>
<path fill="none" stroke="#569ad8" stroke-width="2" d="M183,-540C183,-540 153,-540 153,-540 147,-540 141,-534 141,-528 141,-528 141,-516 141,-516 141,-510 147,-504 153,-504 153,-504 183,-504 183,-504 189,-504 195,-510 195,-516 195,-516 195,-528 195,-528 195,-534 189,-540 183,-540"/>
<text text-anchor="middle" x="168" y="-519.5" font-family="sans" font-size="10.00">Lofreq</text>
</g>
<!-- 1&#45;&gt;0 -->
<g id="edge1" class="edge"><title>1&#45;&gt;0</title>
<path fill="none" stroke="grey" stroke-width="2" d="M147.236,-503.697C136.759,-494.965 123.889,-484.24 112.5,-474.75"/>
<polygon fill="grey" stroke="grey" points="114.448,-471.817 104.525,-468.104 109.967,-477.195 114.448,-471.817"/>
</g>
<!-- 14 -->
<g id="node15" class="node"><title>14</title>
<path fill="none" stroke="#56d8d8" stroke-width="2" d="M194.25,-468C194.25,-468 141.75,-468 141.75,-468 135.75,-468 129.75,-462 129.75,-456 129.75,-456 129.75,-444 129.75,-444 129.75,-438 135.75,-432 141.75,-432 141.75,-432 194.25,-432 194.25,-432 200.25,-432 206.25,-438 206.25,-444 206.25,-444 206.25,-456 206.25,-456 206.25,-462 200.25,-468 194.25,-468"/>
<text text-anchor="middle" x="168" y="-447.5" font-family="sans" font-size="10.00">LofreqMerge</text>
</g>
<!-- 1&#45;&gt;14 -->
<g id="edge17" class="edge"><title>1&#45;&gt;14</title>
<path fill="none" stroke="grey" stroke-width="2" d="M168,-503.697C168,-495.983 168,-486.712 168,-478.112"/>
<polygon fill="grey" stroke="grey" points="171.5,-478.104 168,-468.104 164.5,-478.104 171.5,-478.104"/>
</g>
<!-- 2 -->
<g id="node3" class="node"><title>2</title>
<path fill="none" stroke="#567bd8" stroke-width="2" d="M199.25,-396C199.25,-396 154.75,-396 154.75,-396 148.75,-396 142.75,-390 142.75,-384 142.75,-384 142.75,-372 142.75,-372 142.75,-366 148.75,-360 154.75,-360 154.75,-360 199.25,-360 199.25,-360 205.25,-360 211.25,-366 211.25,-372 211.25,-372 211.25,-384 211.25,-384 211.25,-390 205.25,-396 199.25,-396"/>
<text text-anchor="middle" x="177" y="-375.5" font-family="sans" font-size="10.00">LofreqFilter</text>
</g>
<!-- 12 -->
<g id="node13" class="node"><title>12</title>
<path fill="none" stroke="#78d856" stroke-width="2" d="M198,-324C198,-324 134,-324 134,-324 128,-324 122,-318 122,-312 122,-312 122,-300 122,-300 122,-294 128,-288 134,-288 134,-288 198,-288 198,-288 204,-288 210,-294 210,-300 210,-300 210,-312 210,-312 210,-318 204,-324 198,-324"/>
<text text-anchor="middle" x="166" y="-303.5" font-family="sans" font-size="10.00">VCFConsensus</text>
</g>
<!-- 2&#45;&gt;12 -->
<g id="edge14" class="edge"><title>2&#45;&gt;12</title>
<path fill="none" stroke="grey" stroke-width="2" d="M174.281,-359.697C173.069,-351.983 171.612,-342.712 170.261,-334.112"/>
<polygon fill="grey" stroke="grey" points="173.698,-333.44 168.688,-324.104 166.783,-334.526 173.698,-333.44"/>
</g>
<!-- 3 -->
<g id="node4" class="node"><title>3</title>
<path fill="none" stroke="#d8b456" stroke-width="2" d="M198.25,-180C198.25,-180 105.75,-180 105.75,-180 99.75,-180 93.75,-174 93.75,-168 93.75,-168 93.75,-156 93.75,-156 93.75,-150 99.75,-144 105.75,-144 105.75,-144 198.25,-144 198.25,-144 204.25,-144 210.25,-150 210.25,-156 210.25,-156 210.25,-168 210.25,-168 210.25,-174 204.25,-180 198.25,-180"/>
<text text-anchor="middle" x="152" y="-159.5" font-family="sans" font-size="10.00">MultiSampleVCFFilter</text>
</g>
<!-- 9 -->
<g id="node10" class="node"><title>9</title>
<path fill="none" stroke="#97d856" stroke-width="2" d="M151.25,-108C151.25,-108 116.75,-108 116.75,-108 110.75,-108 104.75,-102 104.75,-96 104.75,-96 104.75,-84 104.75,-84 104.75,-78 110.75,-72 116.75,-72 116.75,-72 151.25,-72 151.25,-72 157.25,-72 163.25,-78 163.25,-84 163.25,-84 163.25,-96 163.25,-96 163.25,-102 157.25,-108 151.25,-108"/>
<text text-anchor="middle" x="134" y="-87.5" font-family="sans" font-size="10.00">VCFTabix</text>
</g>
<!-- 3&#45;&gt;9 -->
<g id="edge10" class="edge"><title>3&#45;&gt;9</title>
<path fill="none" stroke="grey" stroke-width="2" d="M147.551,-143.697C145.545,-135.898 143.131,-126.509 140.899,-117.829"/>
<polygon fill="grey" stroke="grey" points="144.278,-116.918 138.398,-108.104 137.499,-118.661 144.278,-116.918"/>
</g>
<!-- 4 -->
<g id="node5" class="node"><title>4</title>
<path fill="none" stroke="#b6d856" stroke-width="2" d="M233,-612C233,-612 203,-612 203,-612 197,-612 191,-606 191,-600 191,-600 191,-588 191,-588 191,-582 197,-576 203,-576 203,-576 233,-576 233,-576 239,-576 245,-582 245,-588 245,-588 245,-600 245,-600 245,-606 239,-612 233,-612"/>
<text text-anchor="middle" x="218" y="-591.5" font-family="sans" font-size="10.00">Strelka</text>
</g>
<!-- 4&#45;&gt;1 -->
<g id="edge2" class="edge"><title>4&#45;&gt;1</title>
<path fill="none" stroke="grey" stroke-width="2" d="M205.64,-575.697C199.767,-567.474 192.631,-557.483 186.158,-548.421"/>
<polygon fill="grey" stroke="grey" points="188.878,-546.207 180.217,-540.104 183.182,-550.276 188.878,-546.207"/>
</g>
<!-- 8 -->
<g id="node9" class="node"><title>8</title>
<path fill="none" stroke="#56d87b" stroke-width="2" d="M302,-540C302,-540 234,-540 234,-540 228,-540 222,-534 222,-528 222,-528 222,-516 222,-516 222,-510 228,-504 234,-504 234,-504 302,-504 302,-504 308,-504 314,-510 314,-516 314,-516 314,-528 314,-528 314,-534 308,-540 302,-540"/>
<text text-anchor="middle" x="268" y="-519.5" font-family="sans" font-size="10.00">StrelkaPostProc</text>
</g>
<!-- 4&#45;&gt;8 -->
<g id="edge9" class="edge"><title>4&#45;&gt;8</title>
<path fill="none" stroke="grey" stroke-width="2" d="M230.36,-575.697C236.233,-567.474 243.369,-557.483 249.842,-548.421"/>
<polygon fill="grey" stroke="grey" points="252.818,-550.276 255.783,-540.104 247.122,-546.207 252.818,-550.276"/>
</g>
<!-- 5 -->
<g id="node6" class="node"><title>5</title>
<path fill="none" stroke="#59d856" stroke-width="2" d="M253.25,-684C253.25,-684 182.75,-684 182.75,-684 176.75,-684 170.75,-678 170.75,-672 170.75,-672 170.75,-660 170.75,-660 170.75,-654 176.75,-648 182.75,-648 182.75,-648 253.25,-648 253.25,-648 259.25,-648 265.25,-654 265.25,-660 265.25,-660 265.25,-672 265.25,-672 265.25,-678 259.25,-684 253.25,-684"/>
<text text-anchor="middle" x="218" y="-663.5" font-family="sans" font-size="10.00">CheckResources</text>
</g>
<!-- 5&#45;&gt;4 -->
<g id="edge5" class="edge"><title>5&#45;&gt;4</title>
<path fill="none" stroke="grey" stroke-width="2" d="M218,-647.697C218,-639.983 218,-630.712 218,-622.112"/>
<polygon fill="grey" stroke="grey" points="221.5,-622.104 218,-612.104 214.5,-622.104 221.5,-622.104"/>
</g>
<!-- 6 -->
<g id="node7" class="node"><title>6</title>
<path fill="none" stroke="#56d8b9" stroke-width="2" d="M212.25,-252C212.25,-252 105.75,-252 105.75,-252 99.75,-252 93.75,-246 93.75,-240 93.75,-240 93.75,-228 93.75,-228 93.75,-222 99.75,-216 105.75,-216 105.75,-216 212.25,-216 212.25,-216 218.25,-216 224.25,-222 224.25,-228 224.25,-228 224.25,-240 224.25,-240 224.25,-246 218.25,-252 212.25,-252"/>
<text text-anchor="middle" x="159" y="-231.5" font-family="sans" font-size="10.00">VCFBackgroundChecker</text>
</g>
<!-- 6&#45;&gt;3 -->
<g id="edge4" class="edge"><title>6&#45;&gt;3</title>
<path fill="none" stroke="grey" stroke-width="2" d="M157.27,-215.697C156.498,-207.983 155.571,-198.712 154.711,-190.112"/>
<polygon fill="grey" stroke="grey" points="158.188,-189.706 153.71,-180.104 151.223,-190.403 158.188,-189.706"/>
</g>
<!-- 7 -->
<g id="node8" class="node"><title>7</title>
<path fill="none" stroke="#56d89a" stroke-width="2" d="M112.25,-36C112.25,-36 79.75,-36 79.75,-36 73.75,-36 67.75,-30 67.75,-24 67.75,-24 67.75,-12 67.75,-12 67.75,-6 73.75,-0 79.75,-0 79.75,-0 112.25,-0 112.25,-0 118.25,-0 124.25,-6 124.25,-12 124.25,-12 124.25,-24 124.25,-24 124.25,-30 118.25,-36 112.25,-36"/>
<text text-anchor="middle" x="96" y="-15.5" font-family="sans" font-size="10.00">CleanUp</text>
</g>
<!-- 13 -->
<g id="node14" class="node"><title>13</title>
<path fill="none" stroke="#d89556" stroke-width="2" d="M317,-468C317,-468 237,-468 237,-468 231,-468 225,-462 225,-456 225,-456 225,-444 225,-444 225,-438 231,-432 237,-432 237,-432 317,-432 317,-432 323,-432 329,-438 329,-444 329,-444 329,-456 329,-456 329,-462 323,-468 317,-468"/>
<text text-anchor="middle" x="277" y="-447.5" font-family="sans" font-size="10.00">StrelkaRegionFilter</text>
</g>
<!-- 8&#45;&gt;13 -->
<g id="edge16" class="edge"><title>8&#45;&gt;13</title>
<path fill="none" stroke="grey" stroke-width="2" d="M270.225,-503.697C271.217,-495.983 272.408,-486.712 273.514,-478.112"/>
<polygon fill="grey" stroke="grey" points="276.997,-478.469 274.801,-468.104 270.054,-477.576 276.997,-478.469"/>
</g>
<!-- 9&#45;&gt;7 -->
<g id="edge8" class="edge"><title>9&#45;&gt;7</title>
<path fill="none" stroke="grey" stroke-width="2" d="M124.607,-71.6966C120.235,-63.6436 114.943,-53.8945 110.105,-44.9824"/>
<polygon fill="grey" stroke="grey" points="113.132,-43.223 105.285,-36.1043 106.98,-46.5627 113.132,-43.223"/>
</g>
<!-- 10&#45;&gt;7 -->
<g id="edge7" class="edge"><title>10&#45;&gt;7</title>
<path fill="none" stroke="grey" stroke-width="2" d="M48.978,-287.966C57.3301,-240.192 81.031,-104.623 91.2332,-46.2658"/>
<polygon fill="grey" stroke="grey" points="94.6999,-46.7598 92.9744,-36.3065 87.8045,-45.5543 94.6999,-46.7598"/>
</g>
<!-- 11&#45;&gt;12 -->
<g id="edge13" class="edge"><title>11&#45;&gt;12</title>
<path fill="none" stroke="grey" stroke-width="2" d="M107.281,-359.697C116.915,-351.05 128.729,-340.449 139.227,-331.027"/>
<polygon fill="grey" stroke="grey" points="141.836,-333.388 146.941,-324.104 137.161,-328.179 141.836,-333.388"/>
</g>
<!-- 12&#45;&gt;6 -->
<g id="edge6" class="edge"><title>12&#45;&gt;6</title>
<path fill="none" stroke="grey" stroke-width="2" d="M164.27,-287.697C163.498,-279.983 162.571,-270.712 161.711,-262.112"/>
<polygon fill="grey" stroke="grey" points="165.188,-261.706 160.71,-252.104 158.223,-262.403 165.188,-261.706"/>
</g>
<!-- 15 -->
<g id="node16" class="node"><title>15</title>
<path fill="none" stroke="#d87556" stroke-width="2" d="M297.25,-396C297.25,-396 248.75,-396 248.75,-396 242.75,-396 236.75,-390 236.75,-384 236.75,-384 236.75,-372 236.75,-372 236.75,-366 242.75,-360 248.75,-360 248.75,-360 297.25,-360 297.25,-360 303.25,-360 309.25,-366 309.25,-372 309.25,-372 309.25,-384 309.25,-384 309.25,-390 303.25,-396 297.25,-396"/>
<text text-anchor="middle" x="273" y="-375.5" font-family="sans" font-size="10.00">StrelkaFilter</text>
</g>
<!-- 13&#45;&gt;15 -->
<g id="edge18" class="edge"><title>13&#45;&gt;15</title>
<path fill="none" stroke="grey" stroke-width="2" d="M276.011,-431.697C275.57,-423.983 275.041,-414.712 274.549,-406.112"/>
<polygon fill="grey" stroke="grey" points="278.042,-405.888 273.977,-396.104 271.054,-406.288 278.042,-405.888"/>
</g>
<!-- 14&#45;&gt;2 -->
<g id="edge3" class="edge"><title>14&#45;&gt;2</title>
<path fill="none" stroke="grey" stroke-width="2" d="M170.225,-431.697C171.217,-423.983 172.408,-414.712 173.514,-406.112"/>
<polygon fill="grey" stroke="grey" points="176.997,-406.469 174.801,-396.104 170.054,-405.576 176.997,-406.469"/>
</g>
<!-- 15&#45;&gt;12 -->
<g id="edge15" class="edge"><title>15&#45;&gt;12</title>
<path fill="none" stroke="grey" stroke-width="2" d="M246.825,-359.876C232.964,-350.808 215.759,-339.552 200.789,-329.759"/>
<polygon fill="grey" stroke="grey" points="202.56,-326.735 192.276,-324.19 198.728,-332.593 202.56,-326.735"/>
</g>
</g>
</svg>
