<?xml version="1.0" encoding="UTF-8" standalone="no"?>
<!DOCTYPE svg PUBLIC "-//W3C//DTD SVG 1.1//EN"
 "http://www.w3.org/Graphics/SVG/1.1/DTD/svg11.dtd">
<!-- Generated by graphviz version 2.26.0 (20091210.2329)
 -->
<!-- Title: snakemake_dag Pages: 1 -->
<svg width="401pt" height="1052pt"
 viewBox="0.00 0.00 401.00 1052.00" xmlns="http://www.w3.org/2000/svg" xmlns:xlink="http://www.w3.org/1999/xlink">
<g id="graph1" class="graph" transform="scale(1 1) rotate(0) translate(4 1048)">
<title>snakemake_dag</title>
<polygon fill="white" stroke="white" points="-4,5 -4,-1048 398,-1048 398,5 -4,5"/>
<!-- 0 -->
<g id="node1" class="node"><title>0</title>
<polyline fill="none" stroke="#56d882" stroke-width="2" points="62,-108 12,-108 "/>
<path fill="none" stroke="#56d882" stroke-width="2" d="M12,-108C6,-108 2.96059e-14,-102 2.36848e-14,-96"/>
<polyline fill="none" stroke="#56d882" stroke-width="2" points="2.36848e-14,-96 1.18424e-14,-84 "/>
<path fill="none" stroke="#56d882" stroke-width="2" d="M1.18424e-14,-84C5.92119e-15,-78 6,-72 12,-72"/>
<polyline fill="none" stroke="#56d882" stroke-width="2" points="12,-72 62,-72 "/>
<path fill="none" stroke="#56d882" stroke-width="2" d="M62,-72C68,-72 74,-78 74,-84"/>
<polyline fill="none" stroke="#56d882" stroke-width="2" points="74,-84 74,-96 "/>
<path fill="none" stroke="#56d882" stroke-width="2" d="M74,-96C74,-102 68,-108 62,-108"/>
<text text-anchor="middle" x="37" y="-87.5" font-family="sans" font-size="10.00">CountFastq</text>
</g>
<!-- 6 -->
<g id="node7" class="node"><title>6</title>
<polyline fill="none" stroke="#97d856" stroke-width="2" points="227,-36 197,-36 "/>
<path fill="none" stroke="#97d856" stroke-width="2" d="M197,-36C191,-36 185,-30 185,-24"/>
<polyline fill="none" stroke="#97d856" stroke-width="2" points="185,-24 185,-12 "/>
<path fill="none" stroke="#97d856" stroke-width="2" d="M185,-12C185,-6 191,-1.61846e-14 197,-1.46056e-14"/>
<polyline fill="none" stroke="#97d856" stroke-width="2" points="197,-1.46056e-14 227,-6.71068e-15 "/>
<path fill="none" stroke="#97d856" stroke-width="2" d="M227,-6.71068e-15C233,-5.1317e-15 239,-6 239,-12"/>
<polyline fill="none" stroke="#97d856" stroke-width="2" points="239,-12 239,-24 "/>
<path fill="none" stroke="#97d856" stroke-width="2" d="M239,-24C239,-30 233,-36 227,-36"/>
<text text-anchor="middle" x="212" y="-15.5" font-family="sans" font-size="10.00">All</text>
</g>
<!-- 0&#45;&gt;6 -->
<g id="edge18" class="edge"><title>0&#45;&gt;6</title>
<path fill="none" stroke="grey" stroke-width="2" d="M74.113,-74.7307C103.95,-62.4549 145.644,-45.3007 175.356,-33.0765"/>
<polygon fill="grey" stroke="grey" points="177.022,-36.1757 184.938,-29.134 174.358,-29.7022 177.022,-36.1757"/>
</g>
<!-- 1 -->
<g id="node2" class="node"><title>1</title>
<polyline fill="none" stroke="#568ad8" stroke-width="2" points="204,-828 174,-828 "/>
<path fill="none" stroke="#568ad8" stroke-width="2" d="M174,-828C168,-828 162,-822 162,-816"/>
<polyline fill="none" stroke="#568ad8" stroke-width="2" points="162,-816 162,-804 "/>
<path fill="none" stroke="#568ad8" stroke-width="2" d="M162,-804C162,-798 168,-792 174,-792"/>
<polyline fill="none" stroke="#568ad8" stroke-width="2" points="174,-792 204,-792 "/>
<path fill="none" stroke="#568ad8" stroke-width="2" d="M204,-792C210,-792 216,-798 216,-804"/>
<polyline fill="none" stroke="#568ad8" stroke-width="2" points="216,-804 216,-816 "/>
<path fill="none" stroke="#568ad8" stroke-width="2" d="M216,-816C216,-822 210,-828 204,-828"/>
<text text-anchor="middle" x="189" y="-807.5" font-family="sans" font-size="10.00">Rescue</text>
</g>
<!-- 15 -->
<g id="node16" class="node"><title>15</title>
<polyline fill="none" stroke="#56c1d8" stroke-width="2" points="241,-756 137,-756 "/>
<path fill="none" stroke="#56c1d8" stroke-width="2" d="M137,-756C131,-756 125,-750 125,-744"/>
<polyline fill="none" stroke="#56c1d8" stroke-width="2" points="125,-744 125,-732 "/>
<path fill="none" stroke="#56c1d8" stroke-width="2" d="M125,-732C125,-726 131,-720 137,-720"/>
<polyline fill="none" stroke="#56c1d8" stroke-width="2" points="137,-720 241,-720 "/>
<path fill="none" stroke="#56c1d8" stroke-width="2" d="M241,-720C247,-720 253,-726 253,-732"/>
<polyline fill="none" stroke="#56c1d8" stroke-width="2" points="253,-732 253,-744 "/>
<path fill="none" stroke="#56c1d8" stroke-width="2" d="M253,-744C253,-750 247,-756 241,-756"/>
<text text-anchor="middle" x="189" y="-735.5" font-family="sans" font-size="10.00">AlignRescueAndMerge</text>
</g>
<!-- 1&#45;&gt;15 -->
<g id="edge38" class="edge"><title>1&#45;&gt;15</title>
<path fill="none" stroke="grey" stroke-width="2" d="M189,-791.831C189,-784.131 189,-774.974 189,-766.417"/>
<polygon fill="grey" stroke="grey" points="192.5,-766.413 189,-756.413 185.5,-766.413 192.5,-766.413"/>
</g>
<!-- 2 -->
<g id="node3" class="node"><title>2</title>
<polyline fill="none" stroke="#56a9d8" stroke-width="2" points="241,-324 137,-324 "/>
<path fill="none" stroke="#56a9d8" stroke-width="2" d="M137,-324C131,-324 125,-318 125,-312"/>
<polyline fill="none" stroke="#56a9d8" stroke-width="2" points="125,-312 125,-300 "/>
<path fill="none" stroke="#56a9d8" stroke-width="2" d="M125,-300C125,-294 131,-288 137,-288"/>
<polyline fill="none" stroke="#56a9d8" stroke-width="2" points="137,-288 241,-288 "/>
<path fill="none" stroke="#56a9d8" stroke-width="2" d="M241,-288C247,-288 253,-294 253,-300"/>
<polyline fill="none" stroke="#56a9d8" stroke-width="2" points="253,-300 253,-312 "/>
<path fill="none" stroke="#56a9d8" stroke-width="2" d="M253,-312C253,-318 247,-324 241,-324"/>
<text text-anchor="middle" x="189" y="-303.5" font-family="sans" font-size="10.00">PrintRecalibratedBam</text>
</g>
<!-- 3 -->
<g id="node4" class="node"><title>3</title>
<polyline fill="none" stroke="#5673d8" stroke-width="2" points="143,-252 31,-252 "/>
<path fill="none" stroke="#5673d8" stroke-width="2" d="M31,-252C25,-252 19,-246 19,-240"/>
<polyline fill="none" stroke="#5673d8" stroke-width="2" points="19,-240 19,-228 "/>
<path fill="none" stroke="#5673d8" stroke-width="2" d="M19,-228C19,-222 25,-216 31,-216"/>
<polyline fill="none" stroke="#5673d8" stroke-width="2" points="31,-216 143,-216 "/>
<path fill="none" stroke="#5673d8" stroke-width="2" d="M143,-216C149,-216 155,-222 155,-228"/>
<polyline fill="none" stroke="#5673d8" stroke-width="2" points="155,-228 155,-240 "/>
<path fill="none" stroke="#5673d8" stroke-width="2" d="M155,-240C155,-246 149,-252 143,-252"/>
<text text-anchor="middle" x="87" y="-231.5" font-family="sans" font-size="10.00">MergePairedAlignments</text>
</g>
<!-- 2&#45;&gt;3 -->
<g id="edge8" class="edge"><title>2&#45;&gt;3</title>
<path fill="none" stroke="grey" stroke-width="2" d="M163.261,-287.831C150.456,-278.793 134.809,-267.748 121.028,-258.02"/>
<polygon fill="grey" stroke="grey" points="122.919,-255.07 112.731,-252.163 118.882,-260.789 122.919,-255.07"/>
</g>
<!-- 12 -->
<g id="node13" class="node"><title>12</title>
<polyline fill="none" stroke="#56d89a" stroke-width="2" points="233,-180 145,-180 "/>
<path fill="none" stroke="#56d89a" stroke-width="2" d="M145,-180C139,-180 133,-174 133,-168"/>
<polyline fill="none" stroke="#56d89a" stroke-width="2" points="133,-168 133,-156 "/>
<path fill="none" stroke="#56d89a" stroke-width="2" d="M133,-156C133,-150 139,-144 145,-144"/>
<polyline fill="none" stroke="#56d89a" stroke-width="2" points="145,-144 233,-144 "/>
<path fill="none" stroke="#56d89a" stroke-width="2" d="M233,-144C239,-144 245,-150 245,-156"/>
<polyline fill="none" stroke="#56d89a" stroke-width="2" points="245,-156 245,-168 "/>
<path fill="none" stroke="#56d89a" stroke-width="2" d="M245,-168C245,-174 239,-180 233,-180"/>
<text text-anchor="middle" x="189" y="-159.5" font-family="sans" font-size="10.00">BMFtoolsFamstats</text>
</g>
<!-- 2&#45;&gt;12 -->
<g id="edge32" class="edge"><title>2&#45;&gt;12</title>
<path fill="none" stroke="grey" stroke-width="2" d="M189,-287.762C189,-263.201 189,-219.247 189,-190.354"/>
<polygon fill="grey" stroke="grey" points="192.5,-190.09 189,-180.09 185.5,-190.09 192.5,-190.09"/>
</g>
<!-- 13 -->
<g id="node14" class="node"><title>13</title>
<polyline fill="none" stroke="#56d863" stroke-width="2" points="305,-252 233,-252 "/>
<path fill="none" stroke="#56d863" stroke-width="2" d="M233,-252C227,-252 221,-246 221,-240"/>
<polyline fill="none" stroke="#56d863" stroke-width="2" points="221,-240 221,-228 "/>
<path fill="none" stroke="#56d863" stroke-width="2" d="M221,-228C221,-222 227,-216 233,-216"/>
<polyline fill="none" stroke="#56d863" stroke-width="2" points="233,-216 305,-216 "/>
<path fill="none" stroke="#56d863" stroke-width="2" d="M305,-216C311,-216 317,-222 317,-228"/>
<polyline fill="none" stroke="#56d863" stroke-width="2" points="317,-228 317,-240 "/>
<path fill="none" stroke="#56d863" stroke-width="2" d="M317,-240C317,-246 311,-252 305,-252"/>
<text text-anchor="middle" x="269" y="-231.5" font-family="sans" font-size="10.00">BMFtoolsDepth</text>
</g>
<!-- 2&#45;&gt;13 -->
<g id="edge34" class="edge"><title>2&#45;&gt;13</title>
<path fill="none" stroke="grey" stroke-width="2" d="M209.187,-287.831C218.851,-279.134 230.58,-268.578 241.082,-259.127"/>
<polygon fill="grey" stroke="grey" points="243.728,-261.454 248.819,-252.163 239.045,-256.251 243.728,-261.454"/>
</g>
<!-- 4 -->
<g id="node5" class="node"><title>4</title>
<polyline fill="none" stroke="#d88d56" stroke-width="2" points="103,-180 57,-180 "/>
<path fill="none" stroke="#d88d56" stroke-width="2" d="M57,-180C51,-180 45,-174 45,-168"/>
<polyline fill="none" stroke="#d88d56" stroke-width="2" points="45,-168 45,-156 "/>
<path fill="none" stroke="#d88d56" stroke-width="2" d="M45,-156C45,-150 51,-144 57,-144"/>
<polyline fill="none" stroke="#d88d56" stroke-width="2" points="57,-144 103,-144 "/>
<path fill="none" stroke="#d88d56" stroke-width="2" d="M103,-144C109,-144 115,-150 115,-156"/>
<polyline fill="none" stroke="#d88d56" stroke-width="2" points="115,-156 115,-168 "/>
<path fill="none" stroke="#d88d56" stroke-width="2" d="M115,-168C115,-174 109,-180 103,-180"/>
<text text-anchor="middle" x="80" y="-159.5" font-family="sans" font-size="10.00">Sam2USeq</text>
</g>
<!-- 3&#45;&gt;4 -->
<g id="edge10" class="edge"><title>3&#45;&gt;4</title>
<path fill="none" stroke="grey" stroke-width="2" d="M85.2336,-215.831C84.485,-208.131 83.5947,-198.974 82.7627,-190.417"/>
<polygon fill="grey" stroke="grey" points="86.2415,-190.028 81.7902,-180.413 79.2744,-190.705 86.2415,-190.028"/>
</g>
<!-- 7 -->
<g id="node8" class="node"><title>7</title>
<polyline fill="none" stroke="#d8ac56" stroke-width="2" points="172,-108 104,-108 "/>
<path fill="none" stroke="#d8ac56" stroke-width="2" d="M104,-108C98,-108 92,-102 92,-96"/>
<polyline fill="none" stroke="#d8ac56" stroke-width="2" points="92,-96 92,-84 "/>
<path fill="none" stroke="#d8ac56" stroke-width="2" d="M92,-84C92,-78 98,-72 104,-72"/>
<polyline fill="none" stroke="#d8ac56" stroke-width="2" points="104,-72 172,-72 "/>
<path fill="none" stroke="#d8ac56" stroke-width="2" d="M172,-72C178,-72 184,-78 184,-84"/>
<polyline fill="none" stroke="#d8ac56" stroke-width="2" points="184,-84 184,-96 "/>
<path fill="none" stroke="#d8ac56" stroke-width="2" d="M184,-96C184,-102 178,-108 172,-108"/>
<text text-anchor="middle" x="138" y="-87.5" font-family="sans" font-size="10.00">USeq2UCSCBig</text>
</g>
<!-- 4&#45;&gt;7 -->
<g id="edge26" class="edge"><title>4&#45;&gt;7</title>
<path fill="none" stroke="grey" stroke-width="2" d="M94.6358,-143.831C101.316,-135.539 109.357,-125.557 116.69,-116.453"/>
<polygon fill="grey" stroke="grey" points="119.619,-118.396 123.167,-108.413 114.168,-114.005 119.619,-118.396"/>
</g>
<!-- 5 -->
<g id="node6" class="node"><title>5</title>
<polyline fill="none" stroke="#d8c356" stroke-width="2" points="218,-468 160,-468 "/>
<path fill="none" stroke="#d8c356" stroke-width="2" d="M160,-468C154,-468 148,-462 148,-456"/>
<polyline fill="none" stroke="#d8c356" stroke-width="2" points="148,-456 148,-444 "/>
<path fill="none" stroke="#d8c356" stroke-width="2" d="M148,-444C148,-438 154,-432 160,-432"/>
<polyline fill="none" stroke="#d8c356" stroke-width="2" points="160,-432 218,-432 "/>
<path fill="none" stroke="#d8c356" stroke-width="2" d="M218,-432C224,-432 230,-438 230,-444"/>
<polyline fill="none" stroke="#d8c356" stroke-width="2" points="230,-444 230,-456 "/>
<path fill="none" stroke="#d8c356" stroke-width="2" d="M230,-456C230,-462 224,-468 218,-468"/>
<text text-anchor="middle" x="189" y="-447.5" font-family="sans" font-size="10.00">RealignIndels</text>
</g>
<!-- 5&#45;&gt;2 -->
<g id="edge4" class="edge"><title>5&#45;&gt;2</title>
<path fill="none" stroke="grey" stroke-width="2" d="M179.842,-431.513C175.299,-421.312 170.3,-408.259 168,-396 165.05,-380.274 165.05,-375.726 168,-360 169.635,-351.284 172.634,-342.168 175.864,-333.96"/>
<polygon fill="grey" stroke="grey" points="179.197,-335.062 179.842,-324.487 172.743,-332.352 179.197,-335.062"/>
</g>
<!-- 17 -->
<g id="node18" class="node"><title>17</title>
<polyline fill="none" stroke="#56d8b9" stroke-width="2" points="269,-396 189,-396 "/>
<path fill="none" stroke="#56d8b9" stroke-width="2" d="M189,-396C183,-396 177,-390 177,-384"/>
<polyline fill="none" stroke="#56d8b9" stroke-width="2" points="177,-384 177,-372 "/>
<path fill="none" stroke="#56d8b9" stroke-width="2" d="M177,-372C177,-366 183,-360 189,-360"/>
<polyline fill="none" stroke="#56d8b9" stroke-width="2" points="189,-360 269,-360 "/>
<path fill="none" stroke="#56d8b9" stroke-width="2" d="M269,-360C275,-360 281,-366 281,-372"/>
<polyline fill="none" stroke="#56d8b9" stroke-width="2" points="281,-372 281,-384 "/>
<path fill="none" stroke="#56d8b9" stroke-width="2" d="M281,-384C281,-390 275,-396 269,-396"/>
<text text-anchor="middle" x="229" y="-375.5" font-family="sans" font-size="10.00">RecalibrateBases</text>
</g>
<!-- 5&#45;&gt;17 -->
<g id="edge42" class="edge"><title>5&#45;&gt;17</title>
<path fill="none" stroke="grey" stroke-width="2" d="M199.094,-431.831C203.56,-423.792 208.907,-414.167 213.838,-405.292"/>
<polygon fill="grey" stroke="grey" points="216.973,-406.855 218.77,-396.413 210.854,-403.455 216.973,-406.855"/>
</g>
<!-- 7&#45;&gt;6 -->
<g id="edge20" class="edge"><title>7&#45;&gt;6</title>
<path fill="none" stroke="grey" stroke-width="2" d="M156.673,-71.8314C165.525,-63.219 176.249,-52.7851 185.889,-43.4048"/>
<polygon fill="grey" stroke="grey" points="188.606,-45.645 193.333,-36.1628 183.725,-40.6279 188.606,-45.645"/>
</g>
<!-- 8 -->
<g id="node9" class="node"><title>8</title>
<polyline fill="none" stroke="#d87556" stroke-width="2" points="234,-684 144,-684 "/>
<path fill="none" stroke="#d87556" stroke-width="2" d="M144,-684C138,-684 132,-678 132,-672"/>
<polyline fill="none" stroke="#d87556" stroke-width="2" points="132,-672 132,-660 "/>
<path fill="none" stroke="#d87556" stroke-width="2" d="M132,-660C132,-654 138,-648 144,-648"/>
<polyline fill="none" stroke="#d87556" stroke-width="2" points="144,-648 234,-648 "/>
<path fill="none" stroke="#d87556" stroke-width="2" d="M234,-648C240,-648 246,-654 246,-660"/>
<polyline fill="none" stroke="#d87556" stroke-width="2" points="246,-660 246,-672 "/>
<path fill="none" stroke="#d87556" stroke-width="2" d="M246,-672C246,-678 240,-684 234,-684"/>
<text text-anchor="middle" x="189" y="-663.5" font-family="sans" font-size="10.00">FixMateInformation</text>
</g>
<!-- 16 -->
<g id="node17" class="node"><title>16</title>
<polyline fill="none" stroke="#56d8d0" stroke-width="2" points="246,-612 132,-612 "/>
<path fill="none" stroke="#56d8d0" stroke-width="2" d="M132,-612C126,-612 120,-606 120,-600"/>
<polyline fill="none" stroke="#56d8d0" stroke-width="2" points="120,-600 120,-588 "/>
<path fill="none" stroke="#56d8d0" stroke-width="2" d="M120,-588C120,-582 126,-576 132,-576"/>
<polyline fill="none" stroke="#56d8d0" stroke-width="2" points="132,-576 246,-576 "/>
<path fill="none" stroke="#56d8d0" stroke-width="2" d="M246,-576C252,-576 258,-582 258,-588"/>
<polyline fill="none" stroke="#56d8d0" stroke-width="2" points="258,-588 258,-600 "/>
<path fill="none" stroke="#56d8d0" stroke-width="2" d="M258,-600C258,-606 252,-612 246,-612"/>
<text text-anchor="middle" x="189" y="-591.5" font-family="sans" font-size="10.00">SamAlignmentExtractor</text>
</g>
<!-- 8&#45;&gt;16 -->
<g id="edge40" class="edge"><title>8&#45;&gt;16</title>
<path fill="none" stroke="grey" stroke-width="2" d="M189,-647.831C189,-640.131 189,-630.974 189,-622.417"/>
<polygon fill="grey" stroke="grey" points="192.5,-622.413 189,-612.413 185.5,-622.413 192.5,-622.413"/>
</g>
<!-- 9 -->
<g id="node10" class="node"><title>9</title>
<polyline fill="none" stroke="#ced856" stroke-width="2" points="381,-108 313,-108 "/>
<path fill="none" stroke="#ced856" stroke-width="2" d="M313,-108C307,-108 301,-102 301,-96"/>
<polyline fill="none" stroke="#ced856" stroke-width="2" points="301,-96 301,-84 "/>
<path fill="none" stroke="#ced856" stroke-width="2" d="M301,-84C301,-78 307,-72 313,-72"/>
<polyline fill="none" stroke="#ced856" stroke-width="2" points="313,-72 381,-72 "/>
<path fill="none" stroke="#ced856" stroke-width="2" d="M381,-72C387,-72 393,-78 393,-84"/>
<polyline fill="none" stroke="#ced856" stroke-width="2" points="393,-84 393,-96 "/>
<path fill="none" stroke="#ced856" stroke-width="2" d="M393,-96C393,-102 387,-108 381,-108"/>
<text text-anchor="middle" x="347" y="-87.5" font-family="sans" font-size="10.00">CheckGzipFiles</text>
</g>
<!-- 9&#45;&gt;6 -->
<g id="edge24" class="edge"><title>9&#45;&gt;6</title>
<path fill="none" stroke="grey" stroke-width="2" d="M312.934,-71.8314C293.155,-61.2825 268.252,-48.0009 248.131,-37.2698"/>
<polygon fill="grey" stroke="grey" points="249.729,-34.1555 239.258,-32.5378 246.435,-40.3319 249.729,-34.1555"/>
</g>
<!-- 10 -->
<g id="node11" class="node"><title>10</title>
<polyline fill="none" stroke="#b6d856" stroke-width="2" points="227,-1044 151,-1044 "/>
<path fill="none" stroke="#b6d856" stroke-width="2" d="M151,-1044C145,-1044 139,-1038 139,-1032"/>
<polyline fill="none" stroke="#b6d856" stroke-width="2" points="139,-1032 139,-1020 "/>
<path fill="none" stroke="#b6d856" stroke-width="2" d="M139,-1020C139,-1014 145,-1008 151,-1008"/>
<polyline fill="none" stroke="#b6d856" stroke-width="2" points="151,-1008 227,-1008 "/>
<path fill="none" stroke="#b6d856" stroke-width="2" d="M227,-1008C233,-1008 239,-1014 239,-1020"/>
<polyline fill="none" stroke="#b6d856" stroke-width="2" points="239,-1020 239,-1032 "/>
<path fill="none" stroke="#b6d856" stroke-width="2" d="M239,-1032C239,-1038 233,-1044 227,-1044"/>
<text text-anchor="middle" x="189" y="-1023.5" font-family="sans" font-size="10.00">CheckResources</text>
</g>
<!-- 14 -->
<g id="node15" class="node"><title>14</title>
<polyline fill="none" stroke="#80d856" stroke-width="2" points="230,-972 148,-972 "/>
<path fill="none" stroke="#80d856" stroke-width="2" d="M148,-972C142,-972 136,-966 136,-960"/>
<polyline fill="none" stroke="#80d856" stroke-width="2" points="136,-960 136,-948 "/>
<path fill="none" stroke="#80d856" stroke-width="2" d="M136,-948C136,-942 142,-936 148,-936"/>
<polyline fill="none" stroke="#80d856" stroke-width="2" points="148,-936 230,-936 "/>
<path fill="none" stroke="#80d856" stroke-width="2" d="M230,-936C236,-936 242,-942 242,-948"/>
<polyline fill="none" stroke="#80d856" stroke-width="2" points="242,-948 242,-960 "/>
<path fill="none" stroke="#80d856" stroke-width="2" d="M242,-960C242,-966 236,-972 230,-972"/>
<text text-anchor="middle" x="189" y="-951.5" font-family="sans" font-size="10.00">BMFtoolsCollapse</text>
</g>
<!-- 10&#45;&gt;14 -->
<g id="edge36" class="edge"><title>10&#45;&gt;14</title>
<path fill="none" stroke="grey" stroke-width="2" d="M189,-1007.83C189,-1000.13 189,-990.974 189,-982.417"/>
<polygon fill="grey" stroke="grey" points="192.5,-982.413 189,-972.413 185.5,-982.413 192.5,-982.413"/>
</g>
<!-- 11 -->
<g id="node12" class="node"><title>11</title>
<polyline fill="none" stroke="#d85656" stroke-width="2" points="337,-540 167,-540 "/>
<path fill="none" stroke="#d85656" stroke-width="2" d="M167,-540C161,-540 155,-534 155,-528"/>
<polyline fill="none" stroke="#d85656" stroke-width="2" points="155,-528 155,-516 "/>
<path fill="none" stroke="#d85656" stroke-width="2" d="M155,-516C155,-510 161,-504 167,-504"/>
<polyline fill="none" stroke="#d85656" stroke-width="2" points="167,-504 337,-504 "/>
<path fill="none" stroke="#d85656" stroke-width="2" d="M337,-504C343,-504 349,-510 349,-516"/>
<polyline fill="none" stroke="#d85656" stroke-width="2" points="349,-516 349,-528 "/>
<path fill="none" stroke="#d85656" stroke-width="2" d="M349,-528C349,-534 343,-540 337,-540"/>
<text text-anchor="middle" x="252" y="-519.5" font-family="sans" font-size="10.00">CreateTargetsForIndelRealignment</text>
</g>
<!-- 11&#45;&gt;5 -->
<g id="edge12" class="edge"><title>11&#45;&gt;5</title>
<path fill="none" stroke="grey" stroke-width="2" d="M236.102,-503.831C228.772,-495.454 219.934,-485.353 211.903,-476.175"/>
<polygon fill="grey" stroke="grey" points="214.331,-473.634 205.112,-468.413 209.063,-478.244 214.331,-473.634"/>
</g>
<!-- 12&#45;&gt;6 -->
<g id="edge22" class="edge"><title>12&#45;&gt;6</title>
<path fill="none" stroke="grey" stroke-width="2" d="M191.913,-143.762C195.853,-119.093 202.918,-74.8598 207.532,-45.9731"/>
<polygon fill="grey" stroke="grey" points="210.99,-46.5165 209.111,-36.0896 204.077,-45.4124 210.99,-46.5165"/>
</g>
<!-- 13&#45;&gt;6 -->
<g id="edge16" class="edge"><title>13&#45;&gt;6</title>
<path fill="none" stroke="grey" stroke-width="2" d="M266.831,-215.9C264.441,-197.604 260.109,-168.597 254,-144 245.451,-109.58 232.014,-71.037 222.648,-45.7499"/>
<polygon fill="grey" stroke="grey" points="225.818,-44.2348 219.032,-36.0983 219.263,-46.6907 225.818,-44.2348"/>
</g>
<!-- 18 -->
<g id="node19" class="node"><title>18</title>
<polyline fill="none" stroke="#61d856" stroke-width="2" points="262,-900 116,-900 "/>
<path fill="none" stroke="#61d856" stroke-width="2" d="M116,-900C110,-900 104,-894 104,-888"/>
<polyline fill="none" stroke="#61d856" stroke-width="2" points="104,-888 104,-876 "/>
<path fill="none" stroke="#61d856" stroke-width="2" d="M104,-876C104,-870 110,-864 116,-864"/>
<polyline fill="none" stroke="#61d856" stroke-width="2" points="116,-864 262,-864 "/>
<path fill="none" stroke="#61d856" stroke-width="2" d="M262,-864C268,-864 274,-870 274,-876"/>
<polyline fill="none" stroke="#61d856" stroke-width="2" points="274,-876 274,-888 "/>
<path fill="none" stroke="#61d856" stroke-width="2" d="M274,-888C274,-894 268,-900 262,-900"/>
<text text-anchor="middle" x="189" y="-879.5" font-family="sans" font-size="10.00">AlignBMFWithAdapterTrimming</text>
</g>
<!-- 14&#45;&gt;18 -->
<g id="edge44" class="edge"><title>14&#45;&gt;18</title>
<path fill="none" stroke="grey" stroke-width="2" d="M189,-935.831C189,-928.131 189,-918.974 189,-910.417"/>
<polygon fill="grey" stroke="grey" points="192.5,-910.413 189,-900.413 185.5,-910.413 192.5,-910.413"/>
</g>
<!-- 15&#45;&gt;8 -->
<g id="edge28" class="edge"><title>15&#45;&gt;8</title>
<path fill="none" stroke="grey" stroke-width="2" d="M189,-719.831C189,-712.131 189,-702.974 189,-694.417"/>
<polygon fill="grey" stroke="grey" points="192.5,-694.413 189,-684.413 185.5,-694.413 192.5,-694.413"/>
</g>
<!-- 16&#45;&gt;5 -->
<g id="edge14" class="edge"><title>16&#45;&gt;5</title>
<path fill="none" stroke="grey" stroke-width="2" d="M169.504,-575.966C160.49,-566.289 150.745,-553.576 146,-540 140.721,-524.896 140.721,-519.104 146,-504 149.596,-493.712 156.063,-483.919 162.908,-475.568"/>
<polygon fill="grey" stroke="grey" points="165.55,-477.863 169.504,-468.034 160.284,-473.252 165.55,-477.863"/>
</g>
<!-- 16&#45;&gt;11 -->
<g id="edge30" class="edge"><title>16&#45;&gt;11</title>
<path fill="none" stroke="grey" stroke-width="2" d="M204.898,-575.831C212.228,-567.454 221.066,-557.353 229.097,-548.175"/>
<polygon fill="grey" stroke="grey" points="231.937,-550.244 235.888,-540.413 226.669,-545.634 231.937,-550.244"/>
</g>
<!-- 17&#45;&gt;2 -->
<g id="edge6" class="edge"><title>17&#45;&gt;2</title>
<path fill="none" stroke="grey" stroke-width="2" d="M218.906,-359.831C214.44,-351.792 209.093,-342.167 204.162,-333.292"/>
<polygon fill="grey" stroke="grey" points="207.146,-331.455 199.23,-324.413 201.027,-334.855 207.146,-331.455"/>
</g>
<!-- 18&#45;&gt;1 -->
<g id="edge2" class="edge"><title>18&#45;&gt;1</title>
<path fill="none" stroke="grey" stroke-width="2" d="M189,-863.831C189,-856.131 189,-846.974 189,-838.417"/>
<polygon fill="grey" stroke="grey" points="192.5,-838.413 189,-828.413 185.5,-838.413 192.5,-838.413"/>
</g>
</g>
</svg>
