<?xml version="1.0" encoding="UTF-8" standalone="no"?>
<!DOCTYPE svg PUBLIC "-//W3C//DTD SVG 1.1//EN"
 "http://www.w3.org/Graphics/SVG/1.1/DTD/svg11.dtd">
<!-- Generated by graphviz version 2.26.0 (20091210.2329)
 -->
<!-- Title: snakemake_dag Pages: 1 -->
<svg width="508pt" height="764pt"
 viewBox="0.00 0.00 508.00 764.00" xmlns="http://www.w3.org/2000/svg" xmlns:xlink="http://www.w3.org/1999/xlink">
<g id="graph1" class="graph" transform="scale(1 1) rotate(0) translate(4 760)">
<title>snakemake_dag</title>
<polygon fill="white" stroke="white" points="-4,5 -4,-760 505,-760 505,5 -4,5"/>
<!-- 0 -->
<g id="node1" class="node"><title>0</title>
<polyline fill="none" stroke="#56d87b" stroke-width="2" points="80,-108 12,-108 "/>
<path fill="none" stroke="#56d87b" stroke-width="2" d="M12,-108C6,-108 3.55271e-14,-102 2.84217e-14,-96"/>
<polyline fill="none" stroke="#56d87b" stroke-width="2" points="2.84217e-14,-96 1.42109e-14,-84 "/>
<path fill="none" stroke="#56d87b" stroke-width="2" d="M1.42109e-14,-84C7.10543e-15,-78 6,-72 12,-72"/>
<polyline fill="none" stroke="#56d87b" stroke-width="2" points="12,-72 80,-72 "/>
<path fill="none" stroke="#56d87b" stroke-width="2" d="M80,-72C86,-72 92,-78 92,-84"/>
<polyline fill="none" stroke="#56d87b" stroke-width="2" points="92,-84 92,-96 "/>
<path fill="none" stroke="#56d87b" stroke-width="2" d="M92,-96C92,-102 86,-108 80,-108"/>
<text text-anchor="middle" x="46" y="-87.5" font-family="sans" font-size="10.00">CheckGzipFiles</text>
</g>
<!-- 8 -->
<g id="node9" class="node"><title>8</title>
<polyline fill="none" stroke="#56d8c9" stroke-width="2" points="162,-36 132,-36 "/>
<path fill="none" stroke="#56d8c9" stroke-width="2" d="M132,-36C126,-36 120,-30 120,-24"/>
<polyline fill="none" stroke="#56d8c9" stroke-width="2" points="120,-24 120,-12 "/>
<path fill="none" stroke="#56d8c9" stroke-width="2" d="M120,-12C120,-6 126,-1.61846e-14 132,-1.46056e-14"/>
<polyline fill="none" stroke="#56d8c9" stroke-width="2" points="132,-1.46056e-14 162,-6.71068e-15 "/>
<path fill="none" stroke="#56d8c9" stroke-width="2" d="M162,-6.71068e-15C168,-5.1317e-15 174,-6 174,-12"/>
<polyline fill="none" stroke="#56d8c9" stroke-width="2" points="174,-12 174,-24 "/>
<path fill="none" stroke="#56d8c9" stroke-width="2" d="M174,-24C174,-30 168,-36 162,-36"/>
<text text-anchor="middle" x="147" y="-15.5" font-family="sans" font-size="10.00">All</text>
</g>
<!-- 0&#45;&gt;8 -->
<g id="edge18" class="edge"><title>0&#45;&gt;8</title>
<path fill="none" stroke="grey" stroke-width="2" d="M71.4866,-71.8314C84.1659,-62.7927 99.6596,-51.7476 113.306,-42.0198"/>
<polygon fill="grey" stroke="grey" points="115.41,-44.8176 121.522,-36.1628 111.347,-39.1176 115.41,-44.8176"/>
</g>
<!-- 1 -->
<g id="node2" class="node"><title>1</title>
<polyline fill="none" stroke="#56d8a2" stroke-width="2" points="172,-108 122,-108 "/>
<path fill="none" stroke="#56d8a2" stroke-width="2" d="M122,-108C116,-108 110,-102 110,-96"/>
<polyline fill="none" stroke="#56d8a2" stroke-width="2" points="110,-96 110,-84 "/>
<path fill="none" stroke="#56d8a2" stroke-width="2" d="M110,-84C110,-78 116,-72 122,-72"/>
<polyline fill="none" stroke="#56d8a2" stroke-width="2" points="122,-72 172,-72 "/>
<path fill="none" stroke="#56d8a2" stroke-width="2" d="M172,-72C178,-72 184,-78 184,-84"/>
<polyline fill="none" stroke="#56d8a2" stroke-width="2" points="184,-84 184,-96 "/>
<path fill="none" stroke="#56d8a2" stroke-width="2" d="M184,-96C184,-102 178,-108 172,-108"/>
<text text-anchor="middle" x="147" y="-87.5" font-family="sans" font-size="10.00">CountFastq</text>
</g>
<!-- 1&#45;&gt;8 -->
<g id="edge20" class="edge"><title>1&#45;&gt;8</title>
<path fill="none" stroke="grey" stroke-width="2" d="M147,-71.8314C147,-64.131 147,-54.9743 147,-46.4166"/>
<polygon fill="grey" stroke="grey" points="150.5,-46.4132 147,-36.4133 143.5,-46.4133 150.5,-46.4132"/>
</g>
<!-- 2 -->
<g id="node3" class="node"><title>2</title>
<polyline fill="none" stroke="#56a2d8" stroke-width="2" points="304,-468 192,-468 "/>
<path fill="none" stroke="#56a2d8" stroke-width="2" d="M192,-468C186,-468 180,-462 180,-456"/>
<polyline fill="none" stroke="#56a2d8" stroke-width="2" points="180,-456 180,-444 "/>
<path fill="none" stroke="#56a2d8" stroke-width="2" d="M180,-444C180,-438 186,-432 192,-432"/>
<polyline fill="none" stroke="#56a2d8" stroke-width="2" points="192,-432 304,-432 "/>
<path fill="none" stroke="#56a2d8" stroke-width="2" d="M304,-432C310,-432 316,-438 316,-444"/>
<polyline fill="none" stroke="#56a2d8" stroke-width="2" points="316,-444 316,-456 "/>
<path fill="none" stroke="#56a2d8" stroke-width="2" d="M316,-456C316,-462 310,-468 304,-468"/>
<text text-anchor="middle" x="248" y="-447.5" font-family="sans" font-size="10.00">ConcatinateAlignments</text>
</g>
<!-- 7 -->
<g id="node8" class="node"><title>7</title>
<polyline fill="none" stroke="#d8a456" stroke-width="2" points="293,-396 203,-396 "/>
<path fill="none" stroke="#d8a456" stroke-width="2" d="M203,-396C197,-396 191,-390 191,-384"/>
<polyline fill="none" stroke="#d8a456" stroke-width="2" points="191,-384 191,-372 "/>
<path fill="none" stroke="#d8a456" stroke-width="2" d="M191,-372C191,-366 197,-360 203,-360"/>
<polyline fill="none" stroke="#d8a456" stroke-width="2" points="203,-360 293,-360 "/>
<path fill="none" stroke="#d8a456" stroke-width="2" d="M293,-360C299,-360 305,-366 305,-372"/>
<polyline fill="none" stroke="#d8a456" stroke-width="2" points="305,-372 305,-384 "/>
<path fill="none" stroke="#d8a456" stroke-width="2" d="M305,-384C305,-390 299,-396 293,-396"/>
<text text-anchor="middle" x="248" y="-375.5" font-family="sans" font-size="10.00">FixMateInformation</text>
</g>
<!-- 2&#45;&gt;7 -->
<g id="edge16" class="edge"><title>2&#45;&gt;7</title>
<path fill="none" stroke="grey" stroke-width="2" d="M248,-431.831C248,-424.131 248,-414.974 248,-406.417"/>
<polygon fill="grey" stroke="grey" points="251.5,-406.413 248,-396.413 244.5,-406.413 251.5,-406.413"/>
</g>
<!-- 3 -->
<g id="node4" class="node"><title>3</title>
<polyline fill="none" stroke="#d8c356" stroke-width="2" points="323,-612 173,-612 "/>
<path fill="none" stroke="#d8c356" stroke-width="2" d="M173,-612C167,-612 161,-606 161,-600"/>
<polyline fill="none" stroke="#d8c356" stroke-width="2" points="161,-600 161,-588 "/>
<path fill="none" stroke="#d8c356" stroke-width="2" d="M161,-588C161,-582 167,-576 173,-576"/>
<polyline fill="none" stroke="#d8c356" stroke-width="2" points="173,-576 323,-576 "/>
<path fill="none" stroke="#d8c356" stroke-width="2" d="M323,-576C329,-576 335,-582 335,-588"/>
<polyline fill="none" stroke="#d8c356" stroke-width="2" points="335,-588 335,-600 "/>
<path fill="none" stroke="#d8c356" stroke-width="2" d="M335,-600C335,-606 329,-612 323,-612"/>
<text text-anchor="middle" x="248" y="-591.5" font-family="sans" font-size="10.00">CallConsensusOnBarcodedBam</text>
</g>
<!-- 3&#45;&gt;2 -->
<g id="edge2" class="edge"><title>3&#45;&gt;2</title>
<path fill="none" stroke="grey" stroke-width="2" d="M197.456,-575.814C181.647,-567.461 165.999,-555.805 157,-540 149.083,-526.096 149.083,-517.904 157,-504 164.312,-491.159 176.013,-481.056 188.623,-473.238"/>
<polygon fill="grey" stroke="grey" points="190.514,-476.189 197.456,-468.186 187.038,-470.113 190.514,-476.189"/>
</g>
<!-- 5 -->
<g id="node6" class="node"><title>5</title>
<polyline fill="none" stroke="#59d856" stroke-width="2" points="318,-540 178,-540 "/>
<path fill="none" stroke="#59d856" stroke-width="2" d="M178,-540C172,-540 166,-534 166,-528"/>
<polyline fill="none" stroke="#59d856" stroke-width="2" points="166,-528 166,-516 "/>
<path fill="none" stroke="#59d856" stroke-width="2" d="M166,-516C166,-510 172,-504 178,-504"/>
<polyline fill="none" stroke="#59d856" stroke-width="2" points="178,-504 318,-504 "/>
<path fill="none" stroke="#59d856" stroke-width="2" d="M318,-504C324,-504 330,-510 330,-516"/>
<polyline fill="none" stroke="#59d856" stroke-width="2" points="330,-516 330,-528 "/>
<path fill="none" stroke="#59d856" stroke-width="2" d="M330,-528C330,-534 324,-540 318,-540"/>
<text text-anchor="middle" x="248" y="-519.5" font-family="sans" font-size="10.00">AlignUnpairedConsensusFastq</text>
</g>
<!-- 3&#45;&gt;5 -->
<g id="edge12" class="edge"><title>3&#45;&gt;5</title>
<path fill="none" stroke="grey" stroke-width="2" d="M248,-575.831C248,-568.131 248,-558.974 248,-550.417"/>
<polygon fill="grey" stroke="grey" points="251.5,-550.413 248,-540.413 244.5,-550.413 251.5,-550.413"/>
</g>
<!-- 10 -->
<g id="node11" class="node"><title>10</title>
<polyline fill="none" stroke="#d87d56" stroke-width="2" points="488,-540 360,-540 "/>
<path fill="none" stroke="#d87d56" stroke-width="2" d="M360,-540C354,-540 348,-534 348,-528"/>
<polyline fill="none" stroke="#d87d56" stroke-width="2" points="348,-528 348,-516 "/>
<path fill="none" stroke="#d87d56" stroke-width="2" d="M348,-516C348,-510 354,-504 360,-504"/>
<polyline fill="none" stroke="#d87d56" stroke-width="2" points="360,-504 488,-504 "/>
<path fill="none" stroke="#d87d56" stroke-width="2" d="M488,-504C494,-504 500,-510 500,-516"/>
<polyline fill="none" stroke="#d87d56" stroke-width="2" points="500,-516 500,-528 "/>
<path fill="none" stroke="#d87d56" stroke-width="2" d="M500,-528C500,-534 494,-540 488,-540"/>
<text text-anchor="middle" x="424" y="-519.5" font-family="sans" font-size="10.00">AlignPairedConsensusFastq</text>
</g>
<!-- 3&#45;&gt;10 -->
<g id="edge26" class="edge"><title>3&#45;&gt;10</title>
<path fill="none" stroke="grey" stroke-width="2" d="M292.412,-575.831C316.16,-566.116 345.575,-554.083 370.566,-543.859"/>
<polygon fill="grey" stroke="grey" points="371.977,-547.064 379.907,-540.038 369.326,-540.585 371.977,-547.064"/>
</g>
<!-- 4 -->
<g id="node5" class="node"><title>4</title>
<polyline fill="none" stroke="#78d856" stroke-width="2" points="329,-324 167,-324 "/>
<path fill="none" stroke="#78d856" stroke-width="2" d="M167,-324C161,-324 155,-318 155,-312"/>
<polyline fill="none" stroke="#78d856" stroke-width="2" points="155,-312 155,-300 "/>
<path fill="none" stroke="#78d856" stroke-width="2" d="M155,-300C155,-294 161,-288 167,-288"/>
<polyline fill="none" stroke="#78d856" stroke-width="2" points="167,-288 329,-288 "/>
<path fill="none" stroke="#78d856" stroke-width="2" d="M329,-288C335,-288 341,-294 341,-300"/>
<polyline fill="none" stroke="#78d856" stroke-width="2" points="341,-300 341,-312 "/>
<path fill="none" stroke="#78d856" stroke-width="2" d="M341,-312C341,-318 335,-324 329,-324"/>
<text text-anchor="middle" x="248" y="-303.5" font-family="sans" font-size="10.00">SamAlignmentExtractorNoDeDup</text>
</g>
<!-- 13 -->
<g id="node14" class="node"><title>13</title>
<polyline fill="none" stroke="#c6d856" stroke-width="2" points="304,-252 192,-252 "/>
<path fill="none" stroke="#c6d856" stroke-width="2" d="M192,-252C186,-252 180,-246 180,-240"/>
<polyline fill="none" stroke="#c6d856" stroke-width="2" points="180,-240 180,-228 "/>
<path fill="none" stroke="#c6d856" stroke-width="2" d="M180,-228C180,-222 186,-216 192,-216"/>
<polyline fill="none" stroke="#c6d856" stroke-width="2" points="192,-216 304,-216 "/>
<path fill="none" stroke="#c6d856" stroke-width="2" d="M304,-216C310,-216 316,-222 316,-228"/>
<polyline fill="none" stroke="#c6d856" stroke-width="2" points="316,-228 316,-240 "/>
<path fill="none" stroke="#c6d856" stroke-width="2" d="M316,-240C316,-246 310,-252 304,-252"/>
<text text-anchor="middle" x="248" y="-231.5" font-family="sans" font-size="10.00">MergePairedAlignments</text>
</g>
<!-- 4&#45;&gt;13 -->
<g id="edge30" class="edge"><title>4&#45;&gt;13</title>
<path fill="none" stroke="grey" stroke-width="2" d="M248,-287.831C248,-280.131 248,-270.974 248,-262.417"/>
<polygon fill="grey" stroke="grey" points="251.5,-262.413 248,-252.413 244.5,-262.413 251.5,-262.413"/>
</g>
<!-- 5&#45;&gt;2 -->
<g id="edge4" class="edge"><title>5&#45;&gt;2</title>
<path fill="none" stroke="grey" stroke-width="2" d="M248,-503.831C248,-496.131 248,-486.974 248,-478.417"/>
<polygon fill="grey" stroke="grey" points="251.5,-478.413 248,-468.413 244.5,-478.413 251.5,-478.413"/>
</g>
<!-- 6 -->
<g id="node7" class="node"><title>6</title>
<polyline fill="none" stroke="#d85656" stroke-width="2" points="282,-108 214,-108 "/>
<path fill="none" stroke="#d85656" stroke-width="2" d="M214,-108C208,-108 202,-102 202,-96"/>
<polyline fill="none" stroke="#d85656" stroke-width="2" points="202,-96 202,-84 "/>
<path fill="none" stroke="#d85656" stroke-width="2" d="M202,-84C202,-78 208,-72 214,-72"/>
<polyline fill="none" stroke="#d85656" stroke-width="2" points="214,-72 282,-72 "/>
<path fill="none" stroke="#d85656" stroke-width="2" d="M282,-72C288,-72 294,-78 294,-84"/>
<polyline fill="none" stroke="#d85656" stroke-width="2" points="294,-84 294,-96 "/>
<path fill="none" stroke="#d85656" stroke-width="2" d="M294,-96C294,-102 288,-108 282,-108"/>
<text text-anchor="middle" x="248" y="-87.5" font-family="sans" font-size="10.00">USeq2UCSCBig</text>
</g>
<!-- 6&#45;&gt;8 -->
<g id="edge22" class="edge"><title>6&#45;&gt;8</title>
<path fill="none" stroke="grey" stroke-width="2" d="M222.513,-71.8314C209.834,-62.7927 194.34,-51.7476 180.694,-42.0198"/>
<polygon fill="grey" stroke="grey" points="182.653,-39.1176 172.478,-36.1628 178.59,-44.8176 182.653,-39.1176"/>
</g>
<!-- 7&#45;&gt;4 -->
<g id="edge10" class="edge"><title>7&#45;&gt;4</title>
<path fill="none" stroke="grey" stroke-width="2" d="M248,-359.831C248,-352.131 248,-342.974 248,-334.417"/>
<polygon fill="grey" stroke="grey" points="251.5,-334.413 248,-324.413 244.5,-334.413 251.5,-334.413"/>
</g>
<!-- 9 -->
<g id="node10" class="node"><title>9</title>
<polyline fill="none" stroke="#9fd856" stroke-width="2" points="332,-684 164,-684 "/>
<path fill="none" stroke="#9fd856" stroke-width="2" d="M164,-684C158,-684 152,-678 152,-672"/>
<polyline fill="none" stroke="#9fd856" stroke-width="2" points="152,-672 152,-660 "/>
<path fill="none" stroke="#9fd856" stroke-width="2" d="M152,-660C152,-654 158,-648 164,-648"/>
<polyline fill="none" stroke="#9fd856" stroke-width="2" points="164,-648 332,-648 "/>
<path fill="none" stroke="#9fd856" stroke-width="2" d="M332,-648C338,-648 344,-654 344,-660"/>
<polyline fill="none" stroke="#9fd856" stroke-width="2" points="344,-660 344,-672 "/>
<path fill="none" stroke="#9fd856" stroke-width="2" d="M344,-672C344,-678 338,-684 332,-684"/>
<text text-anchor="middle" x="248" y="-663.5" font-family="sans" font-size="10.00">AlignBarcodedFastqWithConsensus</text>
</g>
<!-- 9&#45;&gt;3 -->
<g id="edge8" class="edge"><title>9&#45;&gt;3</title>
<path fill="none" stroke="grey" stroke-width="2" d="M248,-647.831C248,-640.131 248,-630.974 248,-622.417"/>
<polygon fill="grey" stroke="grey" points="251.5,-622.413 248,-612.413 244.5,-622.413 251.5,-622.413"/>
</g>
<!-- 10&#45;&gt;2 -->
<g id="edge6" class="edge"><title>10&#45;&gt;2</title>
<path fill="none" stroke="grey" stroke-width="2" d="M379.588,-503.831C355.84,-494.116 326.425,-482.083 301.434,-471.859"/>
<polygon fill="grey" stroke="grey" points="302.674,-468.585 292.093,-468.038 300.023,-475.064 302.674,-468.585"/>
</g>
<!-- 11 -->
<g id="node12" class="node"><title>11</title>
<polyline fill="none" stroke="#567bd8" stroke-width="2" points="271,-180 225,-180 "/>
<path fill="none" stroke="#567bd8" stroke-width="2" d="M225,-180C219,-180 213,-174 213,-168"/>
<polyline fill="none" stroke="#567bd8" stroke-width="2" points="213,-168 213,-156 "/>
<path fill="none" stroke="#567bd8" stroke-width="2" d="M213,-156C213,-150 219,-144 225,-144"/>
<polyline fill="none" stroke="#567bd8" stroke-width="2" points="225,-144 271,-144 "/>
<path fill="none" stroke="#567bd8" stroke-width="2" d="M271,-144C277,-144 283,-150 283,-156"/>
<polyline fill="none" stroke="#567bd8" stroke-width="2" points="283,-156 283,-168 "/>
<path fill="none" stroke="#567bd8" stroke-width="2" d="M283,-168C283,-174 277,-180 271,-180"/>
<text text-anchor="middle" x="248" y="-159.5" font-family="sans" font-size="10.00">Sam2USeq</text>
</g>
<!-- 11&#45;&gt;6 -->
<g id="edge14" class="edge"><title>11&#45;&gt;6</title>
<path fill="none" stroke="grey" stroke-width="2" d="M248,-143.831C248,-136.131 248,-126.974 248,-118.417"/>
<polygon fill="grey" stroke="grey" points="251.5,-118.413 248,-108.413 244.5,-118.413 251.5,-118.413"/>
</g>
<!-- 12 -->
<g id="node13" class="node"><title>12</title>
<polyline fill="none" stroke="#56c9d8" stroke-width="2" points="286,-756 210,-756 "/>
<path fill="none" stroke="#56c9d8" stroke-width="2" d="M210,-756C204,-756 198,-750 198,-744"/>
<polyline fill="none" stroke="#56c9d8" stroke-width="2" points="198,-744 198,-732 "/>
<path fill="none" stroke="#56c9d8" stroke-width="2" d="M198,-732C198,-726 204,-720 210,-720"/>
<polyline fill="none" stroke="#56c9d8" stroke-width="2" points="210,-720 286,-720 "/>
<path fill="none" stroke="#56c9d8" stroke-width="2" d="M286,-720C292,-720 298,-726 298,-732"/>
<polyline fill="none" stroke="#56c9d8" stroke-width="2" points="298,-732 298,-744 "/>
<path fill="none" stroke="#56c9d8" stroke-width="2" d="M298,-744C298,-750 292,-756 286,-756"/>
<text text-anchor="middle" x="248" y="-735.5" font-family="sans" font-size="10.00">CheckResources</text>
</g>
<!-- 12&#45;&gt;9 -->
<g id="edge24" class="edge"><title>12&#45;&gt;9</title>
<path fill="none" stroke="grey" stroke-width="2" d="M248,-719.831C248,-712.131 248,-702.974 248,-694.417"/>
<polygon fill="grey" stroke="grey" points="251.5,-694.413 248,-684.413 244.5,-694.413 251.5,-694.413"/>
</g>
<!-- 13&#45;&gt;11 -->
<g id="edge28" class="edge"><title>13&#45;&gt;11</title>
<path fill="none" stroke="grey" stroke-width="2" d="M248,-215.831C248,-208.131 248,-198.974 248,-190.417"/>
<polygon fill="grey" stroke="grey" points="251.5,-190.413 248,-180.413 244.5,-190.413 251.5,-190.413"/>
</g>
</g>
</svg>
