<?xml version="1.0" encoding="UTF-8" standalone="no"?>
<!DOCTYPE svg PUBLIC "-//W3C//DTD SVG 1.1//EN"
 "http://www.w3.org/Graphics/SVG/1.1/DTD/svg11.dtd">
<!-- Generated by graphviz version 2.30.1 (20150306.0020)
 -->
<!-- Title: snakemake_dag Pages: 1 -->
<svg width="500pt" height="1052pt"
 viewBox="0.00 0.00 500.00 1052.00" xmlns="http://www.w3.org/2000/svg" xmlns:xlink="http://www.w3.org/1999/xlink">
<g id="graph0" class="graph" transform="scale(1 1) rotate(0) translate(4 1048)">
<title>snakemake_dag</title>
<polygon fill="white" stroke="white" points="-4,5 -4,-1048 497,-1048 497,5 -4,5"/>
<!-- 0 -->
<g id="node1" class="node"><title>0</title>
<path fill="none" stroke="#c6d856" stroke-width="2" d="M292,-756C292,-756 188,-756 188,-756 182,-756 176,-750 176,-744 176,-744 176,-732 176,-732 176,-726 182,-720 188,-720 188,-720 292,-720 292,-720 298,-720 304,-726 304,-732 304,-732 304,-744 304,-744 304,-750 298,-756 292,-756"/>
<text text-anchor="middle" x="240" y="-735.5" font-family="sans" font-size="10.00">ConcatinateAlignments</text>
</g>
<!-- 8 -->
<g id="node9" class="node"><title>8</title>
<path fill="none" stroke="#56d873" stroke-width="2" d="M281.25,-684C281.25,-684 198.75,-684 198.75,-684 192.75,-684 186.75,-678 186.75,-672 186.75,-672 186.75,-660 186.75,-660 186.75,-654 192.75,-648 198.75,-648 198.75,-648 281.25,-648 281.25,-648 287.25,-648 293.25,-654 293.25,-660 293.25,-660 293.25,-672 293.25,-672 293.25,-678 287.25,-684 281.25,-684"/>
<text text-anchor="middle" x="240" y="-663.5" font-family="sans" font-size="10.00">FixMateInformation</text>
</g>
<!-- 0&#45;&gt;8 -->
<g id="edge9" class="edge"><title>0&#45;&gt;8</title>
<path fill="none" stroke="grey" stroke-width="2" d="M240,-719.697C240,-711.983 240,-702.712 240,-694.112"/>
<polygon fill="grey" stroke="grey" points="243.5,-694.104 240,-684.104 236.5,-694.104 243.5,-694.104"/>
</g>
<!-- 1 -->
<g id="node2" class="node"><title>1</title>
<path fill="none" stroke="#56d892" stroke-width="2" d="M275.25,-1044C275.25,-1044 204.75,-1044 204.75,-1044 198.75,-1044 192.75,-1038 192.75,-1032 192.75,-1032 192.75,-1020 192.75,-1020 192.75,-1014 198.75,-1008 204.75,-1008 204.75,-1008 275.25,-1008 275.25,-1008 281.25,-1008 287.25,-1014 287.25,-1020 287.25,-1020 287.25,-1032 287.25,-1032 287.25,-1038 281.25,-1044 275.25,-1044"/>
<text text-anchor="middle" x="240" y="-1023.5" font-family="sans" font-size="10.00">CheckResources</text>
</g>
<!-- 2 -->
<g id="node3" class="node"><title>2</title>
<path fill="none" stroke="#56c9d8" stroke-width="2" d="M320,-972C320,-972 160,-972 160,-972 154,-972 148,-966 148,-960 148,-960 148,-948 148,-948 148,-942 154,-936 160,-936 160,-936 320,-936 320,-936 326,-936 332,-942 332,-948 332,-948 332,-960 332,-960 332,-966 326,-972 320,-972"/>
<text text-anchor="middle" x="240" y="-951.5" font-family="sans" font-size="10.00">AlignBarcodedFastqWithConsensus</text>
</g>
<!-- 1&#45;&gt;2 -->
<g id="edge4" class="edge"><title>1&#45;&gt;2</title>
<path fill="none" stroke="grey" stroke-width="2" d="M240,-1007.7C240,-999.983 240,-990.712 240,-982.112"/>
<polygon fill="grey" stroke="grey" points="243.5,-982.104 240,-972.104 236.5,-982.104 243.5,-982.104"/>
</g>
<!-- 3 -->
<g id="node4" class="node"><title>3</title>
<path fill="none" stroke="#59d856" stroke-width="2" d="M312,-900C312,-900 168,-900 168,-900 162,-900 156,-894 156,-888 156,-888 156,-876 156,-876 156,-870 162,-864 168,-864 168,-864 312,-864 312,-864 318,-864 324,-870 324,-876 324,-876 324,-888 324,-888 324,-894 318,-900 312,-900"/>
<text text-anchor="middle" x="240" y="-879.5" font-family="sans" font-size="10.00">CallConsensusOnBarcodedBam</text>
</g>
<!-- 2&#45;&gt;3 -->
<g id="edge5" class="edge"><title>2&#45;&gt;3</title>
<path fill="none" stroke="grey" stroke-width="2" d="M240,-935.697C240,-927.983 240,-918.712 240,-910.112"/>
<polygon fill="grey" stroke="grey" points="243.5,-910.104 240,-900.104 236.5,-910.104 243.5,-910.104"/>
</g>
<!-- 3&#45;&gt;0 -->
<g id="edge1" class="edge"><title>3&#45;&gt;0</title>
<path fill="none" stroke="grey" stroke-width="2" d="M197.382,-863.989C182.126,-855.58 166.591,-843.781 158,-828 150.35,-813.947 150.35,-806.053 158,-792 164.913,-779.301 176.322,-769.181 188.465,-761.33"/>
<polygon fill="grey" stroke="grey" points="190.587,-764.14 197.382,-756.011 187.001,-758.128 190.587,-764.14"/>
</g>
<!-- 6 -->
<g id="node7" class="node"><title>6</title>
<path fill="none" stroke="#afd856" stroke-width="2" d="M301.25,-828C301.25,-828 178.75,-828 178.75,-828 172.75,-828 166.75,-822 166.75,-816 166.75,-816 166.75,-804 166.75,-804 166.75,-798 172.75,-792 178.75,-792 178.75,-792 301.25,-792 301.25,-792 307.25,-792 313.25,-798 313.25,-804 313.25,-804 313.25,-816 313.25,-816 313.25,-822 307.25,-828 301.25,-828"/>
<text text-anchor="middle" x="240" y="-807.5" font-family="sans" font-size="10.00">AlignPairedConsensusFastq</text>
</g>
<!-- 3&#45;&gt;6 -->
<g id="edge8" class="edge"><title>3&#45;&gt;6</title>
<path fill="none" stroke="grey" stroke-width="2" d="M240,-863.697C240,-855.983 240,-846.712 240,-838.112"/>
<polygon fill="grey" stroke="grey" points="243.5,-838.104 240,-828.104 236.5,-838.104 243.5,-838.104"/>
</g>
<!-- 10 -->
<g id="node11" class="node"><title>10</title>
<path fill="none" stroke="#5673d8" stroke-width="2" d="M480.25,-828C480.25,-828 343.75,-828 343.75,-828 337.75,-828 331.75,-822 331.75,-816 331.75,-816 331.75,-804 331.75,-804 331.75,-798 337.75,-792 343.75,-792 343.75,-792 480.25,-792 480.25,-792 486.25,-792 492.25,-798 492.25,-804 492.25,-804 492.25,-816 492.25,-816 492.25,-822 486.25,-828 480.25,-828"/>
<text text-anchor="middle" x="412" y="-807.5" font-family="sans" font-size="10.00">AlignUnpairedConsensusFastq</text>
</g>
<!-- 3&#45;&gt;10 -->
<g id="edge11" class="edge"><title>3&#45;&gt;10</title>
<path fill="none" stroke="grey" stroke-width="2" d="M282.076,-863.876C305.798,-854.222 335.616,-842.087 360.701,-831.878"/>
<polygon fill="grey" stroke="grey" points="362.118,-835.08 370.061,-828.068 359.479,-828.596 362.118,-835.08"/>
</g>
<!-- 4 -->
<g id="node5" class="node"><title>4</title>
<path fill="none" stroke="#d87556" stroke-width="2" d="M239,-396C239,-396 165,-396 165,-396 159,-396 153,-390 153,-384 153,-384 153,-372 153,-372 153,-366 159,-360 165,-360 165,-360 239,-360 239,-360 245,-360 251,-366 251,-372 251,-372 251,-384 251,-384 251,-390 245,-396 239,-396"/>
<text text-anchor="middle" x="202" y="-375.5" font-family="sans" font-size="10.00">RecalibrateBases</text>
</g>
<!-- 16 -->
<g id="node17" class="node"><title>16</title>
<path fill="none" stroke="#d8cb56" stroke-width="2" d="M287.25,-324C287.25,-324 192.75,-324 192.75,-324 186.75,-324 180.75,-318 180.75,-312 180.75,-312 180.75,-300 180.75,-300 180.75,-294 186.75,-288 192.75,-288 192.75,-288 287.25,-288 287.25,-288 293.25,-288 299.25,-294 299.25,-300 299.25,-300 299.25,-312 299.25,-312 299.25,-318 293.25,-324 287.25,-324"/>
<text text-anchor="middle" x="240" y="-303.5" font-family="sans" font-size="10.00">PrintRecalibratedBam</text>
</g>
<!-- 4&#45;&gt;16 -->
<g id="edge18" class="edge"><title>4&#45;&gt;16</title>
<path fill="none" stroke="grey" stroke-width="2" d="M211.393,-359.697C215.765,-351.644 221.057,-341.894 225.895,-332.982"/>
<polygon fill="grey" stroke="grey" points="229.02,-334.563 230.715,-324.104 222.868,-331.223 229.02,-334.563"/>
</g>
<!-- 5 -->
<g id="node6" class="node"><title>5</title>
<path fill="none" stroke="#56d8a9" stroke-width="2" d="M259,-540C259,-540 103,-540 103,-540 97,-540 91,-534 91,-528 91,-528 91,-516 91,-516 91,-510 97,-504 103,-504 103,-504 259,-504 259,-504 265,-504 271,-510 271,-516 271,-516 271,-528 271,-528 271,-534 265,-540 259,-540"/>
<text text-anchor="middle" x="181" y="-519.5" font-family="sans" font-size="10.00">CreateTargetsForIndelRealignment</text>
</g>
<!-- 17 -->
<g id="node18" class="node"><title>17</title>
<path fill="none" stroke="#56a9d8" stroke-width="2" d="M267,-468C267,-468 213,-468 213,-468 207,-468 201,-462 201,-456 201,-456 201,-444 201,-444 201,-438 207,-432 213,-432 213,-432 267,-432 267,-432 273,-432 279,-438 279,-444 279,-444 279,-456 279,-456 279,-462 273,-468 267,-468"/>
<text text-anchor="middle" x="240" y="-447.5" font-family="sans" font-size="10.00">RealignIndels</text>
</g>
<!-- 5&#45;&gt;17 -->
<g id="edge21" class="edge"><title>5&#45;&gt;17</title>
<path fill="none" stroke="grey" stroke-width="2" d="M195.584,-503.697C202.658,-495.305 211.283,-485.07 219.045,-475.861"/>
<polygon fill="grey" stroke="grey" points="221.815,-478.006 225.583,-468.104 216.463,-473.495 221.815,-478.006"/>
</g>
<!-- 6&#45;&gt;0 -->
<g id="edge2" class="edge"><title>6&#45;&gt;0</title>
<path fill="none" stroke="grey" stroke-width="2" d="M240,-791.697C240,-783.983 240,-774.712 240,-766.112"/>
<polygon fill="grey" stroke="grey" points="243.5,-766.104 240,-756.104 236.5,-766.104 243.5,-766.104"/>
</g>
<!-- 7 -->
<g id="node8" class="node"><title>7</title>
<path fill="none" stroke="#d8ac56" stroke-width="2" d="M58.25,-108C58.25,-108 11.75,-108 11.75,-108 5.75,-108 -0.25,-102 -0.25,-96 -0.25,-96 -0.25,-84 -0.25,-84 -0.25,-78 5.75,-72 11.75,-72 11.75,-72 58.25,-72 58.25,-72 64.25,-72 70.25,-78 70.25,-84 70.25,-84 70.25,-96 70.25,-96 70.25,-102 64.25,-108 58.25,-108"/>
<text text-anchor="middle" x="35" y="-87.5" font-family="sans" font-size="10.00">CountFastq</text>
</g>
<!-- 14 -->
<g id="node15" class="node"><title>14</title>
<path fill="none" stroke="#5692d8" stroke-width="2" d="M147,-36C147,-36 117,-36 117,-36 111,-36 105,-30 105,-24 105,-24 105,-12 105,-12 105,-6 111,-0 117,-0 117,-0 147,-0 147,-0 153,-0 159,-6 159,-12 159,-12 159,-24 159,-24 159,-30 153,-36 147,-36"/>
<text text-anchor="middle" x="132" y="-15.5" font-family="sans" font-size="10.00">All</text>
</g>
<!-- 7&#45;&gt;14 -->
<g id="edge14" class="edge"><title>7&#45;&gt;14</title>
<path fill="none" stroke="grey" stroke-width="2" d="M58.9775,-71.6966C71.3113,-62.796 86.5164,-51.8232 99.853,-42.1989"/>
<polygon fill="grey" stroke="grey" points="102.237,-44.7944 108.298,-36.1043 98.1411,-39.1181 102.237,-44.7944"/>
</g>
<!-- 13 -->
<g id="node14" class="node"><title>13</title>
<path fill="none" stroke="#8fd856" stroke-width="2" d="M293.25,-612C293.25,-612 186.75,-612 186.75,-612 180.75,-612 174.75,-606 174.75,-600 174.75,-600 174.75,-588 174.75,-588 174.75,-582 180.75,-576 186.75,-576 186.75,-576 293.25,-576 293.25,-576 299.25,-576 305.25,-582 305.25,-588 305.25,-588 305.25,-600 305.25,-600 305.25,-606 299.25,-612 293.25,-612"/>
<text text-anchor="middle" x="240" y="-591.5" font-family="sans" font-size="10.00">SamAlignmentExtractor</text>
</g>
<!-- 8&#45;&gt;13 -->
<g id="edge13" class="edge"><title>8&#45;&gt;13</title>
<path fill="none" stroke="grey" stroke-width="2" d="M240,-647.697C240,-639.983 240,-630.712 240,-622.112"/>
<polygon fill="grey" stroke="grey" points="243.5,-622.104 240,-612.104 236.5,-622.104 243.5,-622.104"/>
</g>
<!-- 9 -->
<g id="node10" class="node"><title>9</title>
<path fill="none" stroke="#70d856" stroke-width="2" d="M274,-108C274,-108 206,-108 206,-108 200,-108 194,-102 194,-96 194,-96 194,-84 194,-84 194,-78 200,-72 206,-72 206,-72 274,-72 274,-72 280,-72 286,-78 286,-84 286,-84 286,-96 286,-96 286,-102 280,-108 274,-108"/>
<text text-anchor="middle" x="240" y="-87.5" font-family="sans" font-size="10.00">USeq2UCSCBig</text>
</g>
<!-- 9&#45;&gt;14 -->
<g id="edge16" class="edge"><title>9&#45;&gt;14</title>
<path fill="none" stroke="grey" stroke-width="2" d="M213.58,-71.8761C199.59,-62.8083 182.224,-51.5523 167.114,-41.7592"/>
<polygon fill="grey" stroke="grey" points="168.817,-38.6917 158.521,-36.1898 165.009,-44.5658 168.817,-38.6917"/>
</g>
<!-- 10&#45;&gt;0 -->
<g id="edge3" class="edge"><title>10&#45;&gt;0</title>
<path fill="none" stroke="grey" stroke-width="2" d="M369.924,-791.876C346.202,-782.222 316.384,-770.087 291.299,-759.878"/>
<polygon fill="grey" stroke="grey" points="292.521,-756.596 281.939,-756.068 289.882,-763.08 292.521,-756.596"/>
</g>
<!-- 11 -->
<g id="node12" class="node"><title>11</title>
<path fill="none" stroke="#d88d56" stroke-width="2" d="M163.25,-108C163.25,-108 100.75,-108 100.75,-108 94.75,-108 88.75,-102 88.75,-96 88.75,-96 88.75,-84 88.75,-84 88.75,-78 94.75,-72 100.75,-72 100.75,-72 163.25,-72 163.25,-72 169.25,-72 175.25,-78 175.25,-84 175.25,-84 175.25,-96 175.25,-96 175.25,-102 169.25,-108 163.25,-108"/>
<text text-anchor="middle" x="132" y="-87.5" font-family="sans" font-size="10.00">CheckGzipFiles</text>
</g>
<!-- 11&#45;&gt;14 -->
<g id="edge15" class="edge"><title>11&#45;&gt;14</title>
<path fill="none" stroke="grey" stroke-width="2" d="M132,-71.6966C132,-63.9827 132,-54.7125 132,-46.1124"/>
<polygon fill="grey" stroke="grey" points="135.5,-46.1043 132,-36.1043 128.5,-46.1044 135.5,-46.1043"/>
</g>
<!-- 12 -->
<g id="node13" class="node"><title>12</title>
<path fill="none" stroke="#56d8c9" stroke-width="2" d="M293,-252C293,-252 187,-252 187,-252 181,-252 175,-246 175,-240 175,-240 175,-228 175,-228 175,-222 181,-216 187,-216 187,-216 293,-216 293,-216 299,-216 305,-222 305,-228 305,-228 305,-240 305,-240 305,-246 299,-252 293,-252"/>
<text text-anchor="middle" x="240" y="-231.5" font-family="sans" font-size="10.00">MergePairedAlignments</text>
</g>
<!-- 15 -->
<g id="node16" class="node"><title>15</title>
<path fill="none" stroke="#d85656" stroke-width="2" d="M263.25,-180C263.25,-180 216.75,-180 216.75,-180 210.75,-180 204.75,-174 204.75,-168 204.75,-168 204.75,-156 204.75,-156 204.75,-150 210.75,-144 216.75,-144 216.75,-144 263.25,-144 263.25,-144 269.25,-144 275.25,-150 275.25,-156 275.25,-156 275.25,-168 275.25,-168 275.25,-174 269.25,-180 263.25,-180"/>
<text text-anchor="middle" x="240" y="-159.5" font-family="sans" font-size="10.00">Sam2USeq</text>
</g>
<!-- 12&#45;&gt;15 -->
<g id="edge17" class="edge"><title>12&#45;&gt;15</title>
<path fill="none" stroke="grey" stroke-width="2" d="M240,-215.697C240,-207.983 240,-198.712 240,-190.112"/>
<polygon fill="grey" stroke="grey" points="243.5,-190.104 240,-180.104 236.5,-190.104 243.5,-190.104"/>
</g>
<!-- 13&#45;&gt;5 -->
<g id="edge7" class="edge"><title>13&#45;&gt;5</title>
<path fill="none" stroke="grey" stroke-width="2" d="M225.416,-575.697C218.342,-567.305 209.717,-557.07 201.955,-547.861"/>
<polygon fill="grey" stroke="grey" points="204.537,-545.495 195.417,-540.104 199.185,-550.006 204.537,-545.495"/>
</g>
<!-- 13&#45;&gt;17 -->
<g id="edge20" class="edge"><title>13&#45;&gt;17</title>
<path fill="none" stroke="grey" stroke-width="2" d="M257.733,-575.599C266.239,-565.998 275.532,-553.336 280,-540 285.082,-524.829 285.082,-519.171 280,-504 276.649,-493.998 270.584,-484.376 264.172,-476.138"/>
<polygon fill="grey" stroke="grey" points="266.82,-473.848 257.733,-468.401 261.439,-478.326 266.82,-473.848"/>
</g>
<!-- 15&#45;&gt;9 -->
<g id="edge10" class="edge"><title>15&#45;&gt;9</title>
<path fill="none" stroke="grey" stroke-width="2" d="M240,-143.697C240,-135.983 240,-126.712 240,-118.112"/>
<polygon fill="grey" stroke="grey" points="243.5,-118.104 240,-108.104 236.5,-118.104 243.5,-118.104"/>
</g>
<!-- 16&#45;&gt;12 -->
<g id="edge12" class="edge"><title>16&#45;&gt;12</title>
<path fill="none" stroke="grey" stroke-width="2" d="M240,-287.697C240,-279.983 240,-270.712 240,-262.112"/>
<polygon fill="grey" stroke="grey" points="243.5,-262.104 240,-252.104 236.5,-262.104 243.5,-262.104"/>
</g>
<!-- 17&#45;&gt;4 -->
<g id="edge6" class="edge"><title>17&#45;&gt;4</title>
<path fill="none" stroke="grey" stroke-width="2" d="M230.607,-431.697C226.235,-423.644 220.943,-413.894 216.105,-404.982"/>
<polygon fill="grey" stroke="grey" points="219.132,-403.223 211.285,-396.104 212.98,-406.563 219.132,-403.223"/>
</g>
<!-- 17&#45;&gt;16 -->
<g id="edge19" class="edge"><title>17&#45;&gt;16</title>
<path fill="none" stroke="grey" stroke-width="2" d="M248.306,-431.788C252.741,-421.634 257.741,-408.384 260,-396 262.871,-380.26 262.871,-375.74 260,-360 258.394,-351.196 255.403,-341.954 252.214,-333.698"/>
<polygon fill="grey" stroke="grey" points="255.351,-332.125 248.306,-324.212 248.879,-334.791 255.351,-332.125"/>
</g>
</g>
</svg>
