<?xml version="1.0" encoding="UTF-8" standalone="no"?>
<!DOCTYPE svg PUBLIC "-//W3C//DTD SVG 1.1//EN"
 "http://www.w3.org/Graphics/SVG/1.1/DTD/svg11.dtd">
<!-- Generated by graphviz version 2.26.0 (20091210.2329)
 -->
<!-- Title: snakemake_dag Pages: 1 -->
<svg width="349pt" height="620pt"
 viewBox="0.00 0.00 349.00 620.00" xmlns="http://www.w3.org/2000/svg" xmlns:xlink="http://www.w3.org/1999/xlink">
<g id="graph1" class="graph" transform="scale(1 1) rotate(0) translate(4 616)">
<title>snakemake_dag</title>
<polygon fill="white" stroke="white" points="-4,5 -4,-616 346,-616 346,5 -4,5"/>
<!-- 0 -->
<g id="node1" class="node"><title>0</title>
<polyline fill="none" stroke="#70d856" stroke-width="2" points="304,-252 192,-252 "/>
<path fill="none" stroke="#70d856" stroke-width="2" d="M192,-252C186,-252 180,-246 180,-240"/>
<polyline fill="none" stroke="#70d856" stroke-width="2" points="180,-240 180,-228 "/>
<path fill="none" stroke="#70d856" stroke-width="2" d="M180,-228C180,-222 186,-216 192,-216"/>
<polyline fill="none" stroke="#70d856" stroke-width="2" points="192,-216 304,-216 "/>
<path fill="none" stroke="#70d856" stroke-width="2" d="M304,-216C310,-216 316,-222 316,-228"/>
<polyline fill="none" stroke="#70d856" stroke-width="2" points="316,-228 316,-240 "/>
<path fill="none" stroke="#70d856" stroke-width="2" d="M316,-240C316,-246 310,-252 304,-252"/>
<text text-anchor="middle" x="248" y="-231.5" font-family="sans" font-size="10.00">MergePairedAlignments</text>
</g>
<!-- 9 -->
<g id="node10" class="node"><title>9</title>
<polyline fill="none" stroke="#9fd856" stroke-width="2" points="271,-180 225,-180 "/>
<path fill="none" stroke="#9fd856" stroke-width="2" d="M225,-180C219,-180 213,-174 213,-168"/>
<polyline fill="none" stroke="#9fd856" stroke-width="2" points="213,-168 213,-156 "/>
<path fill="none" stroke="#9fd856" stroke-width="2" d="M213,-156C213,-150 219,-144 225,-144"/>
<polyline fill="none" stroke="#9fd856" stroke-width="2" points="225,-144 271,-144 "/>
<path fill="none" stroke="#9fd856" stroke-width="2" d="M271,-144C277,-144 283,-150 283,-156"/>
<polyline fill="none" stroke="#9fd856" stroke-width="2" points="283,-156 283,-168 "/>
<path fill="none" stroke="#9fd856" stroke-width="2" d="M283,-168C283,-174 277,-180 271,-180"/>
<text text-anchor="middle" x="248" y="-159.5" font-family="sans" font-size="10.00">Sam2USeq</text>
</g>
<!-- 0&#45;&gt;9 -->
<g id="edge18" class="edge"><title>0&#45;&gt;9</title>
<path fill="none" stroke="grey" stroke-width="2" d="M248,-215.831C248,-208.131 248,-198.974 248,-190.417"/>
<polygon fill="grey" stroke="grey" points="251.5,-190.413 248,-180.413 244.5,-190.413 251.5,-190.413"/>
</g>
<!-- 1 -->
<g id="node2" class="node"><title>1</title>
<polyline fill="none" stroke="#ced856" stroke-width="2" points="293,-396 203,-396 "/>
<path fill="none" stroke="#ced856" stroke-width="2" d="M203,-396C197,-396 191,-390 191,-384"/>
<polyline fill="none" stroke="#ced856" stroke-width="2" points="191,-384 191,-372 "/>
<path fill="none" stroke="#ced856" stroke-width="2" d="M191,-372C191,-366 197,-360 203,-360"/>
<polyline fill="none" stroke="#ced856" stroke-width="2" points="203,-360 293,-360 "/>
<path fill="none" stroke="#ced856" stroke-width="2" d="M293,-360C299,-360 305,-366 305,-372"/>
<polyline fill="none" stroke="#ced856" stroke-width="2" points="305,-372 305,-384 "/>
<path fill="none" stroke="#ced856" stroke-width="2" d="M305,-384C305,-390 299,-396 293,-396"/>
<text text-anchor="middle" x="248" y="-375.5" font-family="sans" font-size="10.00">FixMateInformation</text>
</g>
<!-- 8 -->
<g id="node9" class="node"><title>8</title>
<polyline fill="none" stroke="#5682d8" stroke-width="2" points="329,-324 167,-324 "/>
<path fill="none" stroke="#5682d8" stroke-width="2" d="M167,-324C161,-324 155,-318 155,-312"/>
<polyline fill="none" stroke="#5682d8" stroke-width="2" points="155,-312 155,-300 "/>
<path fill="none" stroke="#5682d8" stroke-width="2" d="M155,-300C155,-294 161,-288 167,-288"/>
<polyline fill="none" stroke="#5682d8" stroke-width="2" points="167,-288 329,-288 "/>
<path fill="none" stroke="#5682d8" stroke-width="2" d="M329,-288C335,-288 341,-294 341,-300"/>
<polyline fill="none" stroke="#5682d8" stroke-width="2" points="341,-300 341,-312 "/>
<path fill="none" stroke="#5682d8" stroke-width="2" d="M341,-312C341,-318 335,-324 329,-324"/>
<text text-anchor="middle" x="248" y="-303.5" font-family="sans" font-size="10.00">SamAlignmentExtractorNoDeDup</text>
</g>
<!-- 1&#45;&gt;8 -->
<g id="edge16" class="edge"><title>1&#45;&gt;8</title>
<path fill="none" stroke="grey" stroke-width="2" d="M248,-359.831C248,-352.131 248,-342.974 248,-334.417"/>
<polygon fill="grey" stroke="grey" points="251.5,-334.413 248,-324.413 244.5,-334.413 251.5,-334.413"/>
</g>
<!-- 2 -->
<g id="node3" class="node"><title>2</title>
<polyline fill="none" stroke="#d88556" stroke-width="2" points="321,-468 175,-468 "/>
<path fill="none" stroke="#d88556" stroke-width="2" d="M175,-468C169,-468 163,-462 163,-456"/>
<polyline fill="none" stroke="#d88556" stroke-width="2" points="163,-456 163,-444 "/>
<path fill="none" stroke="#d88556" stroke-width="2" d="M163,-444C163,-438 169,-432 175,-432"/>
<polyline fill="none" stroke="#d88556" stroke-width="2" points="175,-432 321,-432 "/>
<path fill="none" stroke="#d88556" stroke-width="2" d="M321,-432C327,-432 333,-438 333,-444"/>
<polyline fill="none" stroke="#d88556" stroke-width="2" points="333,-444 333,-456 "/>
<path fill="none" stroke="#d88556" stroke-width="2" d="M333,-456C333,-462 327,-468 321,-468"/>
<text text-anchor="middle" x="248" y="-447.5" font-family="sans" font-size="10.00">AlignBMFWithAdapterTrimming</text>
</g>
<!-- 2&#45;&gt;1 -->
<g id="edge4" class="edge"><title>2&#45;&gt;1</title>
<path fill="none" stroke="grey" stroke-width="2" d="M248,-431.831C248,-424.131 248,-414.974 248,-406.417"/>
<polygon fill="grey" stroke="grey" points="251.5,-406.413 248,-396.413 244.5,-406.413 251.5,-406.413"/>
</g>
<!-- 3 -->
<g id="node4" class="node"><title>3</title>
<polyline fill="none" stroke="#d8b456" stroke-width="2" points="153,-36 123,-36 "/>
<path fill="none" stroke="#d8b456" stroke-width="2" d="M123,-36C117,-36 111,-30 111,-24"/>
<polyline fill="none" stroke="#d8b456" stroke-width="2" points="111,-24 111,-12 "/>
<path fill="none" stroke="#d8b456" stroke-width="2" d="M111,-12C111,-6 117,-1.61846e-14 123,-1.46056e-14"/>
<polyline fill="none" stroke="#d8b456" stroke-width="2" points="123,-1.46056e-14 153,-6.71068e-15 "/>
<path fill="none" stroke="#d8b456" stroke-width="2" d="M153,-6.71068e-15C159,-5.1317e-15 165,-6 165,-12"/>
<polyline fill="none" stroke="#d8b456" stroke-width="2" points="165,-12 165,-24 "/>
<path fill="none" stroke="#d8b456" stroke-width="2" d="M165,-24C165,-30 159,-36 153,-36"/>
<text text-anchor="middle" x="138" y="-15.5" font-family="sans" font-size="10.00">All</text>
</g>
<!-- 4 -->
<g id="node5" class="node"><title>4</title>
<polyline fill="none" stroke="#56d8c9" stroke-width="2" points="282,-108 214,-108 "/>
<path fill="none" stroke="#56d8c9" stroke-width="2" d="M214,-108C208,-108 202,-102 202,-96"/>
<polyline fill="none" stroke="#56d8c9" stroke-width="2" points="202,-96 202,-84 "/>
<path fill="none" stroke="#56d8c9" stroke-width="2" d="M202,-84C202,-78 208,-72 214,-72"/>
<polyline fill="none" stroke="#56d8c9" stroke-width="2" points="214,-72 282,-72 "/>
<path fill="none" stroke="#56d8c9" stroke-width="2" d="M282,-72C288,-72 294,-78 294,-84"/>
<polyline fill="none" stroke="#56d8c9" stroke-width="2" points="294,-84 294,-96 "/>
<path fill="none" stroke="#56d8c9" stroke-width="2" d="M294,-96C294,-102 288,-108 282,-108"/>
<text text-anchor="middle" x="248" y="-87.5" font-family="sans" font-size="10.00">USeq2UCSCBig</text>
</g>
<!-- 4&#45;&gt;3 -->
<g id="edge8" class="edge"><title>4&#45;&gt;3</title>
<path fill="none" stroke="grey" stroke-width="2" d="M220.242,-71.8314C206.197,-62.6377 188.98,-51.3684 173.935,-41.5208"/>
<polygon fill="grey" stroke="grey" points="175.652,-38.4616 165.368,-35.9134 171.818,-44.3185 175.652,-38.4616"/>
</g>
<!-- 5 -->
<g id="node6" class="node"><title>5</title>
<polyline fill="none" stroke="#56d86b" stroke-width="2" points="62,-108 12,-108 "/>
<path fill="none" stroke="#56d86b" stroke-width="2" d="M12,-108C6,-108 2.96059e-14,-102 2.36848e-14,-96"/>
<polyline fill="none" stroke="#56d86b" stroke-width="2" points="2.36848e-14,-96 1.18424e-14,-84 "/>
<path fill="none" stroke="#56d86b" stroke-width="2" d="M1.18424e-14,-84C5.92119e-15,-78 6,-72 12,-72"/>
<polyline fill="none" stroke="#56d86b" stroke-width="2" points="12,-72 62,-72 "/>
<path fill="none" stroke="#56d86b" stroke-width="2" d="M62,-72C68,-72 74,-78 74,-84"/>
<polyline fill="none" stroke="#56d86b" stroke-width="2" points="74,-84 74,-96 "/>
<path fill="none" stroke="#56d86b" stroke-width="2" d="M74,-96C74,-102 68,-108 62,-108"/>
<text text-anchor="middle" x="37" y="-87.5" font-family="sans" font-size="10.00">CountFastq</text>
</g>
<!-- 5&#45;&gt;3 -->
<g id="edge10" class="edge"><title>5&#45;&gt;3</title>
<path fill="none" stroke="grey" stroke-width="2" d="M62.4866,-71.8314C75.1659,-62.7927 90.6596,-51.7476 104.306,-42.0198"/>
<polygon fill="grey" stroke="grey" points="106.41,-44.8176 112.522,-36.1628 102.347,-39.1176 106.41,-44.8176"/>
</g>
<!-- 6 -->
<g id="node7" class="node"><title>6</title>
<polyline fill="none" stroke="#56b1d8" stroke-width="2" points="286,-612 210,-612 "/>
<path fill="none" stroke="#56b1d8" stroke-width="2" d="M210,-612C204,-612 198,-606 198,-600"/>
<polyline fill="none" stroke="#56b1d8" stroke-width="2" points="198,-600 198,-588 "/>
<path fill="none" stroke="#56b1d8" stroke-width="2" d="M198,-588C198,-582 204,-576 210,-576"/>
<polyline fill="none" stroke="#56b1d8" stroke-width="2" points="210,-576 286,-576 "/>
<path fill="none" stroke="#56b1d8" stroke-width="2" d="M286,-576C292,-576 298,-582 298,-588"/>
<polyline fill="none" stroke="#56b1d8" stroke-width="2" points="298,-588 298,-600 "/>
<path fill="none" stroke="#56b1d8" stroke-width="2" d="M298,-600C298,-606 292,-612 286,-612"/>
<text text-anchor="middle" x="248" y="-591.5" font-family="sans" font-size="10.00">CheckResources</text>
</g>
<!-- 10 -->
<g id="node11" class="node"><title>10</title>
<polyline fill="none" stroke="#56d89a" stroke-width="2" points="289,-540 207,-540 "/>
<path fill="none" stroke="#56d89a" stroke-width="2" d="M207,-540C201,-540 195,-534 195,-528"/>
<polyline fill="none" stroke="#56d89a" stroke-width="2" points="195,-528 195,-516 "/>
<path fill="none" stroke="#56d89a" stroke-width="2" d="M195,-516C195,-510 201,-504 207,-504"/>
<polyline fill="none" stroke="#56d89a" stroke-width="2" points="207,-504 289,-504 "/>
<path fill="none" stroke="#56d89a" stroke-width="2" d="M289,-504C295,-504 301,-510 301,-516"/>
<polyline fill="none" stroke="#56d89a" stroke-width="2" points="301,-516 301,-528 "/>
<path fill="none" stroke="#56d89a" stroke-width="2" d="M301,-528C301,-534 295,-540 289,-540"/>
<text text-anchor="middle" x="248" y="-519.5" font-family="sans" font-size="10.00">BMFtoolsCollapse</text>
</g>
<!-- 6&#45;&gt;10 -->
<g id="edge20" class="edge"><title>6&#45;&gt;10</title>
<path fill="none" stroke="grey" stroke-width="2" d="M248,-575.831C248,-568.131 248,-558.974 248,-550.417"/>
<polygon fill="grey" stroke="grey" points="251.5,-550.413 248,-540.413 244.5,-550.413 251.5,-550.413"/>
</g>
<!-- 7 -->
<g id="node8" class="node"><title>7</title>
<polyline fill="none" stroke="#d85656" stroke-width="2" points="172,-108 104,-108 "/>
<path fill="none" stroke="#d85656" stroke-width="2" d="M104,-108C98,-108 92,-102 92,-96"/>
<polyline fill="none" stroke="#d85656" stroke-width="2" points="92,-96 92,-84 "/>
<path fill="none" stroke="#d85656" stroke-width="2" d="M92,-84C92,-78 98,-72 104,-72"/>
<polyline fill="none" stroke="#d85656" stroke-width="2" points="104,-72 172,-72 "/>
<path fill="none" stroke="#d85656" stroke-width="2" d="M172,-72C178,-72 184,-78 184,-84"/>
<polyline fill="none" stroke="#d85656" stroke-width="2" points="184,-84 184,-96 "/>
<path fill="none" stroke="#d85656" stroke-width="2" d="M184,-96C184,-102 178,-108 172,-108"/>
<text text-anchor="middle" x="138" y="-87.5" font-family="sans" font-size="10.00">CheckGzipFiles</text>
</g>
<!-- 7&#45;&gt;3 -->
<g id="edge12" class="edge"><title>7&#45;&gt;3</title>
<path fill="none" stroke="grey" stroke-width="2" d="M138,-71.8314C138,-64.131 138,-54.9743 138,-46.4166"/>
<polygon fill="grey" stroke="grey" points="141.5,-46.4132 138,-36.4133 134.5,-46.4133 141.5,-46.4132"/>
</g>
<!-- 8&#45;&gt;0 -->
<g id="edge2" class="edge"><title>8&#45;&gt;0</title>
<path fill="none" stroke="grey" stroke-width="2" d="M248,-287.831C248,-280.131 248,-270.974 248,-262.417"/>
<polygon fill="grey" stroke="grey" points="251.5,-262.413 248,-252.413 244.5,-262.413 251.5,-262.413"/>
</g>
<!-- 9&#45;&gt;4 -->
<g id="edge14" class="edge"><title>9&#45;&gt;4</title>
<path fill="none" stroke="grey" stroke-width="2" d="M248,-143.831C248,-136.131 248,-126.974 248,-118.417"/>
<polygon fill="grey" stroke="grey" points="251.5,-118.413 248,-108.413 244.5,-118.413 251.5,-118.413"/>
</g>
<!-- 10&#45;&gt;2 -->
<g id="edge6" class="edge"><title>10&#45;&gt;2</title>
<path fill="none" stroke="grey" stroke-width="2" d="M248,-503.831C248,-496.131 248,-486.974 248,-478.417"/>
<polygon fill="grey" stroke="grey" points="251.5,-478.413 248,-468.413 244.5,-478.413 251.5,-478.413"/>
</g>
</g>
</svg>
