<?xml version="1.0" encoding="UTF-8" standalone="no"?>
<!DOCTYPE svg PUBLIC "-//W3C//DTD SVG 1.1//EN"
 "http://www.w3.org/Graphics/SVG/1.1/DTD/svg11.dtd">
<!-- Generated by graphviz version 2.26.0 (20091210.2329)
 -->
<!-- Title: snakemake_dag Pages: 1 -->
<svg width="357pt" height="1052pt"
 viewBox="0.00 0.00 356.94 1052.00" xmlns="http://www.w3.org/2000/svg" xmlns:xlink="http://www.w3.org/1999/xlink">
<g id="graph1" class="graph" transform="scale(1 1) rotate(0) translate(4 1048)">
<title>snakemake_dag</title>
<polygon fill="white" stroke="white" points="-4,5 -4,-1048 353.938,-1048 353.938,5 -4,5"/>
<!-- 0 -->
<g id="node1" class="node"><title>0</title>
<polyline fill="none" stroke="#d8ac56" stroke-width="2" points="327,-900 177,-900 "/>
<path fill="none" stroke="#d8ac56" stroke-width="2" d="M177,-900C171,-900 165,-894 165,-888"/>
<polyline fill="none" stroke="#d8ac56" stroke-width="2" points="165,-888 165,-876 "/>
<path fill="none" stroke="#d8ac56" stroke-width="2" d="M165,-876C165,-870 171,-864 177,-864"/>
<polyline fill="none" stroke="#d8ac56" stroke-width="2" points="177,-864 327,-864 "/>
<path fill="none" stroke="#d8ac56" stroke-width="2" d="M327,-864C333,-864 339,-870 339,-876"/>
<polyline fill="none" stroke="#d8ac56" stroke-width="2" points="339,-876 339,-888 "/>
<path fill="none" stroke="#d8ac56" stroke-width="2" d="M339,-888C339,-894 333,-900 327,-900"/>
<text text-anchor="middle" x="252" y="-879.5" font-family="sans" font-size="10.00">CallConsensusOnBarcodedBam</text>
</g>
<!-- 4 -->
<g id="node5" class="node"><title>4</title>
<polyline fill="none" stroke="#56c9d8" stroke-width="2" points="140,-828 12,-828 "/>
<path fill="none" stroke="#56c9d8" stroke-width="2" d="M12,-828C6,-828 5.92119e-14,-822 4.73695e-14,-816"/>
<polyline fill="none" stroke="#56c9d8" stroke-width="2" points="4.73695e-14,-816 2.36848e-14,-804 "/>
<path fill="none" stroke="#56c9d8" stroke-width="2" d="M2.36848e-14,-804C1.18424e-14,-798 6,-792 12,-792"/>
<polyline fill="none" stroke="#56c9d8" stroke-width="2" points="12,-792 140,-792 "/>
<path fill="none" stroke="#56c9d8" stroke-width="2" d="M140,-792C146,-792 152,-798 152,-804"/>
<polyline fill="none" stroke="#56c9d8" stroke-width="2" points="152,-804 152,-816 "/>
<path fill="none" stroke="#56c9d8" stroke-width="2" d="M152,-816C152,-822 146,-828 140,-828"/>
<text text-anchor="middle" x="76" y="-807.5" font-family="sans" font-size="10.00">AlignPairedConsensusFastq</text>
</g>
<!-- 0&#45;&gt;4 -->
<g id="edge10" class="edge"><title>0&#45;&gt;4</title>
<path fill="none" stroke="grey" stroke-width="2" d="M207.588,-863.831C183.84,-854.116 154.425,-842.083 129.434,-831.859"/>
<polygon fill="grey" stroke="grey" points="130.674,-828.585 120.093,-828.038 128.023,-835.064 130.674,-828.585"/>
</g>
<!-- 5 -->
<g id="node6" class="node"><title>5</title>
<polyline fill="none" stroke="#d8cb56" stroke-width="2" points="322,-828 182,-828 "/>
<path fill="none" stroke="#d8cb56" stroke-width="2" d="M182,-828C176,-828 170,-822 170,-816"/>
<polyline fill="none" stroke="#d8cb56" stroke-width="2" points="170,-816 170,-804 "/>
<path fill="none" stroke="#d8cb56" stroke-width="2" d="M170,-804C170,-798 176,-792 182,-792"/>
<polyline fill="none" stroke="#d8cb56" stroke-width="2" points="182,-792 322,-792 "/>
<path fill="none" stroke="#d8cb56" stroke-width="2" d="M322,-792C328,-792 334,-798 334,-804"/>
<polyline fill="none" stroke="#d8cb56" stroke-width="2" points="334,-804 334,-816 "/>
<path fill="none" stroke="#d8cb56" stroke-width="2" d="M334,-816C334,-822 328,-828 322,-828"/>
<text text-anchor="middle" x="252" y="-807.5" font-family="sans" font-size="10.00">AlignUnpairedConsensusFastq</text>
</g>
<!-- 0&#45;&gt;5 -->
<g id="edge12" class="edge"><title>0&#45;&gt;5</title>
<path fill="none" stroke="grey" stroke-width="2" d="M252,-863.831C252,-856.131 252,-846.974 252,-838.417"/>
<polygon fill="grey" stroke="grey" points="255.5,-838.413 252,-828.413 248.5,-838.413 255.5,-838.413"/>
</g>
<!-- 9 -->
<g id="node10" class="node"><title>9</title>
<polyline fill="none" stroke="#56a9d8" stroke-width="2" points="308,-756 196,-756 "/>
<path fill="none" stroke="#56a9d8" stroke-width="2" d="M196,-756C190,-756 184,-750 184,-744"/>
<polyline fill="none" stroke="#56a9d8" stroke-width="2" points="184,-744 184,-732 "/>
<path fill="none" stroke="#56a9d8" stroke-width="2" d="M184,-732C184,-726 190,-720 196,-720"/>
<polyline fill="none" stroke="#56a9d8" stroke-width="2" points="196,-720 308,-720 "/>
<path fill="none" stroke="#56a9d8" stroke-width="2" d="M308,-720C314,-720 320,-726 320,-732"/>
<polyline fill="none" stroke="#56a9d8" stroke-width="2" points="320,-732 320,-744 "/>
<path fill="none" stroke="#56a9d8" stroke-width="2" d="M320,-744C320,-750 314,-756 308,-756"/>
<text text-anchor="middle" x="252" y="-735.5" font-family="sans" font-size="10.00">ConcatinateAlignments</text>
</g>
<!-- 0&#45;&gt;9 -->
<g id="edge24" class="edge"><title>0&#45;&gt;9</title>
<path fill="none" stroke="grey" stroke-width="2" d="M302.544,-863.814C318.353,-855.461 334.001,-843.805 343,-828 350.917,-814.096 350.917,-805.904 343,-792 335.688,-779.159 323.987,-769.056 311.377,-761.238"/>
<polygon fill="grey" stroke="grey" points="312.962,-758.113 302.544,-756.186 309.486,-764.189 312.962,-758.113"/>
</g>
<!-- 1 -->
<g id="node2" class="node"><title>1</title>
<polyline fill="none" stroke="#d88d56" stroke-width="2" points="304,-324 200,-324 "/>
<path fill="none" stroke="#d88d56" stroke-width="2" d="M200,-324C194,-324 188,-318 188,-312"/>
<polyline fill="none" stroke="#d88d56" stroke-width="2" points="188,-312 188,-300 "/>
<path fill="none" stroke="#d88d56" stroke-width="2" d="M188,-300C188,-294 194,-288 200,-288"/>
<polyline fill="none" stroke="#d88d56" stroke-width="2" points="200,-288 304,-288 "/>
<path fill="none" stroke="#d88d56" stroke-width="2" d="M304,-288C310,-288 316,-294 316,-300"/>
<polyline fill="none" stroke="#d88d56" stroke-width="2" points="316,-300 316,-312 "/>
<path fill="none" stroke="#d88d56" stroke-width="2" d="M316,-312C316,-318 310,-324 304,-324"/>
<text text-anchor="middle" x="252" y="-303.5" font-family="sans" font-size="10.00">PrintRecalibratedBam</text>
</g>
<!-- 6 -->
<g id="node7" class="node"><title>6</title>
<polyline fill="none" stroke="#8fd856" stroke-width="2" points="308,-252 196,-252 "/>
<path fill="none" stroke="#8fd856" stroke-width="2" d="M196,-252C190,-252 184,-246 184,-240"/>
<polyline fill="none" stroke="#8fd856" stroke-width="2" points="184,-240 184,-228 "/>
<path fill="none" stroke="#8fd856" stroke-width="2" d="M184,-228C184,-222 190,-216 196,-216"/>
<polyline fill="none" stroke="#8fd856" stroke-width="2" points="196,-216 308,-216 "/>
<path fill="none" stroke="#8fd856" stroke-width="2" d="M308,-216C314,-216 320,-222 320,-228"/>
<polyline fill="none" stroke="#8fd856" stroke-width="2" points="320,-228 320,-240 "/>
<path fill="none" stroke="#8fd856" stroke-width="2" d="M320,-240C320,-246 314,-252 308,-252"/>
<text text-anchor="middle" x="252" y="-231.5" font-family="sans" font-size="10.00">MergePairedAlignments</text>
</g>
<!-- 1&#45;&gt;6 -->
<g id="edge14" class="edge"><title>1&#45;&gt;6</title>
<path fill="none" stroke="grey" stroke-width="2" d="M252,-287.831C252,-280.131 252,-270.974 252,-262.417"/>
<polygon fill="grey" stroke="grey" points="255.5,-262.413 252,-252.413 248.5,-262.413 255.5,-262.413"/>
</g>
<!-- 2 -->
<g id="node3" class="node"><title>2</title>
<polyline fill="none" stroke="#afd856" stroke-width="2" points="290,-1044 214,-1044 "/>
<path fill="none" stroke="#afd856" stroke-width="2" d="M214,-1044C208,-1044 202,-1038 202,-1032"/>
<polyline fill="none" stroke="#afd856" stroke-width="2" points="202,-1032 202,-1020 "/>
<path fill="none" stroke="#afd856" stroke-width="2" d="M202,-1020C202,-1014 208,-1008 214,-1008"/>
<polyline fill="none" stroke="#afd856" stroke-width="2" points="214,-1008 290,-1008 "/>
<path fill="none" stroke="#afd856" stroke-width="2" d="M290,-1008C296,-1008 302,-1014 302,-1020"/>
<polyline fill="none" stroke="#afd856" stroke-width="2" points="302,-1020 302,-1032 "/>
<path fill="none" stroke="#afd856" stroke-width="2" d="M302,-1032C302,-1038 296,-1044 290,-1044"/>
<text text-anchor="middle" x="252" y="-1023.5" font-family="sans" font-size="10.00">CheckResources</text>
</g>
<!-- 15 -->
<g id="node16" class="node"><title>15</title>
<polyline fill="none" stroke="#59d856" stroke-width="2" points="336,-972 168,-972 "/>
<path fill="none" stroke="#59d856" stroke-width="2" d="M168,-972C162,-972 156,-966 156,-960"/>
<polyline fill="none" stroke="#59d856" stroke-width="2" points="156,-960 156,-948 "/>
<path fill="none" stroke="#59d856" stroke-width="2" d="M156,-948C156,-942 162,-936 168,-936"/>
<polyline fill="none" stroke="#59d856" stroke-width="2" points="168,-936 336,-936 "/>
<path fill="none" stroke="#59d856" stroke-width="2" d="M336,-936C342,-936 348,-942 348,-948"/>
<polyline fill="none" stroke="#59d856" stroke-width="2" points="348,-948 348,-960 "/>
<path fill="none" stroke="#59d856" stroke-width="2" d="M348,-960C348,-966 342,-972 336,-972"/>
<text text-anchor="middle" x="252" y="-951.5" font-family="sans" font-size="10.00">AlignBarcodedFastqWithConsensus</text>
</g>
<!-- 2&#45;&gt;15 -->
<g id="edge40" class="edge"><title>2&#45;&gt;15</title>
<path fill="none" stroke="grey" stroke-width="2" d="M252,-1007.83C252,-1000.13 252,-990.974 252,-982.417"/>
<polygon fill="grey" stroke="grey" points="255.5,-982.413 252,-972.413 248.5,-982.413 255.5,-982.413"/>
</g>
<!-- 3 -->
<g id="node4" class="node"><title>3</title>
<polyline fill="none" stroke="#5692d8" stroke-width="2" points="275,-180 229,-180 "/>
<path fill="none" stroke="#5692d8" stroke-width="2" d="M229,-180C223,-180 217,-174 217,-168"/>
<polyline fill="none" stroke="#5692d8" stroke-width="2" points="217,-168 217,-156 "/>
<path fill="none" stroke="#5692d8" stroke-width="2" d="M217,-156C217,-150 223,-144 229,-144"/>
<polyline fill="none" stroke="#5692d8" stroke-width="2" points="229,-144 275,-144 "/>
<path fill="none" stroke="#5692d8" stroke-width="2" d="M275,-144C281,-144 287,-150 287,-156"/>
<polyline fill="none" stroke="#5692d8" stroke-width="2" points="287,-156 287,-168 "/>
<path fill="none" stroke="#5692d8" stroke-width="2" d="M287,-168C287,-174 281,-180 275,-180"/>
<text text-anchor="middle" x="252" y="-159.5" font-family="sans" font-size="10.00">Sam2USeq</text>
</g>
<!-- 7 -->
<g id="node8" class="node"><title>7</title>
<polyline fill="none" stroke="#d85656" stroke-width="2" points="286,-108 218,-108 "/>
<path fill="none" stroke="#d85656" stroke-width="2" d="M218,-108C212,-108 206,-102 206,-96"/>
<polyline fill="none" stroke="#d85656" stroke-width="2" points="206,-96 206,-84 "/>
<path fill="none" stroke="#d85656" stroke-width="2" d="M206,-84C206,-78 212,-72 218,-72"/>
<polyline fill="none" stroke="#d85656" stroke-width="2" points="218,-72 286,-72 "/>
<path fill="none" stroke="#d85656" stroke-width="2" d="M286,-72C292,-72 298,-78 298,-84"/>
<polyline fill="none" stroke="#d85656" stroke-width="2" points="298,-84 298,-96 "/>
<path fill="none" stroke="#d85656" stroke-width="2" d="M298,-96C298,-102 292,-108 286,-108"/>
<text text-anchor="middle" x="252" y="-87.5" font-family="sans" font-size="10.00">USeq2UCSCBig</text>
</g>
<!-- 3&#45;&gt;7 -->
<g id="edge16" class="edge"><title>3&#45;&gt;7</title>
<path fill="none" stroke="grey" stroke-width="2" d="M252,-143.831C252,-136.131 252,-126.974 252,-118.417"/>
<polygon fill="grey" stroke="grey" points="255.5,-118.413 252,-108.413 248.5,-118.413 255.5,-118.413"/>
</g>
<!-- 4&#45;&gt;9 -->
<g id="edge28" class="edge"><title>4&#45;&gt;9</title>
<path fill="none" stroke="grey" stroke-width="2" d="M120.412,-791.831C144.16,-782.116 173.575,-770.083 198.566,-759.859"/>
<polygon fill="grey" stroke="grey" points="199.977,-763.064 207.907,-756.038 197.326,-756.585 199.977,-763.064"/>
</g>
<!-- 5&#45;&gt;9 -->
<g id="edge26" class="edge"><title>5&#45;&gt;9</title>
<path fill="none" stroke="grey" stroke-width="2" d="M252,-791.831C252,-784.131 252,-774.974 252,-766.417"/>
<polygon fill="grey" stroke="grey" points="255.5,-766.413 252,-756.413 248.5,-766.413 255.5,-766.413"/>
</g>
<!-- 6&#45;&gt;3 -->
<g id="edge8" class="edge"><title>6&#45;&gt;3</title>
<path fill="none" stroke="grey" stroke-width="2" d="M252,-215.831C252,-208.131 252,-198.974 252,-190.417"/>
<polygon fill="grey" stroke="grey" points="255.5,-190.413 252,-180.413 248.5,-190.413 255.5,-190.413"/>
</g>
<!-- 8 -->
<g id="node9" class="node"><title>8</title>
<polyline fill="none" stroke="#c6d856" stroke-width="2" points="166,-36 136,-36 "/>
<path fill="none" stroke="#c6d856" stroke-width="2" d="M136,-36C130,-36 124,-30 124,-24"/>
<polyline fill="none" stroke="#c6d856" stroke-width="2" points="124,-24 124,-12 "/>
<path fill="none" stroke="#c6d856" stroke-width="2" d="M124,-12C124,-6 130,-1.61846e-14 136,-1.46056e-14"/>
<polyline fill="none" stroke="#c6d856" stroke-width="2" points="136,-1.46056e-14 166,-6.71068e-15 "/>
<path fill="none" stroke="#c6d856" stroke-width="2" d="M166,-6.71068e-15C172,-5.1317e-15 178,-6 178,-12"/>
<polyline fill="none" stroke="#c6d856" stroke-width="2" points="178,-12 178,-24 "/>
<path fill="none" stroke="#c6d856" stroke-width="2" d="M178,-24C178,-30 172,-36 166,-36"/>
<text text-anchor="middle" x="151" y="-15.5" font-family="sans" font-size="10.00">All</text>
</g>
<!-- 7&#45;&gt;8 -->
<g id="edge22" class="edge"><title>7&#45;&gt;8</title>
<path fill="none" stroke="grey" stroke-width="2" d="M226.513,-71.8314C213.834,-62.7927 198.34,-51.7476 184.694,-42.0198"/>
<polygon fill="grey" stroke="grey" points="186.653,-39.1176 176.478,-36.1628 182.59,-44.8176 186.653,-39.1176"/>
</g>
<!-- 14 -->
<g id="node15" class="node"><title>14</title>
<polyline fill="none" stroke="#56d873" stroke-width="2" points="297,-684 207,-684 "/>
<path fill="none" stroke="#56d873" stroke-width="2" d="M207,-684C201,-684 195,-678 195,-672"/>
<polyline fill="none" stroke="#56d873" stroke-width="2" points="195,-672 195,-660 "/>
<path fill="none" stroke="#56d873" stroke-width="2" d="M195,-660C195,-654 201,-648 207,-648"/>
<polyline fill="none" stroke="#56d873" stroke-width="2" points="207,-648 297,-648 "/>
<path fill="none" stroke="#56d873" stroke-width="2" d="M297,-648C303,-648 309,-654 309,-660"/>
<polyline fill="none" stroke="#56d873" stroke-width="2" points="309,-660 309,-672 "/>
<path fill="none" stroke="#56d873" stroke-width="2" d="M309,-672C309,-678 303,-684 297,-684"/>
<text text-anchor="middle" x="252" y="-663.5" font-family="sans" font-size="10.00">FixMateInformation</text>
</g>
<!-- 9&#45;&gt;14 -->
<g id="edge38" class="edge"><title>9&#45;&gt;14</title>
<path fill="none" stroke="grey" stroke-width="2" d="M252,-719.831C252,-712.131 252,-702.974 252,-694.417"/>
<polygon fill="grey" stroke="grey" points="255.5,-694.413 252,-684.413 248.5,-694.413 255.5,-694.413"/>
</g>
<!-- 10 -->
<g id="node11" class="node"><title>10</title>
<polyline fill="none" stroke="#56d8c9" stroke-width="2" points="275,-540 105,-540 "/>
<path fill="none" stroke="#56d8c9" stroke-width="2" d="M105,-540C99,-540 93,-534 93,-528"/>
<polyline fill="none" stroke="#56d8c9" stroke-width="2" points="93,-528 93,-516 "/>
<path fill="none" stroke="#56d8c9" stroke-width="2" d="M93,-516C93,-510 99,-504 105,-504"/>
<polyline fill="none" stroke="#56d8c9" stroke-width="2" points="105,-504 275,-504 "/>
<path fill="none" stroke="#56d8c9" stroke-width="2" d="M275,-504C281,-504 287,-510 287,-516"/>
<polyline fill="none" stroke="#56d8c9" stroke-width="2" points="287,-516 287,-528 "/>
<path fill="none" stroke="#56d8c9" stroke-width="2" d="M287,-528C287,-534 281,-540 275,-540"/>
<text text-anchor="middle" x="190" y="-519.5" font-family="sans" font-size="10.00">CreateTargetsForIndelRealignment</text>
</g>
<!-- 12 -->
<g id="node13" class="node"><title>12</title>
<polyline fill="none" stroke="#70d856" stroke-width="2" points="281,-468 223,-468 "/>
<path fill="none" stroke="#70d856" stroke-width="2" d="M223,-468C217,-468 211,-462 211,-456"/>
<polyline fill="none" stroke="#70d856" stroke-width="2" points="211,-456 211,-444 "/>
<path fill="none" stroke="#70d856" stroke-width="2" d="M211,-444C211,-438 217,-432 223,-432"/>
<polyline fill="none" stroke="#70d856" stroke-width="2" points="223,-432 281,-432 "/>
<path fill="none" stroke="#70d856" stroke-width="2" d="M281,-432C287,-432 293,-438 293,-444"/>
<polyline fill="none" stroke="#70d856" stroke-width="2" points="293,-444 293,-456 "/>
<path fill="none" stroke="#70d856" stroke-width="2" d="M293,-456C293,-462 287,-468 281,-468"/>
<text text-anchor="middle" x="252" y="-447.5" font-family="sans" font-size="10.00">RealignIndels</text>
</g>
<!-- 10&#45;&gt;12 -->
<g id="edge34" class="edge"><title>10&#45;&gt;12</title>
<path fill="none" stroke="grey" stroke-width="2" d="M205.645,-503.831C212.859,-495.454 221.557,-485.353 229.46,-476.175"/>
<polygon fill="grey" stroke="grey" points="232.271,-478.275 236.144,-468.413 226.967,-473.707 232.271,-478.275"/>
</g>
<!-- 11 -->
<g id="node12" class="node"><title>11</title>
<polyline fill="none" stroke="#d87556" stroke-width="2" points="309,-612 195,-612 "/>
<path fill="none" stroke="#d87556" stroke-width="2" d="M195,-612C189,-612 183,-606 183,-600"/>
<polyline fill="none" stroke="#d87556" stroke-width="2" points="183,-600 183,-588 "/>
<path fill="none" stroke="#d87556" stroke-width="2" d="M183,-588C183,-582 189,-576 195,-576"/>
<polyline fill="none" stroke="#d87556" stroke-width="2" points="195,-576 309,-576 "/>
<path fill="none" stroke="#d87556" stroke-width="2" d="M309,-576C315,-576 321,-582 321,-588"/>
<polyline fill="none" stroke="#d87556" stroke-width="2" points="321,-588 321,-600 "/>
<path fill="none" stroke="#d87556" stroke-width="2" d="M321,-600C321,-606 315,-612 309,-612"/>
<text text-anchor="middle" x="252" y="-591.5" font-family="sans" font-size="10.00">SamAlignmentExtractor</text>
</g>
<!-- 11&#45;&gt;10 -->
<g id="edge30" class="edge"><title>11&#45;&gt;10</title>
<path fill="none" stroke="grey" stroke-width="2" d="M236.355,-575.831C229.141,-567.454 220.443,-557.353 212.54,-548.175"/>
<polygon fill="grey" stroke="grey" points="215.033,-545.707 205.856,-540.413 209.729,-550.275 215.033,-545.707"/>
</g>
<!-- 11&#45;&gt;12 -->
<g id="edge36" class="edge"><title>11&#45;&gt;12</title>
<path fill="none" stroke="grey" stroke-width="2" d="M272.403,-575.563C281.494,-565.967 291.216,-553.444 296,-540 301.364,-524.926 301.364,-519.074 296,-504 292.412,-493.917 286.047,-484.352 279.252,-476.151"/>
<polygon fill="grey" stroke="grey" points="281.66,-473.591 272.403,-468.437 276.425,-478.239 281.66,-473.591"/>
</g>
<!-- 12&#45;&gt;1 -->
<g id="edge4" class="edge"><title>12&#45;&gt;1</title>
<path fill="none" stroke="grey" stroke-width="2" d="M242.842,-431.513C238.299,-421.312 233.3,-408.259 231,-396 228.05,-380.274 228.05,-375.726 231,-360 232.635,-351.284 235.634,-342.168 238.864,-333.96"/>
<polygon fill="grey" stroke="grey" points="242.197,-335.062 242.842,-324.487 235.743,-332.352 242.197,-335.062"/>
</g>
<!-- 16 -->
<g id="node17" class="node"><title>16</title>
<polyline fill="none" stroke="#5673d8" stroke-width="2" points="332,-396 252,-396 "/>
<path fill="none" stroke="#5673d8" stroke-width="2" d="M252,-396C246,-396 240,-390 240,-384"/>
<polyline fill="none" stroke="#5673d8" stroke-width="2" points="240,-384 240,-372 "/>
<path fill="none" stroke="#5673d8" stroke-width="2" d="M240,-372C240,-366 246,-360 252,-360"/>
<polyline fill="none" stroke="#5673d8" stroke-width="2" points="252,-360 332,-360 "/>
<path fill="none" stroke="#5673d8" stroke-width="2" d="M332,-360C338,-360 344,-366 344,-372"/>
<polyline fill="none" stroke="#5673d8" stroke-width="2" points="344,-372 344,-384 "/>
<path fill="none" stroke="#5673d8" stroke-width="2" d="M344,-384C344,-390 338,-396 332,-396"/>
<text text-anchor="middle" x="292" y="-375.5" font-family="sans" font-size="10.00">RecalibrateBases</text>
</g>
<!-- 12&#45;&gt;16 -->
<g id="edge42" class="edge"><title>12&#45;&gt;16</title>
<path fill="none" stroke="grey" stroke-width="2" d="M262.094,-431.831C266.56,-423.792 271.907,-414.167 276.838,-405.292"/>
<polygon fill="grey" stroke="grey" points="279.973,-406.855 281.77,-396.413 273.854,-403.455 279.973,-406.855"/>
</g>
<!-- 13 -->
<g id="node14" class="node"><title>13</title>
<polyline fill="none" stroke="#56d892" stroke-width="2" points="84,-108 16,-108 "/>
<path fill="none" stroke="#56d892" stroke-width="2" d="M16,-108C10,-108 4,-102 4,-96"/>
<polyline fill="none" stroke="#56d892" stroke-width="2" points="4,-96 4,-84 "/>
<path fill="none" stroke="#56d892" stroke-width="2" d="M4,-84C4,-78 10,-72 16,-72"/>
<polyline fill="none" stroke="#56d892" stroke-width="2" points="16,-72 84,-72 "/>
<path fill="none" stroke="#56d892" stroke-width="2" d="M84,-72C90,-72 96,-78 96,-84"/>
<polyline fill="none" stroke="#56d892" stroke-width="2" points="96,-84 96,-96 "/>
<path fill="none" stroke="#56d892" stroke-width="2" d="M96,-96C96,-102 90,-108 84,-108"/>
<text text-anchor="middle" x="50" y="-87.5" font-family="sans" font-size="10.00">CheckGzipFiles</text>
</g>
<!-- 13&#45;&gt;8 -->
<g id="edge18" class="edge"><title>13&#45;&gt;8</title>
<path fill="none" stroke="grey" stroke-width="2" d="M75.4866,-71.8314C88.1659,-62.7927 103.66,-51.7476 117.306,-42.0198"/>
<polygon fill="grey" stroke="grey" points="119.41,-44.8176 125.522,-36.1628 115.347,-39.1176 119.41,-44.8176"/>
</g>
<!-- 14&#45;&gt;11 -->
<g id="edge32" class="edge"><title>14&#45;&gt;11</title>
<path fill="none" stroke="grey" stroke-width="2" d="M252,-647.831C252,-640.131 252,-630.974 252,-622.417"/>
<polygon fill="grey" stroke="grey" points="255.5,-622.413 252,-612.413 248.5,-622.413 255.5,-622.413"/>
</g>
<!-- 15&#45;&gt;0 -->
<g id="edge2" class="edge"><title>15&#45;&gt;0</title>
<path fill="none" stroke="grey" stroke-width="2" d="M252,-935.831C252,-928.131 252,-918.974 252,-910.417"/>
<polygon fill="grey" stroke="grey" points="255.5,-910.413 252,-900.413 248.5,-910.413 255.5,-910.413"/>
</g>
<!-- 16&#45;&gt;1 -->
<g id="edge6" class="edge"><title>16&#45;&gt;1</title>
<path fill="none" stroke="grey" stroke-width="2" d="M281.906,-359.831C277.44,-351.792 272.093,-342.167 267.162,-333.292"/>
<polygon fill="grey" stroke="grey" points="270.146,-331.455 262.23,-324.413 264.027,-334.855 270.146,-331.455"/>
</g>
<!-- 17 -->
<g id="node18" class="node"><title>17</title>
<polyline fill="none" stroke="#56d8a9" stroke-width="2" points="176,-108 126,-108 "/>
<path fill="none" stroke="#56d8a9" stroke-width="2" d="M126,-108C120,-108 114,-102 114,-96"/>
<polyline fill="none" stroke="#56d8a9" stroke-width="2" points="114,-96 114,-84 "/>
<path fill="none" stroke="#56d8a9" stroke-width="2" d="M114,-84C114,-78 120,-72 126,-72"/>
<polyline fill="none" stroke="#56d8a9" stroke-width="2" points="126,-72 176,-72 "/>
<path fill="none" stroke="#56d8a9" stroke-width="2" d="M176,-72C182,-72 188,-78 188,-84"/>
<polyline fill="none" stroke="#56d8a9" stroke-width="2" points="188,-84 188,-96 "/>
<path fill="none" stroke="#56d8a9" stroke-width="2" d="M188,-96C188,-102 182,-108 176,-108"/>
<text text-anchor="middle" x="151" y="-87.5" font-family="sans" font-size="10.00">CountFastq</text>
</g>
<!-- 17&#45;&gt;8 -->
<g id="edge20" class="edge"><title>17&#45;&gt;8</title>
<path fill="none" stroke="grey" stroke-width="2" d="M151,-71.8314C151,-64.131 151,-54.9743 151,-46.4166"/>
<polygon fill="grey" stroke="grey" points="154.5,-46.4132 151,-36.4133 147.5,-46.4133 154.5,-46.4132"/>
</g>
</g>
</svg>
