<?xml version="1.0" encoding="UTF-8" standalone="no"?>
<!DOCTYPE svg PUBLIC "-//W3C//DTD SVG 1.1//EN"
 "http://www.w3.org/Graphics/SVG/1.1/DTD/svg11.dtd">
<!-- Generated by graphviz version 2.30.1 (20201013.1554)
 -->
<!-- Title: snakemake_dag Pages: 1 -->
<svg width="639pt" height="404pt"
 viewBox="0.00 0.00 639.00 404.00" xmlns="http://www.w3.org/2000/svg" xmlns:xlink="http://www.w3.org/1999/xlink">
<g id="graph0" class="graph" transform="scale(1 1) rotate(0) translate(4 400)">
<title>snakemake_dag</title>
<polygon fill="white" stroke="white" points="-4,5 -4,-400 636,-400 636,5 -4,5"/>
<!-- 0 -->
<g id="node1" class="node"><title>0</title>
<path fill="none" stroke="#567bd8" stroke-width="2" d="M340.25,-36C340.25,-36 309.75,-36 309.75,-36 303.75,-36 297.75,-30 297.75,-24 297.75,-24 297.75,-12 297.75,-12 297.75,-6 303.75,-0 309.75,-0 309.75,-0 340.25,-0 340.25,-0 346.25,-0 352.25,-6 352.25,-12 352.25,-12 352.25,-24 352.25,-24 352.25,-30 346.25,-36 340.25,-36"/>
<text text-anchor="middle" x="325" y="-15.5" font-family="sans" font-size="10.00">MultiQC</text>
</g>
<!-- 1 -->
<g id="node2" class="node"><title>1</title>
<path fill="none" stroke="#68d856" stroke-width="2" d="M404.25,-108C404.25,-108 359.75,-108 359.75,-108 353.75,-108 347.75,-102 347.75,-96 347.75,-96 347.75,-84 347.75,-84 347.75,-78 353.75,-72 359.75,-72 359.75,-72 404.25,-72 404.25,-72 410.25,-72 416.25,-78 416.25,-84 416.25,-84 416.25,-96 416.25,-96 416.25,-102 410.25,-108 404.25,-108"/>
<text text-anchor="middle" x="382" y="-87.5" font-family="sans" font-size="10.00">BamPileup</text>
</g>
<!-- 1&#45;&gt;0 -->
<g id="edge1" class="edge"><title>1&#45;&gt;0</title>
<path fill="none" stroke="grey" stroke-width="2" d="M367.91,-71.6966C361.077,-63.3046 352.743,-53.0705 345.244,-43.8613"/>
<polygon fill="grey" stroke="grey" points="347.956,-41.6487 338.928,-36.1043 342.528,-46.0687 347.956,-41.6487"/>
</g>
<!-- 2 -->
<g id="node3" class="node"><title>2</title>
<path fill="none" stroke="#56d892" stroke-width="2" d="M341,-252C341,-252 279,-252 279,-252 273,-252 267,-246 267,-240 267,-240 267,-228 267,-228 267,-222 273,-216 279,-216 279,-216 341,-216 341,-216 347,-216 353,-222 353,-228 353,-228 353,-240 353,-240 353,-246 347,-252 341,-252"/>
<text text-anchor="middle" x="310" y="-231.5" font-family="sans" font-size="10.00">StarAlignment</text>
</g>
<!-- 2&#45;&gt;1 -->
<g id="edge9" class="edge"><title>2&#45;&gt;1</title>
<path fill="none" stroke="grey" stroke-width="2" d="M318.685,-215.871C331.118,-191.35 354.096,-146.032 368.686,-117.259"/>
<polygon fill="grey" stroke="grey" points="371.884,-118.691 373.284,-108.189 365.64,-115.525 371.884,-118.691"/>
</g>
<!-- 5 -->
<g id="node6" class="node"><title>5</title>
<path fill="none" stroke="#56d0d8" stroke-width="2" d="M306.25,-180C306.25,-180 241.75,-180 241.75,-180 235.75,-180 229.75,-174 229.75,-168 229.75,-168 229.75,-156 229.75,-156 229.75,-150 235.75,-144 241.75,-144 241.75,-144 306.25,-144 306.25,-144 312.25,-144 318.25,-150 318.25,-156 318.25,-156 318.25,-168 318.25,-168 318.25,-174 312.25,-180 306.25,-180"/>
<text text-anchor="middle" x="274" y="-159.5" font-family="sans" font-size="10.00">SamtoolsIndex</text>
</g>
<!-- 2&#45;&gt;5 -->
<g id="edge13" class="edge"><title>2&#45;&gt;5</title>
<path fill="none" stroke="grey" stroke-width="2" d="M301.101,-215.697C297.003,-207.728 292.051,-198.1 287.507,-189.264"/>
<polygon fill="grey" stroke="grey" points="290.483,-187.396 282.797,-180.104 284.258,-190.598 290.483,-187.396"/>
</g>
<!-- 8 -->
<g id="node9" class="node"><title>8</title>
<path fill="none" stroke="#56d8b9" stroke-width="2" d="M515,-108C515,-108 485,-108 485,-108 479,-108 473,-102 473,-96 473,-96 473,-84 473,-84 473,-78 479,-72 485,-72 485,-72 515,-72 515,-72 521,-72 527,-78 527,-84 527,-84 527,-96 527,-96 527,-102 521,-108 515,-108"/>
<text text-anchor="middle" x="500" y="-87.5" font-family="sans" font-size="10.00">RSEM</text>
</g>
<!-- 2&#45;&gt;8 -->
<g id="edge16" class="edge"><title>2&#45;&gt;8</title>
<path fill="none" stroke="grey" stroke-width="2" d="M353.169,-229.857C389.809,-224.927 441.336,-212.298 473,-180 489.118,-163.559 495.658,-137.82 498.288,-118.243"/>
<polygon fill="grey" stroke="grey" points="501.79,-118.417 499.383,-108.099 494.83,-117.665 501.79,-118.417"/>
</g>
<!-- 9 -->
<g id="node10" class="node"><title>9</title>
<path fill="none" stroke="#8fd856" stroke-width="2" d="M177,-108C177,-108 115,-108 115,-108 109,-108 103,-102 103,-96 103,-96 103,-84 103,-84 103,-78 109,-72 115,-72 115,-72 177,-72 177,-72 183,-72 189,-78 189,-84 189,-84 189,-96 189,-96 189,-102 183,-108 177,-108"/>
<text text-anchor="middle" x="146" y="-87.5" font-family="sans" font-size="10.00">FeatureCounts</text>
</g>
<!-- 2&#45;&gt;9 -->
<g id="edge17" class="edge"><title>2&#45;&gt;9</title>
<path fill="none" stroke="grey" stroke-width="2" d="M268.382,-215.866C249.614,-206.901 227.918,-194.712 211,-180 190.279,-161.981 172.363,-136.194 160.618,-117.012"/>
<polygon fill="grey" stroke="grey" points="163.488,-114.99 155.363,-108.189 157.473,-118.571 163.488,-114.99"/>
</g>
<!-- 10 -->
<g id="node11" class="node"><title>10</title>
<path fill="none" stroke="#d8cb56" stroke-width="2" d="M317,-108C317,-108 219,-108 219,-108 213,-108 207,-102 207,-96 207,-96 207,-84 207,-84 207,-78 213,-72 219,-72 219,-72 317,-72 317,-72 323,-72 329,-78 329,-84 329,-84 329,-96 329,-96 329,-102 323,-108 317,-108"/>
<text text-anchor="middle" x="268" y="-87.5" font-family="sans" font-size="10.00">CollectRnaSeqMetrics</text>
</g>
<!-- 2&#45;&gt;10 -->
<g id="edge19" class="edge"><title>2&#45;&gt;10</title>
<path fill="none" stroke="grey" stroke-width="2" d="M266.645,-218.515C248.896,-210.2 230.169,-197.789 220,-180 212.06,-166.109 214.244,-158.929 220,-144 224.103,-133.358 231.443,-123.528 239.169,-115.298"/>
<polygon fill="grey" stroke="grey" points="241.67,-117.747 246.29,-108.213 236.733,-112.785 241.67,-117.747"/>
</g>
<!-- 11 -->
<g id="node12" class="node"><title>11</title>
<path fill="none" stroke="#56d86b" stroke-width="2" d="M619,-180C619,-180 533,-180 533,-180 527,-180 521,-174 521,-168 521,-168 521,-156 521,-156 521,-150 527,-144 533,-144 533,-144 619,-144 619,-144 625,-144 631,-150 631,-156 631,-156 631,-168 631,-168 631,-174 625,-180 619,-180"/>
<text text-anchor="middle" x="576" y="-159.5" font-family="sans" font-size="10.00">BedGraphToBigWig</text>
</g>
<!-- 2&#45;&gt;11 -->
<g id="edge21" class="edge"><title>2&#45;&gt;11</title>
<path fill="none" stroke="grey" stroke-width="2" d="M353.033,-221.675C395.677,-210.453 461.551,-193.118 510.656,-180.196"/>
<polygon fill="grey" stroke="grey" points="511.773,-183.521 520.553,-177.591 509.991,-176.752 511.773,-183.521"/>
</g>
<!-- 12 -->
<g id="node13" class="node"><title>12</title>
<path fill="none" stroke="#d85656" stroke-width="2" d="M452.25,-180C452.25,-180 387.75,-180 387.75,-180 381.75,-180 375.75,-174 375.75,-168 375.75,-168 375.75,-156 375.75,-156 375.75,-150 381.75,-144 387.75,-144 387.75,-144 452.25,-144 452.25,-144 458.25,-144 464.25,-150 464.25,-156 464.25,-156 464.25,-168 464.25,-168 464.25,-174 458.25,-180 452.25,-180"/>
<text text-anchor="middle" x="420" y="-159.5" font-family="sans" font-size="10.00">SamtoolsCram</text>
</g>
<!-- 2&#45;&gt;12 -->
<g id="edge22" class="edge"><title>2&#45;&gt;12</title>
<path fill="none" stroke="grey" stroke-width="2" d="M336.909,-215.876C351.158,-206.808 368.846,-195.552 384.236,-185.759"/>
<polygon fill="grey" stroke="grey" points="386.43,-188.511 392.988,-180.19 382.672,-182.606 386.43,-188.511"/>
</g>
<!-- 3 -->
<g id="node4" class="node"><title>3</title>
<path fill="none" stroke="#d87d56" stroke-width="2" d="M138.25,-324C138.25,-324 101.75,-324 101.75,-324 95.75,-324 89.75,-318 89.75,-312 89.75,-312 89.75,-300 89.75,-300 89.75,-294 95.75,-288 101.75,-288 101.75,-288 138.25,-288 138.25,-288 144.25,-288 150.25,-294 150.25,-300 150.25,-300 150.25,-312 150.25,-312 150.25,-318 144.25,-324 138.25,-324"/>
<text text-anchor="middle" x="120" y="-303.5" font-family="sans" font-size="10.00">Cutadapt</text>
</g>
<!-- 3&#45;&gt;2 -->
<g id="edge11" class="edge"><title>3&#45;&gt;2</title>
<path fill="none" stroke="grey" stroke-width="2" d="M150.527,-293.753C179.292,-283.155 222.99,-267.056 257.374,-254.389"/>
<polygon fill="grey" stroke="grey" points="258.631,-257.655 266.804,-250.914 256.211,-251.087 258.631,-257.655"/>
</g>
<!-- 6 -->
<g id="node7" class="node"><title>6</title>
<path fill="none" stroke="#d8a456" stroke-width="2" d="M62.25,-252C62.25,-252 11.75,-252 11.75,-252 5.75,-252 -0.25,-246 -0.25,-240 -0.25,-240 -0.25,-228 -0.25,-228 -0.25,-222 5.75,-216 11.75,-216 11.75,-216 62.25,-216 62.25,-216 68.25,-216 74.25,-222 74.25,-228 74.25,-228 74.25,-240 74.25,-240 74.25,-246 68.25,-252 62.25,-252"/>
<text text-anchor="middle" x="37" y="-231.5" font-family="sans" font-size="10.00">FastqScreen</text>
</g>
<!-- 3&#45;&gt;6 -->
<g id="edge14" class="edge"><title>3&#45;&gt;6</title>
<path fill="none" stroke="grey" stroke-width="2" d="M99.4831,-287.697C89.1305,-278.965 76.4137,-268.24 65.161,-258.75"/>
<polygon fill="grey" stroke="grey" points="67.1817,-255.876 57.2809,-252.104 62.6687,-261.227 67.1817,-255.876"/>
</g>
<!-- 7 -->
<g id="node8" class="node"><title>7</title>
<path fill="none" stroke="#56a9d8" stroke-width="2" d="M135,-252C135,-252 105,-252 105,-252 99,-252 93,-246 93,-240 93,-240 93,-228 93,-228 93,-222 99,-216 105,-216 105,-216 135,-216 135,-216 141,-216 147,-222 147,-228 147,-228 147,-240 147,-240 147,-246 141,-252 135,-252"/>
<text text-anchor="middle" x="120" y="-231.5" font-family="sans" font-size="10.00">FastQC</text>
</g>
<!-- 3&#45;&gt;7 -->
<g id="edge15" class="edge"><title>3&#45;&gt;7</title>
<path fill="none" stroke="grey" stroke-width="2" d="M120,-287.697C120,-279.983 120,-270.712 120,-262.112"/>
<polygon fill="grey" stroke="grey" points="123.5,-262.104 120,-252.104 116.5,-262.104 123.5,-262.104"/>
</g>
<!-- 4 -->
<g id="node5" class="node"><title>4</title>
<path fill="none" stroke="#b6d856" stroke-width="2" d="M142,-396C142,-396 98,-396 98,-396 92,-396 86,-390 86,-384 86,-384 86,-372 86,-372 86,-366 92,-360 98,-360 98,-360 142,-360 142,-360 148,-360 154,-366 154,-372 154,-372 154,-384 154,-384 154,-390 148,-396 142,-396"/>
<text text-anchor="middle" x="120" y="-375.5" font-family="sans" font-size="10.00">CheckFiles</text>
</g>
<!-- 4&#45;&gt;3 -->
<g id="edge12" class="edge"><title>4&#45;&gt;3</title>
<path fill="none" stroke="grey" stroke-width="2" d="M120,-359.697C120,-351.983 120,-342.712 120,-334.112"/>
<polygon fill="grey" stroke="grey" points="123.5,-334.104 120,-324.104 116.5,-334.104 123.5,-334.104"/>
</g>
<!-- 5&#45;&gt;1 -->
<g id="edge10" class="edge"><title>5&#45;&gt;1</title>
<path fill="none" stroke="grey" stroke-width="2" d="M300.42,-143.876C314.41,-134.808 331.776,-123.552 346.886,-113.759"/>
<polygon fill="grey" stroke="grey" points="348.991,-116.566 355.479,-108.19 345.183,-110.692 348.991,-116.566"/>
</g>
<!-- 5&#45;&gt;9 -->
<g id="edge18" class="edge"><title>5&#45;&gt;9</title>
<path fill="none" stroke="grey" stroke-width="2" d="M242.688,-143.876C225.797,-134.639 204.753,-123.131 186.615,-113.212"/>
<polygon fill="grey" stroke="grey" points="187.886,-109.917 177.433,-108.19 184.527,-116.059 187.886,-109.917"/>
</g>
<!-- 5&#45;&gt;10 -->
<g id="edge20" class="edge"><title>5&#45;&gt;10</title>
<path fill="none" stroke="grey" stroke-width="2" d="M272.517,-143.697C271.856,-135.983 271.061,-126.712 270.324,-118.112"/>
<polygon fill="grey" stroke="grey" points="273.807,-117.769 269.466,-108.104 266.833,-118.367 273.807,-117.769"/>
</g>
<!-- 6&#45;&gt;0 -->
<g id="edge2" class="edge"><title>6&#45;&gt;0</title>
<path fill="none" stroke="grey" stroke-width="2" d="M35.7047,-215.834C34.2377,-182.927 36.1036,-110.797 76,-72 105.728,-43.0907 225.656,-28.0864 287.581,-22.1348"/>
<polygon fill="grey" stroke="grey" points="288.084,-25.6032 297.717,-21.1918 287.436,-18.6333 288.084,-25.6032"/>
</g>
<!-- 7&#45;&gt;0 -->
<g id="edge3" class="edge"><title>7&#45;&gt;0</title>
<path fill="none" stroke="grey" stroke-width="2" d="M109.587,-215.816C91.69,-183.823 60.13,-114.521 94,-72 117.761,-42.1703 228.23,-27.7509 287.378,-22.065"/>
<polygon fill="grey" stroke="grey" points="287.811,-25.5399 297.447,-21.1338 287.167,-18.5697 287.811,-25.5399"/>
</g>
<!-- 8&#45;&gt;0 -->
<g id="edge4" class="edge"><title>8&#45;&gt;0</title>
<path fill="none" stroke="grey" stroke-width="2" d="M472.679,-77.5984C468.116,-75.7155 463.428,-73.7936 459,-72 426.164,-58.7 388.653,-43.8967 361.686,-33.323"/>
<polygon fill="grey" stroke="grey" points="362.844,-30.0176 352.257,-29.6293 360.291,-36.5355 362.844,-30.0176"/>
</g>
<!-- 9&#45;&gt;0 -->
<g id="edge5" class="edge"><title>9&#45;&gt;0</title>
<path fill="none" stroke="grey" stroke-width="2" d="M189.331,-72.055C219.504,-60.2555 259.318,-44.6859 288.002,-33.4686"/>
<polygon fill="grey" stroke="grey" points="289.611,-36.5975 297.649,-29.6958 287.061,-30.0782 289.611,-36.5975"/>
</g>
<!-- 10&#45;&gt;0 -->
<g id="edge6" class="edge"><title>10&#45;&gt;0</title>
<path fill="none" stroke="grey" stroke-width="2" d="M282.09,-71.6966C288.923,-63.3046 297.257,-53.0705 304.756,-43.8613"/>
<polygon fill="grey" stroke="grey" points="307.472,-46.0687 311.072,-36.1043 302.044,-41.6487 307.472,-46.0687"/>
</g>
<!-- 11&#45;&gt;0 -->
<g id="edge7" class="edge"><title>11&#45;&gt;0</title>
<path fill="none" stroke="grey" stroke-width="2" d="M572.965,-143.877C568.472,-123.671 558.077,-90.4918 536,-72 486.305,-30.3751 408.404,-20.7412 362.454,-18.9122"/>
<polygon fill="grey" stroke="grey" points="362.425,-15.4099 352.327,-18.6154 362.22,-22.4069 362.425,-15.4099"/>
</g>
<!-- 12&#45;&gt;0 -->
<g id="edge8" class="edge"><title>12&#45;&gt;0</title>
<path fill="none" stroke="grey" stroke-width="2" d="M426.331,-143.896C432.211,-124.899 438.246,-94.0116 425,-72 411.409,-49.4154 384.603,-35.9468 362.163,-28.2418"/>
<polygon fill="grey" stroke="grey" points="363.135,-24.8783 352.545,-25.189 361.017,-31.5503 363.135,-24.8783"/>
</g>
</g>
</svg>
