<?xml version="1.0" encoding="UTF-8" standalone="no"?>
<!DOCTYPE svg PUBLIC "-//W3C//DTD SVG 1.1//EN"
 "http://www.w3.org/Graphics/SVG/1.1/DTD/svg11.dtd">
<!-- Generated by graphviz version 2.40.1 (20161225.0304)
 -->
<!-- Title: snakemake_dag Pages: 1 -->
<svg width="347pt" height="620pt"
 viewBox="0.00 0.00 347.00 620.00" xmlns="http://www.w3.org/2000/svg" xmlns:xlink="http://www.w3.org/1999/xlink">
<g id="graph0" class="graph" transform="scale(1 1) rotate(0) translate(4 616)">
<title>snakemake_dag</title>
<polygon fill="#ffffff" stroke="transparent" points="-4,4 -4,-616 343,-616 343,4 -4,4"/>
<!-- 0 -->
<g id="node1" class="node">
<title>0</title>
<path fill="none" stroke="#56a9d8" stroke-width="2" d="M180,-36C180,-36 146,-36 146,-36 140,-36 134,-30 134,-24 134,-24 134,-12 134,-12 134,-6 140,0 146,0 146,0 180,0 180,0 186,0 192,-6 192,-12 192,-12 192,-24 192,-24 192,-30 186,-36 180,-36"/>
<text text-anchor="middle" x="163" y="-15.5" font-family="sans" font-size="10.00" fill="#000000">VcfTabix</text>
</g>
<!-- 1 -->
<g id="node2" class="node">
<title>1</title>
<path fill="none" stroke="#56d8a9" stroke-width="2" d="M303.5,-324C303.5,-324 266.5,-324 266.5,-324 260.5,-324 254.5,-318 254.5,-312 254.5,-312 254.5,-300 254.5,-300 254.5,-294 260.5,-288 266.5,-288 266.5,-288 303.5,-288 303.5,-288 309.5,-288 315.5,-294 315.5,-300 315.5,-300 315.5,-312 315.5,-312 315.5,-318 309.5,-324 303.5,-324"/>
<text text-anchor="middle" x="285" y="-303.5" font-family="sans" font-size="10.00" fill="#000000">BedTabix</text>
</g>
<!-- 1&#45;&gt;0 -->
<g id="edge1" class="edge">
<title>1&#45;&gt;0</title>
<path fill="none" stroke="#c0c0c0" stroke-width="2" d="M284.5196,-287.7903C283.6773,-269.4084 281.3614,-240.3362 275,-216 257.4221,-148.754 252.0188,-130.1858 214,-72 207.3443,-61.8138 198.6662,-51.8003 190.3609,-43.216"/>
<polygon fill="#c0c0c0" stroke="#c0c0c0" stroke-width="2" points="192.7638,-40.6692 183.2184,-36.0718 187.8135,-45.6183 192.7638,-40.6692"/>
</g>
<!-- 7 -->
<g id="node8" class="node">
<title>7</title>
<path fill="none" stroke="#afd856" stroke-width="2" d="M254,-252C254,-252 134,-252 134,-252 128,-252 122,-246 122,-240 122,-240 122,-228 122,-228 122,-222 128,-216 134,-216 134,-216 254,-216 254,-216 260,-216 266,-222 266,-228 266,-228 266,-240 266,-240 266,-246 260,-252 254,-252"/>
<text text-anchor="middle" x="194" y="-231.5" font-family="sans" font-size="10.00" fill="#000000">FindSharedRegionsForTMB</text>
</g>
<!-- 1&#45;&gt;7 -->
<g id="edge12" class="edge">
<title>1&#45;&gt;7</title>
<path fill="none" stroke="#c0c0c0" stroke-width="2" d="M262.0369,-287.8314C250.8285,-278.9632 237.1791,-268.1637 225.0561,-258.5718"/>
<polygon fill="#c0c0c0" stroke="#c0c0c0" stroke-width="2" points="226.9697,-255.6229 216.9558,-252.1628 222.6263,-261.1125 226.9697,-255.6229"/>
</g>
<!-- 2 -->
<g id="node3" class="node">
<title>2</title>
<path fill="none" stroke="#56d882" stroke-width="2" d="M92,-252C92,-252 12,-252 12,-252 6,-252 0,-246 0,-240 0,-240 0,-228 0,-228 0,-222 6,-216 12,-216 12,-216 92,-216 92,-216 98,-216 104,-222 104,-228 104,-228 104,-240 104,-240 104,-246 98,-252 92,-252"/>
<text text-anchor="middle" x="52" y="-231.5" font-family="sans" font-size="10.00" fill="#000000">VCFCallFrequency</text>
</g>
<!-- 2&#45;&gt;0 -->
<g id="edge2" class="edge">
<title>2&#45;&gt;0</title>
<path fill="none" stroke="#c0c0c0" stroke-width="2" d="M54.1374,-215.9471C56.712,-197.4368 61.8742,-168.0366 71,-144 84.0706,-109.5731 90.0901,-101.5974 112,-72 119.3583,-62.0599 128.3612,-51.9886 136.7436,-43.2796"/>
<polygon fill="#c0c0c0" stroke="#c0c0c0" stroke-width="2" points="139.3737,-45.5969 143.8933,-36.0145 134.3845,-40.687 139.3737,-45.5969"/>
</g>
<!-- 6 -->
<g id="node7" class="node">
<title>6</title>
<path fill="none" stroke="#d6d856" stroke-width="2" d="M160,-180C160,-180 92,-180 92,-180 86,-180 80,-174 80,-168 80,-168 80,-156 80,-156 80,-150 86,-144 92,-144 92,-144 160,-144 160,-144 166,-144 172,-150 172,-156 172,-156 172,-168 172,-168 172,-174 166,-180 160,-180"/>
<text text-anchor="middle" x="126" y="-159.5" font-family="sans" font-size="10.00" fill="#000000">FilterVcfForTMB</text>
</g>
<!-- 2&#45;&gt;6 -->
<g id="edge9" class="edge">
<title>2&#45;&gt;6</title>
<path fill="none" stroke="#c0c0c0" stroke-width="2" d="M70.6733,-215.8314C79.5249,-207.219 90.2486,-196.7851 99.8895,-187.4048"/>
<polygon fill="#c0c0c0" stroke="#c0c0c0" stroke-width="2" points="102.6061,-189.645 107.3326,-180.1628 97.7246,-184.6279 102.6061,-189.645"/>
</g>
<!-- 3 -->
<g id="node4" class="node">
<title>3</title>
<path fill="none" stroke="#80d856" stroke-width="2" d="M192.5,-108C192.5,-108 133.5,-108 133.5,-108 127.5,-108 121.5,-102 121.5,-96 121.5,-96 121.5,-84 121.5,-84 121.5,-78 127.5,-72 133.5,-72 133.5,-72 192.5,-72 192.5,-72 198.5,-72 204.5,-78 204.5,-84 204.5,-84 204.5,-96 204.5,-96 204.5,-102 198.5,-108 192.5,-108"/>
<text text-anchor="middle" x="163" y="-87.5" font-family="sans" font-size="10.00" fill="#000000">CalculateTMB</text>
</g>
<!-- 3&#45;&gt;0 -->
<g id="edge3" class="edge">
<title>3&#45;&gt;0</title>
<path fill="none" stroke="#c0c0c0" stroke-width="2" d="M163,-71.8314C163,-64.131 163,-54.9743 163,-46.4166"/>
<polygon fill="#c0c0c0" stroke="#c0c0c0" stroke-width="2" points="166.5001,-46.4132 163,-36.4133 159.5001,-46.4133 166.5001,-46.4132"/>
</g>
<!-- 4 -->
<g id="node5" class="node">
<title>4</title>
<path fill="none" stroke="#d88556" stroke-width="2" d="M327,-396C327,-396 243,-396 243,-396 237,-396 231,-390 231,-384 231,-384 231,-372 231,-372 231,-366 237,-360 243,-360 243,-360 327,-360 327,-360 333,-360 339,-366 339,-372 339,-372 339,-384 339,-384 339,-390 333,-396 327,-396"/>
<text text-anchor="middle" x="285" y="-375.5" font-family="sans" font-size="10.00" fill="#000000">FindSharedRegions</text>
</g>
<!-- 4&#45;&gt;1 -->
<g id="edge4" class="edge">
<title>4&#45;&gt;1</title>
<path fill="none" stroke="#c0c0c0" stroke-width="2" d="M285,-359.8314C285,-352.131 285,-342.9743 285,-334.4166"/>
<polygon fill="#c0c0c0" stroke="#c0c0c0" stroke-width="2" points="288.5001,-334.4132 285,-324.4133 281.5001,-334.4133 288.5001,-334.4132"/>
</g>
<!-- 5 -->
<g id="node6" class="node">
<title>5</title>
<path fill="none" stroke="#5682d8" stroke-width="2" d="M76,-324C76,-324 46,-324 46,-324 40,-324 34,-318 34,-312 34,-312 34,-300 34,-300 34,-294 40,-288 46,-288 46,-288 76,-288 76,-288 82,-288 88,-294 88,-300 88,-300 88,-312 88,-312 88,-318 82,-324 76,-324"/>
<text text-anchor="middle" x="61" y="-303.5" font-family="sans" font-size="10.00" fill="#000000">VCFBkz</text>
</g>
<!-- 5&#45;&gt;2 -->
<g id="edge5" class="edge">
<title>5&#45;&gt;2</title>
<path fill="none" stroke="#c0c0c0" stroke-width="2" d="M58.7289,-287.8314C57.7664,-280.131 56.6218,-270.9743 55.5521,-262.4166"/>
<polygon fill="#c0c0c0" stroke="#c0c0c0" stroke-width="2" points="59.0151,-261.9019 54.3017,-252.4133 52.0691,-262.7702 59.0151,-261.9019"/>
</g>
<!-- 6&#45;&gt;3 -->
<g id="edge6" class="edge">
<title>6&#45;&gt;3</title>
<path fill="none" stroke="#c0c0c0" stroke-width="2" d="M135.3367,-143.8314C139.4243,-135.8771 144.3104,-126.369 148.8309,-117.5723"/>
<polygon fill="#c0c0c0" stroke="#c0c0c0" stroke-width="2" points="152.0799,-118.9074 153.5376,-108.4133 145.8539,-115.7078 152.0799,-118.9074"/>
</g>
<!-- 7&#45;&gt;3 -->
<g id="edge7" class="edge">
<title>7&#45;&gt;3</title>
<path fill="none" stroke="#c0c0c0" stroke-width="2" d="M192.3431,-215.8928C190.445,-197.5907 186.8225,-168.5792 181,-144 178.9595,-135.3862 176.1431,-126.1888 173.3436,-117.8709"/>
<polygon fill="#c0c0c0" stroke="#c0c0c0" stroke-width="2" points="176.5892,-116.5485 169.9905,-108.2595 169.9798,-118.8543 176.5892,-116.5485"/>
</g>
<!-- 7&#45;&gt;6 -->
<g id="edge10" class="edge">
<title>7&#45;&gt;6</title>
<path fill="none" stroke="#c0c0c0" stroke-width="2" d="M176.8407,-215.8314C168.8489,-207.3694 159.1962,-197.1489 150.4584,-187.8971"/>
<polygon fill="#c0c0c0" stroke="#c0c0c0" stroke-width="2" points="152.8011,-185.2802 143.3903,-180.4133 147.712,-190.0866 152.8011,-185.2802"/>
</g>
<!-- 8 -->
<g id="node9" class="node">
<title>8</title>
<path fill="none" stroke="#59d856" stroke-width="2" d="M104.5,-396C104.5,-396 53.5,-396 53.5,-396 47.5,-396 41.5,-390 41.5,-384 41.5,-384 41.5,-372 41.5,-372 41.5,-366 47.5,-360 53.5,-360 53.5,-360 104.5,-360 104.5,-360 110.5,-360 116.5,-366 116.5,-372 116.5,-372 116.5,-384 116.5,-384 116.5,-390 110.5,-396 104.5,-396"/>
<text text-anchor="middle" x="79" y="-375.5" font-family="sans" font-size="10.00" fill="#000000">StrelkaFilter</text>
</g>
<!-- 8&#45;&gt;5 -->
<g id="edge8" class="edge">
<title>8&#45;&gt;5</title>
<path fill="none" stroke="#c0c0c0" stroke-width="2" d="M74.4578,-359.8314C72.5116,-352.0463 70.1932,-342.7729 68.0337,-334.1347"/>
<polygon fill="#c0c0c0" stroke="#c0c0c0" stroke-width="2" points="71.4242,-333.2658 65.6033,-324.4133 64.6332,-334.9636 71.4242,-333.2658"/>
</g>
<!-- 9 -->
<g id="node10" class="node">
<title>9</title>
<path fill="none" stroke="#d8ac56" stroke-width="2" d="M164,-540C164,-540 134,-540 134,-540 128,-540 122,-534 122,-528 122,-528 122,-516 122,-516 122,-510 128,-504 134,-504 134,-504 164,-504 164,-504 170,-504 176,-510 176,-516 176,-516 176,-528 176,-528 176,-534 170,-540 164,-540"/>
<text text-anchor="middle" x="149" y="-519.5" font-family="sans" font-size="10.00" fill="#000000">Strelka</text>
</g>
<!-- 9&#45;&gt;7 -->
<g id="edge11" class="edge">
<title>9&#45;&gt;7</title>
<path fill="none" stroke="#c0c0c0" stroke-width="2" d="M154.7987,-503.664C157.902,-493.2864 161.5736,-480.0173 164,-468 178.8648,-394.3778 187.8272,-306.1595 191.7158,-262.0337"/>
<polygon fill="#c0c0c0" stroke="#c0c0c0" stroke-width="2" points="195.2045,-262.3143 192.5747,-252.0511 188.2303,-261.7142 195.2045,-262.3143"/>
</g>
<!-- 10 -->
<g id="node11" class="node">
<title>10</title>
<path fill="none" stroke="#56d8d8" stroke-width="2" d="M143.5,-468C143.5,-468 86.5,-468 86.5,-468 80.5,-468 74.5,-462 74.5,-456 74.5,-456 74.5,-444 74.5,-444 74.5,-438 80.5,-432 86.5,-432 86.5,-432 143.5,-432 143.5,-432 149.5,-432 155.5,-438 155.5,-444 155.5,-444 155.5,-456 155.5,-456 155.5,-462 149.5,-468 143.5,-468"/>
<text text-anchor="middle" x="115" y="-447.5" font-family="sans" font-size="10.00" fill="#000000">StrelkaMerge</text>
</g>
<!-- 9&#45;&gt;10 -->
<g id="edge15" class="edge">
<title>9&#45;&gt;10</title>
<path fill="none" stroke="#c0c0c0" stroke-width="2" d="M140.4204,-503.8314C136.6642,-495.8771 132.1743,-486.369 128.0202,-477.5723"/>
<polygon fill="#c0c0c0" stroke="#c0c0c0" stroke-width="2" points="131.1301,-475.9612 123.6952,-468.4133 124.8004,-478.9503 131.1301,-475.9612"/>
</g>
<!-- 10&#45;&gt;8 -->
<g id="edge13" class="edge">
<title>10&#45;&gt;8</title>
<path fill="none" stroke="#c0c0c0" stroke-width="2" d="M105.9157,-431.8314C101.9385,-423.8771 97.1845,-414.369 92.7861,-405.5723"/>
<polygon fill="#c0c0c0" stroke="#c0c0c0" stroke-width="2" points="95.8093,-403.7923 88.2066,-396.4133 89.5483,-406.9228 95.8093,-403.7923"/>
</g>
<!-- 11 -->
<g id="node12" class="node">
<title>11</title>
<path fill="none" stroke="#d85656" stroke-width="2" d="M164,-612C164,-612 134,-612 134,-612 128,-612 122,-606 122,-600 122,-600 122,-588 122,-588 122,-582 128,-576 134,-576 134,-576 164,-576 164,-576 170,-576 176,-582 176,-588 176,-588 176,-600 176,-600 176,-606 170,-612 164,-612"/>
<text text-anchor="middle" x="149" y="-591.5" font-family="sans" font-size="10.00" fill="#000000">Manta</text>
</g>
<!-- 11&#45;&gt;9 -->
<g id="edge14" class="edge">
<title>11&#45;&gt;9</title>
<path fill="none" stroke="#c0c0c0" stroke-width="2" d="M149,-575.8314C149,-568.131 149,-558.9743 149,-550.4166"/>
<polygon fill="#c0c0c0" stroke="#c0c0c0" stroke-width="2" points="152.5001,-550.4132 149,-540.4133 145.5001,-550.4133 152.5001,-550.4132"/>
</g>
</g>
</svg>
