<?xml version="1.0" encoding="UTF-8" standalone="no"?>
<!DOCTYPE svg PUBLIC "-//W3C//DTD SVG 1.1//EN"
 "http://www.w3.org/Graphics/SVG/1.1/DTD/svg11.dtd">
<!-- Generated by graphviz version 2.40.1 (20161225.0304)
 -->
<!-- Title: snakemake_dag Pages: 1 -->
<svg width="317pt" height="620pt"
 viewBox="0.00 0.00 316.50 620.00" xmlns="http://www.w3.org/2000/svg" xmlns:xlink="http://www.w3.org/1999/xlink">
<g id="graph0" class="graph" transform="scale(1 1) rotate(0) translate(4 616)">
<title>snakemake_dag</title>
<polygon fill="#ffffff" stroke="transparent" points="-4,4 -4,-616 312.5,-616 312.5,4 -4,4"/>
<!-- 0 -->
<g id="node1" class="node">
<title>0</title>
<path fill="none" stroke="#56c9d8" stroke-width="2" d="M117.5,-36C117.5,-36 46.5,-36 46.5,-36 40.5,-36 34.5,-30 34.5,-24 34.5,-24 34.5,-12 34.5,-12 34.5,-6 40.5,0 46.5,0 46.5,0 117.5,0 117.5,0 123.5,0 129.5,-6 129.5,-12 129.5,-12 129.5,-24 129.5,-24 129.5,-30 123.5,-36 117.5,-36"/>
<text text-anchor="middle" x="82" y="-15.5" font-family="sans" font-size="10.00" fill="#000000">OrganizeResults</text>
</g>
<!-- 1 -->
<g id="node2" class="node">
<title>1</title>
<path fill="none" stroke="#56a2d8" stroke-width="2" d="M82,-252C82,-252 12,-252 12,-252 6,-252 0,-246 0,-240 0,-240 0,-228 0,-228 0,-222 6,-216 12,-216 12,-216 82,-216 82,-216 88,-216 94,-222 94,-228 94,-228 94,-240 94,-240 94,-246 88,-252 82,-252"/>
<text text-anchor="middle" x="47" y="-231.5" font-family="sans" font-size="10.00" fill="#000000">SplitMutectBam</text>
</g>
<!-- 1&#45;&gt;0 -->
<g id="edge1" class="edge">
<title>1&#45;&gt;0</title>
<path fill="none" stroke="#c0c0c0" stroke-width="2" d="M49.9239,-215.9555C56.0231,-178.3144 70.141,-91.1867 77.4428,-46.1246"/>
<polygon fill="#c0c0c0" stroke="#c0c0c0" stroke-width="2" points="80.9152,-46.5762 79.0598,-36.1451 74.0053,-45.4565 80.9152,-46.5762"/>
</g>
<!-- 2 -->
<g id="node3" class="node">
<title>2</title>
<path fill="none" stroke="#d87d56" stroke-width="2" d="M147,-108C147,-108 113,-108 113,-108 107,-108 101,-102 101,-96 101,-96 101,-84 101,-84 101,-78 107,-72 113,-72 113,-72 147,-72 147,-72 153,-72 159,-78 159,-84 159,-84 159,-96 159,-96 159,-102 153,-108 147,-108"/>
<text text-anchor="middle" x="130" y="-87.5" font-family="sans" font-size="10.00" fill="#000000">VcfTabix</text>
</g>
<!-- 2&#45;&gt;0 -->
<g id="edge2" class="edge">
<title>2&#45;&gt;0</title>
<path fill="none" stroke="#c0c0c0" stroke-width="2" d="M117.8876,-71.8314C112.4719,-63.7079 105.9758,-53.9637 100.0079,-45.0118"/>
<polygon fill="#c0c0c0" stroke="#c0c0c0" stroke-width="2" points="102.7347,-42.7923 94.2755,-36.4133 96.9104,-46.6753 102.7347,-42.7923"/>
</g>
<!-- 3 -->
<g id="node4" class="node">
<title>3</title>
<path fill="none" stroke="#d8a456" stroke-width="2" d="M104,-396C104,-396 74,-396 74,-396 68,-396 62,-390 62,-384 62,-384 62,-372 62,-372 62,-366 68,-360 74,-360 74,-360 104,-360 104,-360 110,-360 116,-366 116,-372 116,-372 116,-384 116,-384 116,-390 110,-396 104,-396"/>
<text text-anchor="middle" x="89" y="-375.5" font-family="sans" font-size="10.00" fill="#000000">Mutect</text>
</g>
<!-- 3&#45;&gt;1 -->
<g id="edge3" class="edge">
<title>3&#45;&gt;1</title>
<path fill="none" stroke="#c0c0c0" stroke-width="2" d="M67.6873,-359.7308C58.1866,-350.1756 48.021,-337.6372 43,-324 35.727,-304.2466 37.2068,-280.388 40.2464,-262.2003"/>
<polygon fill="#c0c0c0" stroke="#c0c0c0" stroke-width="2" points="43.714,-262.7013 42.1619,-252.2208 36.8395,-261.3817 43.714,-262.7013"/>
</g>
<!-- 8 -->
<g id="node9" class="node">
<title>8</title>
<path fill="none" stroke="#d85656" stroke-width="2" d="M114,-324C114,-324 64,-324 64,-324 58,-324 52,-318 52,-312 52,-312 52,-300 52,-300 52,-294 58,-288 64,-288 64,-288 114,-288 114,-288 120,-288 126,-294 126,-300 126,-300 126,-312 126,-312 126,-318 120,-324 114,-324"/>
<text text-anchor="middle" x="89" y="-303.5" font-family="sans" font-size="10.00" fill="#000000">MutectFilter</text>
</g>
<!-- 3&#45;&gt;8 -->
<g id="edge12" class="edge">
<title>3&#45;&gt;8</title>
<path fill="none" stroke="#c0c0c0" stroke-width="2" d="M89,-359.8314C89,-352.131 89,-342.9743 89,-334.4166"/>
<polygon fill="#c0c0c0" stroke="#c0c0c0" stroke-width="2" points="92.5001,-334.4132 89,-324.4133 85.5001,-334.4133 92.5001,-334.4132"/>
</g>
<!-- 4 -->
<g id="node5" class="node">
<title>4</title>
<path fill="none" stroke="#d8c356" stroke-width="2" d="M206.5,-180C206.5,-180 97.5,-180 97.5,-180 91.5,-180 85.5,-174 85.5,-168 85.5,-168 85.5,-156 85.5,-156 85.5,-150 91.5,-144 97.5,-144 97.5,-144 206.5,-144 206.5,-144 212.5,-144 218.5,-150 218.5,-156 218.5,-156 218.5,-168 218.5,-168 218.5,-174 212.5,-180 206.5,-180"/>
<text text-anchor="middle" x="152" y="-159.5" font-family="sans" font-size="10.00" fill="#000000">VCFBackgroundChecker</text>
</g>
<!-- 4&#45;&gt;2 -->
<g id="edge4" class="edge">
<title>4&#45;&gt;2</title>
<path fill="none" stroke="#c0c0c0" stroke-width="2" d="M146.4485,-143.8314C144.0697,-136.0463 141.2362,-126.7729 138.5967,-118.1347"/>
<polygon fill="#c0c0c0" stroke="#c0c0c0" stroke-width="2" points="141.8958,-116.954 135.6263,-108.4133 135.2013,-118.9996 141.8958,-116.954"/>
</g>
<!-- 5 -->
<g id="node6" class="node">
<title>5</title>
<path fill="none" stroke="#56d8a2" stroke-width="2" d="M195,-468C195,-468 165,-468 165,-468 159,-468 153,-462 153,-456 153,-456 153,-444 153,-444 153,-438 159,-432 165,-432 165,-432 195,-432 195,-432 201,-432 207,-438 207,-444 207,-444 207,-456 207,-456 207,-462 201,-468 195,-468"/>
<text text-anchor="middle" x="180" y="-447.5" font-family="sans" font-size="10.00" fill="#000000">Lofreq</text>
</g>
<!-- 5&#45;&gt;3 -->
<g id="edge5" class="edge">
<title>5&#45;&gt;3</title>
<path fill="none" stroke="#c0c0c0" stroke-width="2" d="M157.0369,-431.8314C145.8285,-422.9632 132.1791,-412.1637 120.0561,-402.5718"/>
<polygon fill="#c0c0c0" stroke="#c0c0c0" stroke-width="2" points="121.9697,-399.6229 111.9558,-396.1628 117.6263,-405.1125 121.9697,-399.6229"/>
</g>
<!-- 12 -->
<g id="node13" class="node">
<title>12</title>
<path fill="none" stroke="#56d87b" stroke-width="2" d="M206.5,-396C206.5,-396 153.5,-396 153.5,-396 147.5,-396 141.5,-390 141.5,-384 141.5,-384 141.5,-372 141.5,-372 141.5,-366 147.5,-360 153.5,-360 153.5,-360 206.5,-360 206.5,-360 212.5,-360 218.5,-366 218.5,-372 218.5,-372 218.5,-384 218.5,-384 218.5,-390 212.5,-396 206.5,-396"/>
<text text-anchor="middle" x="180" y="-375.5" font-family="sans" font-size="10.00" fill="#000000">LofreqMerge</text>
</g>
<!-- 5&#45;&gt;12 -->
<g id="edge15" class="edge">
<title>5&#45;&gt;12</title>
<path fill="none" stroke="#c0c0c0" stroke-width="2" d="M180,-431.8314C180,-424.131 180,-414.9743 180,-406.4166"/>
<polygon fill="#c0c0c0" stroke="#c0c0c0" stroke-width="2" points="183.5001,-406.4132 180,-396.4133 176.5001,-406.4133 183.5001,-406.4132"/>
</g>
<!-- 6 -->
<g id="node7" class="node">
<title>6</title>
<path fill="none" stroke="#56d8c9" stroke-width="2" d="M200,-252C200,-252 136,-252 136,-252 130,-252 124,-246 124,-240 124,-240 124,-228 124,-228 124,-222 130,-216 136,-216 136,-216 200,-216 200,-216 206,-216 212,-222 212,-228 212,-228 212,-240 212,-240 212,-246 206,-252 200,-252"/>
<text text-anchor="middle" x="168" y="-231.5" font-family="sans" font-size="10.00" fill="#000000">VCFConsensus</text>
</g>
<!-- 6&#45;&gt;4 -->
<g id="edge6" class="edge">
<title>6&#45;&gt;4</title>
<path fill="none" stroke="#c0c0c0" stroke-width="2" d="M163.9625,-215.8314C162.2513,-208.131 160.2165,-198.9743 158.3148,-190.4166"/>
<polygon fill="#c0c0c0" stroke="#c0c0c0" stroke-width="2" points="161.6779,-189.4159 156.0918,-180.4133 154.8446,-190.9344 161.6779,-189.4159"/>
</g>
<!-- 7 -->
<g id="node8" class="node">
<title>7</title>
<path fill="none" stroke="#9fd856" stroke-width="2" d="M238,-540C238,-540 208,-540 208,-540 202,-540 196,-534 196,-528 196,-528 196,-516 196,-516 196,-510 202,-504 208,-504 208,-504 238,-504 238,-504 244,-504 250,-510 250,-516 250,-516 250,-528 250,-528 250,-534 244,-540 238,-540"/>
<text text-anchor="middle" x="223" y="-519.5" font-family="sans" font-size="10.00" fill="#000000">Strelka</text>
</g>
<!-- 7&#45;&gt;5 -->
<g id="edge7" class="edge">
<title>7&#45;&gt;5</title>
<path fill="none" stroke="#c0c0c0" stroke-width="2" d="M212.1493,-503.8314C207.2977,-495.7079 201.4783,-485.9637 196.132,-477.0118"/>
<polygon fill="#c0c0c0" stroke="#c0c0c0" stroke-width="2" points="199.1292,-475.2041 190.9968,-468.4133 193.1194,-478.7933 199.1292,-475.2041"/>
</g>
<!-- 13 -->
<g id="node14" class="node">
<title>13</title>
<path fill="none" stroke="#567bd8" stroke-width="2" d="M295.5,-468C295.5,-468 238.5,-468 238.5,-468 232.5,-468 226.5,-462 226.5,-456 226.5,-456 226.5,-444 226.5,-444 226.5,-438 232.5,-432 238.5,-432 238.5,-432 295.5,-432 295.5,-432 301.5,-432 307.5,-438 307.5,-444 307.5,-444 307.5,-456 307.5,-456 307.5,-462 301.5,-468 295.5,-468"/>
<text text-anchor="middle" x="267" y="-447.5" font-family="sans" font-size="10.00" fill="#000000">StrelkaMerge</text>
</g>
<!-- 7&#45;&gt;13 -->
<g id="edge16" class="edge">
<title>7&#45;&gt;13</title>
<path fill="none" stroke="#c0c0c0" stroke-width="2" d="M234.1031,-503.8314C239.0674,-495.7079 245.0222,-485.9637 250.4928,-477.0118"/>
<polygon fill="#c0c0c0" stroke="#c0c0c0" stroke-width="2" points="253.5194,-478.7712 255.7474,-468.4133 247.5464,-475.121 253.5194,-478.7712"/>
</g>
<!-- 8&#45;&gt;6 -->
<g id="edge8" class="edge">
<title>8&#45;&gt;6</title>
<path fill="none" stroke="#c0c0c0" stroke-width="2" d="M108.935,-287.8314C118.4783,-279.1337 130.0599,-268.5783 140.4306,-259.1265"/>
<polygon fill="#c0c0c0" stroke="#c0c0c0" stroke-width="2" points="143.038,-261.4857 148.0713,-252.1628 138.3228,-256.3121 143.038,-261.4857"/>
</g>
<!-- 9 -->
<g id="node10" class="node">
<title>9</title>
<path fill="none" stroke="#78d856" stroke-width="2" d="M203.5,-324C203.5,-324 156.5,-324 156.5,-324 150.5,-324 144.5,-318 144.5,-312 144.5,-312 144.5,-300 144.5,-300 144.5,-294 150.5,-288 156.5,-288 156.5,-288 203.5,-288 203.5,-288 209.5,-288 215.5,-294 215.5,-300 215.5,-300 215.5,-312 215.5,-312 215.5,-318 209.5,-324 203.5,-324"/>
<text text-anchor="middle" x="180" y="-303.5" font-family="sans" font-size="10.00" fill="#000000">LofreqFilter</text>
</g>
<!-- 9&#45;&gt;6 -->
<g id="edge9" class="edge">
<title>9&#45;&gt;6</title>
<path fill="none" stroke="#c0c0c0" stroke-width="2" d="M176.9719,-287.8314C175.6885,-280.131 174.1624,-270.9743 172.7361,-262.4166"/>
<polygon fill="#c0c0c0" stroke="#c0c0c0" stroke-width="2" points="176.1653,-261.7018 171.0689,-252.4133 169.2606,-262.8526 176.1653,-261.7018"/>
</g>
<!-- 10 -->
<g id="node11" class="node">
<title>10</title>
<path fill="none" stroke="#c6d856" stroke-width="2" d="M296.5,-324C296.5,-324 245.5,-324 245.5,-324 239.5,-324 233.5,-318 233.5,-312 233.5,-312 233.5,-300 233.5,-300 233.5,-294 239.5,-288 245.5,-288 245.5,-288 296.5,-288 296.5,-288 302.5,-288 308.5,-294 308.5,-300 308.5,-300 308.5,-312 308.5,-312 308.5,-318 302.5,-324 296.5,-324"/>
<text text-anchor="middle" x="271" y="-303.5" font-family="sans" font-size="10.00" fill="#000000">StrelkaFilter</text>
</g>
<!-- 10&#45;&gt;6 -->
<g id="edge10" class="edge">
<title>10&#45;&gt;6</title>
<path fill="none" stroke="#c0c0c0" stroke-width="2" d="M245.0088,-287.8314C232.0784,-278.7927 216.2778,-267.7476 202.3617,-258.0198"/>
<polygon fill="#c0c0c0" stroke="#c0c0c0" stroke-width="2" points="204.1843,-255.0235 193.9829,-252.1628 200.1737,-260.7608 204.1843,-255.0235"/>
</g>
<!-- 11 -->
<g id="node12" class="node">
<title>11</title>
<path fill="none" stroke="#59d856" stroke-width="2" d="M238,-612C238,-612 208,-612 208,-612 202,-612 196,-606 196,-600 196,-600 196,-588 196,-588 196,-582 202,-576 208,-576 208,-576 238,-576 238,-576 244,-576 250,-582 250,-588 250,-588 250,-600 250,-600 250,-606 244,-612 238,-612"/>
<text text-anchor="middle" x="223" y="-591.5" font-family="sans" font-size="10.00" fill="#000000">Manta</text>
</g>
<!-- 11&#45;&gt;7 -->
<g id="edge11" class="edge">
<title>11&#45;&gt;7</title>
<path fill="none" stroke="#c0c0c0" stroke-width="2" d="M223,-575.8314C223,-568.131 223,-558.9743 223,-550.4166"/>
<polygon fill="#c0c0c0" stroke="#c0c0c0" stroke-width="2" points="226.5001,-550.4132 223,-540.4133 219.5001,-550.4133 226.5001,-550.4132"/>
</g>
<!-- 12&#45;&gt;9 -->
<g id="edge13" class="edge">
<title>12&#45;&gt;9</title>
<path fill="none" stroke="#c0c0c0" stroke-width="2" d="M180,-359.8314C180,-352.131 180,-342.9743 180,-334.4166"/>
<polygon fill="#c0c0c0" stroke="#c0c0c0" stroke-width="2" points="183.5001,-334.4132 180,-324.4133 176.5001,-334.4133 183.5001,-334.4132"/>
</g>
<!-- 13&#45;&gt;10 -->
<g id="edge14" class="edge">
<title>13&#45;&gt;10</title>
<path fill="none" stroke="#c0c0c0" stroke-width="2" d="M267.5066,-431.7623C268.1889,-407.201 269.4098,-363.2474 270.2124,-334.3541"/>
<polygon fill="#c0c0c0" stroke="#c0c0c0" stroke-width="2" points="273.7184,-334.183 270.4975,-324.0896 266.7211,-333.9885 273.7184,-334.183"/>
</g>
</g>
</svg>
