<?xml version="1.0" encoding="UTF-8" standalone="no"?>
<!DOCTYPE svg PUBLIC "-//W3C//DTD SVG 1.1//EN"
 "http://www.w3.org/Graphics/SVG/1.1/DTD/svg11.dtd">
<!-- Generated by graphviz version 2.30.1 (20201013.1554)
 -->
<!-- Title: snakemake_dag Pages: 1 -->
<svg width="124pt" height="116pt"
 viewBox="0.00 0.00 124.00 116.00" xmlns="http://www.w3.org/2000/svg" xmlns:xlink="http://www.w3.org/1999/xlink">
<g id="graph0" class="graph" transform="scale(1 1) rotate(0) translate(4 112)">
<title>snakemake_dag</title>
<polygon fill="white" stroke="white" points="-4,5 -4,-112 121,-112 121,5 -4,5"/>
<!-- 0 -->
<g id="node1" class="node"><title>0</title>
<path fill="none" stroke="#d85656" stroke-width="2" d="M104,-36C104,-36 12,-36 12,-36 6,-36 0,-30 0,-24 0,-24 0,-12 0,-12 0,-6 6,-0 12,-0 12,-0 104,-0 104,-0 110,-0 116,-6 116,-12 116,-12 116,-24 116,-24 116,-30 110,-36 104,-36"/>
<text text-anchor="middle" x="58" y="-15.5" font-family="sans" font-size="10.00">SampleConcordance</text>
</g>
<!-- 1 -->
<g id="node2" class="node"><title>1</title>
<path fill="none" stroke="#56d8a9" stroke-width="2" d="M97.25,-108C97.25,-108 18.75,-108 18.75,-108 12.75,-108 6.75,-102 6.75,-96 6.75,-96 6.75,-84 6.75,-84 6.75,-78 12.75,-72 18.75,-72 18.75,-72 97.25,-72 97.25,-72 103.25,-72 109.25,-78 109.25,-84 109.25,-84 109.25,-96 109.25,-96 109.25,-102 103.25,-108 97.25,-108"/>
<text text-anchor="middle" x="58" y="-87.5" font-family="sans" font-size="10.00">BamPileupMerger</text>
</g>
<!-- 1&#45;&gt;0 -->
<g id="edge1" class="edge"><title>1&#45;&gt;0</title>
<path fill="none" stroke="grey" stroke-width="2" d="M58,-71.6966C58,-63.9827 58,-54.7125 58,-46.1124"/>
<polygon fill="grey" stroke="grey" points="61.5001,-46.1043 58,-36.1043 54.5001,-46.1044 61.5001,-46.1043"/>
</g>
</g>
</svg>
