<?xml version="1.0" encoding="UTF-8" standalone="no"?>
<!DOCTYPE svg PUBLIC "-//W3C//DTD SVG 1.1//EN"
 "http://www.w3.org/Graphics/SVG/1.1/DTD/svg11.dtd">
<!-- Generated by graphviz version 2.40.1 (20161225.0304)
 -->
<!-- Title: snakemake_dag Pages: 1 -->
<svg width="388pt" height="692pt"
 viewBox="0.00 0.00 387.50 692.00" xmlns="http://www.w3.org/2000/svg" xmlns:xlink="http://www.w3.org/1999/xlink">
<g id="graph0" class="graph" transform="scale(1 1) rotate(0) translate(4 688)">
<title>snakemake_dag</title>
<polygon fill="#ffffff" stroke="transparent" points="-4,4 -4,-688 383.5,-688 383.5,4 -4,4"/>
<!-- 0 -->
<g id="node1" class="node">
<title>0</title>
<path fill="none" stroke="#d8cb56" stroke-width="2" d="M181.5,-36C181.5,-36 151.5,-36 151.5,-36 145.5,-36 139.5,-30 139.5,-24 139.5,-24 139.5,-12 139.5,-12 139.5,-6 145.5,0 151.5,0 151.5,0 181.5,0 181.5,0 187.5,0 193.5,-6 193.5,-12 193.5,-12 193.5,-24 193.5,-24 193.5,-30 187.5,-36 181.5,-36"/>
<text text-anchor="middle" x="166.5" y="-15.5" font-family="sans" font-size="10.00" fill="#000000">Results</text>
</g>
<!-- 1 -->
<g id="node2" class="node">
<title>1</title>
<path fill="none" stroke="#56d8b9" stroke-width="2" d="M59,-180C59,-180 12,-180 12,-180 6,-180 0,-174 0,-168 0,-168 0,-156 0,-156 0,-150 6,-144 12,-144 12,-144 59,-144 59,-144 65,-144 71,-150 71,-156 71,-156 71,-168 71,-168 71,-174 65,-180 59,-180"/>
<text text-anchor="middle" x="35.5" y="-159.5" font-family="sans" font-size="10.00" fill="#000000">CountFastq</text>
</g>
<!-- 1&#45;&gt;0 -->
<g id="edge1" class="edge">
<title>1&#45;&gt;0</title>
<path fill="none" stroke="#c0c0c0" stroke-width="2" d="M32.8431,-143.8961C30.9805,-124.2561 31.0979,-92.9136 46.5,-72 66.1409,-45.3308 102.0221,-31.5494 129.4499,-24.6119"/>
<polygon fill="#c0c0c0" stroke="#c0c0c0" stroke-width="2" points="130.5493,-27.9497 139.4965,-22.2755 128.9636,-21.1316 130.5493,-27.9497"/>
</g>
<!-- 4 -->
<g id="node5" class="node">
<title>4</title>
<path fill="none" stroke="#56d0d8" stroke-width="2" d="M149.5,-108C149.5,-108 67.5,-108 67.5,-108 61.5,-108 55.5,-102 55.5,-96 55.5,-96 55.5,-84 55.5,-84 55.5,-78 61.5,-72 67.5,-72 67.5,-72 149.5,-72 149.5,-72 155.5,-72 161.5,-78 161.5,-84 161.5,-84 161.5,-96 161.5,-96 161.5,-102 155.5,-108 149.5,-108"/>
<text text-anchor="middle" x="108.5" y="-87.5" font-family="sans" font-size="10.00" fill="#000000">AggregateQCStats</text>
</g>
<!-- 1&#45;&gt;4 -->
<g id="edge6" class="edge">
<title>1&#45;&gt;4</title>
<path fill="none" stroke="#c0c0c0" stroke-width="2" d="M53.921,-143.8314C62.6529,-135.219 73.2317,-124.7851 82.7423,-115.4048"/>
<polygon fill="#c0c0c0" stroke="#c0c0c0" stroke-width="2" points="85.423,-117.6769 90.0849,-108.1628 80.5075,-112.6931 85.423,-117.6769"/>
</g>
<!-- 2 -->
<g id="node3" class="node">
<title>2</title>
<path fill="none" stroke="#8fd856" stroke-width="2" d="M259,-108C259,-108 192,-108 192,-108 186,-108 180,-102 180,-96 180,-96 180,-84 180,-84 180,-78 186,-72 192,-72 192,-72 259,-72 259,-72 265,-72 271,-78 271,-84 271,-84 271,-96 271,-96 271,-102 265,-108 259,-108"/>
<text text-anchor="middle" x="225.5" y="-87.5" font-family="sans" font-size="10.00" fill="#000000">USeq2UCSCBig</text>
</g>
<!-- 2&#45;&gt;0 -->
<g id="edge2" class="edge">
<title>2&#45;&gt;0</title>
<path fill="none" stroke="#c0c0c0" stroke-width="2" d="M210.6118,-71.8314C203.747,-63.454 195.4699,-53.3531 187.9489,-44.1749"/>
<polygon fill="#c0c0c0" stroke="#c0c0c0" stroke-width="2" points="190.6341,-41.9297 181.5886,-36.4133 185.2197,-46.3665 190.6341,-41.9297"/>
</g>
<!-- 3 -->
<g id="node4" class="node">
<title>3</title>
<path fill="none" stroke="#68d856" stroke-width="2" d="M367.5,-108C367.5,-108 301.5,-108 301.5,-108 295.5,-108 289.5,-102 289.5,-96 289.5,-96 289.5,-84 289.5,-84 289.5,-78 295.5,-72 301.5,-72 301.5,-72 367.5,-72 367.5,-72 373.5,-72 379.5,-78 379.5,-84 379.5,-84 379.5,-96 379.5,-96 379.5,-102 373.5,-108 367.5,-108"/>
<text text-anchor="middle" x="334.5" y="-87.5" font-family="sans" font-size="10.00" fill="#000000">CheckGzipFiles</text>
</g>
<!-- 3&#45;&gt;0 -->
<g id="edge3" class="edge">
<title>3&#45;&gt;0</title>
<path fill="none" stroke="#c0c0c0" stroke-width="2" d="M292.1065,-71.8314C264.5764,-60.0328 229.0695,-44.8155 202.8345,-33.5719"/>
<polygon fill="#c0c0c0" stroke="#c0c0c0" stroke-width="2" points="204.1906,-30.3453 193.6204,-29.623 201.4331,-36.7793 204.1906,-30.3453"/>
</g>
<!-- 4&#45;&gt;0 -->
<g id="edge4" class="edge">
<title>4&#45;&gt;0</title>
<path fill="none" stroke="#c0c0c0" stroke-width="2" d="M123.1358,-71.8314C129.8161,-63.5386 137.8568,-53.557 145.1904,-44.4533"/>
<polygon fill="#c0c0c0" stroke="#c0c0c0" stroke-width="2" points="148.1194,-46.3965 151.6671,-36.4133 142.6681,-42.0052 148.1194,-46.3965"/>
</g>
<!-- 5 -->
<g id="node6" class="node">
<title>5</title>
<path fill="none" stroke="#56a9d8" stroke-width="2" d="M227.5,-180C227.5,-180 181.5,-180 181.5,-180 175.5,-180 169.5,-174 169.5,-168 169.5,-168 169.5,-156 169.5,-156 169.5,-150 175.5,-144 181.5,-144 181.5,-144 227.5,-144 227.5,-144 233.5,-144 239.5,-150 239.5,-156 239.5,-156 239.5,-168 239.5,-168 239.5,-174 233.5,-180 227.5,-180"/>
<text text-anchor="middle" x="204.5" y="-159.5" font-family="sans" font-size="10.00" fill="#000000">Sam2USeq</text>
</g>
<!-- 5&#45;&gt;2 -->
<g id="edge5" class="edge">
<title>5&#45;&gt;2</title>
<path fill="none" stroke="#c0c0c0" stroke-width="2" d="M209.7992,-143.8314C212.0698,-136.0463 214.7746,-126.7729 217.294,-118.1347"/>
<polygon fill="#c0c0c0" stroke="#c0c0c0" stroke-width="2" points="220.6894,-118.9933 220.1295,-108.4133 213.9694,-117.0332 220.6894,-118.9933"/>
</g>
<!-- 5&#45;&gt;4 -->
<g id="edge7" class="edge">
<title>5&#45;&gt;4</title>
<path fill="none" stroke="#c0c0c0" stroke-width="2" d="M180.2751,-143.8314C168.3372,-134.8779 153.7744,-123.9558 140.894,-114.2955"/>
<polygon fill="#c0c0c0" stroke="#c0c0c0" stroke-width="2" points="142.8171,-111.3629 132.7171,-108.1628 138.6171,-116.9629 142.8171,-111.3629"/>
</g>
<!-- 6 -->
<g id="node7" class="node">
<title>6</title>
<path fill="none" stroke="#d87d56" stroke-width="2" d="M254.5,-252C254.5,-252 146.5,-252 146.5,-252 140.5,-252 134.5,-246 134.5,-240 134.5,-240 134.5,-228 134.5,-228 134.5,-222 140.5,-216 146.5,-216 146.5,-216 254.5,-216 254.5,-216 260.5,-216 266.5,-222 266.5,-228 266.5,-228 266.5,-240 266.5,-240 266.5,-246 260.5,-252 254.5,-252"/>
<text text-anchor="middle" x="200.5" y="-231.5" font-family="sans" font-size="10.00" fill="#000000">MergePairedAlignments</text>
</g>
<!-- 6&#45;&gt;4 -->
<g id="edge8" class="edge">
<title>6&#45;&gt;4</title>
<path fill="none" stroke="#c0c0c0" stroke-width="2" d="M186.2706,-215.8753C178.3811,-205.5638 168.5651,-192.2903 160.5,-180 147.0106,-159.4438 133.1503,-135.2748 123.1349,-117.1616"/>
<polygon fill="#c0c0c0" stroke="#c0c0c0" stroke-width="2" points="126.1482,-115.3772 118.2703,-108.2927 120.0108,-118.7436 126.1482,-115.3772"/>
</g>
<!-- 6&#45;&gt;5 -->
<g id="edge10" class="edge">
<title>6&#45;&gt;5</title>
<path fill="none" stroke="#c0c0c0" stroke-width="2" d="M201.5094,-215.8314C201.9372,-208.131 202.4459,-198.9743 202.9213,-190.4166"/>
<polygon fill="#c0c0c0" stroke="#c0c0c0" stroke-width="2" points="206.4169,-190.592 203.477,-180.4133 199.4276,-190.2037 206.4169,-190.592"/>
</g>
<!-- 7 -->
<g id="node8" class="node">
<title>7</title>
<path fill="none" stroke="#b6d856" stroke-width="2" d="M199,-540C199,-540 90,-540 90,-540 84,-540 78,-534 78,-528 78,-528 78,-516 78,-516 78,-510 84,-504 90,-504 90,-504 199,-504 199,-504 205,-504 211,-510 211,-516 211,-516 211,-528 211,-528 211,-534 205,-540 199,-540"/>
<text text-anchor="middle" x="144.5" y="-519.5" font-family="sans" font-size="10.00" fill="#000000">SamAlignmentExtractor</text>
</g>
<!-- 7&#45;&gt;4 -->
<g id="edge9" class="edge">
<title>7&#45;&gt;4</title>
<path fill="none" stroke="#c0c0c0" stroke-width="2" d="M135.805,-503.8324C123.7698,-476.9721 103.5,-424.7885 103.5,-378 103.5,-378 103.5,-378 103.5,-234 103.5,-193.8518 105.4653,-147.4451 106.9316,-118.4076"/>
<polygon fill="#c0c0c0" stroke="#c0c0c0" stroke-width="2" points="110.4394,-118.3468 107.464,-108.1784 103.4489,-117.9829 110.4394,-118.3468"/>
</g>
<!-- 11 -->
<g id="node12" class="node">
<title>11</title>
<path fill="none" stroke="#d85656" stroke-width="2" d="M227.5,-468C227.5,-468 143.5,-468 143.5,-468 137.5,-468 131.5,-462 131.5,-456 131.5,-456 131.5,-444 131.5,-444 131.5,-438 137.5,-432 143.5,-432 143.5,-432 227.5,-432 227.5,-432 233.5,-432 239.5,-438 239.5,-444 239.5,-444 239.5,-456 239.5,-456 239.5,-462 233.5,-468 227.5,-468"/>
<text text-anchor="middle" x="185.5" y="-447.5" font-family="sans" font-size="10.00" fill="#000000">RemoveDuplicates</text>
</g>
<!-- 7&#45;&gt;11 -->
<g id="edge17" class="edge">
<title>7&#45;&gt;11</title>
<path fill="none" stroke="#c0c0c0" stroke-width="2" d="M154.846,-503.8314C159.4237,-495.7925 164.9052,-486.1666 169.9588,-477.2918"/>
<polygon fill="#c0c0c0" stroke="#c0c0c0" stroke-width="2" points="173.1077,-478.8351 175.0147,-468.4133 167.0248,-475.3712 173.1077,-478.8351"/>
</g>
<!-- 8 -->
<g id="node9" class="node">
<title>8</title>
<path fill="none" stroke="#d8a456" stroke-width="2" d="M249.5,-324C249.5,-324 151.5,-324 151.5,-324 145.5,-324 139.5,-318 139.5,-312 139.5,-312 139.5,-300 139.5,-300 139.5,-294 145.5,-288 151.5,-288 151.5,-288 249.5,-288 249.5,-288 255.5,-288 261.5,-294 261.5,-300 261.5,-300 261.5,-312 261.5,-312 261.5,-318 255.5,-324 249.5,-324"/>
<text text-anchor="middle" x="200.5" y="-303.5" font-family="sans" font-size="10.00" fill="#000000">PrintRecalibratedBam</text>
</g>
<!-- 8&#45;&gt;6 -->
<g id="edge11" class="edge">
<title>8&#45;&gt;6</title>
<path fill="none" stroke="#c0c0c0" stroke-width="2" d="M200.5,-287.8314C200.5,-280.131 200.5,-270.9743 200.5,-262.4166"/>
<polygon fill="#c0c0c0" stroke="#c0c0c0" stroke-width="2" points="204.0001,-262.4132 200.5,-252.4133 197.0001,-262.4133 204.0001,-262.4132"/>
</g>
<!-- 9 -->
<g id="node10" class="node">
<title>9</title>
<path fill="none" stroke="#56d86b" stroke-width="2" d="M161.5,-612C161.5,-612 127.5,-612 127.5,-612 121.5,-612 115.5,-606 115.5,-600 115.5,-600 115.5,-588 115.5,-588 115.5,-582 121.5,-576 127.5,-576 127.5,-576 161.5,-576 161.5,-576 167.5,-576 173.5,-582 173.5,-588 173.5,-588 173.5,-600 173.5,-600 173.5,-606 167.5,-612 161.5,-612"/>
<text text-anchor="middle" x="144.5" y="-591.5" font-family="sans" font-size="10.00" fill="#000000">SortSam</text>
</g>
<!-- 9&#45;&gt;7 -->
<g id="edge12" class="edge">
<title>9&#45;&gt;7</title>
<path fill="none" stroke="#c0c0c0" stroke-width="2" d="M144.5,-575.8314C144.5,-568.131 144.5,-558.9743 144.5,-550.4166"/>
<polygon fill="#c0c0c0" stroke="#c0c0c0" stroke-width="2" points="148.0001,-550.4132 144.5,-540.4133 141.0001,-550.4133 148.0001,-550.4132"/>
</g>
<!-- 10 -->
<g id="node11" class="node">
<title>10</title>
<path fill="none" stroke="#56d892" stroke-width="2" d="M281,-396C281,-396 204,-396 204,-396 198,-396 192,-390 192,-384 192,-384 192,-372 192,-372 192,-366 198,-360 204,-360 204,-360 281,-360 281,-360 287,-360 293,-366 293,-372 293,-372 293,-384 293,-384 293,-390 287,-396 281,-396"/>
<text text-anchor="middle" x="242.5" y="-375.5" font-family="sans" font-size="10.00" fill="#000000">RecalibrateBases</text>
</g>
<!-- 10&#45;&gt;8 -->
<g id="edge13" class="edge">
<title>10&#45;&gt;8</title>
<path fill="none" stroke="#c0c0c0" stroke-width="2" d="M231.9016,-359.8314C227.2123,-351.7925 221.5972,-342.1666 216.4202,-333.2918"/>
<polygon fill="#c0c0c0" stroke="#c0c0c0" stroke-width="2" points="219.3031,-331.2875 211.2411,-324.4133 213.2566,-334.8146 219.3031,-331.2875"/>
</g>
<!-- 11&#45;&gt;8 -->
<g id="edge14" class="edge">
<title>11&#45;&gt;8</title>
<path fill="none" stroke="#c0c0c0" stroke-width="2" d="M183.2647,-431.9505C181.4323,-413.6932 179.7014,-384.716 183.5,-360 184.8374,-351.2979 187.3204,-342.074 189.9834,-333.759"/>
<polygon fill="#c0c0c0" stroke="#c0c0c0" stroke-width="2" points="193.3406,-334.7579 193.2561,-324.1634 186.7154,-332.4982 193.3406,-334.7579"/>
</g>
<!-- 11&#45;&gt;10 -->
<g id="edge16" class="edge">
<title>11&#45;&gt;10</title>
<path fill="none" stroke="#c0c0c0" stroke-width="2" d="M199.8835,-431.8314C206.4486,-423.5386 214.3507,-413.557 221.5578,-404.4533"/>
<polygon fill="#c0c0c0" stroke="#c0c0c0" stroke-width="2" points="224.4599,-406.4262 227.9228,-396.4133 218.9716,-402.0813 224.4599,-406.4262"/>
</g>
<!-- 12 -->
<g id="node13" class="node">
<title>12</title>
<path fill="none" stroke="#567bd8" stroke-width="2" d="M166,-684C166,-684 123,-684 123,-684 117,-684 111,-678 111,-672 111,-672 111,-660 111,-660 111,-654 117,-648 123,-648 123,-648 166,-648 166,-648 172,-648 178,-654 178,-660 178,-660 178,-672 178,-672 178,-678 172,-684 166,-684"/>
<text text-anchor="middle" x="144.5" y="-663.5" font-family="sans" font-size="10.00" fill="#000000">AlignHg38</text>
</g>
<!-- 12&#45;&gt;9 -->
<g id="edge15" class="edge">
<title>12&#45;&gt;9</title>
<path fill="none" stroke="#c0c0c0" stroke-width="2" d="M144.5,-647.8314C144.5,-640.131 144.5,-630.9743 144.5,-622.4166"/>
<polygon fill="#c0c0c0" stroke="#c0c0c0" stroke-width="2" points="148.0001,-622.4132 144.5,-612.4133 141.0001,-622.4133 148.0001,-622.4132"/>
</g>
</g>
</svg>
