<?xml version="1.0" encoding="UTF-8" standalone="no"?>
<!DOCTYPE svg PUBLIC "-//W3C//DTD SVG 1.1//EN"
 "http://www.w3.org/Graphics/SVG/1.1/DTD/svg11.dtd">
<!-- Generated by graphviz version 2.30.1 (20201013.1554)
 -->
<!-- Title: snakemake_dag Pages: 1 -->
<svg width="651pt" height="332pt"
 viewBox="0.00 0.00 651.00 332.00" xmlns="http://www.w3.org/2000/svg" xmlns:xlink="http://www.w3.org/1999/xlink">
<g id="graph0" class="graph" transform="scale(1 1) rotate(0) translate(4 328)">
<title>snakemake_dag</title>
<polygon fill="white" stroke="white" points="-4,5 -4,-328 648,-328 648,5 -4,5"/>
<!-- 0 -->
<g id="node1" class="node"><title>0</title>
<path fill="none" stroke="#d88d56" stroke-width="2" d="M285,-36C285,-36 251,-36 251,-36 245,-36 239,-30 239,-24 239,-24 239,-12 239,-12 239,-6 245,-0 251,-0 251,-0 285,-0 285,-0 291,-0 297,-6 297,-12 297,-12 297,-24 297,-24 297,-30 291,-36 285,-36"/>
<text text-anchor="middle" x="268" y="-15.5" font-family="sans" font-size="10.00">VcfTabix</text>
</g>
<!-- 1 -->
<g id="node2" class="node"><title>1</title>
<path fill="none" stroke="#56c1d8" stroke-width="2" d="M299,-108C299,-108 237,-108 237,-108 231,-108 225,-102 225,-96 225,-96 225,-84 225,-84 225,-78 231,-72 237,-72 237,-72 299,-72 299,-72 305,-72 311,-78 311,-84 311,-84 311,-96 311,-96 311,-102 305,-108 299,-108"/>
<text text-anchor="middle" x="268" y="-87.5" font-family="sans" font-size="10.00">SelectVariants</text>
</g>
<!-- 1&#45;&gt;0 -->
<g id="edge1" class="edge"><title>1&#45;&gt;0</title>
<path fill="none" stroke="grey" stroke-width="2" d="M268,-71.6966C268,-63.9827 268,-54.7125 268,-46.1124"/>
<polygon fill="grey" stroke="grey" points="271.5,-46.1043 268,-36.1043 264.5,-46.1044 271.5,-46.1043"/>
</g>
<!-- 2 -->
<g id="node3" class="node"><title>2</title>
<path fill="none" stroke="#568ad8" stroke-width="2" d="M305,-180C305,-180 231,-180 231,-180 225,-180 219,-174 219,-168 219,-168 219,-156 219,-156 219,-150 225,-144 231,-144 231,-144 305,-144 305,-144 311,-144 317,-150 317,-156 317,-156 317,-168 317,-168 317,-174 311,-180 305,-180"/>
<text text-anchor="middle" x="268" y="-159.5" font-family="sans" font-size="10.00">FilterMutectCalls</text>
</g>
<!-- 2&#45;&gt;1 -->
<g id="edge2" class="edge"><title>2&#45;&gt;1</title>
<path fill="none" stroke="grey" stroke-width="2" d="M268,-143.697C268,-135.983 268,-126.712 268,-118.112"/>
<polygon fill="grey" stroke="grey" points="271.5,-118.104 268,-108.104 264.5,-118.104 271.5,-118.104"/>
</g>
<!-- 3 -->
<g id="node4" class="node"><title>3</title>
<path fill="none" stroke="#bed856" stroke-width="2" d="M88.25,-252C88.25,-252 11.75,-252 11.75,-252 5.75,-252 -0.25,-246 -0.25,-240 -0.25,-240 -0.25,-228 -0.25,-228 -0.25,-222 5.75,-216 11.75,-216 11.75,-216 88.25,-216 88.25,-216 94.25,-216 100.25,-222 100.25,-228 100.25,-228 100.25,-240 100.25,-240 100.25,-246 94.25,-252 88.25,-252"/>
<text text-anchor="middle" x="50" y="-231.5" font-family="sans" font-size="10.00">MergeMutectVcfs</text>
</g>
<!-- 3&#45;&gt;2 -->
<g id="edge3" class="edge"><title>3&#45;&gt;2</title>
<path fill="none" stroke="grey" stroke-width="2" d="M100.287,-216.853C132.676,-206.453 174.922,-192.887 208.911,-181.974"/>
<polygon fill="grey" stroke="grey" points="210.266,-185.215 218.717,-178.825 208.126,-178.55 210.266,-185.215"/>
</g>
<!-- 4 -->
<g id="node5" class="node"><title>4</title>
<path fill="none" stroke="#d85656" stroke-width="2" d="M210,-324C210,-324 180,-324 180,-324 174,-324 168,-318 168,-312 168,-312 168,-300 168,-300 168,-294 174,-288 180,-288 180,-288 210,-288 210,-288 216,-288 222,-294 222,-300 222,-300 222,-312 222,-312 222,-318 216,-324 210,-324"/>
<text text-anchor="middle" x="195" y="-303.5" font-family="sans" font-size="10.00">Mutect</text>
</g>
<!-- 4&#45;&gt;3 -->
<g id="edge7" class="edge"><title>4&#45;&gt;3</title>
<path fill="none" stroke="grey" stroke-width="2" d="M167.727,-291.834C147.158,-281.904 118.504,-268.071 94.6153,-256.538"/>
<polygon fill="grey" stroke="grey" points="95.9112,-253.278 85.384,-252.082 92.8679,-259.581 95.9112,-253.278"/>
</g>
<!-- 8 -->
<g id="node9" class="node"><title>8</title>
<path fill="none" stroke="#56d8c1" stroke-width="2" d="M259,-252C259,-252 131,-252 131,-252 125,-252 119,-246 119,-240 119,-240 119,-228 119,-228 119,-222 125,-216 131,-216 131,-216 259,-216 259,-216 265,-216 271,-222 271,-228 271,-228 271,-240 271,-240 271,-246 265,-252 259,-252"/>
<text text-anchor="middle" x="195" y="-231.5" font-family="sans" font-size="10.00">LearnReadOrientationModel</text>
</g>
<!-- 4&#45;&gt;8 -->
<g id="edge10" class="edge"><title>4&#45;&gt;8</title>
<path fill="none" stroke="grey" stroke-width="2" d="M195,-287.697C195,-279.983 195,-270.712 195,-262.112"/>
<polygon fill="grey" stroke="grey" points="198.5,-262.104 195,-252.104 191.5,-262.104 198.5,-262.104"/>
</g>
<!-- 9 -->
<g id="node10" class="node"><title>9</title>
<path fill="none" stroke="#59d856" stroke-width="2" d="M381,-252C381,-252 301,-252 301,-252 295,-252 289,-246 289,-240 289,-240 289,-228 289,-228 289,-222 295,-216 301,-216 301,-216 381,-216 381,-216 387,-216 393,-222 393,-228 393,-228 393,-240 393,-240 393,-246 387,-252 381,-252"/>
<text text-anchor="middle" x="341" y="-231.5" font-family="sans" font-size="10.00">MergeMutectStats</text>
</g>
<!-- 4&#45;&gt;9 -->
<g id="edge11" class="edge"><title>4&#45;&gt;9</title>
<path fill="none" stroke="grey" stroke-width="2" d="M222.119,-291.998C242.959,-282.006 272.189,-267.991 296.449,-256.36"/>
<polygon fill="grey" stroke="grey" points="297.972,-259.511 305.476,-252.032 294.946,-253.199 297.972,-259.511"/>
</g>
<!-- 5 -->
<g id="node6" class="node"><title>5</title>
<path fill="none" stroke="#d8bc56" stroke-width="2" d="M533,-252C533,-252 423,-252 423,-252 417,-252 411,-246 411,-240 411,-240 411,-228 411,-228 411,-222 417,-216 423,-216 423,-216 533,-216 533,-216 539,-216 545,-222 545,-228 545,-228 545,-240 545,-240 545,-246 539,-252 533,-252"/>
<text text-anchor="middle" x="478" y="-231.5" font-family="sans" font-size="10.00">CalculateContamination</text>
</g>
<!-- 5&#45;&gt;2 -->
<g id="edge4" class="edge"><title>5&#45;&gt;2</title>
<path fill="none" stroke="grey" stroke-width="2" d="M426.897,-215.966C396.64,-205.88 358.191,-193.064 326.694,-182.565"/>
<polygon fill="grey" stroke="grey" points="327.752,-179.228 317.158,-179.386 325.539,-185.869 327.752,-179.228"/>
</g>
<!-- 6 -->
<g id="node7" class="node"><title>6</title>
<path fill="none" stroke="#88d856" stroke-width="2" d="M458.25,-324C458.25,-324 333.75,-324 333.75,-324 327.75,-324 321.75,-318 321.75,-312 321.75,-312 321.75,-300 321.75,-300 321.75,-294 327.75,-288 333.75,-288 333.75,-288 458.25,-288 458.25,-288 464.25,-288 470.25,-294 470.25,-300 470.25,-300 470.25,-312 470.25,-312 470.25,-318 464.25,-324 458.25,-324"/>
<text text-anchor="middle" x="396" y="-303.5" font-family="sans" font-size="10.00">GetPileupSummariesTumor</text>
</g>
<!-- 6&#45;&gt;5 -->
<g id="edge8" class="edge"><title>6&#45;&gt;5</title>
<path fill="none" stroke="grey" stroke-width="2" d="M416.27,-287.697C426.498,-278.965 439.061,-268.24 450.178,-258.75"/>
<polygon fill="grey" stroke="grey" points="452.63,-261.259 457.963,-252.104 448.085,-255.935 452.63,-261.259"/>
</g>
<!-- 7 -->
<g id="node8" class="node"><title>7</title>
<path fill="none" stroke="#56d88a" stroke-width="2" d="M631.25,-324C631.25,-324 500.75,-324 500.75,-324 494.75,-324 488.75,-318 488.75,-312 488.75,-312 488.75,-300 488.75,-300 488.75,-294 494.75,-288 500.75,-288 500.75,-288 631.25,-288 631.25,-288 637.25,-288 643.25,-294 643.25,-300 643.25,-300 643.25,-312 643.25,-312 643.25,-318 637.25,-324 631.25,-324"/>
<text text-anchor="middle" x="566" y="-303.5" font-family="sans" font-size="10.00">GetPileupSummariesNormal</text>
</g>
<!-- 7&#45;&gt;5 -->
<g id="edge9" class="edge"><title>7&#45;&gt;5</title>
<path fill="none" stroke="grey" stroke-width="2" d="M544.247,-287.697C533.164,-278.881 519.526,-268.032 507.51,-258.474"/>
<polygon fill="grey" stroke="grey" points="509.507,-255.59 499.503,-252.104 505.15,-261.069 509.507,-255.59"/>
</g>
<!-- 8&#45;&gt;2 -->
<g id="edge5" class="edge"><title>8&#45;&gt;2</title>
<path fill="none" stroke="grey" stroke-width="2" d="M213.045,-215.697C222.062,-207.05 233.118,-196.449 242.943,-187.027"/>
<polygon fill="grey" stroke="grey" points="245.367,-189.552 250.163,-180.104 240.522,-184.499 245.367,-189.552"/>
</g>
<!-- 9&#45;&gt;2 -->
<g id="edge6" class="edge"><title>9&#45;&gt;2</title>
<path fill="none" stroke="grey" stroke-width="2" d="M322.955,-215.697C313.938,-207.05 302.882,-196.449 293.057,-187.027"/>
<polygon fill="grey" stroke="grey" points="295.478,-184.499 285.837,-180.104 290.633,-189.552 295.478,-184.499"/>
</g>
</g>
</svg>
