<?xml version="1.0" encoding="UTF-8" standalone="no"?>
<!DOCTYPE svg PUBLIC "-//W3C//DTD SVG 1.1//EN"
 "http://www.w3.org/Graphics/SVG/1.1/DTD/svg11.dtd">
<!-- Generated by graphviz version 2.40.1 (20161225.0304)
 -->
<!-- Title: snakemake_dag Pages: 1 -->
<svg width="357pt" height="692pt"
 viewBox="0.00 0.00 357.00 692.00" xmlns="http://www.w3.org/2000/svg" xmlns:xlink="http://www.w3.org/1999/xlink">
<g id="graph0" class="graph" transform="scale(1 1) rotate(0) translate(4 688)">
<title>snakemake_dag</title>
<polygon fill="#ffffff" stroke="transparent" points="-4,4 -4,-688 353,-688 353,4 -4,4"/>
<!-- 0 -->
<g id="node1" class="node">
<title>0</title>
<path fill="none" stroke="#56d8b9" stroke-width="2" d="M179.5,-36C179.5,-36 97.5,-36 97.5,-36 91.5,-36 85.5,-30 85.5,-24 85.5,-24 85.5,-12 85.5,-12 85.5,-6 91.5,0 97.5,0 97.5,0 179.5,0 179.5,0 185.5,0 191.5,-6 191.5,-12 191.5,-12 191.5,-24 191.5,-24 191.5,-30 185.5,-36 179.5,-36"/>
<text text-anchor="middle" x="138.5" y="-15.5" font-family="sans" font-size="10.00" fill="#000000">AggregateQCStats</text>
</g>
<!-- 1 -->
<g id="node2" class="node">
<title>1</title>
<path fill="none" stroke="#56d86b" stroke-width="2" d="M160.5,-180C160.5,-180 114.5,-180 114.5,-180 108.5,-180 102.5,-174 102.5,-168 102.5,-168 102.5,-156 102.5,-156 102.5,-150 108.5,-144 114.5,-144 114.5,-144 160.5,-144 160.5,-144 166.5,-144 172.5,-150 172.5,-156 172.5,-156 172.5,-168 172.5,-168 172.5,-174 166.5,-180 160.5,-180"/>
<text text-anchor="middle" x="137.5" y="-159.5" font-family="sans" font-size="10.00" fill="#000000">Sam2USeq</text>
</g>
<!-- 1&#45;&gt;0 -->
<g id="edge1" class="edge">
<title>1&#45;&gt;0</title>
<path fill="none" stroke="#c0c0c0" stroke-width="2" d="M130.2561,-143.8366C126.5288,-133.513 122.3812,-120.2403 120.5,-108 118.0695,-92.1857 117.9371,-87.7934 120.5,-72 121.918,-63.2621 124.5475,-54.0275 127.3671,-45.7136"/>
<polygon fill="#c0c0c0" stroke="#c0c0c0" stroke-width="2" points="130.7254,-46.7187 130.8321,-36.1244 124.142,-44.3399 130.7254,-46.7187"/>
</g>
<!-- 4 -->
<g id="node5" class="node">
<title>4</title>
<path fill="none" stroke="#56d892" stroke-width="2" d="M209,-108C209,-108 142,-108 142,-108 136,-108 130,-102 130,-96 130,-96 130,-84 130,-84 130,-78 136,-72 142,-72 142,-72 209,-72 209,-72 215,-72 221,-78 221,-84 221,-84 221,-96 221,-96 221,-102 215,-108 209,-108"/>
<text text-anchor="middle" x="175.5" y="-87.5" font-family="sans" font-size="10.00" fill="#000000">USeq2UCSCBig</text>
</g>
<!-- 1&#45;&gt;4 -->
<g id="edge10" class="edge">
<title>1&#45;&gt;4</title>
<path fill="none" stroke="#c0c0c0" stroke-width="2" d="M147.089,-143.8314C151.3317,-135.7925 156.4121,-126.1666 161.096,-117.2918"/>
<polygon fill="#c0c0c0" stroke="#c0c0c0" stroke-width="2" points="164.2096,-118.8908 165.7819,-108.4133 158.0189,-115.6235 164.2096,-118.8908"/>
</g>
<!-- 2 -->
<g id="node3" class="node">
<title>2</title>
<path fill="none" stroke="#8fd856" stroke-width="2" d="M191.5,-252C191.5,-252 83.5,-252 83.5,-252 77.5,-252 71.5,-246 71.5,-240 71.5,-240 71.5,-228 71.5,-228 71.5,-222 77.5,-216 83.5,-216 83.5,-216 191.5,-216 191.5,-216 197.5,-216 203.5,-222 203.5,-228 203.5,-228 203.5,-240 203.5,-240 203.5,-246 197.5,-252 191.5,-252"/>
<text text-anchor="middle" x="137.5" y="-231.5" font-family="sans" font-size="10.00" fill="#000000">MergePairedAlignments</text>
</g>
<!-- 2&#45;&gt;0 -->
<g id="edge2" class="edge">
<title>2&#45;&gt;0</title>
<path fill="none" stroke="#c0c0c0" stroke-width="2" d="M117.0974,-215.5625C108.0059,-205.9675 98.2838,-193.4441 93.5,-180 76.9343,-133.4441 101.9563,-77.6193 120.8075,-45.1433"/>
<polygon fill="#c0c0c0" stroke="#c0c0c0" stroke-width="2" points="124.0079,-46.613 126.1637,-36.2398 118.0096,-43.0045 124.0079,-46.613"/>
</g>
<!-- 2&#45;&gt;1 -->
<g id="edge7" class="edge">
<title>2&#45;&gt;1</title>
<path fill="none" stroke="#c0c0c0" stroke-width="2" d="M137.5,-215.8314C137.5,-208.131 137.5,-198.9743 137.5,-190.4166"/>
<polygon fill="#c0c0c0" stroke="#c0c0c0" stroke-width="2" points="141.0001,-190.4132 137.5,-180.4133 134.0001,-190.4133 141.0001,-190.4132"/>
</g>
<!-- 3 -->
<g id="node4" class="node">
<title>3</title>
<path fill="none" stroke="#d87d56" stroke-width="2" d="M121,-540C121,-540 12,-540 12,-540 6,-540 0,-534 0,-528 0,-528 0,-516 0,-516 0,-510 6,-504 12,-504 12,-504 121,-504 121,-504 127,-504 133,-510 133,-516 133,-516 133,-528 133,-528 133,-534 127,-540 121,-540"/>
<text text-anchor="middle" x="66.5" y="-519.5" font-family="sans" font-size="10.00" fill="#000000">SamAlignmentExtractor</text>
</g>
<!-- 3&#45;&gt;0 -->
<g id="edge3" class="edge">
<title>3&#45;&gt;0</title>
<path fill="none" stroke="#c0c0c0" stroke-width="2" d="M57.805,-503.8324C45.7698,-476.9721 25.5,-424.7885 25.5,-378 25.5,-378 25.5,-378 25.5,-162 25.5,-111.1719 69.6105,-67.6457 102.7121,-42.1382"/>
<polygon fill="#c0c0c0" stroke="#c0c0c0" stroke-width="2" points="104.9443,-44.8395 110.8571,-36.048 100.7524,-39.2333 104.9443,-44.8395"/>
</g>
<!-- 9 -->
<g id="node10" class="node">
<title>9</title>
<path fill="none" stroke="#56d0d8" stroke-width="2" d="M149.5,-468C149.5,-468 65.5,-468 65.5,-468 59.5,-468 53.5,-462 53.5,-456 53.5,-456 53.5,-444 53.5,-444 53.5,-438 59.5,-432 65.5,-432 65.5,-432 149.5,-432 149.5,-432 155.5,-432 161.5,-438 161.5,-444 161.5,-444 161.5,-456 161.5,-456 161.5,-462 155.5,-468 149.5,-468"/>
<text text-anchor="middle" x="107.5" y="-447.5" font-family="sans" font-size="10.00" fill="#000000">RemoveDuplicates</text>
</g>
<!-- 3&#45;&gt;9 -->
<g id="edge15" class="edge">
<title>3&#45;&gt;9</title>
<path fill="none" stroke="#c0c0c0" stroke-width="2" d="M76.846,-503.8314C81.4237,-495.7925 86.9052,-486.1666 91.9588,-477.2918"/>
<polygon fill="#c0c0c0" stroke="#c0c0c0" stroke-width="2" points="95.1077,-478.8351 97.0147,-468.4133 89.0248,-475.3712 95.1077,-478.8351"/>
</g>
<!-- 4&#45;&gt;0 -->
<g id="edge4" class="edge">
<title>4&#45;&gt;0</title>
<path fill="none" stroke="#c0c0c0" stroke-width="2" d="M166.1633,-71.8314C162.0757,-63.8771 157.1896,-54.369 152.6691,-45.5723"/>
<polygon fill="#c0c0c0" stroke="#c0c0c0" stroke-width="2" points="155.6461,-43.7078 147.9624,-36.4133 149.4201,-46.9074 155.6461,-43.7078"/>
</g>
<!-- 5 -->
<g id="node6" class="node">
<title>5</title>
<path fill="none" stroke="#567bd8" stroke-width="2" d="M337,-108C337,-108 290,-108 290,-108 284,-108 278,-102 278,-96 278,-96 278,-84 278,-84 278,-78 284,-72 290,-72 290,-72 337,-72 337,-72 343,-72 349,-78 349,-84 349,-84 349,-96 349,-96 349,-102 343,-108 337,-108"/>
<text text-anchor="middle" x="313.5" y="-87.5" font-family="sans" font-size="10.00" fill="#000000">CountFastq</text>
</g>
<!-- 5&#45;&gt;0 -->
<g id="edge5" class="edge">
<title>5&#45;&gt;0</title>
<path fill="none" stroke="#c0c0c0" stroke-width="2" d="M277.6638,-75.256C252.9755,-65.0985 219.7379,-51.4236 191.9368,-39.9854"/>
<polygon fill="#c0c0c0" stroke="#c0c0c0" stroke-width="2" points="192.9325,-36.6105 182.3529,-36.0423 190.2691,-43.084 192.9325,-36.6105"/>
</g>
<!-- 6 -->
<g id="node7" class="node">
<title>6</title>
<path fill="none" stroke="#d85656" stroke-width="2" d="M279,-180C279,-180 208,-180 208,-180 202,-180 196,-174 196,-168 196,-168 196,-156 196,-156 196,-150 202,-144 208,-144 208,-144 279,-144 279,-144 285,-144 291,-150 291,-156 291,-156 291,-168 291,-168 291,-174 285,-180 279,-180"/>
<text text-anchor="middle" x="243.5" y="-159.5" font-family="sans" font-size="10.00" fill="#000000">HaplotypeCaller</text>
</g>
<!-- 6&#45;&gt;0 -->
<g id="edge6" class="edge">
<title>6&#45;&gt;0</title>
<path fill="none" stroke="#c0c0c0" stroke-width="2" d="M245.2655,-143.8097C246.2154,-124.3811 244.9421,-93.4888 230.5,-72 221.8561,-59.1385 209.0346,-48.9157 195.6896,-40.9808"/>
<polygon fill="#c0c0c0" stroke="#c0c0c0" stroke-width="2" points="197.3251,-37.8856 186.8832,-36.092 193.9276,-44.0058 197.3251,-37.8856"/>
</g>
<!-- 7 -->
<g id="node8" class="node">
<title>7</title>
<path fill="none" stroke="#b6d856" stroke-width="2" d="M199.5,-324C199.5,-324 101.5,-324 101.5,-324 95.5,-324 89.5,-318 89.5,-312 89.5,-312 89.5,-300 89.5,-300 89.5,-294 95.5,-288 101.5,-288 101.5,-288 199.5,-288 199.5,-288 205.5,-288 211.5,-294 211.5,-300 211.5,-300 211.5,-312 211.5,-312 211.5,-318 205.5,-324 199.5,-324"/>
<text text-anchor="middle" x="150.5" y="-303.5" font-family="sans" font-size="10.00" fill="#000000">PrintRecalibratedBam</text>
</g>
<!-- 7&#45;&gt;2 -->
<g id="edge8" class="edge">
<title>7&#45;&gt;2</title>
<path fill="none" stroke="#c0c0c0" stroke-width="2" d="M147.2196,-287.8314C145.8292,-280.131 144.1759,-270.9743 142.6308,-262.4166"/>
<polygon fill="#c0c0c0" stroke="#c0c0c0" stroke-width="2" points="146.0458,-261.6322 140.8246,-252.4133 139.1572,-262.8761 146.0458,-261.6322"/>
</g>
<!-- 7&#45;&gt;6 -->
<g id="edge11" class="edge">
<title>7&#45;&gt;6</title>
<path fill="none" stroke="#c0c0c0" stroke-width="2" d="M177.2317,-287.7773C189.4145,-278.3191 203.1669,-265.8496 212.5,-252 225.1427,-233.2392 233.1286,-208.8073 237.823,-190.134"/>
<polygon fill="#c0c0c0" stroke="#c0c0c0" stroke-width="2" points="241.2866,-190.6934 240.159,-180.1588 234.471,-189.0973 241.2866,-190.6934"/>
</g>
<!-- 8 -->
<g id="node9" class="node">
<title>8</title>
<path fill="none" stroke="#56a9d8" stroke-width="2" d="M83.5,-612C83.5,-612 49.5,-612 49.5,-612 43.5,-612 37.5,-606 37.5,-600 37.5,-600 37.5,-588 37.5,-588 37.5,-582 43.5,-576 49.5,-576 49.5,-576 83.5,-576 83.5,-576 89.5,-576 95.5,-582 95.5,-588 95.5,-588 95.5,-600 95.5,-600 95.5,-606 89.5,-612 83.5,-612"/>
<text text-anchor="middle" x="66.5" y="-591.5" font-family="sans" font-size="10.00" fill="#000000">SortSam</text>
</g>
<!-- 8&#45;&gt;3 -->
<g id="edge9" class="edge">
<title>8&#45;&gt;3</title>
<path fill="none" stroke="#c0c0c0" stroke-width="2" d="M66.5,-575.8314C66.5,-568.131 66.5,-558.9743 66.5,-550.4166"/>
<polygon fill="#c0c0c0" stroke="#c0c0c0" stroke-width="2" points="70.0001,-550.4132 66.5,-540.4133 63.0001,-550.4133 70.0001,-550.4132"/>
</g>
<!-- 9&#45;&gt;7 -->
<g id="edge12" class="edge">
<title>9&#45;&gt;7</title>
<path fill="none" stroke="#c0c0c0" stroke-width="2" d="M102.9744,-431.775C99.2321,-413.1276 95.8034,-383.6201 104.5,-360 108.305,-349.6656 115.0644,-339.9621 122.25,-331.7098"/>
<polygon fill="#c0c0c0" stroke="#c0c0c0" stroke-width="2" points="124.9279,-333.9701 129.1873,-324.2692 119.808,-329.1965 124.9279,-333.9701"/>
</g>
<!-- 10 -->
<g id="node11" class="node">
<title>10</title>
<path fill="none" stroke="#68d856" stroke-width="2" d="M203,-396C203,-396 126,-396 126,-396 120,-396 114,-390 114,-384 114,-384 114,-372 114,-372 114,-366 120,-360 126,-360 126,-360 203,-360 203,-360 209,-360 215,-366 215,-372 215,-372 215,-384 215,-384 215,-390 209,-396 203,-396"/>
<text text-anchor="middle" x="164.5" y="-375.5" font-family="sans" font-size="10.00" fill="#000000">RecalibrateBases</text>
</g>
<!-- 9&#45;&gt;10 -->
<g id="edge16" class="edge">
<title>9&#45;&gt;10</title>
<path fill="none" stroke="#c0c0c0" stroke-width="2" d="M121.8835,-431.8314C128.4486,-423.5386 136.3507,-413.557 143.5578,-404.4533"/>
<polygon fill="#c0c0c0" stroke="#c0c0c0" stroke-width="2" points="146.4599,-406.4262 149.9228,-396.4133 140.9716,-402.0813 146.4599,-406.4262"/>
</g>
<!-- 10&#45;&gt;7 -->
<g id="edge13" class="edge">
<title>10&#45;&gt;7</title>
<path fill="none" stroke="#c0c0c0" stroke-width="2" d="M160.9672,-359.8314C159.4699,-352.131 157.6895,-342.9743 156.0255,-334.4166"/>
<polygon fill="#c0c0c0" stroke="#c0c0c0" stroke-width="2" points="159.4248,-333.5614 154.0804,-324.4133 152.5535,-334.8975 159.4248,-333.5614"/>
</g>
<!-- 11 -->
<g id="node12" class="node">
<title>11</title>
<path fill="none" stroke="#d8a456" stroke-width="2" d="M88,-684C88,-684 45,-684 45,-684 39,-684 33,-678 33,-672 33,-672 33,-660 33,-660 33,-654 39,-648 45,-648 45,-648 88,-648 88,-648 94,-648 100,-654 100,-660 100,-660 100,-672 100,-672 100,-678 94,-684 88,-684"/>
<text text-anchor="middle" x="66.5" y="-663.5" font-family="sans" font-size="10.00" fill="#000000">AlignHg38</text>
</g>
<!-- 11&#45;&gt;8 -->
<g id="edge14" class="edge">
<title>11&#45;&gt;8</title>
<path fill="none" stroke="#c0c0c0" stroke-width="2" d="M66.5,-647.8314C66.5,-640.131 66.5,-630.9743 66.5,-622.4166"/>
<polygon fill="#c0c0c0" stroke="#c0c0c0" stroke-width="2" points="70.0001,-622.4132 66.5,-612.4133 63.0001,-622.4133 70.0001,-622.4132"/>
</g>
</g>
</svg>
