<?xml version="1.0" encoding="UTF-8" standalone="no"?>
<!DOCTYPE svg PUBLIC "-//W3C//DTD SVG 1.1//EN"
 "http://www.w3.org/Graphics/SVG/1.1/DTD/svg11.dtd">
<!-- Generated by graphviz version 2.26.0 (20091210.2329)
 -->
<!-- Title: snakemake_dag Pages: 1 -->
<svg width="518pt" height="692pt"
 viewBox="0.00 0.00 517.82 692.00" xmlns="http://www.w3.org/2000/svg" xmlns:xlink="http://www.w3.org/1999/xlink">
<g id="graph1" class="graph" transform="scale(1 1) rotate(0) translate(4 688)">
<title>snakemake_dag</title>
<polygon fill="white" stroke="white" points="-4,5 -4,-688 514.822,-688 514.822,5 -4,5"/>
<!-- 0 -->
<g id="node1" class="node"><title>0</title>
<polyline fill="none" stroke="#567bd8" stroke-width="2" points="238,-612 198,-612 "/>
<path fill="none" stroke="#567bd8" stroke-width="2" d="M198,-612C192,-612 186,-606 186,-600"/>
<polyline fill="none" stroke="#567bd8" stroke-width="2" points="186,-600 186,-588 "/>
<path fill="none" stroke="#567bd8" stroke-width="2" d="M186,-588C186,-582 192,-576 198,-576"/>
<polyline fill="none" stroke="#567bd8" stroke-width="2" points="198,-576 238,-576 "/>
<path fill="none" stroke="#567bd8" stroke-width="2" d="M238,-576C244,-576 250,-582 250,-588"/>
<polyline fill="none" stroke="#567bd8" stroke-width="2" points="250,-588 250,-600 "/>
<path fill="none" stroke="#567bd8" stroke-width="2" d="M250,-600C250,-606 244,-612 238,-612"/>
<text text-anchor="middle" x="218" y="-591.5" font-family="sans" font-size="10.00">Novoalign</text>
</g>
<!-- 8 -->
<g id="node9" class="node"><title>8</title>
<polyline fill="none" stroke="#78d856" stroke-width="2" points="235,-540 201,-540 "/>
<path fill="none" stroke="#78d856" stroke-width="2" d="M201,-540C195,-540 189,-534 189,-528"/>
<polyline fill="none" stroke="#78d856" stroke-width="2" points="189,-528 189,-516 "/>
<path fill="none" stroke="#78d856" stroke-width="2" d="M189,-516C189,-510 195,-504 201,-504"/>
<polyline fill="none" stroke="#78d856" stroke-width="2" points="201,-504 235,-504 "/>
<path fill="none" stroke="#78d856" stroke-width="2" d="M235,-504C241,-504 247,-510 247,-516"/>
<polyline fill="none" stroke="#78d856" stroke-width="2" points="247,-516 247,-528 "/>
<path fill="none" stroke="#78d856" stroke-width="2" d="M247,-528C247,-534 241,-540 235,-540"/>
<text text-anchor="middle" x="218" y="-519.5" font-family="sans" font-size="10.00">SortSam</text>
</g>
<!-- 0&#45;&gt;8 -->
<g id="edge20" class="edge"><title>0&#45;&gt;8</title>
<path fill="none" stroke="grey" stroke-width="2" d="M218,-575.831C218,-568.131 218,-558.974 218,-550.417"/>
<polygon fill="grey" stroke="grey" points="221.5,-550.413 218,-540.413 214.5,-550.413 221.5,-550.413"/>
</g>
<!-- 1 -->
<g id="node2" class="node"><title>1</title>
<polyline fill="none" stroke="#56d8c9" stroke-width="2" points="147,-36 93,-36 "/>
<path fill="none" stroke="#56d8c9" stroke-width="2" d="M93,-36C87,-36 81,-30 81,-24"/>
<polyline fill="none" stroke="#56d8c9" stroke-width="2" points="81,-24 81,-12 "/>
<path fill="none" stroke="#56d8c9" stroke-width="2" d="M81,-12C81,-6 87,-1.66704e-14 93,-1.55773e-14"/>
<polyline fill="none" stroke="#56d8c9" stroke-width="2" points="93,-1.55773e-14 147,-5.739e-15 "/>
<path fill="none" stroke="#56d8c9" stroke-width="2" d="M147,-5.739e-15C153,-4.64586e-15 159,-6 159,-12"/>
<polyline fill="none" stroke="#56d8c9" stroke-width="2" points="159,-12 159,-24 "/>
<path fill="none" stroke="#56d8c9" stroke-width="2" d="M159,-24C159,-30 153,-36 147,-36"/>
<text text-anchor="middle" x="120" y="-15.5" font-family="sans" font-size="10.00">FinalCleanup</text>
</g>
<!-- 2 -->
<g id="node3" class="node"><title>2</title>
<polyline fill="none" stroke="#9fd856" stroke-width="2" points="149,-108 91,-108 "/>
<path fill="none" stroke="#9fd856" stroke-width="2" d="M91,-108C85,-108 79,-102 79,-96"/>
<polyline fill="none" stroke="#9fd856" stroke-width="2" points="79,-96 79,-84 "/>
<path fill="none" stroke="#9fd856" stroke-width="2" d="M79,-84C79,-78 85,-72 91,-72"/>
<polyline fill="none" stroke="#9fd856" stroke-width="2" points="91,-72 149,-72 "/>
<path fill="none" stroke="#9fd856" stroke-width="2" d="M149,-72C155,-72 161,-78 161,-84"/>
<polyline fill="none" stroke="#9fd856" stroke-width="2" points="161,-84 161,-96 "/>
<path fill="none" stroke="#9fd856" stroke-width="2" d="M161,-96C161,-102 155,-108 149,-108"/>
<text text-anchor="middle" x="120" y="-87.5" font-family="sans" font-size="10.00">OrganizeFiles</text>
</g>
<!-- 2&#45;&gt;1 -->
<g id="edge4" class="edge"><title>2&#45;&gt;1</title>
<path fill="none" stroke="grey" stroke-width="2" d="M120,-71.8314C120,-64.131 120,-54.9743 120,-46.4166"/>
<polygon fill="grey" stroke="grey" points="123.5,-46.4132 120,-36.4133 116.5,-46.4133 123.5,-46.4132"/>
</g>
<!-- 3 -->
<g id="node4" class="node"><title>3</title>
<polyline fill="none" stroke="#c6d856" stroke-width="2" points="190,-396 144,-396 "/>
<path fill="none" stroke="#c6d856" stroke-width="2" d="M144,-396C138,-396 132,-390 132,-384"/>
<polyline fill="none" stroke="#c6d856" stroke-width="2" points="132,-384 132,-372 "/>
<path fill="none" stroke="#c6d856" stroke-width="2" d="M132,-372C132,-366 138,-360 144,-360"/>
<polyline fill="none" stroke="#c6d856" stroke-width="2" points="144,-360 190,-360 "/>
<path fill="none" stroke="#c6d856" stroke-width="2" d="M190,-360C196,-360 202,-366 202,-372"/>
<polyline fill="none" stroke="#c6d856" stroke-width="2" points="202,-372 202,-384 "/>
<path fill="none" stroke="#c6d856" stroke-width="2" d="M202,-384C202,-390 196,-396 190,-396"/>
<text text-anchor="middle" x="167" y="-375.5" font-family="sans" font-size="10.00">Sam2USeq</text>
</g>
<!-- 3&#45;&gt;2 -->
<g id="edge8" class="edge"><title>3&#45;&gt;2</title>
<path fill="none" stroke="grey" stroke-width="2" d="M155.227,-359.773C149.297,-349.649 142.615,-336.586 139,-324 118.315,-251.98 117.541,-162.723 118.747,-118.127"/>
<polygon fill="grey" stroke="grey" points="122.248,-118.151 119.076,-108.042 115.252,-117.922 122.248,-118.151"/>
</g>
<!-- 4 -->
<g id="node5" class="node"><title>4</title>
<polyline fill="none" stroke="#d85656" stroke-width="2" points="329,-468 217,-468 "/>
<path fill="none" stroke="#d85656" stroke-width="2" d="M217,-468C211,-468 205,-462 205,-456"/>
<polyline fill="none" stroke="#d85656" stroke-width="2" points="205,-456 205,-444 "/>
<path fill="none" stroke="#d85656" stroke-width="2" d="M205,-444C205,-438 211,-432 217,-432"/>
<polyline fill="none" stroke="#d85656" stroke-width="2" points="217,-432 329,-432 "/>
<path fill="none" stroke="#d85656" stroke-width="2" d="M329,-432C335,-432 341,-438 341,-444"/>
<polyline fill="none" stroke="#d85656" stroke-width="2" points="341,-444 341,-456 "/>
<path fill="none" stroke="#d85656" stroke-width="2" d="M341,-456C341,-462 335,-468 329,-468"/>
<text text-anchor="middle" x="273" y="-447.5" font-family="sans" font-size="10.00">NovoalignBisulfiteParser</text>
</g>
<!-- 13 -->
<g id="node14" class="node"><title>13</title>
<polyline fill="none" stroke="#56d8a2" stroke-width="2" points="356,-396 286,-396 "/>
<path fill="none" stroke="#56d8a2" stroke-width="2" d="M286,-396C280,-396 274,-390 274,-384"/>
<polyline fill="none" stroke="#56d8a2" stroke-width="2" points="274,-384 274,-372 "/>
<path fill="none" stroke="#56d8a2" stroke-width="2" d="M274,-372C274,-366 280,-360 286,-360"/>
<polyline fill="none" stroke="#56d8a2" stroke-width="2" points="286,-360 356,-360 "/>
<path fill="none" stroke="#56d8a2" stroke-width="2" d="M356,-360C362,-360 368,-366 368,-372"/>
<polyline fill="none" stroke="#56d8a2" stroke-width="2" points="368,-372 368,-384 "/>
<path fill="none" stroke="#56d8a2" stroke-width="2" d="M368,-384C368,-390 362,-396 356,-396"/>
<text text-anchor="middle" x="321" y="-375.5" font-family="sans" font-size="10.00">FilterPointData</text>
</g>
<!-- 4&#45;&gt;13 -->
<g id="edge32" class="edge"><title>4&#45;&gt;13</title>
<path fill="none" stroke="grey" stroke-width="2" d="M285.112,-431.831C290.528,-423.708 297.024,-413.964 302.992,-405.012"/>
<polygon fill="grey" stroke="grey" points="306.09,-406.675 308.724,-396.413 300.265,-402.792 306.09,-406.675"/>
</g>
<!-- 5 -->
<g id="node6" class="node"><title>5</title>
<polyline fill="none" stroke="#56a2d8" stroke-width="2" points="300,-324 160,-324 "/>
<path fill="none" stroke="#56a2d8" stroke-width="2" d="M160,-324C154,-324 148,-318 148,-312"/>
<polyline fill="none" stroke="#56a2d8" stroke-width="2" points="148,-312 148,-300 "/>
<path fill="none" stroke="#56a2d8" stroke-width="2" d="M148,-300C148,-294 154,-288 160,-288"/>
<polyline fill="none" stroke="#56a2d8" stroke-width="2" points="160,-288 300,-288 "/>
<path fill="none" stroke="#56a2d8" stroke-width="2" d="M300,-288C306,-288 312,-294 312,-300"/>
<polyline fill="none" stroke="#56a2d8" stroke-width="2" points="312,-300 312,-312 "/>
<path fill="none" stroke="#56a2d8" stroke-width="2" d="M312,-312C312,-318 306,-324 300,-324"/>
<text text-anchor="middle" x="230" y="-303.5" font-family="sans" font-size="10.00">ParsePointDataContextsCon</text>
</g>
<!-- 10 -->
<g id="node11" class="node"><title>10</title>
<polyline fill="none" stroke="#56c9d8" stroke-width="2" points="304,-252 260,-252 "/>
<path fill="none" stroke="#56c9d8" stroke-width="2" d="M260,-252C254,-252 248,-246 248,-240"/>
<polyline fill="none" stroke="#56c9d8" stroke-width="2" points="248,-240 248,-228 "/>
<path fill="none" stroke="#56c9d8" stroke-width="2" d="M248,-228C248,-222 254,-216 260,-216"/>
<polyline fill="none" stroke="#56c9d8" stroke-width="2" points="260,-216 304,-216 "/>
<path fill="none" stroke="#56c9d8" stroke-width="2" d="M304,-216C310,-216 316,-222 316,-228"/>
<polyline fill="none" stroke="#56c9d8" stroke-width="2" points="316,-228 316,-240 "/>
<path fill="none" stroke="#56c9d8" stroke-width="2" d="M316,-240C316,-246 310,-252 304,-252"/>
<text text-anchor="middle" x="282" y="-231.5" font-family="sans" font-size="10.00">BisStatCG</text>
</g>
<!-- 5&#45;&gt;10 -->
<g id="edge28" class="edge"><title>5&#45;&gt;10</title>
<path fill="none" stroke="grey" stroke-width="2" d="M243.122,-287.831C249.05,-279.623 256.173,-269.761 262.693,-260.732"/>
<polygon fill="grey" stroke="grey" points="265.684,-262.569 268.702,-252.413 260.009,-258.471 265.684,-262.569"/>
</g>
<!-- 6 -->
<g id="node7" class="node"><title>6</title>
<polyline fill="none" stroke="#59d856" stroke-width="2" points="80,-180 12,-180 "/>
<path fill="none" stroke="#59d856" stroke-width="2" d="M12,-180C6,-180 3.55271e-14,-174 2.84217e-14,-168"/>
<polyline fill="none" stroke="#59d856" stroke-width="2" points="2.84217e-14,-168 1.42109e-14,-156 "/>
<path fill="none" stroke="#59d856" stroke-width="2" d="M1.42109e-14,-156C7.10543e-15,-150 6,-144 12,-144"/>
<polyline fill="none" stroke="#59d856" stroke-width="2" points="12,-144 80,-144 "/>
<path fill="none" stroke="#59d856" stroke-width="2" d="M80,-144C86,-144 92,-150 92,-156"/>
<polyline fill="none" stroke="#59d856" stroke-width="2" points="92,-156 92,-168 "/>
<path fill="none" stroke="#59d856" stroke-width="2" d="M92,-168C92,-174 86,-180 80,-180"/>
<text text-anchor="middle" x="46" y="-159.5" font-family="sans" font-size="10.00">CheckGzipFiles</text>
</g>
<!-- 6&#45;&gt;2 -->
<g id="edge6" class="edge"><title>6&#45;&gt;2</title>
<path fill="none" stroke="grey" stroke-width="2" d="M64.6733,-143.831C73.5249,-135.219 84.2486,-124.785 93.8895,-115.405"/>
<polygon fill="grey" stroke="grey" points="96.6061,-117.645 101.333,-108.163 91.7246,-112.628 96.6061,-117.645"/>
</g>
<!-- 7 -->
<g id="node8" class="node"><title>7</title>
<polyline fill="none" stroke="#d87d56" stroke-width="2" points="490,-252 450,-252 "/>
<path fill="none" stroke="#d87d56" stroke-width="2" d="M450,-252C444,-252 438,-246 438,-240"/>
<polyline fill="none" stroke="#d87d56" stroke-width="2" points="438,-240 438,-228 "/>
<path fill="none" stroke="#d87d56" stroke-width="2" d="M438,-228C438,-222 444,-216 450,-216"/>
<polyline fill="none" stroke="#d87d56" stroke-width="2" points="450,-216 490,-216 "/>
<path fill="none" stroke="#d87d56" stroke-width="2" d="M490,-216C496,-216 502,-222 502,-228"/>
<polyline fill="none" stroke="#d87d56" stroke-width="2" points="502,-228 502,-240 "/>
<path fill="none" stroke="#d87d56" stroke-width="2" d="M502,-240C502,-246 496,-252 490,-252"/>
<text text-anchor="middle" x="470" y="-231.5" font-family="sans" font-size="10.00">BisStatAll</text>
</g>
<!-- 9 -->
<g id="node10" class="node"><title>9</title>
<polyline fill="none" stroke="#d8c356" stroke-width="2" points="316,-180 248,-180 "/>
<path fill="none" stroke="#d8c356" stroke-width="2" d="M248,-180C242,-180 236,-174 236,-168"/>
<polyline fill="none" stroke="#d8c356" stroke-width="2" points="236,-168 236,-156 "/>
<path fill="none" stroke="#d8c356" stroke-width="2" d="M236,-156C236,-150 242,-144 248,-144"/>
<polyline fill="none" stroke="#d8c356" stroke-width="2" points="248,-144 316,-144 "/>
<path fill="none" stroke="#d8c356" stroke-width="2" d="M316,-144C322,-144 328,-150 328,-156"/>
<polyline fill="none" stroke="#d8c356" stroke-width="2" points="328,-156 328,-168 "/>
<path fill="none" stroke="#d8c356" stroke-width="2" d="M328,-168C328,-174 322,-180 316,-180"/>
<text text-anchor="middle" x="282" y="-159.5" font-family="sans" font-size="10.00">USeq2UCSCBig</text>
</g>
<!-- 7&#45;&gt;9 -->
<g id="edge22" class="edge"><title>7&#45;&gt;9</title>
<path fill="none" stroke="grey" stroke-width="2" d="M437.682,-221.623C410.258,-211.12 370.295,-195.815 337.724,-183.341"/>
<polygon fill="grey" stroke="grey" points="338.905,-180.046 328.315,-179.737 336.401,-186.583 338.905,-180.046"/>
</g>
<!-- 8&#45;&gt;3 -->
<g id="edge12" class="edge"><title>8&#45;&gt;3</title>
<path fill="none" stroke="grey" stroke-width="2" d="M210.119,-503.639C205.763,-493.254 200.365,-479.985 196,-468 188.486,-447.369 180.907,-423.729 175.383,-405.856"/>
<polygon fill="grey" stroke="grey" points="178.659,-404.601 172.383,-396.065 171.966,-406.651 178.659,-404.601"/>
</g>
<!-- 8&#45;&gt;4 -->
<g id="edge14" class="edge"><title>8&#45;&gt;4</title>
<path fill="none" stroke="grey" stroke-width="2" d="M231.879,-503.831C238.214,-495.539 245.838,-485.557 252.793,-476.453"/>
<polygon fill="grey" stroke="grey" points="255.645,-478.485 258.934,-468.413 250.083,-474.235 255.645,-478.485"/>
</g>
<!-- 9&#45;&gt;2 -->
<g id="edge10" class="edge"><title>9&#45;&gt;2</title>
<path fill="none" stroke="grey" stroke-width="2" d="M241.121,-143.831C219.454,-134.202 192.664,-122.295 169.792,-112.13"/>
<polygon fill="grey" stroke="grey" points="171.145,-108.901 160.585,-108.038 168.302,-115.298 171.145,-108.901"/>
</g>
<!-- 10&#45;&gt;9 -->
<g id="edge24" class="edge"><title>10&#45;&gt;9</title>
<path fill="none" stroke="grey" stroke-width="2" d="M282,-215.831C282,-208.131 282,-198.974 282,-190.417"/>
<polygon fill="grey" stroke="grey" points="285.5,-190.413 282,-180.413 278.5,-190.413 285.5,-190.413"/>
</g>
<!-- 11 -->
<g id="node12" class="node"><title>11</title>
<polyline fill="none" stroke="#d8a456" stroke-width="2" points="482,-324 342,-324 "/>
<path fill="none" stroke="#d8a456" stroke-width="2" d="M342,-324C336,-324 330,-318 330,-312"/>
<polyline fill="none" stroke="#d8a456" stroke-width="2" points="330,-312 330,-300 "/>
<path fill="none" stroke="#d8a456" stroke-width="2" d="M330,-300C330,-294 336,-288 342,-288"/>
<polyline fill="none" stroke="#d8a456" stroke-width="2" points="342,-288 482,-288 "/>
<path fill="none" stroke="#d8a456" stroke-width="2" d="M482,-288C488,-288 494,-294 494,-300"/>
<polyline fill="none" stroke="#d8a456" stroke-width="2" points="494,-300 494,-312 "/>
<path fill="none" stroke="#d8a456" stroke-width="2" d="M494,-312C494,-318 488,-324 482,-324"/>
<text text-anchor="middle" x="412" y="-303.5" font-family="sans" font-size="10.00">ParsePointDataContextsNon</text>
</g>
<!-- 11&#45;&gt;10 -->
<g id="edge26" class="edge"><title>11&#45;&gt;10</title>
<path fill="none" stroke="grey" stroke-width="2" d="M379.196,-287.831C362.414,-278.537 341.801,-267.121 323.884,-257.197"/>
<polygon fill="grey" stroke="grey" points="325.238,-253.946 314.794,-252.163 321.846,-260.07 325.238,-253.946"/>
</g>
<!-- 12 -->
<g id="node13" class="node"><title>12</title>
<polyline fill="none" stroke="#56d87b" stroke-width="2" points="256,-684 180,-684 "/>
<path fill="none" stroke="#56d87b" stroke-width="2" d="M180,-684C174,-684 168,-678 168,-672"/>
<polyline fill="none" stroke="#56d87b" stroke-width="2" points="168,-672 168,-660 "/>
<path fill="none" stroke="#56d87b" stroke-width="2" d="M168,-660C168,-654 174,-648 180,-648"/>
<polyline fill="none" stroke="#56d87b" stroke-width="2" points="180,-648 256,-648 "/>
<path fill="none" stroke="#56d87b" stroke-width="2" d="M256,-648C262,-648 268,-654 268,-660"/>
<polyline fill="none" stroke="#56d87b" stroke-width="2" points="268,-660 268,-672 "/>
<path fill="none" stroke="#56d87b" stroke-width="2" d="M268,-672C268,-678 262,-684 256,-684"/>
<text text-anchor="middle" x="218" y="-663.5" font-family="sans" font-size="10.00">CheckResources</text>
</g>
<!-- 12&#45;&gt;0 -->
<g id="edge2" class="edge"><title>12&#45;&gt;0</title>
<path fill="none" stroke="grey" stroke-width="2" d="M218,-647.831C218,-640.131 218,-630.974 218,-622.417"/>
<polygon fill="grey" stroke="grey" points="221.5,-622.413 218,-612.413 214.5,-622.413 221.5,-622.413"/>
</g>
<!-- 13&#45;&gt;5 -->
<g id="edge16" class="edge"><title>13&#45;&gt;5</title>
<path fill="none" stroke="grey" stroke-width="2" d="M298.037,-359.831C286.828,-350.963 273.179,-340.164 261.056,-330.572"/>
<polygon fill="grey" stroke="grey" points="262.97,-327.623 252.956,-324.163 258.626,-333.112 262.97,-327.623"/>
</g>
<!-- 13&#45;&gt;7 -->
<g id="edge18" class="edge"><title>13&#45;&gt;7</title>
<path fill="none" stroke="grey" stroke-width="2" d="M368.358,-370.482C416.688,-361.729 486.834,-345.658 503,-324 517.157,-305.032 505.4,-279.363 492.152,-260.292"/>
<polygon fill="grey" stroke="grey" points="494.809,-257.999 486.048,-252.042 489.182,-262.162 494.809,-257.999"/>
</g>
<!-- 13&#45;&gt;11 -->
<g id="edge30" class="edge"><title>13&#45;&gt;11</title>
<path fill="none" stroke="grey" stroke-width="2" d="M343.963,-359.831C355.172,-350.963 368.821,-340.164 380.944,-330.572"/>
<polygon fill="grey" stroke="grey" points="383.374,-333.112 389.044,-324.163 379.03,-327.623 383.374,-333.112"/>
</g>
</g>
</svg>
