<?xml version="1.0" encoding="UTF-8" standalone="no"?>
<!DOCTYPE svg PUBLIC "-//W3C//DTD SVG 1.1//EN"
 "http://www.w3.org/Graphics/SVG/1.1/DTD/svg11.dtd">
<!-- Generated by graphviz version 2.26.0 (20091210.2329)
 -->
<!-- Title: snakemake_dag Pages: 1 -->
<svg width="399pt" height="1484pt"
 viewBox="0.00 0.00 399.00 1484.00" xmlns="http://www.w3.org/2000/svg" xmlns:xlink="http://www.w3.org/1999/xlink">
<g id="graph1" class="graph" transform="scale(1 1) rotate(0) translate(4 1480)">
<title>snakemake_dag</title>
<polygon fill="white" stroke="white" points="-4,5 -4,-1480 396,-1480 396,5 -4,5"/>
<!-- 0 -->
<g id="node1" class="node"><title>0</title>
<polyline fill="none" stroke="#567bd8" stroke-width="2" points="268,-684 238,-684 "/>
<path fill="none" stroke="#567bd8" stroke-width="2" d="M238,-684C232,-684 226,-678 226,-672"/>
<polyline fill="none" stroke="#567bd8" stroke-width="2" points="226,-672 226,-660 "/>
<path fill="none" stroke="#567bd8" stroke-width="2" d="M226,-660C226,-654 232,-648 238,-648"/>
<polyline fill="none" stroke="#567bd8" stroke-width="2" points="238,-648 268,-648 "/>
<path fill="none" stroke="#567bd8" stroke-width="2" d="M268,-648C274,-648 280,-654 280,-660"/>
<polyline fill="none" stroke="#567bd8" stroke-width="2" points="280,-660 280,-672 "/>
<path fill="none" stroke="#567bd8" stroke-width="2" d="M280,-672C280,-678 274,-684 268,-684"/>
<text text-anchor="middle" x="253" y="-663.5" font-family="sans" font-size="10.00">lofreq</text>
</g>
<!-- 14 -->
<g id="node15" class="node"><title>14</title>
<polyline fill="none" stroke="#8fd856" stroke-width="2" points="312,-612 240,-612 "/>
<path fill="none" stroke="#8fd856" stroke-width="2" d="M240,-612C234,-612 228,-606 228,-600"/>
<polyline fill="none" stroke="#8fd856" stroke-width="2" points="228,-600 228,-588 "/>
<path fill="none" stroke="#8fd856" stroke-width="2" d="M228,-588C228,-582 234,-576 240,-576"/>
<polyline fill="none" stroke="#8fd856" stroke-width="2" points="240,-576 312,-576 "/>
<path fill="none" stroke="#8fd856" stroke-width="2" d="M312,-576C318,-576 324,-582 324,-588"/>
<polyline fill="none" stroke="#8fd856" stroke-width="2" points="324,-588 324,-600 "/>
<path fill="none" stroke="#8fd856" stroke-width="2" d="M324,-600C324,-606 318,-612 312,-612"/>
<text text-anchor="middle" x="276" y="-591.5" font-family="sans" font-size="10.00">filterLofreqSnvs</text>
</g>
<!-- 0&#45;&gt;14 -->
<g id="edge36" class="edge"><title>0&#45;&gt;14</title>
<path fill="none" stroke="grey" stroke-width="2" d="M258.804,-647.831C261.291,-640.046 264.253,-630.773 267.013,-622.135"/>
<polygon fill="grey" stroke="grey" points="270.409,-623.004 270.118,-612.413 263.741,-620.874 270.409,-623.004"/>
</g>
<!-- 1 -->
<g id="node2" class="node"><title>1</title>
<polyline fill="none" stroke="#59d856" stroke-width="2" points="379,-756 313,-756 "/>
<path fill="none" stroke="#59d856" stroke-width="2" d="M313,-756C307,-756 301,-750 301,-744"/>
<polyline fill="none" stroke="#59d856" stroke-width="2" points="301,-744 301,-732 "/>
<path fill="none" stroke="#59d856" stroke-width="2" d="M301,-732C301,-726 307,-720 313,-720"/>
<polyline fill="none" stroke="#59d856" stroke-width="2" points="313,-720 379,-720 "/>
<path fill="none" stroke="#59d856" stroke-width="2" d="M379,-720C385,-720 391,-726 391,-732"/>
<polyline fill="none" stroke="#59d856" stroke-width="2" points="391,-732 391,-744 "/>
<path fill="none" stroke="#59d856" stroke-width="2" d="M391,-744C391,-750 385,-756 379,-756"/>
<text text-anchor="middle" x="346" y="-735.5" font-family="sans" font-size="10.00">useq2UCSCBig</text>
</g>
<!-- 16 -->
<g id="node17" class="node"><title>16</title>
<polyline fill="none" stroke="#56a2d8" stroke-width="2" points="293,-180 193,-180 "/>
<path fill="none" stroke="#56a2d8" stroke-width="2" d="M193,-180C187,-180 181,-174 181,-168"/>
<polyline fill="none" stroke="#56a2d8" stroke-width="2" points="181,-168 181,-156 "/>
<path fill="none" stroke="#56a2d8" stroke-width="2" d="M181,-156C181,-150 187,-144 193,-144"/>
<polyline fill="none" stroke="#56a2d8" stroke-width="2" points="193,-144 293,-144 "/>
<path fill="none" stroke="#56a2d8" stroke-width="2" d="M293,-144C299,-144 305,-150 305,-156"/>
<polyline fill="none" stroke="#56a2d8" stroke-width="2" points="305,-156 305,-168 "/>
<path fill="none" stroke="#56a2d8" stroke-width="2" d="M305,-168C305,-174 299,-180 293,-180"/>
<text text-anchor="middle" x="243" y="-159.5" font-family="sans" font-size="10.00">organizeFilesNGSWeb</text>
</g>
<!-- 1&#45;&gt;16 -->
<g id="edge46" class="edge"><title>1&#45;&gt;16</title>
<path fill="none" stroke="grey" stroke-width="2" d="M347.243,-719.825C349.001,-692.521 352,-639.289 352,-594 352,-594 352,-594 352,-306 352,-255.919 309.567,-212.274 277.652,-186.53"/>
<polygon fill="grey" stroke="grey" points="279.419,-183.469 269.386,-180.066 275.107,-188.983 279.419,-183.469"/>
</g>
<!-- 2 -->
<g id="node3" class="node"><title>2</title>
<polyline fill="none" stroke="#b6d856" stroke-width="2" points="216,-468 148,-468 "/>
<path fill="none" stroke="#b6d856" stroke-width="2" d="M148,-468C142,-468 136,-462 136,-456"/>
<polyline fill="none" stroke="#b6d856" stroke-width="2" points="136,-456 136,-444 "/>
<path fill="none" stroke="#b6d856" stroke-width="2" d="M136,-444C136,-438 142,-432 148,-432"/>
<polyline fill="none" stroke="#b6d856" stroke-width="2" points="148,-432 216,-432 "/>
<path fill="none" stroke="#b6d856" stroke-width="2" d="M216,-432C222,-432 228,-438 228,-444"/>
<polyline fill="none" stroke="#b6d856" stroke-width="2" points="228,-444 228,-456 "/>
<path fill="none" stroke="#b6d856" stroke-width="2" d="M228,-456C228,-462 222,-468 216,-468"/>
<text text-anchor="middle" x="182" y="-447.5" font-family="sans" font-size="10.00">vcfRegionFilter</text>
</g>
<!-- 25 -->
<g id="node26" class="node"><title>25</title>
<polyline fill="none" stroke="#d6d856" stroke-width="2" points="220,-396 144,-396 "/>
<path fill="none" stroke="#d6d856" stroke-width="2" d="M144,-396C138,-396 132,-390 132,-384"/>
<polyline fill="none" stroke="#d6d856" stroke-width="2" points="132,-384 132,-372 "/>
<path fill="none" stroke="#d6d856" stroke-width="2" d="M132,-372C132,-366 138,-360 144,-360"/>
<polyline fill="none" stroke="#d6d856" stroke-width="2" points="144,-360 220,-360 "/>
<path fill="none" stroke="#d6d856" stroke-width="2" d="M220,-360C226,-360 232,-366 232,-372"/>
<polyline fill="none" stroke="#d6d856" stroke-width="2" points="232,-372 232,-384 "/>
<path fill="none" stroke="#d6d856" stroke-width="2" d="M232,-384C232,-390 226,-396 220,-396"/>
<text text-anchor="middle" x="182" y="-375.5" font-family="sans" font-size="10.00">vcfRegionMarker</text>
</g>
<!-- 2&#45;&gt;25 -->
<g id="edge66" class="edge"><title>2&#45;&gt;25</title>
<path fill="none" stroke="grey" stroke-width="2" d="M182,-431.831C182,-424.131 182,-414.974 182,-406.417"/>
<polygon fill="grey" stroke="grey" points="185.5,-406.413 182,-396.413 178.5,-406.413 185.5,-406.413"/>
</g>
<!-- 3 -->
<g id="node4" class="node"><title>3</title>
<polyline fill="none" stroke="#9fd856" stroke-width="2" points="369,-900 257,-900 "/>
<path fill="none" stroke="#9fd856" stroke-width="2" d="M257,-900C251,-900 245,-894 245,-888"/>
<polyline fill="none" stroke="#9fd856" stroke-width="2" points="245,-888 245,-876 "/>
<path fill="none" stroke="#9fd856" stroke-width="2" d="M245,-876C245,-870 251,-864 257,-864"/>
<polyline fill="none" stroke="#9fd856" stroke-width="2" points="257,-864 369,-864 "/>
<path fill="none" stroke="#9fd856" stroke-width="2" d="M369,-864C375,-864 381,-870 381,-876"/>
<polyline fill="none" stroke="#9fd856" stroke-width="2" points="381,-876 381,-888 "/>
<path fill="none" stroke="#9fd856" stroke-width="2" d="M381,-888C381,-894 375,-900 369,-900"/>
<text text-anchor="middle" x="313" y="-879.5" font-family="sans" font-size="10.00">mergePairedAlignments</text>
</g>
<!-- 26 -->
<g id="node27" class="node"><title>26</title>
<polyline fill="none" stroke="#78d856" stroke-width="2" points="346,-828 302,-828 "/>
<path fill="none" stroke="#78d856" stroke-width="2" d="M302,-828C296,-828 290,-822 290,-816"/>
<polyline fill="none" stroke="#78d856" stroke-width="2" points="290,-816 290,-804 "/>
<path fill="none" stroke="#78d856" stroke-width="2" d="M290,-804C290,-798 296,-792 302,-792"/>
<polyline fill="none" stroke="#78d856" stroke-width="2" points="302,-792 346,-792 "/>
<path fill="none" stroke="#78d856" stroke-width="2" d="M346,-792C352,-792 358,-798 358,-804"/>
<polyline fill="none" stroke="#78d856" stroke-width="2" points="358,-804 358,-816 "/>
<path fill="none" stroke="#78d856" stroke-width="2" d="M358,-816C358,-822 352,-828 346,-828"/>
<text text-anchor="middle" x="324" y="-807.5" font-family="sans" font-size="10.00">sam2USeq</text>
</g>
<!-- 3&#45;&gt;26 -->
<g id="edge68" class="edge"><title>3&#45;&gt;26</title>
<path fill="none" stroke="grey" stroke-width="2" d="M315.776,-863.831C316.952,-856.131 318.351,-846.974 319.659,-838.417"/>
<polygon fill="grey" stroke="grey" points="323.136,-838.827 321.187,-828.413 316.217,-837.77 323.136,-838.827"/>
</g>
<!-- 4 -->
<g id="node5" class="node"><title>4</title>
<polyline fill="none" stroke="#d86656" stroke-width="2" points="179,-1332 31,-1332 "/>
<path fill="none" stroke="#d86656" stroke-width="2" d="M31,-1332C25,-1332 19,-1326 19,-1320"/>
<polyline fill="none" stroke="#d86656" stroke-width="2" points="19,-1320 19,-1308 "/>
<path fill="none" stroke="#d86656" stroke-width="2" d="M19,-1308C19,-1302 25,-1296 31,-1296"/>
<polyline fill="none" stroke="#d86656" stroke-width="2" points="31,-1296 179,-1296 "/>
<path fill="none" stroke="#d86656" stroke-width="2" d="M179,-1296C185,-1296 191,-1302 191,-1308"/>
<polyline fill="none" stroke="#d86656" stroke-width="2" points="191,-1308 191,-1320 "/>
<path fill="none" stroke="#d86656" stroke-width="2" d="M191,-1320C191,-1326 185,-1332 179,-1332"/>
<text text-anchor="middle" x="105" y="-1311.5" font-family="sans" font-size="10.00">callConsensusOnBarcodedBam</text>
</g>
<!-- 15 -->
<g id="node16" class="node"><title>15</title>
<polyline fill="none" stroke="#56d87b" stroke-width="2" points="160,-1188 50,-1188 "/>
<path fill="none" stroke="#56d87b" stroke-width="2" d="M50,-1188C44,-1188 38,-1182 38,-1176"/>
<polyline fill="none" stroke="#56d87b" stroke-width="2" points="38,-1176 38,-1164 "/>
<path fill="none" stroke="#56d87b" stroke-width="2" d="M38,-1164C38,-1158 44,-1152 50,-1152"/>
<polyline fill="none" stroke="#56d87b" stroke-width="2" points="50,-1152 160,-1152 "/>
<path fill="none" stroke="#56d87b" stroke-width="2" d="M160,-1152C166,-1152 172,-1158 172,-1164"/>
<polyline fill="none" stroke="#56d87b" stroke-width="2" points="172,-1164 172,-1176 "/>
<path fill="none" stroke="#56d87b" stroke-width="2" d="M172,-1176C172,-1182 166,-1188 160,-1188"/>
<text text-anchor="middle" x="105" y="-1167.5" font-family="sans" font-size="10.00">concatinateAlignments</text>
</g>
<!-- 4&#45;&gt;15 -->
<g id="edge40" class="edge"><title>4&#45;&gt;15</title>
<path fill="none" stroke="grey" stroke-width="2" d="M54.4559,-1295.81C38.6473,-1287.46 22.9992,-1275.8 14,-1260 6.08299,-1246.1 6.08299,-1237.9 14,-1224 21.3119,-1211.16 33.013,-1201.06 45.6232,-1193.24"/>
<polygon fill="grey" stroke="grey" points="47.5136,-1196.19 54.4559,-1188.19 44.0378,-1190.11 47.5136,-1196.19"/>
</g>
<!-- 22 -->
<g id="node23" class="node"><title>22</title>
<polyline fill="none" stroke="#56d8c9" stroke-width="2" points="175,-1260 35,-1260 "/>
<path fill="none" stroke="#56d8c9" stroke-width="2" d="M35,-1260C29,-1260 23,-1254 23,-1248"/>
<polyline fill="none" stroke="#56d8c9" stroke-width="2" points="23,-1248 23,-1236 "/>
<path fill="none" stroke="#56d8c9" stroke-width="2" d="M23,-1236C23,-1230 29,-1224 35,-1224"/>
<polyline fill="none" stroke="#56d8c9" stroke-width="2" points="35,-1224 175,-1224 "/>
<path fill="none" stroke="#56d8c9" stroke-width="2" d="M175,-1224C181,-1224 187,-1230 187,-1236"/>
<polyline fill="none" stroke="#56d8c9" stroke-width="2" points="187,-1236 187,-1248 "/>
<path fill="none" stroke="#56d8c9" stroke-width="2" d="M187,-1248C187,-1254 181,-1260 175,-1260"/>
<text text-anchor="middle" x="105" y="-1239.5" font-family="sans" font-size="10.00">alignUnpairedConsensusFastq</text>
</g>
<!-- 4&#45;&gt;22 -->
<g id="edge60" class="edge"><title>4&#45;&gt;22</title>
<path fill="none" stroke="grey" stroke-width="2" d="M105,-1295.83C105,-1288.13 105,-1278.97 105,-1270.42"/>
<polygon fill="grey" stroke="grey" points="108.5,-1270.41 105,-1260.41 101.5,-1270.41 108.5,-1270.41"/>
</g>
<!-- 24 -->
<g id="node25" class="node"><title>24</title>
<polyline fill="none" stroke="#56d8d8" stroke-width="2" points="345,-1260 217,-1260 "/>
<path fill="none" stroke="#56d8d8" stroke-width="2" d="M217,-1260C211,-1260 205,-1254 205,-1248"/>
<polyline fill="none" stroke="#56d8d8" stroke-width="2" points="205,-1248 205,-1236 "/>
<path fill="none" stroke="#56d8d8" stroke-width="2" d="M205,-1236C205,-1230 211,-1224 217,-1224"/>
<polyline fill="none" stroke="#56d8d8" stroke-width="2" points="217,-1224 345,-1224 "/>
<path fill="none" stroke="#56d8d8" stroke-width="2" d="M345,-1224C351,-1224 357,-1230 357,-1236"/>
<polyline fill="none" stroke="#56d8d8" stroke-width="2" points="357,-1236 357,-1248 "/>
<path fill="none" stroke="#56d8d8" stroke-width="2" d="M357,-1248C357,-1254 351,-1260 345,-1260"/>
<text text-anchor="middle" x="281" y="-1239.5" font-family="sans" font-size="10.00">alignPairedConsensusFastq</text>
</g>
<!-- 4&#45;&gt;24 -->
<g id="edge64" class="edge"><title>4&#45;&gt;24</title>
<path fill="none" stroke="grey" stroke-width="2" d="M149.412,-1295.83C173.16,-1286.12 202.575,-1274.08 227.566,-1263.86"/>
<polygon fill="grey" stroke="grey" points="228.977,-1267.06 236.907,-1260.04 226.326,-1260.58 228.977,-1267.06"/>
</g>
<!-- 5 -->
<g id="node6" class="node"><title>5</title>
<polyline fill="none" stroke="#56c9d8" stroke-width="2" points="301,-108 185,-108 "/>
<path fill="none" stroke="#56c9d8" stroke-width="2" d="M185,-108C179,-108 173,-102 173,-96"/>
<polyline fill="none" stroke="#56c9d8" stroke-width="2" points="173,-96 173,-84 "/>
<path fill="none" stroke="#56c9d8" stroke-width="2" d="M173,-84C173,-78 179,-72 185,-72"/>
<polyline fill="none" stroke="#56c9d8" stroke-width="2" points="185,-72 301,-72 "/>
<path fill="none" stroke="#56c9d8" stroke-width="2" d="M301,-72C307,-72 313,-78 313,-84"/>
<polyline fill="none" stroke="#56c9d8" stroke-width="2" points="313,-84 313,-96 "/>
<path fill="none" stroke="#56c9d8" stroke-width="2" d="M313,-96C313,-102 307,-108 301,-108"/>
<text text-anchor="middle" x="243" y="-87.5" font-family="sans" font-size="10.00">deleteIntermediateFiles</text>
</g>
<!-- 21 -->
<g id="node22" class="node"><title>21</title>
<polyline fill="none" stroke="#568ad8" stroke-width="2" points="258,-36 228,-36 "/>
<path fill="none" stroke="#568ad8" stroke-width="2" d="M228,-36C222,-36 216,-30 216,-24"/>
<polyline fill="none" stroke="#568ad8" stroke-width="2" points="216,-24 216,-12 "/>
<path fill="none" stroke="#568ad8" stroke-width="2" d="M216,-12C216,-6 222,-1.61846e-14 228,-1.46056e-14"/>
<polyline fill="none" stroke="#568ad8" stroke-width="2" points="228,-1.46056e-14 258,-6.71068e-15 "/>
<path fill="none" stroke="#568ad8" stroke-width="2" d="M258,-6.71068e-15C264,-5.1317e-15 270,-6 270,-12"/>
<polyline fill="none" stroke="#568ad8" stroke-width="2" points="270,-12 270,-24 "/>
<path fill="none" stroke="#568ad8" stroke-width="2" d="M270,-24C270,-30 264,-36 258,-36"/>
<text text-anchor="middle" x="243" y="-15.5" font-family="sans" font-size="10.00">all</text>
</g>
<!-- 5&#45;&gt;21 -->
<g id="edge58" class="edge"><title>5&#45;&gt;21</title>
<path fill="none" stroke="grey" stroke-width="2" d="M243,-71.8314C243,-64.131 243,-54.9743 243,-46.4166"/>
<polygon fill="grey" stroke="grey" points="246.5,-46.4132 243,-36.4133 239.5,-46.4133 246.5,-46.4132"/>
</g>
<!-- 6 -->
<g id="node7" class="node"><title>6</title>
<polyline fill="none" stroke="#d88d56" stroke-width="2" points="86,-1476 12,-1476 "/>
<path fill="none" stroke="#d88d56" stroke-width="2" d="M12,-1476C6,-1476 2.96059e-14,-1470 2.36848e-14,-1464"/>
<polyline fill="none" stroke="#d88d56" stroke-width="2" points="2.36848e-14,-1464 1.18424e-14,-1452 "/>
<path fill="none" stroke="#d88d56" stroke-width="2" d="M1.18424e-14,-1452C5.92119e-15,-1446 6,-1440 12,-1440"/>
<polyline fill="none" stroke="#d88d56" stroke-width="2" points="12,-1440 86,-1440 "/>
<path fill="none" stroke="#d88d56" stroke-width="2" d="M86,-1440C92,-1440 98,-1446 98,-1452"/>
<polyline fill="none" stroke="#d88d56" stroke-width="2" points="98,-1452 98,-1464 "/>
<path fill="none" stroke="#d88d56" stroke-width="2" d="M98,-1464C98,-1470 92,-1476 86,-1476"/>
<text text-anchor="middle" x="49" y="-1455.5" font-family="sans" font-size="10.00">checkResources</text>
</g>
<!-- 13 -->
<g id="node14" class="node"><title>13</title>
<polyline fill="none" stroke="#d85656" stroke-width="2" points="189,-1404 21,-1404 "/>
<path fill="none" stroke="#d85656" stroke-width="2" d="M21,-1404C15,-1404 9,-1398 9,-1392"/>
<polyline fill="none" stroke="#d85656" stroke-width="2" points="9,-1392 9,-1380 "/>
<path fill="none" stroke="#d85656" stroke-width="2" d="M9,-1380C9,-1374 15,-1368 21,-1368"/>
<polyline fill="none" stroke="#d85656" stroke-width="2" points="21,-1368 189,-1368 "/>
<path fill="none" stroke="#d85656" stroke-width="2" d="M189,-1368C195,-1368 201,-1374 201,-1380"/>
<polyline fill="none" stroke="#d85656" stroke-width="2" points="201,-1380 201,-1392 "/>
<path fill="none" stroke="#d85656" stroke-width="2" d="M201,-1392C201,-1398 195,-1404 189,-1404"/>
<text text-anchor="middle" x="105" y="-1383.5" font-family="sans" font-size="10.00">alignBarcodedFastqWithConsensus</text>
</g>
<!-- 6&#45;&gt;13 -->
<g id="edge32" class="edge"><title>6&#45;&gt;13</title>
<path fill="none" stroke="grey" stroke-width="2" d="M63.1312,-1439.83C69.5811,-1431.54 77.3445,-1421.56 84.4252,-1412.45"/>
<polygon fill="grey" stroke="grey" points="87.3019,-1414.46 90.6786,-1404.41 81.7764,-1410.16 87.3019,-1414.46"/>
</g>
<!-- 7 -->
<g id="node8" class="node"><title>7</title>
<polyline fill="none" stroke="#d8c356" stroke-width="2" points="194,-1476 128,-1476 "/>
<path fill="none" stroke="#d8c356" stroke-width="2" d="M128,-1476C122,-1476 116,-1470 116,-1464"/>
<polyline fill="none" stroke="#d8c356" stroke-width="2" points="116,-1464 116,-1452 "/>
<path fill="none" stroke="#d8c356" stroke-width="2" d="M116,-1452C116,-1446 122,-1440 128,-1440"/>
<polyline fill="none" stroke="#d8c356" stroke-width="2" points="128,-1440 194,-1440 "/>
<path fill="none" stroke="#d8c356" stroke-width="2" d="M194,-1440C200,-1440 206,-1446 206,-1452"/>
<polyline fill="none" stroke="#d8c356" stroke-width="2" points="206,-1452 206,-1464 "/>
<path fill="none" stroke="#d8c356" stroke-width="2" d="M206,-1464C206,-1470 200,-1476 194,-1476"/>
<text text-anchor="middle" x="161" y="-1455.5" font-family="sans" font-size="10.00">checkGzipFiles</text>
</g>
<!-- 7&#45;&gt;13 -->
<g id="edge34" class="edge"><title>7&#45;&gt;13</title>
<path fill="none" stroke="grey" stroke-width="2" d="M146.869,-1439.83C140.419,-1431.54 132.655,-1421.56 125.575,-1412.45"/>
<polygon fill="grey" stroke="grey" points="128.224,-1410.16 119.321,-1404.41 122.698,-1414.46 128.224,-1410.16"/>
</g>
<!-- 8 -->
<g id="node9" class="node"><title>8</title>
<polyline fill="none" stroke="#d87d56" stroke-width="2" points="150,-324 118,-324 "/>
<path fill="none" stroke="#d87d56" stroke-width="2" d="M118,-324C112,-324 106,-318 106,-312"/>
<polyline fill="none" stroke="#d87d56" stroke-width="2" points="106,-312 106,-300 "/>
<path fill="none" stroke="#d87d56" stroke-width="2" d="M106,-300C106,-294 112,-288 118,-288"/>
<polyline fill="none" stroke="#d87d56" stroke-width="2" points="118,-288 150,-288 "/>
<path fill="none" stroke="#d87d56" stroke-width="2" d="M150,-288C156,-288 162,-294 162,-300"/>
<polyline fill="none" stroke="#d87d56" stroke-width="2" points="162,-300 162,-312 "/>
<path fill="none" stroke="#d87d56" stroke-width="2" d="M162,-312C162,-318 156,-324 150,-324"/>
<text text-anchor="middle" x="134" y="-303.5" font-family="sans" font-size="10.00">vcfTabix</text>
</g>
<!-- 9 -->
<g id="node10" class="node"><title>9</title>
<polyline fill="none" stroke="#56d86b" stroke-width="2" points="181,-252 87,-252 "/>
<path fill="none" stroke="#56d86b" stroke-width="2" d="M87,-252C81,-252 75,-246 75,-240"/>
<polyline fill="none" stroke="#56d86b" stroke-width="2" points="75,-240 75,-228 "/>
<path fill="none" stroke="#56d86b" stroke-width="2" d="M75,-228C75,-222 81,-216 87,-216"/>
<polyline fill="none" stroke="#56d86b" stroke-width="2" points="87,-216 181,-216 "/>
<path fill="none" stroke="#56d86b" stroke-width="2" d="M181,-216C187,-216 193,-222 193,-228"/>
<polyline fill="none" stroke="#56d86b" stroke-width="2" points="193,-228 193,-240 "/>
<path fill="none" stroke="#56d86b" stroke-width="2" d="M193,-240C193,-246 187,-252 181,-252"/>
<text text-anchor="middle" x="134" y="-231.5" font-family="sans" font-size="10.00">arupPipelineWrapper</text>
</g>
<!-- 8&#45;&gt;9 -->
<g id="edge16" class="edge"><title>8&#45;&gt;9</title>
<path fill="none" stroke="grey" stroke-width="2" d="M134,-287.831C134,-280.131 134,-270.974 134,-262.417"/>
<polygon fill="grey" stroke="grey" points="137.5,-262.413 134,-252.413 130.5,-262.413 137.5,-262.413"/>
</g>
<!-- 9&#45;&gt;16 -->
<g id="edge44" class="edge"><title>9&#45;&gt;16</title>
<path fill="none" stroke="grey" stroke-width="2" d="M161.505,-215.831C175.318,-206.707 192.226,-195.539 207.053,-185.745"/>
<polygon fill="grey" stroke="grey" points="209.089,-188.595 215.503,-180.163 205.23,-182.754 209.089,-188.595"/>
</g>
<!-- 10 -->
<g id="node11" class="node"><title>10</title>
<polyline fill="none" stroke="#68d856" stroke-width="2" points="166,-972 88,-972 "/>
<path fill="none" stroke="#68d856" stroke-width="2" d="M88,-972C82,-972 76,-966 76,-960"/>
<polyline fill="none" stroke="#68d856" stroke-width="2" points="76,-960 76,-948 "/>
<path fill="none" stroke="#68d856" stroke-width="2" d="M76,-948C76,-942 82,-936 88,-936"/>
<polyline fill="none" stroke="#68d856" stroke-width="2" points="88,-936 166,-936 "/>
<path fill="none" stroke="#68d856" stroke-width="2" d="M166,-936C172,-936 178,-942 178,-948"/>
<polyline fill="none" stroke="#68d856" stroke-width="2" points="178,-948 178,-960 "/>
<path fill="none" stroke="#68d856" stroke-width="2" d="M178,-960C178,-966 172,-972 166,-972"/>
<text text-anchor="middle" x="127" y="-951.5" font-family="sans" font-size="10.00">recalibrateBases</text>
</g>
<!-- 18 -->
<g id="node19" class="node"><title>18</title>
<polyline fill="none" stroke="#56d88a" stroke-width="2" points="209,-900 107,-900 "/>
<path fill="none" stroke="#56d88a" stroke-width="2" d="M107,-900C101,-900 95,-894 95,-888"/>
<polyline fill="none" stroke="#56d88a" stroke-width="2" points="95,-888 95,-876 "/>
<path fill="none" stroke="#56d88a" stroke-width="2" d="M95,-876C95,-870 101,-864 107,-864"/>
<polyline fill="none" stroke="#56d88a" stroke-width="2" points="107,-864 209,-864 "/>
<path fill="none" stroke="#56d88a" stroke-width="2" d="M209,-864C215,-864 221,-870 221,-876"/>
<polyline fill="none" stroke="#56d88a" stroke-width="2" points="221,-876 221,-888 "/>
<path fill="none" stroke="#56d88a" stroke-width="2" d="M221,-888C221,-894 215,-900 209,-900"/>
<text text-anchor="middle" x="158" y="-879.5" font-family="sans" font-size="10.00">printRecalibratedBam</text>
</g>
<!-- 10&#45;&gt;18 -->
<g id="edge50" class="edge"><title>10&#45;&gt;18</title>
<path fill="none" stroke="grey" stroke-width="2" d="M134.823,-935.831C138.211,-927.962 142.254,-918.571 146.008,-909.853"/>
<polygon fill="grey" stroke="grey" points="149.332,-910.982 150.072,-900.413 142.903,-908.214 149.332,-910.982"/>
</g>
<!-- 11 -->
<g id="node12" class="node"><title>11</title>
<polyline fill="none" stroke="#56d8b1" stroke-width="2" points="173,-828 143,-828 "/>
<path fill="none" stroke="#56d8b1" stroke-width="2" d="M143,-828C137,-828 131,-822 131,-816"/>
<polyline fill="none" stroke="#56d8b1" stroke-width="2" points="131,-816 131,-804 "/>
<path fill="none" stroke="#56d8b1" stroke-width="2" d="M131,-804C131,-798 137,-792 143,-792"/>
<polyline fill="none" stroke="#56d8b1" stroke-width="2" points="143,-792 173,-792 "/>
<path fill="none" stroke="#56d8b1" stroke-width="2" d="M173,-792C179,-792 185,-798 185,-804"/>
<polyline fill="none" stroke="#56d8b1" stroke-width="2" points="185,-804 185,-816 "/>
<path fill="none" stroke="#56d8b1" stroke-width="2" d="M185,-816C185,-822 179,-828 173,-828"/>
<text text-anchor="middle" x="158" y="-807.5" font-family="sans" font-size="10.00">abra</text>
</g>
<!-- 20 -->
<g id="node21" class="node"><title>20</title>
<polyline fill="none" stroke="#56b1d8" stroke-width="2" points="214,-756 102,-756 "/>
<path fill="none" stroke="#56b1d8" stroke-width="2" d="M102,-756C96,-756 90,-750 90,-744"/>
<polyline fill="none" stroke="#56b1d8" stroke-width="2" points="90,-744 90,-732 "/>
<path fill="none" stroke="#56b1d8" stroke-width="2" d="M90,-732C90,-726 96,-720 102,-720"/>
<polyline fill="none" stroke="#56b1d8" stroke-width="2" points="102,-720 214,-720 "/>
<path fill="none" stroke="#56b1d8" stroke-width="2" d="M214,-720C220,-720 226,-726 226,-732"/>
<polyline fill="none" stroke="#56b1d8" stroke-width="2" points="226,-732 226,-744 "/>
<path fill="none" stroke="#56b1d8" stroke-width="2" d="M226,-744C226,-750 220,-756 214,-756"/>
<text text-anchor="middle" x="158" y="-735.5" font-family="sans" font-size="10.00">fixAbraMateInformation</text>
</g>
<!-- 11&#45;&gt;20 -->
<g id="edge56" class="edge"><title>11&#45;&gt;20</title>
<path fill="none" stroke="grey" stroke-width="2" d="M158,-791.831C158,-784.131 158,-774.974 158,-766.417"/>
<polygon fill="grey" stroke="grey" points="161.5,-766.413 158,-756.413 154.5,-766.413 161.5,-766.413"/>
</g>
<!-- 12 -->
<g id="node13" class="node"><title>12</title>
<polyline fill="none" stroke="#d8a456" stroke-width="2" points="238,-540 126,-540 "/>
<path fill="none" stroke="#d8a456" stroke-width="2" d="M126,-540C120,-540 114,-534 114,-528"/>
<polyline fill="none" stroke="#d8a456" stroke-width="2" points="114,-528 114,-516 "/>
<path fill="none" stroke="#d8a456" stroke-width="2" d="M114,-516C114,-510 120,-504 126,-504"/>
<polyline fill="none" stroke="#d8a456" stroke-width="2" points="126,-504 238,-504 "/>
<path fill="none" stroke="#d8a456" stroke-width="2" d="M238,-504C244,-504 250,-510 250,-516"/>
<polyline fill="none" stroke="#d8a456" stroke-width="2" points="250,-516 250,-528 "/>
<path fill="none" stroke="#d8a456" stroke-width="2" d="M250,-528C250,-534 244,-540 238,-540"/>
<text text-anchor="middle" x="182" y="-519.5" font-family="sans" font-size="10.00">scalpelLofreqVcfMerger</text>
</g>
<!-- 12&#45;&gt;2 -->
<g id="edge6" class="edge"><title>12&#45;&gt;2</title>
<path fill="none" stroke="grey" stroke-width="2" d="M182,-503.831C182,-496.131 182,-486.974 182,-478.417"/>
<polygon fill="grey" stroke="grey" points="185.5,-478.413 182,-468.413 178.5,-478.413 185.5,-478.413"/>
</g>
<!-- 13&#45;&gt;4 -->
<g id="edge10" class="edge"><title>13&#45;&gt;4</title>
<path fill="none" stroke="grey" stroke-width="2" d="M105,-1367.83C105,-1360.13 105,-1350.97 105,-1342.42"/>
<polygon fill="grey" stroke="grey" points="108.5,-1342.41 105,-1332.41 101.5,-1342.41 108.5,-1342.41"/>
</g>
<!-- 14&#45;&gt;12 -->
<g id="edge28" class="edge"><title>14&#45;&gt;12</title>
<path fill="none" stroke="grey" stroke-width="2" d="M252.28,-575.831C240.591,-566.878 226.331,-555.956 213.719,-546.295"/>
<polygon fill="grey" stroke="grey" points="215.78,-543.465 205.713,-540.163 211.523,-549.022 215.78,-543.465"/>
</g>
<!-- 17 -->
<g id="node18" class="node"><title>17</title>
<polyline fill="none" stroke="#566bd8" stroke-width="2" points="149,-1116 61,-1116 "/>
<path fill="none" stroke="#566bd8" stroke-width="2" d="M61,-1116C55,-1116 49,-1110 49,-1104"/>
<polyline fill="none" stroke="#566bd8" stroke-width="2" points="49,-1104 49,-1092 "/>
<path fill="none" stroke="#566bd8" stroke-width="2" d="M49,-1092C49,-1086 55,-1080 61,-1080"/>
<polyline fill="none" stroke="#566bd8" stroke-width="2" points="61,-1080 149,-1080 "/>
<path fill="none" stroke="#566bd8" stroke-width="2" d="M149,-1080C155,-1080 161,-1086 161,-1092"/>
<polyline fill="none" stroke="#566bd8" stroke-width="2" points="161,-1092 161,-1104 "/>
<path fill="none" stroke="#566bd8" stroke-width="2" d="M161,-1104C161,-1110 155,-1116 149,-1116"/>
<text text-anchor="middle" x="105" y="-1095.5" font-family="sans" font-size="10.00">fixMateInformation</text>
</g>
<!-- 15&#45;&gt;17 -->
<g id="edge48" class="edge"><title>15&#45;&gt;17</title>
<path fill="none" stroke="grey" stroke-width="2" d="M105,-1151.83C105,-1144.13 105,-1134.97 105,-1126.42"/>
<polygon fill="grey" stroke="grey" points="108.5,-1126.41 105,-1116.41 101.5,-1126.41 108.5,-1126.41"/>
</g>
<!-- 16&#45;&gt;5 -->
<g id="edge12" class="edge"><title>16&#45;&gt;5</title>
<path fill="none" stroke="grey" stroke-width="2" d="M243,-143.831C243,-136.131 243,-126.974 243,-118.417"/>
<polygon fill="grey" stroke="grey" points="246.5,-118.413 243,-108.413 239.5,-118.413 246.5,-118.413"/>
</g>
<!-- 17&#45;&gt;9 -->
<g id="edge20" class="edge"><title>17&#45;&gt;9</title>
<path fill="none" stroke="grey" stroke-width="2" d="M90.5744,-1079.64C71.4249,-1053.37 40,-1002.82 40,-954 40,-954 40,-954 40,-378 40,-329.971 77.1215,-285.439 104.709,-258.977"/>
<polygon fill="grey" stroke="grey" points="107.264,-261.38 112.198,-252.004 102.494,-256.257 107.264,-261.38"/>
</g>
<!-- 27 -->
<g id="node28" class="node"><title>27</title>
<polyline fill="none" stroke="#d8b456" stroke-width="2" points="227,-1044 115,-1044 "/>
<path fill="none" stroke="#d8b456" stroke-width="2" d="M115,-1044C109,-1044 103,-1038 103,-1032"/>
<polyline fill="none" stroke="#d8b456" stroke-width="2" points="103,-1032 103,-1020 "/>
<path fill="none" stroke="#d8b456" stroke-width="2" d="M103,-1020C103,-1014 109,-1008 115,-1008"/>
<polyline fill="none" stroke="#d8b456" stroke-width="2" points="115,-1008 227,-1008 "/>
<path fill="none" stroke="#d8b456" stroke-width="2" d="M227,-1008C233,-1008 239,-1014 239,-1020"/>
<polyline fill="none" stroke="#d8b456" stroke-width="2" points="239,-1020 239,-1032 "/>
<path fill="none" stroke="#d8b456" stroke-width="2" d="M239,-1032C239,-1038 233,-1044 227,-1044"/>
<text text-anchor="middle" x="171" y="-1023.5" font-family="sans" font-size="10.00">samAlignmentExtractor</text>
</g>
<!-- 17&#45;&gt;27 -->
<g id="edge70" class="edge"><title>17&#45;&gt;27</title>
<path fill="none" stroke="grey" stroke-width="2" d="M121.655,-1079.83C129.411,-1071.37 138.78,-1061.15 147.261,-1051.9"/>
<polygon fill="grey" stroke="grey" points="149.944,-1054.15 154.121,-1044.41 144.784,-1049.42 149.944,-1054.15"/>
</g>
<!-- 18&#45;&gt;11 -->
<g id="edge26" class="edge"><title>18&#45;&gt;11</title>
<path fill="none" stroke="grey" stroke-width="2" d="M158,-863.831C158,-856.131 158,-846.974 158,-838.417"/>
<polygon fill="grey" stroke="grey" points="161.5,-838.413 158,-828.413 154.5,-838.413 161.5,-838.413"/>
</g>
<!-- 19 -->
<g id="node20" class="node"><title>19</title>
<polyline fill="none" stroke="#c6d856" stroke-width="2" points="173,-684 143,-684 "/>
<path fill="none" stroke="#c6d856" stroke-width="2" d="M143,-684C137,-684 131,-678 131,-672"/>
<polyline fill="none" stroke="#c6d856" stroke-width="2" points="131,-672 131,-660 "/>
<path fill="none" stroke="#c6d856" stroke-width="2" d="M131,-660C131,-654 137,-648 143,-648"/>
<polyline fill="none" stroke="#c6d856" stroke-width="2" points="143,-648 173,-648 "/>
<path fill="none" stroke="#c6d856" stroke-width="2" d="M173,-648C179,-648 185,-654 185,-660"/>
<polyline fill="none" stroke="#c6d856" stroke-width="2" points="185,-660 185,-672 "/>
<path fill="none" stroke="#c6d856" stroke-width="2" d="M185,-672C185,-678 179,-684 173,-684"/>
<text text-anchor="middle" x="158" y="-663.5" font-family="sans" font-size="10.00">scalpel</text>
</g>
<!-- 23 -->
<g id="node24" class="node"><title>23</title>
<polyline fill="none" stroke="#56d8a2" stroke-width="2" points="198,-612 118,-612 "/>
<path fill="none" stroke="#56d8a2" stroke-width="2" d="M118,-612C112,-612 106,-606 106,-600"/>
<polyline fill="none" stroke="#56d8a2" stroke-width="2" points="106,-600 106,-588 "/>
<path fill="none" stroke="#56d8a2" stroke-width="2" d="M106,-588C106,-582 112,-576 118,-576"/>
<polyline fill="none" stroke="#56d8a2" stroke-width="2" points="118,-576 198,-576 "/>
<path fill="none" stroke="#56d8a2" stroke-width="2" d="M198,-576C204,-576 210,-582 210,-588"/>
<polyline fill="none" stroke="#56d8a2" stroke-width="2" points="210,-588 210,-600 "/>
<path fill="none" stroke="#56d8a2" stroke-width="2" d="M210,-600C210,-606 204,-612 198,-612"/>
<text text-anchor="middle" x="158" y="-591.5" font-family="sans" font-size="10.00">filterScalpelIndels</text>
</g>
<!-- 19&#45;&gt;23 -->
<g id="edge62" class="edge"><title>19&#45;&gt;23</title>
<path fill="none" stroke="grey" stroke-width="2" d="M158,-647.831C158,-640.131 158,-630.974 158,-622.417"/>
<polygon fill="grey" stroke="grey" points="161.5,-622.413 158,-612.413 154.5,-622.413 161.5,-622.413"/>
</g>
<!-- 20&#45;&gt;0 -->
<g id="edge2" class="edge"><title>20&#45;&gt;0</title>
<path fill="none" stroke="grey" stroke-width="2" d="M181.973,-719.831C193.786,-710.878 208.197,-699.956 220.943,-690.295"/>
<polygon fill="grey" stroke="grey" points="223.18,-692.992 229.035,-684.163 218.951,-687.414 223.18,-692.992"/>
</g>
<!-- 20&#45;&gt;9 -->
<g id="edge18" class="edge"><title>20&#45;&gt;9</title>
<path fill="none" stroke="grey" stroke-width="2" d="M139.847,-719.786C116.243,-694.08 78,-644.62 78,-594 78,-594 78,-594 78,-378 78,-337.118 80.915,-325.584 97,-288 101.049,-278.54 106.862,-269.016 112.686,-260.657"/>
<polygon fill="grey" stroke="grey" points="115.627,-262.564 118.684,-252.42 109.968,-258.443 115.627,-262.564"/>
</g>
<!-- 20&#45;&gt;19 -->
<g id="edge54" class="edge"><title>20&#45;&gt;19</title>
<path fill="none" stroke="grey" stroke-width="2" d="M158,-719.831C158,-712.131 158,-702.974 158,-694.417"/>
<polygon fill="grey" stroke="grey" points="161.5,-694.413 158,-684.413 154.5,-694.413 161.5,-694.413"/>
</g>
<!-- 22&#45;&gt;15 -->
<g id="edge38" class="edge"><title>22&#45;&gt;15</title>
<path fill="none" stroke="grey" stroke-width="2" d="M105,-1223.83C105,-1216.13 105,-1206.97 105,-1198.42"/>
<polygon fill="grey" stroke="grey" points="108.5,-1198.41 105,-1188.41 101.5,-1198.41 108.5,-1198.41"/>
</g>
<!-- 23&#45;&gt;12 -->
<g id="edge30" class="edge"><title>23&#45;&gt;12</title>
<path fill="none" stroke="grey" stroke-width="2" d="M164.056,-575.831C166.651,-568.046 169.742,-558.773 172.622,-550.135"/>
<polygon fill="grey" stroke="grey" points="176.02,-551.007 175.862,-540.413 169.38,-548.793 176.02,-551.007"/>
</g>
<!-- 24&#45;&gt;15 -->
<g id="edge42" class="edge"><title>24&#45;&gt;15</title>
<path fill="none" stroke="grey" stroke-width="2" d="M236.588,-1223.83C212.84,-1214.12 183.425,-1202.08 158.434,-1191.86"/>
<polygon fill="grey" stroke="grey" points="159.674,-1188.58 149.093,-1188.04 157.023,-1195.06 159.674,-1188.58"/>
</g>
<!-- 25&#45;&gt;8 -->
<g id="edge14" class="edge"><title>25&#45;&gt;8</title>
<path fill="none" stroke="grey" stroke-width="2" d="M169.888,-359.831C164.472,-351.708 157.976,-341.964 152.008,-333.012"/>
<polygon fill="grey" stroke="grey" points="154.735,-330.792 146.276,-324.413 148.91,-334.675 154.735,-330.792"/>
</g>
<!-- 25&#45;&gt;9 -->
<g id="edge22" class="edge"><title>25&#45;&gt;9</title>
<path fill="none" stroke="grey" stroke-width="2" d="M182.28,-359.811C181.997,-341.193 179.956,-311.708 171,-288 167.364,-278.374 161.671,-268.801 155.831,-260.449"/>
<polygon fill="grey" stroke="grey" points="158.526,-258.206 149.773,-252.236 152.892,-262.361 158.526,-258.206"/>
</g>
<!-- 26&#45;&gt;1 -->
<g id="edge4" class="edge"><title>26&#45;&gt;1</title>
<path fill="none" stroke="grey" stroke-width="2" d="M329.552,-791.831C331.93,-784.046 334.764,-774.773 337.403,-766.135"/>
<polygon fill="grey" stroke="grey" points="340.799,-767 340.374,-756.413 334.104,-764.954 340.799,-767"/>
</g>
<!-- 27&#45;&gt;3 -->
<g id="edge8" class="edge"><title>27&#45;&gt;3</title>
<path fill="none" stroke="grey" stroke-width="2" d="M188.984,-1007.76C214.058,-982.335 259.626,-936.125 287.995,-907.357"/>
<polygon fill="grey" stroke="grey" points="290.632,-909.668 295.162,-900.09 285.648,-904.752 290.632,-909.668"/>
</g>
<!-- 27&#45;&gt;10 -->
<g id="edge24" class="edge"><title>27&#45;&gt;10</title>
<path fill="none" stroke="grey" stroke-width="2" d="M159.897,-1007.83C154.933,-999.708 148.978,-989.964 143.507,-981.012"/>
<polygon fill="grey" stroke="grey" points="146.454,-979.121 138.253,-972.413 140.481,-982.771 146.454,-979.121"/>
</g>
<!-- 27&#45;&gt;18 -->
<g id="edge52" class="edge"><title>27&#45;&gt;18</title>
<path fill="none" stroke="grey" stroke-width="2" d="M178.676,-1007.91C185.395,-989.625 193.194,-960.625 187,-936 184.661,-926.702 180.377,-917.261 175.806,-908.928"/>
<polygon fill="grey" stroke="grey" points="178.686,-906.919 170.612,-900.058 172.645,-910.456 178.686,-906.919"/>
</g>
</g>
</svg>
