<?xml version="1.0" encoding="UTF-8" standalone="no"?>
<!DOCTYPE svg PUBLIC "-//W3C//DTD SVG 1.1//EN"
 "http://www.w3.org/Graphics/SVG/1.1/DTD/svg11.dtd">
<!-- Generated by graphviz version 2.30.1 (20201013.1554)
 -->
<!-- Title: snakemake_dag Pages: 1 -->
<svg width="301pt" height="548pt"
 viewBox="0.00 0.00 301.00 548.00" xmlns="http://www.w3.org/2000/svg" xmlns:xlink="http://www.w3.org/1999/xlink">
<g id="graph0" class="graph" transform="scale(1 1) rotate(0) translate(4 544)">
<title>snakemake_dag</title>
<polygon fill="white" stroke="white" points="-4,5 -4,-544 298,-544 298,5 -4,5"/>
<!-- 0 -->
<g id="node1" class="node"><title>0</title>
<path fill="none" stroke="#70d856" stroke-width="2" d="M158,-36C158,-36 124,-36 124,-36 118,-36 112,-30 112,-24 112,-24 112,-12 112,-12 112,-6 118,-0 124,-0 124,-0 158,-0 158,-0 164,-0 170,-6 170,-12 170,-12 170,-24 170,-24 170,-30 164,-36 158,-36"/>
<text text-anchor="middle" x="141" y="-15.5" font-family="sans" font-size="10.00">VcfTabix</text>
</g>
<!-- 1 -->
<g id="node2" class="node"><title>1</title>
<path fill="none" stroke="#56d86b" stroke-width="2" d="M46,-252C46,-252 16,-252 16,-252 10,-252 4,-246 4,-240 4,-240 4,-228 4,-228 4,-222 10,-216 16,-216 16,-216 46,-216 46,-216 52,-216 58,-222 58,-228 58,-228 58,-240 58,-240 58,-246 52,-252 46,-252"/>
<text text-anchor="middle" x="31" y="-231.5" font-family="sans" font-size="10.00">VCFBkz</text>
</g>
<!-- 1&#45;&gt;0 -->
<g id="edge1" class="edge"><title>1&#45;&gt;0</title>
<path fill="none" stroke="grey" stroke-width="2" d="M33.121,-215.844C35.7282,-197.602 40.9588,-168.114 50,-144 62.8515,-109.723 68.2376,-101.435 90,-72 97.3981,-61.9935 106.554,-51.925 115.058,-43.2918"/>
<polygon fill="grey" stroke="grey" points="117.663,-45.6374 122.302,-36.1122 112.736,-40.6655 117.663,-45.6374"/>
</g>
<!-- 9 -->
<g id="node10" class="node"><title>9</title>
<path fill="none" stroke="#56b1d8" stroke-width="2" d="M139,-180C139,-180 71,-180 71,-180 65,-180 59,-174 59,-168 59,-168 59,-156 59,-156 59,-150 65,-144 71,-144 71,-144 139,-144 139,-144 145,-144 151,-150 151,-156 151,-156 151,-168 151,-168 151,-174 145,-180 139,-180"/>
<text text-anchor="middle" x="105" y="-159.5" font-family="sans" font-size="10.00">FilterVcfForTMB</text>
</g>
<!-- 1&#45;&gt;9 -->
<g id="edge12" class="edge"><title>1&#45;&gt;9</title>
<path fill="none" stroke="grey" stroke-width="2" d="M49.2921,-215.697C58.4326,-207.05 69.6401,-196.449 79.6,-187.027"/>
<polygon fill="grey" stroke="grey" points="82.0588,-189.519 86.9183,-180.104 77.2484,-184.434 82.0588,-189.519"/>
</g>
<!-- 2 -->
<g id="node3" class="node"><title>2</title>
<path fill="none" stroke="#d88556" stroke-width="2" d="M62.25,-324C62.25,-324 11.75,-324 11.75,-324 5.75,-324 -0.25,-318 -0.25,-312 -0.25,-312 -0.25,-300 -0.25,-300 -0.25,-294 5.75,-288 11.75,-288 11.75,-288 62.25,-288 62.25,-288 68.25,-288 74.25,-294 74.25,-300 74.25,-300 74.25,-312 74.25,-312 74.25,-318 68.25,-324 62.25,-324"/>
<text text-anchor="middle" x="37" y="-303.5" font-family="sans" font-size="10.00">StrelkaFilter</text>
</g>
<!-- 2&#45;&gt;1 -->
<g id="edge4" class="edge"><title>2&#45;&gt;1</title>
<path fill="none" stroke="grey" stroke-width="2" d="M35.5169,-287.697C34.8557,-279.983 34.0611,-270.712 33.3239,-262.112"/>
<polygon fill="grey" stroke="grey" points="36.8074,-261.769 32.4661,-252.104 29.833,-262.367 36.8074,-261.769"/>
</g>
<!-- 3 -->
<g id="node4" class="node"><title>3</title>
<path fill="none" stroke="#ced856" stroke-width="2" d="M89.25,-396C89.25,-396 32.75,-396 32.75,-396 26.75,-396 20.75,-390 20.75,-384 20.75,-384 20.75,-372 20.75,-372 20.75,-366 26.75,-360 32.75,-360 32.75,-360 89.25,-360 89.25,-360 95.25,-360 101.25,-366 101.25,-372 101.25,-372 101.25,-384 101.25,-384 101.25,-390 95.25,-396 89.25,-396"/>
<text text-anchor="middle" x="61" y="-375.5" font-family="sans" font-size="10.00">StrelkaMerge</text>
</g>
<!-- 3&#45;&gt;2 -->
<g id="edge5" class="edge"><title>3&#45;&gt;2</title>
<path fill="none" stroke="grey" stroke-width="2" d="M55.0674,-359.697C52.3936,-351.898 49.1744,-342.509 46.1986,-333.829"/>
<polygon fill="grey" stroke="grey" points="49.4185,-332.429 42.8643,-324.104 42.7968,-334.699 49.4185,-332.429"/>
</g>
<!-- 4 -->
<g id="node5" class="node"><title>4</title>
<path fill="none" stroke="#d8b456" stroke-width="2" d="M116,-468C116,-468 86,-468 86,-468 80,-468 74,-462 74,-456 74,-456 74,-444 74,-444 74,-438 80,-432 86,-432 86,-432 116,-432 116,-432 122,-432 128,-438 128,-444 128,-444 128,-456 128,-456 128,-462 122,-468 116,-468"/>
<text text-anchor="middle" x="101" y="-447.5" font-family="sans" font-size="10.00">Strelka</text>
</g>
<!-- 4&#45;&gt;3 -->
<g id="edge6" class="edge"><title>4&#45;&gt;3</title>
<path fill="none" stroke="grey" stroke-width="2" d="M91.1124,-431.697C86.5107,-423.644 80.9397,-413.894 75.8471,-404.982"/>
<polygon fill="grey" stroke="grey" points="78.7742,-403.05 70.7739,-396.104 72.6965,-406.523 78.7742,-403.05"/>
</g>
<!-- 10 -->
<g id="node11" class="node"><title>10</title>
<path fill="none" stroke="#56d89a" stroke-width="2" d="M208,-252C208,-252 88,-252 88,-252 82,-252 76,-246 76,-240 76,-240 76,-228 76,-228 76,-222 82,-216 88,-216 88,-216 208,-216 208,-216 214,-216 220,-222 220,-228 220,-228 220,-240 220,-240 220,-246 214,-252 208,-252"/>
<text text-anchor="middle" x="148" y="-231.5" font-family="sans" font-size="10.00">FindSharedRegionsForTMB</text>
</g>
<!-- 4&#45;&gt;10 -->
<g id="edge13" class="edge"><title>4&#45;&gt;10</title>
<path fill="none" stroke="grey" stroke-width="2" d="M104.767,-431.849C112.914,-394.753 132.229,-306.81 142.048,-262.103"/>
<polygon fill="grey" stroke="grey" points="145.489,-262.75 144.215,-252.232 138.652,-261.249 145.489,-262.75"/>
</g>
<!-- 5 -->
<g id="node6" class="node"><title>5</title>
<path fill="none" stroke="#d85656" stroke-width="2" d="M116,-540C116,-540 86,-540 86,-540 80,-540 74,-534 74,-528 74,-528 74,-516 74,-516 74,-510 80,-504 86,-504 86,-504 116,-504 116,-504 122,-504 128,-510 128,-516 128,-516 128,-528 128,-528 128,-534 122,-540 116,-540"/>
<text text-anchor="middle" x="101" y="-519.5" font-family="sans" font-size="10.00">Manta</text>
</g>
<!-- 5&#45;&gt;4 -->
<g id="edge7" class="edge"><title>5&#45;&gt;4</title>
<path fill="none" stroke="grey" stroke-width="2" d="M101,-503.697C101,-495.983 101,-486.712 101,-478.112"/>
<polygon fill="grey" stroke="grey" points="104.5,-478.104 101,-468.104 97.5001,-478.104 104.5,-478.104"/>
</g>
<!-- 6 -->
<g id="node7" class="node"><title>6</title>
<path fill="none" stroke="#56d8c9" stroke-width="2" d="M257.25,-324C257.25,-324 220.75,-324 220.75,-324 214.75,-324 208.75,-318 208.75,-312 208.75,-312 208.75,-300 208.75,-300 208.75,-294 214.75,-288 220.75,-288 220.75,-288 257.25,-288 257.25,-288 263.25,-288 269.25,-294 269.25,-300 269.25,-300 269.25,-312 269.25,-312 269.25,-318 263.25,-324 257.25,-324"/>
<text text-anchor="middle" x="239" y="-303.5" font-family="sans" font-size="10.00">BedTabix</text>
</g>
<!-- 6&#45;&gt;0 -->
<g id="edge2" class="edge"><title>6&#45;&gt;0</title>
<path fill="none" stroke="grey" stroke-width="2" d="M238.896,-287.707C237.948,-247.327 231.419,-144.747 191,-72 185.214,-61.5868 176.919,-51.6628 168.744,-43.2772"/>
<polygon fill="grey" stroke="grey" points="170.941,-40.5301 161.345,-36.0388 166.046,-45.5338 170.941,-40.5301"/>
</g>
<!-- 6&#45;&gt;10 -->
<g id="edge14" class="edge"><title>6&#45;&gt;10</title>
<path fill="none" stroke="grey" stroke-width="2" d="M216.506,-287.697C205.045,-278.881 190.942,-268.032 178.516,-258.474"/>
<polygon fill="grey" stroke="grey" points="180.296,-255.427 170.236,-252.104 176.028,-260.976 180.296,-255.427"/>
</g>
<!-- 7 -->
<g id="node8" class="node"><title>7</title>
<path fill="none" stroke="#5682d8" stroke-width="2" d="M281,-396C281,-396 197,-396 197,-396 191,-396 185,-390 185,-384 185,-384 185,-372 185,-372 185,-366 191,-360 197,-360 197,-360 281,-360 281,-360 287,-360 293,-366 293,-372 293,-372 293,-384 293,-384 293,-390 287,-396 281,-396"/>
<text text-anchor="middle" x="239" y="-375.5" font-family="sans" font-size="10.00">FindSharedRegions</text>
</g>
<!-- 7&#45;&gt;6 -->
<g id="edge8" class="edge"><title>7&#45;&gt;6</title>
<path fill="none" stroke="grey" stroke-width="2" d="M239,-359.697C239,-351.983 239,-342.712 239,-334.112"/>
<polygon fill="grey" stroke="grey" points="242.5,-334.104 239,-324.104 235.5,-334.104 242.5,-334.104"/>
</g>
<!-- 8 -->
<g id="node9" class="node"><title>8</title>
<path fill="none" stroke="#9fd856" stroke-width="2" d="M170.25,-108C170.25,-108 111.75,-108 111.75,-108 105.75,-108 99.75,-102 99.75,-96 99.75,-96 99.75,-84 99.75,-84 99.75,-78 105.75,-72 111.75,-72 111.75,-72 170.25,-72 170.25,-72 176.25,-72 182.25,-78 182.25,-84 182.25,-84 182.25,-96 182.25,-96 182.25,-102 176.25,-108 170.25,-108"/>
<text text-anchor="middle" x="141" y="-87.5" font-family="sans" font-size="10.00">CalculateTMB</text>
</g>
<!-- 8&#45;&gt;0 -->
<g id="edge3" class="edge"><title>8&#45;&gt;0</title>
<path fill="none" stroke="grey" stroke-width="2" d="M141,-71.6966C141,-63.9827 141,-54.7125 141,-46.1124"/>
<polygon fill="grey" stroke="grey" points="144.5,-46.1043 141,-36.1043 137.5,-46.1044 144.5,-46.1043"/>
</g>
<!-- 9&#45;&gt;8 -->
<g id="edge9" class="edge"><title>9&#45;&gt;8</title>
<path fill="none" stroke="grey" stroke-width="2" d="M113.899,-143.697C117.997,-135.728 122.949,-126.1 127.493,-117.264"/>
<polygon fill="grey" stroke="grey" points="130.742,-118.598 132.203,-108.104 124.517,-115.396 130.742,-118.598"/>
</g>
<!-- 10&#45;&gt;8 -->
<g id="edge10" class="edge"><title>10&#45;&gt;8</title>
<path fill="none" stroke="grey" stroke-width="2" d="M153.415,-215.879C158.371,-197.915 164.326,-168.885 160,-144 158.477,-135.236 155.635,-126.006 152.606,-117.748"/>
<polygon fill="grey" stroke="grey" points="155.795,-116.293 148.893,-108.255 149.276,-118.843 155.795,-116.293"/>
</g>
<!-- 10&#45;&gt;9 -->
<g id="edge11" class="edge"><title>10&#45;&gt;9</title>
<path fill="none" stroke="grey" stroke-width="2" d="M137.371,-215.697C132.372,-207.559 126.309,-197.689 120.788,-188.701"/>
<polygon fill="grey" stroke="grey" points="123.723,-186.793 115.507,-180.104 117.759,-190.457 123.723,-186.793"/>
</g>
</g>
</svg>
