<?xml version="1.0" encoding="UTF-8" standalone="no"?>
<!DOCTYPE svg PUBLIC "-//W3C//DTD SVG 1.1//EN"
 "http://www.w3.org/Graphics/SVG/1.1/DTD/svg11.dtd">
<!-- Generated by graphviz version 2.40.1 (0)
 -->
<!-- Title: snakemake_dag Pages: 1 -->
<svg width="192pt" height="404pt"
 viewBox="0.00 0.00 191.50 404.00" xmlns="http://www.w3.org/2000/svg" xmlns:xlink="http://www.w3.org/1999/xlink">
<g id="graph0" class="graph" transform="scale(1 1) rotate(0) translate(4 400)">
<title>snakemake_dag</title>
<polygon fill="#ffffff" stroke="transparent" points="-4,4 -4,-400 187.5,-400 187.5,4 -4,4"/>
<!-- 0 -->
<g id="node1" class="node">
<title>0</title>
<path fill="none" stroke="#d85656" stroke-width="2" d="M105.5,-36C105.5,-36 53.5,-36 53.5,-36 47.5,-36 41.5,-30 41.5,-24 41.5,-24 41.5,-12 41.5,-12 41.5,-6 47.5,0 53.5,0 53.5,0 105.5,0 105.5,0 111.5,0 117.5,-6 117.5,-12 117.5,-12 117.5,-24 117.5,-24 117.5,-30 111.5,-36 105.5,-36"/>
<text text-anchor="middle" x="79.5" y="-15.5" font-family="sans" font-size="10.00" fill="#000000">CleanupDirs</text>
</g>
<!-- 1 -->
<g id="node2" class="node">
<title>1</title>
<path fill="none" stroke="#56a2d8" stroke-width="2" d="M47,-108C47,-108 12,-108 12,-108 6,-108 0,-102 0,-96 0,-96 0,-84 0,-84 0,-78 6,-72 12,-72 12,-72 47,-72 47,-72 53,-72 59,-78 59,-84 59,-84 59,-96 59,-96 59,-102 53,-108 47,-108"/>
<text text-anchor="middle" x="29.5" y="-87.5" font-family="sans" font-size="10.00" fill="#000000">UniObRC</text>
</g>
<!-- 1&#45;&gt;0 -->
<g id="edge1" class="edge">
<title>1&#45;&gt;0</title>
<path fill="none" stroke="#c0c0c0" stroke-width="2" d="M42.1171,-71.8314C47.8172,-63.6232 54.6663,-53.7606 60.9359,-44.7323"/>
<polygon fill="#c0c0c0" stroke="#c0c0c0" stroke-width="2" points="63.8838,-46.6234 66.713,-36.4133 58.1342,-42.6306 63.8838,-46.6234"/>
</g>
<!-- 2 -->
<g id="node3" class="node">
<title>2</title>
<path fill="none" stroke="#d8a456" stroke-width="2" d="M102,-180C102,-180 57,-180 57,-180 51,-180 45,-174 45,-168 45,-168 45,-156 45,-156 45,-150 51,-144 57,-144 57,-144 102,-144 102,-144 108,-144 114,-150 114,-156 114,-156 114,-168 114,-168 114,-174 108,-180 102,-180"/>
<text text-anchor="middle" x="79.5" y="-159.5" font-family="sans" font-size="10.00" fill="#000000">BamPileup</text>
</g>
<!-- 2&#45;&gt;1 -->
<g id="edge3" class="edge">
<title>2&#45;&gt;1</title>
<path fill="none" stroke="#c0c0c0" stroke-width="2" d="M66.8829,-143.8314C61.1828,-135.6232 54.3337,-125.7606 48.0641,-116.7323"/>
<polygon fill="#c0c0c0" stroke="#c0c0c0" stroke-width="2" points="50.8658,-114.6306 42.287,-108.4133 45.1162,-118.6234 50.8658,-114.6306"/>
</g>
<!-- 6 -->
<g id="node7" class="node">
<title>6</title>
<path fill="none" stroke="#56d8c9" stroke-width="2" d="M171.5,-108C171.5,-108 89.5,-108 89.5,-108 83.5,-108 77.5,-102 77.5,-96 77.5,-96 77.5,-84 77.5,-84 77.5,-78 83.5,-72 89.5,-72 89.5,-72 171.5,-72 171.5,-72 177.5,-72 183.5,-78 183.5,-84 183.5,-84 183.5,-96 183.5,-96 183.5,-102 177.5,-108 171.5,-108"/>
<text text-anchor="middle" x="130.5" y="-87.5" font-family="sans" font-size="10.00" fill="#000000">ReadCoverageBed</text>
</g>
<!-- 2&#45;&gt;6 -->
<g id="edge7" class="edge">
<title>2&#45;&gt;6</title>
<path fill="none" stroke="#c0c0c0" stroke-width="2" d="M92.3695,-143.8314C98.1835,-135.6232 105.1696,-125.7606 111.5646,-116.7323"/>
<polygon fill="#c0c0c0" stroke="#c0c0c0" stroke-width="2" points="114.5331,-118.5966 117.4573,-108.4133 108.821,-114.5505 114.5331,-118.5966"/>
</g>
<!-- 3 -->
<g id="node4" class="node">
<title>3</title>
<path fill="none" stroke="#78d856" stroke-width="2" d="M94.5,-252C94.5,-252 64.5,-252 64.5,-252 58.5,-252 52.5,-246 52.5,-240 52.5,-240 52.5,-228 52.5,-228 52.5,-222 58.5,-216 64.5,-216 64.5,-216 94.5,-216 94.5,-216 100.5,-216 106.5,-222 106.5,-228 106.5,-228 106.5,-240 106.5,-240 106.5,-246 100.5,-252 94.5,-252"/>
<text text-anchor="middle" x="79.5" y="-231.5" font-family="sans" font-size="10.00" fill="#000000">Align</text>
</g>
<!-- 3&#45;&gt;2 -->
<g id="edge4" class="edge">
<title>3&#45;&gt;2</title>
<path fill="none" stroke="#c0c0c0" stroke-width="2" d="M79.5,-215.8314C79.5,-208.131 79.5,-198.9743 79.5,-190.4166"/>
<polygon fill="#c0c0c0" stroke="#c0c0c0" stroke-width="2" points="83.0001,-190.4132 79.5,-180.4133 76.0001,-190.4133 83.0001,-190.4132"/>
</g>
<!-- 4 -->
<g id="node5" class="node">
<title>4</title>
<path fill="none" stroke="#56d87b" stroke-width="2" d="M108,-324C108,-324 51,-324 51,-324 45,-324 39,-318 39,-312 39,-312 39,-300 39,-300 39,-294 45,-288 51,-288 51,-288 108,-288 108,-288 114,-288 120,-294 120,-300 120,-300 120,-312 120,-312 120,-318 114,-324 108,-324"/>
<text text-anchor="middle" x="79.5" y="-303.5" font-family="sans" font-size="10.00" fill="#000000">Trimmomatic</text>
</g>
<!-- 4&#45;&gt;3 -->
<g id="edge5" class="edge">
<title>4&#45;&gt;3</title>
<path fill="none" stroke="#c0c0c0" stroke-width="2" d="M79.5,-287.8314C79.5,-280.131 79.5,-270.9743 79.5,-262.4166"/>
<polygon fill="#c0c0c0" stroke="#c0c0c0" stroke-width="2" points="83.0001,-262.4132 79.5,-252.4133 76.0001,-262.4133 83.0001,-262.4132"/>
</g>
<!-- 5 -->
<g id="node6" class="node">
<title>5</title>
<path fill="none" stroke="#c6d856" stroke-width="2" d="M94.5,-396C94.5,-396 64.5,-396 64.5,-396 58.5,-396 52.5,-390 52.5,-384 52.5,-384 52.5,-372 52.5,-372 52.5,-366 58.5,-360 64.5,-360 64.5,-360 94.5,-360 94.5,-360 100.5,-360 106.5,-366 106.5,-372 106.5,-372 106.5,-384 106.5,-384 106.5,-390 100.5,-396 94.5,-396"/>
<text text-anchor="middle" x="79.5" y="-375.5" font-family="sans" font-size="10.00" fill="#000000">Fastq</text>
</g>
<!-- 5&#45;&gt;4 -->
<g id="edge6" class="edge">
<title>5&#45;&gt;4</title>
<path fill="none" stroke="#c0c0c0" stroke-width="2" d="M79.5,-359.8314C79.5,-352.131 79.5,-342.9743 79.5,-334.4166"/>
<polygon fill="#c0c0c0" stroke="#c0c0c0" stroke-width="2" points="83.0001,-334.4132 79.5,-324.4133 76.0001,-334.4133 83.0001,-334.4132"/>
</g>
<!-- 6&#45;&gt;0 -->
<g id="edge2" class="edge">
<title>6&#45;&gt;0</title>
<path fill="none" stroke="#c0c0c0" stroke-width="2" d="M117.6305,-71.8314C111.8165,-63.6232 104.8304,-53.7606 98.4354,-44.7323"/>
<polygon fill="#c0c0c0" stroke="#c0c0c0" stroke-width="2" points="101.179,-42.5505 92.5427,-36.4133 95.4669,-46.5966 101.179,-42.5505"/>
</g>
</g>
</svg>
