<?xml version="1.0" encoding="UTF-8" standalone="no"?>
<!DOCTYPE svg PUBLIC "-//W3C//DTD SVG 1.1//EN"
 "http://www.w3.org/Graphics/SVG/1.1/DTD/svg11.dtd">
<!-- Generated by graphviz version 2.30.1 (20201013.1554)
 -->
<!-- Title: snakemake_dag Pages: 1 -->
<svg width="191pt" height="332pt"
 viewBox="0.00 0.00 191.00 332.00" xmlns="http://www.w3.org/2000/svg" xmlns:xlink="http://www.w3.org/1999/xlink">
<g id="graph0" class="graph" transform="scale(1 1) rotate(0) translate(4 328)">
<title>snakemake_dag</title>
<polygon fill="white" stroke="white" points="-4,5 -4,-328 188,-328 188,5 -4,5"/>
<!-- 0 -->
<g id="node1" class="node"><title>0</title>
<path fill="none" stroke="#afd856" stroke-width="2" d="M120,-36C120,-36 38,-36 38,-36 32,-36 26,-30 26,-24 26,-24 26,-12 26,-12 26,-6 32,-0 38,-0 38,-0 120,-0 120,-0 126,-0 132,-6 132,-12 132,-12 132,-24 132,-24 132,-30 126,-36 120,-36"/>
<text text-anchor="middle" x="79" y="-15.5" font-family="sans" font-size="10.00">AggregateQCStats</text>
</g>
<!-- 1 -->
<g id="node2" class="node"><title>1</title>
<path fill="none" stroke="#56d8a9" stroke-width="2" d="M46.25,-108C46.25,-108 11.75,-108 11.75,-108 5.75,-108 -0.25,-102 -0.25,-96 -0.25,-96 -0.25,-84 -0.25,-84 -0.25,-78 5.75,-72 11.75,-72 11.75,-72 46.25,-72 46.25,-72 52.25,-72 58.25,-78 58.25,-84 58.25,-84 58.25,-96 58.25,-96 58.25,-102 52.25,-108 46.25,-108"/>
<text text-anchor="middle" x="29" y="-87.5" font-family="sans" font-size="10.00">UniObRC</text>
</g>
<!-- 1&#45;&gt;0 -->
<g id="edge1" class="edge"><title>1&#45;&gt;0</title>
<path fill="none" stroke="grey" stroke-width="2" d="M41.3596,-71.6966C47.2328,-63.4741 54.3691,-53.4832 60.8424,-44.4207"/>
<polygon fill="grey" stroke="grey" points="63.8183,-46.276 66.7826,-36.1043 58.1221,-42.2073 63.8183,-46.276"/>
</g>
<!-- 2 -->
<g id="node3" class="node"><title>2</title>
<path fill="none" stroke="#d8ac56" stroke-width="2" d="M101.25,-180C101.25,-180 56.75,-180 56.75,-180 50.75,-180 44.75,-174 44.75,-168 44.75,-168 44.75,-156 44.75,-156 44.75,-150 50.75,-144 56.75,-144 56.75,-144 101.25,-144 101.25,-144 107.25,-144 113.25,-150 113.25,-156 113.25,-156 113.25,-168 113.25,-168 113.25,-174 107.25,-180 101.25,-180"/>
<text text-anchor="middle" x="79" y="-159.5" font-family="sans" font-size="10.00">BamPileup</text>
</g>
<!-- 2&#45;&gt;1 -->
<g id="edge3" class="edge"><title>2&#45;&gt;1</title>
<path fill="none" stroke="grey" stroke-width="2" d="M66.6404,-143.697C60.7672,-135.474 53.6309,-125.483 47.1576,-116.421"/>
<polygon fill="grey" stroke="grey" points="49.8779,-114.207 41.2174,-108.104 44.1817,-118.276 49.8779,-114.207"/>
</g>
<!-- 5 -->
<g id="node6" class="node"><title>5</title>
<path fill="none" stroke="#59d856" stroke-width="2" d="M171,-108C171,-108 89,-108 89,-108 83,-108 77,-102 77,-96 77,-96 77,-84 77,-84 77,-78 83,-72 89,-72 89,-72 171,-72 171,-72 177,-72 183,-78 183,-84 183,-84 183,-96 183,-96 183,-102 177,-108 171,-108"/>
<text text-anchor="middle" x="130" y="-87.5" font-family="sans" font-size="10.00">ReadCoverageBed</text>
</g>
<!-- 2&#45;&gt;5 -->
<g id="edge6" class="edge"><title>2&#45;&gt;5</title>
<path fill="none" stroke="grey" stroke-width="2" d="M91.6067,-143.697C97.5974,-135.474 104.876,-125.483 111.479,-116.421"/>
<polygon fill="grey" stroke="grey" points="114.478,-118.248 117.538,-108.104 108.821,-114.126 114.478,-118.248"/>
</g>
<!-- 3 -->
<g id="node4" class="node"><title>3</title>
<path fill="none" stroke="#d85656" stroke-width="2" d="M100.25,-252C100.25,-252 57.75,-252 57.75,-252 51.75,-252 45.75,-246 45.75,-240 45.75,-240 45.75,-228 45.75,-228 45.75,-222 51.75,-216 57.75,-216 57.75,-216 100.25,-216 100.25,-216 106.25,-216 112.25,-222 112.25,-228 112.25,-228 112.25,-240 112.25,-240 112.25,-246 106.25,-252 100.25,-252"/>
<text text-anchor="middle" x="79" y="-231.5" font-family="sans" font-size="10.00">AlignHg38</text>
</g>
<!-- 3&#45;&gt;2 -->
<g id="edge4" class="edge"><title>3&#45;&gt;2</title>
<path fill="none" stroke="grey" stroke-width="2" d="M79,-215.697C79,-207.983 79,-198.712 79,-190.112"/>
<polygon fill="grey" stroke="grey" points="82.5001,-190.104 79,-180.104 75.5001,-190.104 82.5001,-190.104"/>
</g>
<!-- 4 -->
<g id="node5" class="node"><title>4</title>
<path fill="none" stroke="#56a9d8" stroke-width="2" d="M94,-324C94,-324 64,-324 64,-324 58,-324 52,-318 52,-312 52,-312 52,-300 52,-300 52,-294 58,-288 64,-288 64,-288 94,-288 94,-288 100,-288 106,-294 106,-300 106,-300 106,-312 106,-312 106,-318 100,-324 94,-324"/>
<text text-anchor="middle" x="79" y="-303.5" font-family="sans" font-size="10.00">Fastq</text>
</g>
<!-- 4&#45;&gt;3 -->
<g id="edge5" class="edge"><title>4&#45;&gt;3</title>
<path fill="none" stroke="grey" stroke-width="2" d="M79,-287.697C79,-279.983 79,-270.712 79,-262.112"/>
<polygon fill="grey" stroke="grey" points="82.5001,-262.104 79,-252.104 75.5001,-262.104 82.5001,-262.104"/>
</g>
<!-- 5&#45;&gt;0 -->
<g id="edge2" class="edge"><title>5&#45;&gt;0</title>
<path fill="none" stroke="grey" stroke-width="2" d="M117.393,-71.6966C111.403,-63.4741 104.124,-53.4832 97.5208,-44.4207"/>
<polygon fill="grey" stroke="grey" points="100.179,-42.1257 91.4617,-36.1043 94.5215,-46.2477 100.179,-42.1257"/>
</g>
</g>
</svg>
