<?xml version="1.0" encoding="UTF-8" standalone="no"?>
<!DOCTYPE svg PUBLIC "-//W3C//DTD SVG 1.1//EN"
 "http://www.w3.org/Graphics/SVG/1.1/DTD/svg11.dtd">
<!-- Generated by graphviz version 2.40.1 (20161225.0304)
 -->
<!-- Title: snakemake_dag Pages: 1 -->
<svg width="250pt" height="260pt"
 viewBox="0.00 0.00 249.50 260.00" xmlns="http://www.w3.org/2000/svg" xmlns:xlink="http://www.w3.org/1999/xlink">
<g id="graph0" class="graph" transform="scale(1 1) rotate(0) translate(4 256)">
<title>snakemake_dag</title>
<polygon fill="#ffffff" stroke="transparent" points="-4,4 -4,-256 245.5,-256 245.5,4 -4,4"/>
<!-- 0 -->
<g id="node1" class="node">
<title>0</title>
<path fill="none" stroke="#88d856" stroke-width="2" d="M179,-36C179,-36 143,-36 143,-36 137,-36 131,-30 131,-24 131,-24 131,-12 131,-12 131,-6 137,0 143,0 143,0 179,0 179,0 185,0 191,-6 191,-12 191,-12 191,-24 191,-24 191,-30 185,-36 179,-36"/>
<text text-anchor="middle" x="161" y="-15.5" font-family="sans" font-size="10.00" fill="#000000">Organize</text>
</g>
<!-- 1 -->
<g id="node2" class="node">
<title>1</title>
<path fill="none" stroke="#d85656" stroke-width="2" d="M211.5,-108C211.5,-108 110.5,-108 110.5,-108 104.5,-108 98.5,-102 98.5,-96 98.5,-96 98.5,-84 98.5,-84 98.5,-78 104.5,-72 110.5,-72 110.5,-72 211.5,-72 211.5,-72 217.5,-72 223.5,-78 223.5,-84 223.5,-84 223.5,-96 223.5,-96 223.5,-102 217.5,-108 211.5,-108"/>
<text text-anchor="middle" x="161" y="-87.5" font-family="sans" font-size="10.00" fill="#000000">CollectRNASeqMetrics</text>
</g>
<!-- 1&#45;&gt;0 -->
<g id="edge1" class="edge">
<title>1&#45;&gt;0</title>
<path fill="none" stroke="#c0c0c0" stroke-width="2" d="M161,-71.8314C161,-64.131 161,-54.9743 161,-46.4166"/>
<polygon fill="#c0c0c0" stroke="#c0c0c0" stroke-width="2" points="164.5001,-46.4132 161,-36.4133 157.5001,-46.4133 164.5001,-46.4132"/>
</g>
<!-- 2 -->
<g id="node3" class="node">
<title>2</title>
<path fill="none" stroke="#56d88a" stroke-width="2" d="M68,-108C68,-108 12,-108 12,-108 6,-108 0,-102 0,-96 0,-96 0,-84 0,-84 0,-78 6,-72 12,-72 12,-72 68,-72 68,-72 74,-72 80,-78 80,-84 80,-84 80,-96 80,-96 80,-102 74,-108 68,-108"/>
<text text-anchor="middle" x="40" y="-87.5" font-family="sans" font-size="10.00" fill="#000000">WigToBigWig</text>
</g>
<!-- 2&#45;&gt;0 -->
<g id="edge2" class="edge">
<title>2&#45;&gt;0</title>
<path fill="none" stroke="#c0c0c0" stroke-width="2" d="M70.5334,-71.8314C86.1282,-62.5518 105.2768,-51.1576 121.9354,-41.2451"/>
<polygon fill="#c0c0c0" stroke="#c0c0c0" stroke-width="2" points="124.0916,-44.0348 130.8955,-35.9134 120.5121,-38.0193 124.0916,-44.0348"/>
</g>
<!-- 3 -->
<g id="node4" class="node">
<title>3</title>
<path fill="none" stroke="#56c1d8" stroke-width="2" d="M229.5,-180C229.5,-180 164.5,-180 164.5,-180 158.5,-180 152.5,-174 152.5,-168 152.5,-168 152.5,-156 152.5,-156 152.5,-150 158.5,-144 164.5,-144 164.5,-144 229.5,-144 229.5,-144 235.5,-144 241.5,-150 241.5,-156 241.5,-156 241.5,-168 241.5,-168 241.5,-174 235.5,-180 229.5,-180"/>
<text text-anchor="middle" x="197" y="-159.5" font-family="sans" font-size="10.00" fill="#000000">SamtoolsIndex</text>
</g>
<!-- 3&#45;&gt;0 -->
<g id="edge3" class="edge">
<title>3&#45;&gt;0</title>
<path fill="none" stroke="#c0c0c0" stroke-width="2" d="M213.4707,-143.6835C227.9687,-125.2186 245.0416,-96.0832 233,-72 225.7775,-57.5551 212.6503,-45.9717 199.5637,-37.2939"/>
<polygon fill="#c0c0c0" stroke="#c0c0c0" stroke-width="2" points="201.3768,-34.2999 191.0323,-32.01 197.691,-40.251 201.3768,-34.2999"/>
</g>
<!-- 3&#45;&gt;1 -->
<g id="edge4" class="edge">
<title>3&#45;&gt;1</title>
<path fill="none" stroke="#c0c0c0" stroke-width="2" d="M187.9157,-143.8314C183.9385,-135.8771 179.1845,-126.369 174.7861,-117.5723"/>
<polygon fill="#c0c0c0" stroke="#c0c0c0" stroke-width="2" points="177.8093,-115.7923 170.2066,-108.4133 171.5483,-118.9228 177.8093,-115.7923"/>
</g>
<!-- 4 -->
<g id="node5" class="node">
<title>4</title>
<path fill="none" stroke="#d8bc56" stroke-width="2" d="M155,-252C155,-252 93,-252 93,-252 87,-252 81,-246 81,-240 81,-240 81,-228 81,-228 81,-222 87,-216 93,-216 93,-216 155,-216 155,-216 161,-216 167,-222 167,-228 167,-228 167,-240 167,-240 167,-246 161,-252 155,-252"/>
<text text-anchor="middle" x="124" y="-231.5" font-family="sans" font-size="10.00" fill="#000000">StarAlignment</text>
</g>
<!-- 4&#45;&gt;1 -->
<g id="edge5" class="edge">
<title>4&#45;&gt;1</title>
<path fill="none" stroke="#c0c0c0" stroke-width="2" d="M127.5315,-215.9594C131.2157,-197.709 137.3709,-168.737 144,-144 146.279,-135.4958 149.0445,-126.3313 151.6771,-118.0099"/>
<polygon fill="#c0c0c0" stroke="#c0c0c0" stroke-width="2" points="155.0448,-118.9703 154.7807,-108.3787 148.3822,-116.8233 155.0448,-118.9703"/>
</g>
<!-- 4&#45;&gt;2 -->
<g id="edge6" class="edge">
<title>4&#45;&gt;2</title>
<path fill="none" stroke="#c0c0c0" stroke-width="2" d="M113.3613,-215.7623C98.7815,-190.7682 72.4872,-145.6924 55.6572,-116.8409"/>
<polygon fill="#c0c0c0" stroke="#c0c0c0" stroke-width="2" points="58.6143,-114.9639 50.5523,-108.0896 52.5678,-118.491 58.6143,-114.9639"/>
</g>
<!-- 4&#45;&gt;3 -->
<g id="edge7" class="edge">
<title>4&#45;&gt;3</title>
<path fill="none" stroke="#c0c0c0" stroke-width="2" d="M142.421,-215.8314C151.1529,-207.219 161.7317,-196.7851 171.2423,-187.4048"/>
<polygon fill="#c0c0c0" stroke="#c0c0c0" stroke-width="2" points="173.923,-189.6769 178.5849,-180.1628 169.0075,-184.6931 173.923,-189.6769"/>
</g>
</g>
</svg>
