<?xml version="1.0" encoding="UTF-8" standalone="no"?>
<!DOCTYPE svg PUBLIC "-//W3C//DTD SVG 1.1//EN"
 "http://www.w3.org/Graphics/SVG/1.1/DTD/svg11.dtd">
<!-- Generated by graphviz version 2.40.1 (20161225.0304)
 -->
<!-- Title: snakemake_dag Pages: 1 -->
<svg width="152pt" height="548pt"
 viewBox="0.00 0.00 151.50 548.00" xmlns="http://www.w3.org/2000/svg" xmlns:xlink="http://www.w3.org/1999/xlink">
<g id="graph0" class="graph" transform="scale(1 1) rotate(0) translate(4 544)">
<title>snakemake_dag</title>
<polygon fill="#ffffff" stroke="transparent" points="-4,4 -4,-544 147.5,-544 147.5,4 -4,4"/>
<!-- 0 -->
<g id="node1" class="node">
<title>0</title>
<path fill="none" stroke="#d6d856" stroke-width="2" d="M78,-36C78,-36 37,-36 37,-36 31,-36 25,-30 25,-24 25,-24 25,-12 25,-12 25,-6 31,0 37,0 37,0 78,0 78,0 84,0 90,-6 90,-12 90,-12 90,-24 90,-24 90,-30 84,-36 78,-36"/>
<text text-anchor="middle" x="57.5" y="-15.5" font-family="sans" font-size="10.00" fill="#000000">TxtOutput</text>
</g>
<!-- 1 -->
<g id="node2" class="node">
<title>1</title>
<path fill="none" stroke="#d85656" stroke-width="2" d="M127.5,-180C127.5,-180 59.5,-180 59.5,-180 53.5,-180 47.5,-174 47.5,-168 47.5,-168 47.5,-156 47.5,-156 47.5,-150 53.5,-144 59.5,-144 59.5,-144 127.5,-144 127.5,-144 133.5,-144 139.5,-150 139.5,-156 139.5,-156 139.5,-168 139.5,-168 139.5,-174 133.5,-180 127.5,-180"/>
<text text-anchor="middle" x="93.5" y="-159.5" font-family="sans" font-size="10.00" fill="#000000">VCFRegionFilter</text>
</g>
<!-- 1&#45;&gt;0 -->
<g id="edge1" class="edge">
<title>1&#45;&gt;0</title>
<path fill="none" stroke="#c0c0c0" stroke-width="2" d="M87.2316,-143.6343C83.8094,-133.2474 79.6421,-119.9788 76.5,-108 71.1061,-87.4364 66.1841,-63.9219 62.7018,-46.0864"/>
<polygon fill="#c0c0c0" stroke="#c0c0c0" stroke-width="2" points="66.0979,-45.2116 60.7768,-36.0499 59.2232,-46.5303 66.0979,-45.2116"/>
</g>
<!-- 3 -->
<g id="node4" class="node">
<title>3</title>
<path fill="none" stroke="#56d8d8" stroke-width="2" d="M131.5,-108C131.5,-108 97.5,-108 97.5,-108 91.5,-108 85.5,-102 85.5,-96 85.5,-96 85.5,-84 85.5,-84 85.5,-78 91.5,-72 97.5,-72 97.5,-72 131.5,-72 131.5,-72 137.5,-72 143.5,-78 143.5,-84 143.5,-84 143.5,-96 143.5,-96 143.5,-102 137.5,-108 131.5,-108"/>
<text text-anchor="middle" x="114.5" y="-87.5" font-family="sans" font-size="10.00" fill="#000000">VcfTabix</text>
</g>
<!-- 1&#45;&gt;3 -->
<g id="edge6" class="edge">
<title>1&#45;&gt;3</title>
<path fill="none" stroke="#c0c0c0" stroke-width="2" d="M98.7992,-143.8314C101.0698,-136.0463 103.7746,-126.7729 106.294,-118.1347"/>
<polygon fill="#c0c0c0" stroke="#c0c0c0" stroke-width="2" points="109.6894,-118.9933 109.1295,-108.4133 102.9694,-117.0332 109.6894,-118.9933"/>
</g>
<!-- 2 -->
<g id="node3" class="node">
<title>2</title>
<path fill="none" stroke="#d89556" stroke-width="2" d="M101,-252C101,-252 12,-252 12,-252 6,-252 0,-246 0,-240 0,-240 0,-228 0,-228 0,-222 6,-216 12,-216 12,-216 101,-216 101,-216 107,-216 113,-222 113,-228 113,-228 113,-240 113,-240 113,-246 107,-252 101,-252"/>
<text text-anchor="middle" x="56.5" y="-231.5" font-family="sans" font-size="10.00" fill="#000000">AnnotatedVcfParser</text>
</g>
<!-- 2&#45;&gt;0 -->
<g id="edge2" class="edge">
<title>2&#45;&gt;0</title>
<path fill="none" stroke="#c0c0c0" stroke-width="2" d="M48.8321,-215.8756C44.8861,-205.5642 40.4945,-192.2907 38.5,-180 30.9199,-133.2894 41.332,-78.5316 49.4767,-46.1365"/>
<polygon fill="#c0c0c0" stroke="#c0c0c0" stroke-width="2" points="52.9703,-46.6124 52.1227,-36.0515 46.1994,-44.8359 52.9703,-46.6124"/>
</g>
<!-- 2&#45;&gt;1 -->
<g id="edge4" class="edge">
<title>2&#45;&gt;1</title>
<path fill="none" stroke="#c0c0c0" stroke-width="2" d="M65.8367,-215.8314C69.9243,-207.8771 74.8104,-198.369 79.3309,-189.5723"/>
<polygon fill="#c0c0c0" stroke="#c0c0c0" stroke-width="2" points="82.5799,-190.9074 84.0376,-180.4133 76.3539,-187.7078 82.5799,-190.9074"/>
</g>
<!-- 3&#45;&gt;0 -->
<g id="edge3" class="edge">
<title>3&#45;&gt;0</title>
<path fill="none" stroke="#c0c0c0" stroke-width="2" d="M100.1165,-71.8314C93.5514,-63.5386 85.6493,-53.557 78.4422,-44.4533"/>
<polygon fill="#c0c0c0" stroke="#c0c0c0" stroke-width="2" points="81.0284,-42.0813 72.0772,-36.4133 75.5401,-46.4262 81.0284,-42.0813"/>
</g>
<!-- 4 -->
<g id="node5" class="node">
<title>4</title>
<path fill="none" stroke="#569ad8" stroke-width="2" d="M96.5,-324C96.5,-324 16.5,-324 16.5,-324 10.5,-324 4.5,-318 4.5,-312 4.5,-312 4.5,-300 4.5,-300 4.5,-294 10.5,-288 16.5,-288 16.5,-288 96.5,-288 96.5,-288 102.5,-288 108.5,-294 108.5,-300 108.5,-300 108.5,-312 108.5,-312 108.5,-318 102.5,-324 96.5,-324"/>
<text text-anchor="middle" x="56.5" y="-303.5" font-family="sans" font-size="10.00" fill="#000000">VCFSpliceScanner</text>
</g>
<!-- 4&#45;&gt;2 -->
<g id="edge5" class="edge">
<title>4&#45;&gt;2</title>
<path fill="none" stroke="#c0c0c0" stroke-width="2" d="M56.5,-287.8314C56.5,-280.131 56.5,-270.9743 56.5,-262.4166"/>
<polygon fill="#c0c0c0" stroke="#c0c0c0" stroke-width="2" points="60.0001,-262.4132 56.5,-252.4133 53.0001,-262.4133 60.0001,-262.4132"/>
</g>
<!-- 5 -->
<g id="node6" class="node">
<title>5</title>
<path fill="none" stroke="#56d89a" stroke-width="2" d="M72,-396C72,-396 41,-396 41,-396 35,-396 29,-390 29,-384 29,-384 29,-372 29,-372 29,-366 35,-360 41,-360 41,-360 72,-360 72,-360 78,-360 84,-366 84,-372 84,-372 84,-384 84,-384 84,-390 78,-396 72,-396"/>
<text text-anchor="middle" x="56.5" y="-375.5" font-family="sans" font-size="10.00" fill="#000000">DbNSFP</text>
</g>
<!-- 5&#45;&gt;4 -->
<g id="edge7" class="edge">
<title>5&#45;&gt;4</title>
<path fill="none" stroke="#c0c0c0" stroke-width="2" d="M56.5,-359.8314C56.5,-352.131 56.5,-342.9743 56.5,-334.4166"/>
<polygon fill="#c0c0c0" stroke="#c0c0c0" stroke-width="2" points="60.0001,-334.4132 56.5,-324.4133 53.0001,-334.4133 60.0001,-334.4132"/>
</g>
<!-- 6 -->
<g id="node7" class="node">
<title>6</title>
<path fill="none" stroke="#59d856" stroke-width="2" d="M71.5,-468C71.5,-468 41.5,-468 41.5,-468 35.5,-468 29.5,-462 29.5,-456 29.5,-456 29.5,-444 29.5,-444 29.5,-438 35.5,-432 41.5,-432 41.5,-432 71.5,-432 71.5,-432 77.5,-432 83.5,-438 83.5,-444 83.5,-444 83.5,-456 83.5,-456 83.5,-462 77.5,-468 71.5,-468"/>
<text text-anchor="middle" x="56.5" y="-447.5" font-family="sans" font-size="10.00" fill="#000000">Clinvar</text>
</g>
<!-- 6&#45;&gt;5 -->
<g id="edge8" class="edge">
<title>6&#45;&gt;5</title>
<path fill="none" stroke="#c0c0c0" stroke-width="2" d="M56.5,-431.8314C56.5,-424.131 56.5,-414.9743 56.5,-406.4166"/>
<polygon fill="#c0c0c0" stroke="#c0c0c0" stroke-width="2" points="60.0001,-406.4132 56.5,-396.4133 53.0001,-406.4133 60.0001,-406.4132"/>
</g>
<!-- 7 -->
<g id="node8" class="node">
<title>7</title>
<path fill="none" stroke="#97d856" stroke-width="2" d="M71.5,-540C71.5,-540 41.5,-540 41.5,-540 35.5,-540 29.5,-534 29.5,-528 29.5,-528 29.5,-516 29.5,-516 29.5,-510 35.5,-504 41.5,-504 41.5,-504 71.5,-504 71.5,-504 77.5,-504 83.5,-510 83.5,-516 83.5,-516 83.5,-528 83.5,-528 83.5,-534 77.5,-540 71.5,-540"/>
<text text-anchor="middle" x="56.5" y="-519.5" font-family="sans" font-size="10.00" fill="#000000">SnpEff</text>
</g>
<!-- 7&#45;&gt;6 -->
<g id="edge9" class="edge">
<title>7&#45;&gt;6</title>
<path fill="none" stroke="#c0c0c0" stroke-width="2" d="M56.5,-503.8314C56.5,-496.131 56.5,-486.9743 56.5,-478.4166"/>
<polygon fill="#c0c0c0" stroke="#c0c0c0" stroke-width="2" points="60.0001,-478.4132 56.5,-468.4133 53.0001,-478.4133 60.0001,-478.4132"/>
</g>
</g>
</svg>
