<?xml version="1.0" encoding="UTF-8" standalone="no"?>
<!DOCTYPE svg PUBLIC "-//W3C//DTD SVG 1.1//EN"
 "http://www.w3.org/Graphics/SVG/1.1/DTD/svg11.dtd">
<!-- Generated by graphviz version 2.30.1 (20150306.0020)
 -->
<!-- Title: snakemake_dag Pages: 1 -->
<svg width="690pt" height="404pt"
 viewBox="0.00 0.00 690.00 404.00" xmlns="http://www.w3.org/2000/svg" xmlns:xlink="http://www.w3.org/1999/xlink">
<g id="graph0" class="graph" transform="scale(1 1) rotate(0) translate(4 400)">
<title>snakemake_dag</title>
<polygon fill="white" stroke="white" points="-4,5 -4,-400 687,-400 687,5 -4,5"/>
<!-- 0 -->
<g id="node1" class="node"><title>0</title>
<path fill="none" stroke="#68d856" stroke-width="2" d="M350.25,-36C350.25,-36 281.75,-36 281.75,-36 275.75,-36 269.75,-30 269.75,-24 269.75,-24 269.75,-12 269.75,-12 269.75,-6 275.75,-0 281.75,-0 281.75,-0 350.25,-0 350.25,-0 356.25,-0 362.25,-6 362.25,-12 362.25,-12 362.25,-24 362.25,-24 362.25,-30 356.25,-36 350.25,-36"/>
<text text-anchor="middle" x="316" y="-15.5" font-family="sans" font-size="10.00">OrganizeResults</text>
</g>
<!-- 1 -->
<g id="node2" class="node"><title>1</title>
<path fill="none" stroke="#d87556" stroke-width="2" d="M166.25,-108C166.25,-108 11.75,-108 11.75,-108 5.75,-108 -0.25,-102 -0.25,-96 -0.25,-96 -0.25,-84 -0.25,-84 -0.25,-78 5.75,-72 11.75,-72 11.75,-72 166.25,-72 166.25,-72 172.25,-72 178.25,-78 178.25,-84 178.25,-84 178.25,-96 178.25,-96 178.25,-102 172.25,-108 166.25,-108"/>
<text text-anchor="middle" x="89" y="-87.5" font-family="sans" font-size="10.00">HeterozygousAllelicFrequency2Bw</text>
</g>
<!-- 1&#45;&gt;0 -->
<g id="edge1" class="edge"><title>1&#45;&gt;0</title>
<path fill="none" stroke="grey" stroke-width="2" d="M144.24,-71.9656C179.388,-61.1271 224.762,-47.1352 260.046,-36.2544"/>
<polygon fill="grey" stroke="grey" points="261.19,-39.5646 269.714,-33.2732 259.127,-32.8754 261.19,-39.5646"/>
</g>
<!-- 2 -->
<g id="node3" class="node"><title>2</title>
<path fill="none" stroke="#56d8a9" stroke-width="2" d="M649,-180C649,-180 589,-180 589,-180 583,-180 577,-174 577,-168 577,-168 577,-156 577,-156 577,-150 583,-144 589,-144 589,-144 649,-144 649,-144 655,-144 661,-150 661,-156 661,-156 661,-168 661,-168 661,-174 655,-180 649,-180"/>
<text text-anchor="middle" x="619" y="-159.5" font-family="sans" font-size="10.00">CopyRatio2Bw</text>
</g>
<!-- 2&#45;&gt;0 -->
<g id="edge2" class="edge"><title>2&#45;&gt;0</title>
<path fill="none" stroke="grey" stroke-width="2" d="M582.451,-143.871C527.171,-117.964 422.355,-68.8427 361.973,-40.5453"/>
<polygon fill="grey" stroke="grey" points="363.219,-37.2637 352.679,-36.1893 360.248,-43.6021 363.219,-37.2637"/>
</g>
<!-- 3 -->
<g id="node4" class="node"><title>3</title>
<path fill="none" stroke="#56d88a" stroke-width="2" d="M254.25,-180C254.25,-180 147.75,-180 147.75,-180 141.75,-180 135.75,-174 135.75,-168 135.75,-168 135.75,-156 135.75,-156 135.75,-150 141.75,-144 147.75,-144 147.75,-144 254.25,-144 254.25,-144 260.25,-144 266.25,-150 266.25,-156 266.25,-156 266.25,-168 266.25,-168 266.25,-174 260.25,-180 254.25,-180"/>
<text text-anchor="middle" x="201" y="-159.5" font-family="sans" font-size="10.00">CallCopyRatioSegments</text>
</g>
<!-- 3&#45;&gt;0 -->
<g id="edge3" class="edge"><title>3&#45;&gt;0</title>
<path fill="none" stroke="grey" stroke-width="2" d="M202.034,-143.909C203.991,-124.64 209.647,-93.2358 226,-72 235.801,-59.2718 249.598,-49.0058 263.45,-41.0222"/>
<polygon fill="grey" stroke="grey" points="265.398,-43.9471 272.519,-36.1024 262.061,-37.7941 265.398,-43.9471"/>
</g>
<!-- 5 -->
<g id="node6" class="node"><title>5</title>
<path fill="none" stroke="#d85656" stroke-width="2" d="M384.25,-108C384.25,-108 247.75,-108 247.75,-108 241.75,-108 235.75,-102 235.75,-96 235.75,-96 235.75,-84 235.75,-84 235.75,-78 241.75,-72 247.75,-72 247.75,-72 384.25,-72 384.25,-72 390.25,-72 396.25,-78 396.25,-84 396.25,-84 396.25,-96 396.25,-96 396.25,-102 390.25,-108 384.25,-108"/>
<text text-anchor="middle" x="316" y="-87.5" font-family="sans" font-size="10.00">GatkCalledSegmentAnnotator</text>
</g>
<!-- 3&#45;&gt;5 -->
<g id="edge13" class="edge"><title>3&#45;&gt;5</title>
<path fill="none" stroke="grey" stroke-width="2" d="M229.132,-143.876C244.168,-134.724 262.867,-123.342 279.06,-113.485"/>
<polygon fill="grey" stroke="grey" points="281.038,-116.379 287.76,-108.19 277.398,-110.4 281.038,-116.379"/>
</g>
<!-- 4 -->
<g id="node5" class="node"><title>4</title>
<path fill="none" stroke="#569ad8" stroke-width="2" d="M397.25,-180C397.25,-180 296.75,-180 296.75,-180 290.75,-180 284.75,-174 284.75,-168 284.75,-168 284.75,-156 284.75,-156 284.75,-150 290.75,-144 296.75,-144 296.75,-144 397.25,-144 397.25,-144 403.25,-144 409.25,-150 409.25,-156 409.25,-156 409.25,-168 409.25,-168 409.25,-174 403.25,-180 397.25,-180"/>
<text text-anchor="middle" x="347" y="-159.5" font-family="sans" font-size="10.00">PlotModeledSegments</text>
</g>
<!-- 4&#45;&gt;0 -->
<g id="edge4" class="edge"><title>4&#45;&gt;0</title>
<path fill="none" stroke="grey" stroke-width="2" d="M374.34,-143.775C386.11,-134.718 398.617,-122.478 405,-108 411.454,-93.3595 412.906,-85.9101 405,-72 397.346,-58.5334 384.767,-48.1289 371.444,-40.2505"/>
<polygon fill="grey" stroke="grey" points="373.08,-37.1556 362.626,-35.4311 369.723,-43.2982 373.08,-37.1556"/>
</g>
<!-- 5&#45;&gt;0 -->
<g id="edge5" class="edge"><title>5&#45;&gt;0</title>
<path fill="none" stroke="grey" stroke-width="2" d="M316,-71.6966C316,-63.9827 316,-54.7125 316,-46.1124"/>
<polygon fill="grey" stroke="grey" points="319.5,-46.1043 316,-36.1043 312.5,-46.1044 319.5,-46.1043"/>
</g>
<!-- 6 -->
<g id="node7" class="node"><title>6</title>
<path fill="none" stroke="#88d856" stroke-width="2" d="M375.25,-252C375.25,-252 304.75,-252 304.75,-252 298.75,-252 292.75,-246 292.75,-240 292.75,-240 292.75,-228 292.75,-228 292.75,-222 298.75,-216 304.75,-216 304.75,-216 375.25,-216 375.25,-216 381.25,-216 387.25,-222 387.25,-228 387.25,-228 387.25,-240 387.25,-240 387.25,-246 381.25,-252 375.25,-252"/>
<text text-anchor="middle" x="340" y="-231.5" font-family="sans" font-size="10.00">ModelSegments</text>
</g>
<!-- 6&#45;&gt;1 -->
<g id="edge6" class="edge"><title>6&#45;&gt;1</title>
<path fill="none" stroke="grey" stroke-width="2" d="M292.33,-233.09C244.882,-230.702 172.596,-220.034 126,-180 107.71,-164.286 98.2874,-138.063 93.5443,-118.141"/>
<polygon fill="grey" stroke="grey" points="96.915,-117.164 91.4162,-108.107 90.0674,-118.616 96.915,-117.164"/>
</g>
<!-- 6&#45;&gt;3 -->
<g id="edge9" class="edge"><title>6&#45;&gt;3</title>
<path fill="none" stroke="grey" stroke-width="2" d="M305.997,-215.876C287.402,-206.512 264.173,-194.814 244.294,-184.803"/>
<polygon fill="grey" stroke="grey" points="245.64,-181.562 235.134,-180.19 242.491,-187.814 245.64,-181.562"/>
</g>
<!-- 6&#45;&gt;4 -->
<g id="edge10" class="edge"><title>6&#45;&gt;4</title>
<path fill="none" stroke="grey" stroke-width="2" d="M341.73,-215.697C342.502,-207.983 343.429,-198.712 344.289,-190.112"/>
<polygon fill="grey" stroke="grey" points="347.777,-190.403 345.29,-180.104 340.812,-189.706 347.777,-190.403"/>
</g>
<!-- 9 -->
<g id="node10" class="node"><title>9</title>
<path fill="none" stroke="#56d86b" stroke-width="2" d="M546.25,-180C546.25,-180 439.75,-180 439.75,-180 433.75,-180 427.75,-174 427.75,-168 427.75,-168 427.75,-156 427.75,-156 427.75,-150 433.75,-144 439.75,-144 439.75,-144 546.25,-144 546.25,-144 552.25,-144 558.25,-150 558.25,-156 558.25,-156 558.25,-168 558.25,-168 558.25,-174 552.25,-180 546.25,-180"/>
<text text-anchor="middle" x="493" y="-159.5" font-family="sans" font-size="10.00">IndexHetAndCopyRatios</text>
</g>
<!-- 6&#45;&gt;9 -->
<g id="edge20" class="edge"><title>6&#45;&gt;9</title>
<path fill="none" stroke="grey" stroke-width="2" d="M377.428,-215.876C398.251,-206.349 424.354,-194.407 446.481,-184.283"/>
<polygon fill="grey" stroke="grey" points="448.056,-187.411 455.694,-180.068 445.144,-181.046 448.056,-187.411"/>
</g>
<!-- 7 -->
<g id="node8" class="node"><title>7</title>
<path fill="none" stroke="#56c1d8" stroke-width="2" d="M669.25,-252C669.25,-252 568.75,-252 568.75,-252 562.75,-252 556.75,-246 556.75,-240 556.75,-240 556.75,-228 556.75,-228 556.75,-222 562.75,-216 568.75,-216 568.75,-216 669.25,-216 669.25,-216 675.25,-216 681.25,-222 681.25,-228 681.25,-228 681.25,-240 681.25,-240 681.25,-246 675.25,-252 669.25,-252"/>
<text text-anchor="middle" x="619" y="-231.5" font-family="sans" font-size="10.00">DenoiseNormalCounts</text>
</g>
<!-- 7&#45;&gt;2 -->
<g id="edge7" class="edge"><title>7&#45;&gt;2</title>
<path fill="none" stroke="grey" stroke-width="2" d="M619,-215.697C619,-207.983 619,-198.712 619,-190.112"/>
<polygon fill="grey" stroke="grey" points="622.5,-190.104 619,-180.104 615.5,-190.104 622.5,-190.104"/>
</g>
<!-- 7&#45;&gt;9 -->
<g id="edge19" class="edge"><title>7&#45;&gt;9</title>
<path fill="none" stroke="grey" stroke-width="2" d="M588.177,-215.876C571.55,-206.639 550.835,-195.131 532.981,-185.212"/>
<polygon fill="grey" stroke="grey" points="534.383,-181.987 523.942,-180.19 530.983,-188.106 534.383,-181.987"/>
</g>
<!-- 8 -->
<g id="node9" class="node"><title>8</title>
<path fill="none" stroke="#d8bc56" stroke-width="2" d="M533.25,-324C533.25,-324 438.75,-324 438.75,-324 432.75,-324 426.75,-318 426.75,-312 426.75,-312 426.75,-300 426.75,-300 426.75,-294 432.75,-288 438.75,-288 438.75,-288 533.25,-288 533.25,-288 539.25,-288 545.25,-294 545.25,-300 545.25,-300 545.25,-312 545.25,-312 545.25,-318 539.25,-324 533.25,-324"/>
<text text-anchor="middle" x="486" y="-303.5" font-family="sans" font-size="10.00">DenoiseTumorCounts</text>
</g>
<!-- 8&#45;&gt;2 -->
<g id="edge8" class="edge"><title>8&#45;&gt;2</title>
<path fill="none" stroke="grey" stroke-width="2" d="M495.5,-287.681C506.385,-268.77 525.516,-238.221 547,-216 557.592,-205.045 570.648,-194.698 582.721,-186.104"/>
<polygon fill="grey" stroke="grey" points="585.06,-188.742 591.29,-180.172 581.075,-182.987 585.06,-188.742"/>
</g>
<!-- 8&#45;&gt;4 -->
<g id="edge11" class="edge"><title>8&#45;&gt;4</title>
<path fill="none" stroke="grey" stroke-width="2" d="M469.233,-287.871C444.709,-262.817 398.931,-216.052 370.891,-187.406"/>
<polygon fill="grey" stroke="grey" points="373.322,-184.887 363.826,-180.189 368.32,-189.784 373.322,-184.887"/>
</g>
<!-- 8&#45;&gt;6 -->
<g id="edge15" class="edge"><title>8&#45;&gt;6</title>
<path fill="none" stroke="grey" stroke-width="2" d="M450.284,-287.876C430.503,-278.392 405.728,-266.513 384.674,-256.419"/>
<polygon fill="grey" stroke="grey" points="386.13,-253.236 375.6,-252.068 383.104,-259.548 386.13,-253.236"/>
</g>
<!-- 8&#45;&gt;9 -->
<g id="edge21" class="edge"><title>8&#45;&gt;9</title>
<path fill="none" stroke="grey" stroke-width="2" d="M486.844,-287.871C488.037,-263.67 490.229,-219.211 491.65,-190.393"/>
<polygon fill="grey" stroke="grey" points="495.156,-190.349 492.153,-180.189 488.164,-190.005 495.156,-190.349"/>
</g>
<!-- 9&#45;&gt;5 -->
<g id="edge12" class="edge"><title>9&#45;&gt;5</title>
<path fill="none" stroke="grey" stroke-width="2" d="M449.701,-143.876C425.289,-134.222 394.604,-122.087 368.79,-111.878"/>
<polygon fill="grey" stroke="grey" points="369.745,-108.491 359.158,-108.068 367.17,-115.001 369.745,-108.491"/>
</g>
<!-- 10 -->
<g id="node11" class="node"><title>10</title>
<path fill="none" stroke="#afd856" stroke-width="2" d="M242,-324C242,-324 136,-324 136,-324 130,-324 124,-318 124,-312 124,-312 124,-300 124,-300 124,-294 130,-288 136,-288 136,-288 242,-288 242,-288 248,-288 254,-294 254,-300 254,-300 254,-312 254,-312 254,-318 248,-324 242,-324"/>
<text text-anchor="middle" x="189" y="-303.5" font-family="sans" font-size="10.00">CollectTumorSnvCounts</text>
</g>
<!-- 10&#45;&gt;6 -->
<g id="edge14" class="edge"><title>10&#45;&gt;6</title>
<path fill="none" stroke="grey" stroke-width="2" d="M225.939,-287.876C246.49,-278.349 272.251,-266.407 294.089,-256.283"/>
<polygon fill="grey" stroke="grey" points="295.581,-259.45 303.181,-252.068 292.637,-253.099 295.581,-259.45"/>
</g>
<!-- 11 -->
<g id="node12" class="node"><title>11</title>
<path fill="none" stroke="#56d8d0" stroke-width="2" d="M396,-324C396,-324 284,-324 284,-324 278,-324 272,-318 272,-312 272,-312 272,-300 272,-300 272,-294 278,-288 284,-288 284,-288 396,-288 396,-288 402,-288 408,-294 408,-300 408,-300 408,-312 408,-312 408,-318 402,-324 396,-324"/>
<text text-anchor="middle" x="340" y="-303.5" font-family="sans" font-size="10.00">CollectNormalSnvCounts</text>
</g>
<!-- 11&#45;&gt;6 -->
<g id="edge16" class="edge"><title>11&#45;&gt;6</title>
<path fill="none" stroke="grey" stroke-width="2" d="M340,-287.697C340,-279.983 340,-270.712 340,-262.112"/>
<polygon fill="grey" stroke="grey" points="343.5,-262.104 340,-252.104 336.5,-262.104 343.5,-262.104"/>
</g>
<!-- 12 -->
<g id="node13" class="node"><title>12</title>
<path fill="none" stroke="#ced856" stroke-width="2" d="M670,-324C670,-324 576,-324 576,-324 570,-324 564,-318 564,-312 564,-312 564,-300 564,-300 564,-294 570,-288 576,-288 576,-288 670,-288 670,-288 676,-288 682,-294 682,-300 682,-300 682,-312 682,-312 682,-318 676,-324 670,-324"/>
<text text-anchor="middle" x="623" y="-303.5" font-family="sans" font-size="10.00">CollectNormalCounts</text>
</g>
<!-- 12&#45;&gt;7 -->
<g id="edge17" class="edge"><title>12&#45;&gt;7</title>
<path fill="none" stroke="grey" stroke-width="2" d="M622.011,-287.697C621.57,-279.983 621.041,-270.712 620.549,-262.112"/>
<polygon fill="grey" stroke="grey" points="624.042,-261.888 619.977,-252.104 617.054,-262.288 624.042,-261.888"/>
</g>
<!-- 13 -->
<g id="node14" class="node"><title>13</title>
<path fill="none" stroke="#567bd8" stroke-width="2" d="M530,-396C530,-396 442,-396 442,-396 436,-396 430,-390 430,-384 430,-384 430,-372 430,-372 430,-366 436,-360 442,-360 442,-360 530,-360 530,-360 536,-360 542,-366 542,-372 542,-372 542,-384 542,-384 542,-390 536,-396 530,-396"/>
<text text-anchor="middle" x="486" y="-375.5" font-family="sans" font-size="10.00">CollectTumorCounts</text>
</g>
<!-- 13&#45;&gt;8 -->
<g id="edge18" class="edge"><title>13&#45;&gt;8</title>
<path fill="none" stroke="grey" stroke-width="2" d="M486,-359.697C486,-351.983 486,-342.712 486,-334.112"/>
<polygon fill="grey" stroke="grey" points="489.5,-334.104 486,-324.104 482.5,-334.104 489.5,-334.104"/>
</g>
<!-- 14 -->
<g id="node15" class="node"><title>14</title>
<path fill="none" stroke="#d89c56" stroke-width="2" d="M305,-396C305,-396 225,-396 225,-396 219,-396 213,-390 213,-384 213,-384 213,-372 213,-372 213,-366 219,-360 225,-360 225,-360 305,-360 305,-360 311,-360 317,-366 317,-372 317,-372 317,-384 317,-384 317,-390 311,-396 305,-396"/>
<text text-anchor="middle" x="265" y="-375.5" font-family="sans" font-size="10.00">SelectSnvVariants</text>
</g>
<!-- 14&#45;&gt;10 -->
<g id="edge22" class="edge"><title>14&#45;&gt;10</title>
<path fill="none" stroke="grey" stroke-width="2" d="M246.213,-359.697C236.826,-351.05 225.316,-340.449 215.087,-331.027"/>
<polygon fill="grey" stroke="grey" points="217.297,-328.305 207.57,-324.104 212.555,-333.454 217.297,-328.305"/>
</g>
<!-- 14&#45;&gt;11 -->
<g id="edge23" class="edge"><title>14&#45;&gt;11</title>
<path fill="none" stroke="grey" stroke-width="2" d="M283.539,-359.697C292.803,-351.05 304.162,-340.449 314.257,-331.027"/>
<polygon fill="grey" stroke="grey" points="316.751,-333.486 321.674,-324.104 311.975,-328.369 316.751,-333.486"/>
</g>
</g>
</svg>
