<?xml version="1.0" encoding="UTF-8" standalone="no"?>
<!DOCTYPE svg PUBLIC "-//W3C//DTD SVG 1.1//EN"
 "http://www.w3.org/Graphics/SVG/1.1/DTD/svg11.dtd">
<!-- Generated by graphviz version 2.26.0 (20091210.2329)
 -->
<!-- Title: snakemake_dag Pages: 1 -->
<svg width="450pt" height="1268pt"
 viewBox="0.00 0.00 450.00 1268.00" xmlns="http://www.w3.org/2000/svg" xmlns:xlink="http://www.w3.org/1999/xlink">
<g id="graph1" class="graph" transform="scale(1 1) rotate(0) translate(4 1264)">
<title>snakemake_dag</title>
<polygon fill="white" stroke="white" points="-4,5 -4,-1264 447,-1264 447,5 -4,5"/>
<!-- 0 -->
<g id="node1" class="node"><title>0</title>
<polyline fill="none" stroke="#56c1d8" stroke-width="2" points="249,-468 219,-468 "/>
<path fill="none" stroke="#56c1d8" stroke-width="2" d="M219,-468C213,-468 207,-462 207,-456"/>
<polyline fill="none" stroke="#56c1d8" stroke-width="2" points="207,-456 207,-444 "/>
<path fill="none" stroke="#56c1d8" stroke-width="2" d="M207,-444C207,-438 213,-432 219,-432"/>
<polyline fill="none" stroke="#56c1d8" stroke-width="2" points="219,-432 249,-432 "/>
<path fill="none" stroke="#56c1d8" stroke-width="2" d="M249,-432C255,-432 261,-438 261,-444"/>
<polyline fill="none" stroke="#56c1d8" stroke-width="2" points="261,-444 261,-456 "/>
<path fill="none" stroke="#56c1d8" stroke-width="2" d="M261,-456C261,-462 255,-468 249,-468"/>
<text text-anchor="middle" x="234" y="-447.5" font-family="sans" font-size="10.00">Scalpel</text>
</g>
<!-- 23 -->
<g id="node24" class="node"><title>23</title>
<polyline fill="none" stroke="#d6d856" stroke-width="2" points="290,-396 208,-396 "/>
<path fill="none" stroke="#d6d856" stroke-width="2" d="M208,-396C202,-396 196,-390 196,-384"/>
<polyline fill="none" stroke="#d6d856" stroke-width="2" points="196,-384 196,-372 "/>
<path fill="none" stroke="#d6d856" stroke-width="2" d="M196,-372C196,-366 202,-360 208,-360"/>
<polyline fill="none" stroke="#d6d856" stroke-width="2" points="208,-360 290,-360 "/>
<path fill="none" stroke="#d6d856" stroke-width="2" d="M290,-360C296,-360 302,-366 302,-372"/>
<polyline fill="none" stroke="#d6d856" stroke-width="2" points="302,-372 302,-384 "/>
<path fill="none" stroke="#d6d856" stroke-width="2" d="M302,-384C302,-390 296,-396 290,-396"/>
<text text-anchor="middle" x="249" y="-375.5" font-family="sans" font-size="10.00">FilterScalpelIndels</text>
</g>
<!-- 0&#45;&gt;23 -->
<g id="edge58" class="edge"><title>0&#45;&gt;23</title>
<path fill="none" stroke="grey" stroke-width="2" d="M237.785,-431.831C239.389,-424.131 241.297,-414.974 243.08,-406.417"/>
<polygon fill="grey" stroke="grey" points="246.551,-406.917 245.164,-396.413 239.698,-405.489 246.551,-406.917"/>
</g>
<!-- 1 -->
<g id="node2" class="node"><title>1</title>
<polyline fill="none" stroke="#c6d856" stroke-width="2" points="336,-1188 306,-1188 "/>
<path fill="none" stroke="#c6d856" stroke-width="2" d="M306,-1188C300,-1188 294,-1182 294,-1176"/>
<polyline fill="none" stroke="#c6d856" stroke-width="2" points="294,-1176 294,-1164 "/>
<path fill="none" stroke="#c6d856" stroke-width="2" d="M294,-1164C294,-1158 300,-1152 306,-1152"/>
<polyline fill="none" stroke="#c6d856" stroke-width="2" points="306,-1152 336,-1152 "/>
<path fill="none" stroke="#c6d856" stroke-width="2" d="M336,-1152C342,-1152 348,-1158 348,-1164"/>
<polyline fill="none" stroke="#c6d856" stroke-width="2" points="348,-1164 348,-1176 "/>
<path fill="none" stroke="#c6d856" stroke-width="2" d="M348,-1176C348,-1182 342,-1188 336,-1188"/>
<text text-anchor="middle" x="321" y="-1167.5" font-family="sans" font-size="10.00">Align</text>
</g>
<!-- 11 -->
<g id="node12" class="node"><title>11</title>
<polyline fill="none" stroke="#56d86b" stroke-width="2" points="338,-1116 248,-1116 "/>
<path fill="none" stroke="#56d86b" stroke-width="2" d="M248,-1116C242,-1116 236,-1110 236,-1104"/>
<polyline fill="none" stroke="#56d86b" stroke-width="2" points="236,-1104 236,-1092 "/>
<path fill="none" stroke="#56d86b" stroke-width="2" d="M236,-1092C236,-1086 242,-1080 248,-1080"/>
<polyline fill="none" stroke="#56d86b" stroke-width="2" points="248,-1080 338,-1080 "/>
<path fill="none" stroke="#56d86b" stroke-width="2" d="M338,-1080C344,-1080 350,-1086 350,-1092"/>
<polyline fill="none" stroke="#56d86b" stroke-width="2" points="350,-1092 350,-1104 "/>
<path fill="none" stroke="#56d86b" stroke-width="2" d="M350,-1104C350,-1110 344,-1116 338,-1116"/>
<text text-anchor="middle" x="293" y="-1095.5" font-family="sans" font-size="10.00">FixMateInformation</text>
</g>
<!-- 1&#45;&gt;11 -->
<g id="edge36" class="edge"><title>1&#45;&gt;11</title>
<path fill="none" stroke="grey" stroke-width="2" d="M313.934,-1151.83C310.874,-1143.96 307.222,-1134.57 303.832,-1125.85"/>
<polygon fill="grey" stroke="grey" points="307.047,-1124.46 300.161,-1116.41 300.523,-1127 307.047,-1124.46"/>
</g>
<!-- 2 -->
<g id="node3" class="node"><title>2</title>
<polyline fill="none" stroke="#56d8a9" stroke-width="2" points="223,-252 155,-252 "/>
<path fill="none" stroke="#56d8a9" stroke-width="2" d="M155,-252C149,-252 143,-246 143,-240"/>
<polyline fill="none" stroke="#56d8a9" stroke-width="2" points="143,-240 143,-228 "/>
<path fill="none" stroke="#56d8a9" stroke-width="2" d="M143,-228C143,-222 149,-216 155,-216"/>
<polyline fill="none" stroke="#56d8a9" stroke-width="2" points="155,-216 223,-216 "/>
<path fill="none" stroke="#56d8a9" stroke-width="2" d="M223,-216C229,-216 235,-222 235,-228"/>
<polyline fill="none" stroke="#56d8a9" stroke-width="2" points="235,-228 235,-240 "/>
<path fill="none" stroke="#56d8a9" stroke-width="2" d="M235,-240C235,-246 229,-252 223,-252"/>
<text text-anchor="middle" x="189" y="-231.5" font-family="sans" font-size="10.00">VcfRegionFilter</text>
</g>
<!-- 5 -->
<g id="node6" class="node"><title>5</title>
<polyline fill="none" stroke="#d86e56" stroke-width="2" points="207,-180 83,-180 "/>
<path fill="none" stroke="#d86e56" stroke-width="2" d="M83,-180C77,-180 71,-174 71,-168"/>
<polyline fill="none" stroke="#d86e56" stroke-width="2" points="71,-168 71,-156 "/>
<path fill="none" stroke="#d86e56" stroke-width="2" d="M71,-156C71,-150 77,-144 83,-144"/>
<polyline fill="none" stroke="#d86e56" stroke-width="2" points="83,-144 207,-144 "/>
<path fill="none" stroke="#d86e56" stroke-width="2" d="M207,-144C213,-144 219,-150 219,-156"/>
<polyline fill="none" stroke="#d86e56" stroke-width="2" points="219,-156 219,-168 "/>
<path fill="none" stroke="#d86e56" stroke-width="2" d="M219,-168C219,-174 213,-180 207,-180"/>
<text text-anchor="middle" x="145" y="-159.5" font-family="sans" font-size="10.00">FoundationVcfComparator</text>
</g>
<!-- 2&#45;&gt;5 -->
<g id="edge16" class="edge"><title>2&#45;&gt;5</title>
<path fill="none" stroke="grey" stroke-width="2" d="M177.897,-215.831C172.933,-207.708 166.978,-197.964 161.507,-189.012"/>
<polygon fill="grey" stroke="grey" points="164.454,-187.121 156.253,-180.413 158.481,-190.771 164.454,-187.121"/>
</g>
<!-- 3 -->
<g id="node4" class="node"><title>3</title>
<polyline fill="none" stroke="#569ad8" stroke-width="2" points="337,-972 249,-972 "/>
<path fill="none" stroke="#569ad8" stroke-width="2" d="M249,-972C243,-972 237,-966 237,-960"/>
<polyline fill="none" stroke="#569ad8" stroke-width="2" points="237,-960 237,-948 "/>
<path fill="none" stroke="#569ad8" stroke-width="2" d="M237,-948C237,-942 243,-936 249,-936"/>
<polyline fill="none" stroke="#569ad8" stroke-width="2" points="249,-936 337,-936 "/>
<path fill="none" stroke="#569ad8" stroke-width="2" d="M337,-936C343,-936 349,-942 349,-948"/>
<polyline fill="none" stroke="#569ad8" stroke-width="2" points="349,-948 349,-960 "/>
<path fill="none" stroke="#569ad8" stroke-width="2" d="M349,-960C349,-966 343,-972 337,-972"/>
<text text-anchor="middle" x="293" y="-951.5" font-family="sans" font-size="10.00">RemoveDuplicates</text>
</g>
<!-- 12 -->
<g id="node13" class="node"><title>12</title>
<polyline fill="none" stroke="#59d856" stroke-width="2" points="316,-828 212,-828 "/>
<path fill="none" stroke="#59d856" stroke-width="2" d="M212,-828C206,-828 200,-822 200,-816"/>
<polyline fill="none" stroke="#59d856" stroke-width="2" points="200,-816 200,-804 "/>
<path fill="none" stroke="#59d856" stroke-width="2" d="M200,-804C200,-798 206,-792 212,-792"/>
<polyline fill="none" stroke="#59d856" stroke-width="2" points="212,-792 316,-792 "/>
<path fill="none" stroke="#59d856" stroke-width="2" d="M316,-792C322,-792 328,-798 328,-804"/>
<polyline fill="none" stroke="#59d856" stroke-width="2" points="328,-804 328,-816 "/>
<path fill="none" stroke="#59d856" stroke-width="2" d="M328,-816C328,-822 322,-828 316,-828"/>
<text text-anchor="middle" x="264" y="-807.5" font-family="sans" font-size="10.00">PrintRecalibratedBam</text>
</g>
<!-- 3&#45;&gt;12 -->
<g id="edge40" class="edge"><title>3&#45;&gt;12</title>
<path fill="none" stroke="grey" stroke-width="2" d="M298.197,-935.994C302.658,-917.521 307.312,-888.15 300,-864 297.044,-854.236 291.675,-844.623 285.97,-836.276"/>
<polygon fill="grey" stroke="grey" points="288.713,-834.097 279.99,-828.083 283.059,-838.224 288.713,-834.097"/>
</g>
<!-- 13 -->
<g id="node14" class="node"><title>13</title>
<polyline fill="none" stroke="#d8ac56" stroke-width="2" points="279,-900 199,-900 "/>
<path fill="none" stroke="#d8ac56" stroke-width="2" d="M199,-900C193,-900 187,-894 187,-888"/>
<polyline fill="none" stroke="#d8ac56" stroke-width="2" points="187,-888 187,-876 "/>
<path fill="none" stroke="#d8ac56" stroke-width="2" d="M187,-876C187,-870 193,-864 199,-864"/>
<polyline fill="none" stroke="#d8ac56" stroke-width="2" points="199,-864 279,-864 "/>
<path fill="none" stroke="#d8ac56" stroke-width="2" d="M279,-864C285,-864 291,-870 291,-876"/>
<polyline fill="none" stroke="#d8ac56" stroke-width="2" points="291,-876 291,-888 "/>
<path fill="none" stroke="#d8ac56" stroke-width="2" d="M291,-888C291,-894 285,-900 279,-900"/>
<text text-anchor="middle" x="239" y="-879.5" font-family="sans" font-size="10.00">RecalibrateBases</text>
</g>
<!-- 3&#45;&gt;13 -->
<g id="edge42" class="edge"><title>3&#45;&gt;13</title>
<path fill="none" stroke="grey" stroke-width="2" d="M279.374,-935.831C273.154,-927.539 265.668,-917.557 258.84,-908.453"/>
<polygon fill="grey" stroke="grey" points="261.61,-906.313 252.81,-900.413 256.01,-910.513 261.61,-906.313"/>
</g>
<!-- 4 -->
<g id="node5" class="node"><title>4</title>
<polyline fill="none" stroke="#d85656" stroke-width="2" points="224,-612 112,-612 "/>
<path fill="none" stroke="#d85656" stroke-width="2" d="M112,-612C106,-612 100,-606 100,-600"/>
<polyline fill="none" stroke="#d85656" stroke-width="2" points="100,-600 100,-588 "/>
<path fill="none" stroke="#d85656" stroke-width="2" d="M100,-588C100,-582 106,-576 112,-576"/>
<polyline fill="none" stroke="#d85656" stroke-width="2" points="112,-576 224,-576 "/>
<path fill="none" stroke="#d85656" stroke-width="2" d="M224,-576C230,-576 236,-582 236,-588"/>
<polyline fill="none" stroke="#d85656" stroke-width="2" points="236,-588 236,-600 "/>
<path fill="none" stroke="#d85656" stroke-width="2" d="M236,-600C236,-606 230,-612 224,-612"/>
<text text-anchor="middle" x="168" y="-591.5" font-family="sans" font-size="10.00">MergePairedAlignments</text>
</g>
<!-- 8 -->
<g id="node9" class="node"><title>8</title>
<polyline fill="none" stroke="#56d89a" stroke-width="2" points="191,-540 145,-540 "/>
<path fill="none" stroke="#56d89a" stroke-width="2" d="M145,-540C139,-540 133,-534 133,-528"/>
<polyline fill="none" stroke="#56d89a" stroke-width="2" points="133,-528 133,-516 "/>
<path fill="none" stroke="#56d89a" stroke-width="2" d="M133,-516C133,-510 139,-504 145,-504"/>
<polyline fill="none" stroke="#56d89a" stroke-width="2" points="145,-504 191,-504 "/>
<path fill="none" stroke="#56d89a" stroke-width="2" d="M191,-504C197,-504 203,-510 203,-516"/>
<polyline fill="none" stroke="#56d89a" stroke-width="2" points="203,-516 203,-528 "/>
<path fill="none" stroke="#56d89a" stroke-width="2" d="M203,-528C203,-534 197,-540 191,-540"/>
<text text-anchor="middle" x="168" y="-519.5" font-family="sans" font-size="10.00">Sam2USeq</text>
</g>
<!-- 4&#45;&gt;8 -->
<g id="edge26" class="edge"><title>4&#45;&gt;8</title>
<path fill="none" stroke="grey" stroke-width="2" d="M168,-575.831C168,-568.131 168,-558.974 168,-550.417"/>
<polygon fill="grey" stroke="grey" points="171.5,-550.413 168,-540.413 164.5,-550.413 171.5,-550.413"/>
</g>
<!-- 21 -->
<g id="node22" class="node"><title>21</title>
<polyline fill="none" stroke="#afd856" stroke-width="2" points="162,-108 128,-108 "/>
<path fill="none" stroke="#afd856" stroke-width="2" d="M128,-108C122,-108 116,-102 116,-96"/>
<polyline fill="none" stroke="#afd856" stroke-width="2" points="116,-96 116,-84 "/>
<path fill="none" stroke="#afd856" stroke-width="2" d="M116,-84C116,-78 122,-72 128,-72"/>
<polyline fill="none" stroke="#afd856" stroke-width="2" points="128,-72 162,-72 "/>
<path fill="none" stroke="#afd856" stroke-width="2" d="M162,-72C168,-72 174,-78 174,-84"/>
<polyline fill="none" stroke="#afd856" stroke-width="2" points="174,-84 174,-96 "/>
<path fill="none" stroke="#afd856" stroke-width="2" d="M174,-96C174,-102 168,-108 162,-108"/>
<text text-anchor="middle" x="145" y="-87.5" font-family="sans" font-size="10.00">VcfTabix</text>
</g>
<!-- 5&#45;&gt;21 -->
<g id="edge56" class="edge"><title>5&#45;&gt;21</title>
<path fill="none" stroke="grey" stroke-width="2" d="M145,-143.831C145,-136.131 145,-126.974 145,-118.417"/>
<polygon fill="grey" stroke="grey" points="148.5,-118.413 145,-108.413 141.5,-118.413 148.5,-118.413"/>
</g>
<!-- 6 -->
<g id="node7" class="node"><title>6</title>
<polyline fill="none" stroke="#d8c356" stroke-width="2" points="320,-324 208,-324 "/>
<path fill="none" stroke="#d8c356" stroke-width="2" d="M208,-324C202,-324 196,-318 196,-312"/>
<polyline fill="none" stroke="#d8c356" stroke-width="2" points="196,-312 196,-300 "/>
<path fill="none" stroke="#d8c356" stroke-width="2" d="M196,-300C196,-294 202,-288 208,-288"/>
<polyline fill="none" stroke="#d8c356" stroke-width="2" points="208,-288 320,-288 "/>
<path fill="none" stroke="#d8c356" stroke-width="2" d="M320,-288C326,-288 332,-294 332,-300"/>
<polyline fill="none" stroke="#d8c356" stroke-width="2" points="332,-300 332,-312 "/>
<path fill="none" stroke="#d8c356" stroke-width="2" d="M332,-312C332,-318 326,-324 320,-324"/>
<text text-anchor="middle" x="264" y="-303.5" font-family="sans" font-size="10.00">ScalpelLofreqVcfMerger</text>
</g>
<!-- 6&#45;&gt;2 -->
<g id="edge8" class="edge"><title>6&#45;&gt;2</title>
<path fill="none" stroke="grey" stroke-width="2" d="M245.074,-287.831C236.014,-279.134 225.019,-268.578 215.173,-259.127"/>
<polygon fill="grey" stroke="grey" points="217.557,-256.563 207.92,-252.163 212.71,-261.613 217.557,-256.563"/>
</g>
<!-- 7 -->
<g id="node8" class="node"><title>7</title>
<polyline fill="none" stroke="#68d856" stroke-width="2" points="365,-468 291,-468 "/>
<path fill="none" stroke="#68d856" stroke-width="2" d="M291,-468C285,-468 279,-462 279,-456"/>
<polyline fill="none" stroke="#68d856" stroke-width="2" points="279,-456 279,-444 "/>
<path fill="none" stroke="#68d856" stroke-width="2" d="M279,-444C279,-438 285,-432 291,-432"/>
<polyline fill="none" stroke="#68d856" stroke-width="2" points="291,-432 365,-432 "/>
<path fill="none" stroke="#68d856" stroke-width="2" d="M365,-432C371,-432 377,-438 377,-444"/>
<polyline fill="none" stroke="#68d856" stroke-width="2" points="377,-444 377,-456 "/>
<path fill="none" stroke="#68d856" stroke-width="2" d="M377,-456C377,-462 371,-468 365,-468"/>
<text text-anchor="middle" x="328" y="-447.5" font-family="sans" font-size="10.00">FilterLofreqSnvs</text>
</g>
<!-- 7&#45;&gt;6 -->
<g id="edge20" class="edge"><title>7&#45;&gt;6</title>
<path fill="none" stroke="grey" stroke-width="2" d="M327.353,-431.884C326.061,-413.063 322.238,-383.179 311,-360 306.018,-349.725 298.559,-339.87 291.042,-331.457"/>
<polygon fill="grey" stroke="grey" points="293.589,-329.057 284.191,-324.165 288.487,-333.85 293.589,-329.057"/>
</g>
<!-- 8&#45;&gt;0 -->
<g id="edge2" class="edge"><title>8&#45;&gt;0</title>
<path fill="none" stroke="grey" stroke-width="2" d="M184.655,-503.831C192.411,-495.369 201.78,-485.149 210.261,-475.897"/>
<polygon fill="grey" stroke="grey" points="212.944,-478.15 217.121,-468.413 207.784,-473.42 212.944,-478.15"/>
</g>
<!-- 8&#45;&gt;2 -->
<g id="edge10" class="edge"><title>8&#45;&gt;2</title>
<path fill="none" stroke="grey" stroke-width="2" d="M169.314,-503.984C172.864,-455.294 182.671,-320.796 186.954,-262.057"/>
<polygon fill="grey" stroke="grey" points="190.45,-262.237 187.687,-252.009 183.469,-261.728 190.45,-262.237"/>
</g>
<!-- 17 -->
<g id="node18" class="node"><title>17</title>
<polyline fill="none" stroke="#566bd8" stroke-width="2" points="81,-396 15,-396 "/>
<path fill="none" stroke="#566bd8" stroke-width="2" d="M15,-396C9,-396 3,-390 3,-384"/>
<polyline fill="none" stroke="#566bd8" stroke-width="2" points="3,-384 3,-372 "/>
<path fill="none" stroke="#566bd8" stroke-width="2" d="M3,-372C3,-366 9,-360 15,-360"/>
<polyline fill="none" stroke="#566bd8" stroke-width="2" points="15,-360 81,-360 "/>
<path fill="none" stroke="#566bd8" stroke-width="2" d="M81,-360C87,-360 93,-366 93,-372"/>
<polyline fill="none" stroke="#566bd8" stroke-width="2" points="93,-372 93,-384 "/>
<path fill="none" stroke="#566bd8" stroke-width="2" d="M93,-384C93,-390 87,-396 81,-396"/>
<text text-anchor="middle" x="48" y="-375.5" font-family="sans" font-size="10.00">Useq2UCSCBig</text>
</g>
<!-- 8&#45;&gt;17 -->
<g id="edge48" class="edge"><title>8&#45;&gt;17</title>
<path fill="none" stroke="grey" stroke-width="2" d="M152.802,-503.762C131.793,-478.552 93.7586,-432.91 69.746,-404.095"/>
<polygon fill="grey" stroke="grey" points="72.1653,-401.531 63.0747,-396.09 66.7878,-406.013 72.1653,-401.531"/>
</g>
<!-- 9 -->
<g id="node10" class="node"><title>9</title>
<polyline fill="none" stroke="#56a9d8" stroke-width="2" points="182,-36 108,-36 "/>
<path fill="none" stroke="#56a9d8" stroke-width="2" d="M108,-36C102,-36 96,-30 96,-24"/>
<polyline fill="none" stroke="#56a9d8" stroke-width="2" points="96,-24 96,-12 "/>
<path fill="none" stroke="#56a9d8" stroke-width="2" d="M96,-12C96,-6 102,-1.68935e-14 108,-1.60235e-14"/>
<polyline fill="none" stroke="#56a9d8" stroke-width="2" points="108,-1.60235e-14 182,-5.29282e-15 "/>
<path fill="none" stroke="#56a9d8" stroke-width="2" d="M182,-5.29282e-15C188,-4.42277e-15 194,-6 194,-12"/>
<polyline fill="none" stroke="#56a9d8" stroke-width="2" points="194,-12 194,-24 "/>
<path fill="none" stroke="#56a9d8" stroke-width="2" d="M194,-24C194,-30 188,-36 182,-36"/>
<text text-anchor="middle" x="145" y="-15.5" font-family="sans" font-size="10.00">OrganizeResults</text>
</g>
<!-- 10 -->
<g id="node11" class="node"><title>10</title>
<polyline fill="none" stroke="#80d856" stroke-width="2" points="279,-756 249,-756 "/>
<path fill="none" stroke="#80d856" stroke-width="2" d="M249,-756C243,-756 237,-750 237,-744"/>
<polyline fill="none" stroke="#80d856" stroke-width="2" points="237,-744 237,-732 "/>
<path fill="none" stroke="#80d856" stroke-width="2" d="M237,-732C237,-726 243,-720 249,-720"/>
<polyline fill="none" stroke="#80d856" stroke-width="2" points="249,-720 279,-720 "/>
<path fill="none" stroke="#80d856" stroke-width="2" d="M279,-720C285,-720 291,-726 291,-732"/>
<polyline fill="none" stroke="#80d856" stroke-width="2" points="291,-732 291,-744 "/>
<path fill="none" stroke="#80d856" stroke-width="2" d="M291,-744C291,-750 285,-756 279,-756"/>
<text text-anchor="middle" x="264" y="-735.5" font-family="sans" font-size="10.00">Abra</text>
</g>
<!-- 14 -->
<g id="node15" class="node"><title>14</title>
<polyline fill="none" stroke="#56d8c1" stroke-width="2" points="320,-684 208,-684 "/>
<path fill="none" stroke="#56d8c1" stroke-width="2" d="M208,-684C202,-684 196,-678 196,-672"/>
<polyline fill="none" stroke="#56d8c1" stroke-width="2" points="196,-672 196,-660 "/>
<path fill="none" stroke="#56d8c1" stroke-width="2" d="M196,-660C196,-654 202,-648 208,-648"/>
<polyline fill="none" stroke="#56d8c1" stroke-width="2" points="208,-648 320,-648 "/>
<path fill="none" stroke="#56d8c1" stroke-width="2" d="M320,-648C326,-648 332,-654 332,-660"/>
<polyline fill="none" stroke="#56d8c1" stroke-width="2" points="332,-660 332,-672 "/>
<path fill="none" stroke="#56d8c1" stroke-width="2" d="M332,-672C332,-678 326,-684 320,-684"/>
<text text-anchor="middle" x="264" y="-663.5" font-family="sans" font-size="10.00">FixAbraMateInformation</text>
</g>
<!-- 10&#45;&gt;14 -->
<g id="edge44" class="edge"><title>10&#45;&gt;14</title>
<path fill="none" stroke="grey" stroke-width="2" d="M264,-719.831C264,-712.131 264,-702.974 264,-694.417"/>
<polygon fill="grey" stroke="grey" points="267.5,-694.413 264,-684.413 260.5,-694.413 267.5,-694.413"/>
</g>
<!-- 20 -->
<g id="node21" class="node"><title>20</title>
<polyline fill="none" stroke="#97d856" stroke-width="2" points="350,-1044 236,-1044 "/>
<path fill="none" stroke="#97d856" stroke-width="2" d="M236,-1044C230,-1044 224,-1038 224,-1032"/>
<polyline fill="none" stroke="#97d856" stroke-width="2" points="224,-1032 224,-1020 "/>
<path fill="none" stroke="#97d856" stroke-width="2" d="M224,-1020C224,-1014 230,-1008 236,-1008"/>
<polyline fill="none" stroke="#97d856" stroke-width="2" points="236,-1008 350,-1008 "/>
<path fill="none" stroke="#97d856" stroke-width="2" d="M350,-1008C356,-1008 362,-1014 362,-1020"/>
<polyline fill="none" stroke="#97d856" stroke-width="2" points="362,-1020 362,-1032 "/>
<path fill="none" stroke="#97d856" stroke-width="2" d="M362,-1032C362,-1038 356,-1044 350,-1044"/>
<text text-anchor="middle" x="293" y="-1023.5" font-family="sans" font-size="10.00">SamAlignmentExtractor</text>
</g>
<!-- 11&#45;&gt;20 -->
<g id="edge54" class="edge"><title>11&#45;&gt;20</title>
<path fill="none" stroke="grey" stroke-width="2" d="M293,-1079.83C293,-1072.13 293,-1062.97 293,-1054.42"/>
<polygon fill="grey" stroke="grey" points="296.5,-1054.41 293,-1044.41 289.5,-1054.41 296.5,-1054.41"/>
</g>
<!-- 12&#45;&gt;10 -->
<g id="edge34" class="edge"><title>12&#45;&gt;10</title>
<path fill="none" stroke="grey" stroke-width="2" d="M264,-791.831C264,-784.131 264,-774.974 264,-766.417"/>
<polygon fill="grey" stroke="grey" points="267.5,-766.413 264,-756.413 260.5,-766.413 267.5,-766.413"/>
</g>
<!-- 13&#45;&gt;12 -->
<g id="edge38" class="edge"><title>13&#45;&gt;12</title>
<path fill="none" stroke="grey" stroke-width="2" d="M245.309,-863.831C248.012,-856.046 251.232,-846.773 254.231,-838.135"/>
<polygon fill="grey" stroke="grey" points="257.633,-839.008 257.607,-828.413 251.02,-836.712 257.633,-839.008"/>
</g>
<!-- 14&#45;&gt;0 -->
<g id="edge4" class="edge"><title>14&#45;&gt;0</title>
<path fill="none" stroke="grey" stroke-width="2" d="M261.494,-647.955C256.266,-610.314 244.165,-523.187 237.906,-478.125"/>
<polygon fill="grey" stroke="grey" points="241.363,-477.568 236.52,-468.145 234.429,-478.532 241.363,-477.568"/>
</g>
<!-- 14&#45;&gt;4 -->
<g id="edge14" class="edge"><title>14&#45;&gt;4</title>
<path fill="none" stroke="grey" stroke-width="2" d="M239.775,-647.831C227.837,-638.878 213.274,-627.956 200.394,-618.295"/>
<polygon fill="grey" stroke="grey" points="202.317,-615.363 192.217,-612.163 198.117,-620.963 202.317,-615.363"/>
</g>
<!-- 15 -->
<g id="node16" class="node"><title>15</title>
<polyline fill="none" stroke="#56d8d8" stroke-width="2" points="335,-612 305,-612 "/>
<path fill="none" stroke="#56d8d8" stroke-width="2" d="M305,-612C299,-612 293,-606 293,-600"/>
<polyline fill="none" stroke="#56d8d8" stroke-width="2" points="293,-600 293,-588 "/>
<path fill="none" stroke="#56d8d8" stroke-width="2" d="M293,-588C293,-582 299,-576 305,-576"/>
<polyline fill="none" stroke="#56d8d8" stroke-width="2" points="305,-576 335,-576 "/>
<path fill="none" stroke="#56d8d8" stroke-width="2" d="M335,-576C341,-576 347,-582 347,-588"/>
<polyline fill="none" stroke="#56d8d8" stroke-width="2" points="347,-588 347,-600 "/>
<path fill="none" stroke="#56d8d8" stroke-width="2" d="M347,-600C347,-606 341,-612 335,-612"/>
<text text-anchor="middle" x="320" y="-591.5" font-family="sans" font-size="10.00">Lofreq</text>
</g>
<!-- 14&#45;&gt;15 -->
<g id="edge46" class="edge"><title>14&#45;&gt;15</title>
<path fill="none" stroke="grey" stroke-width="2" d="M278.131,-647.831C284.581,-639.539 292.345,-629.557 299.425,-620.453"/>
<polygon fill="grey" stroke="grey" points="302.302,-622.456 305.679,-612.413 296.776,-618.158 302.302,-622.456"/>
</g>
<!-- 15&#45;&gt;7 -->
<g id="edge24" class="edge"><title>15&#45;&gt;7</title>
<path fill="none" stroke="grey" stroke-width="2" d="M321.013,-575.762C322.378,-551.201 324.82,-507.247 326.425,-478.354"/>
<polygon fill="grey" stroke="grey" points="329.935,-478.268 326.995,-468.09 322.946,-477.88 329.935,-478.268"/>
</g>
<!-- 16 -->
<g id="node17" class="node"><title>16</title>
<polyline fill="none" stroke="#5682d8" stroke-width="2" points="379,-1260 331,-1260 "/>
<path fill="none" stroke="#5682d8" stroke-width="2" d="M331,-1260C325,-1260 319,-1254 319,-1248"/>
<polyline fill="none" stroke="#5682d8" stroke-width="2" points="319,-1248 319,-1236 "/>
<path fill="none" stroke="#5682d8" stroke-width="2" d="M319,-1236C319,-1230 325,-1224 331,-1224"/>
<polyline fill="none" stroke="#5682d8" stroke-width="2" points="331,-1224 379,-1224 "/>
<path fill="none" stroke="#5682d8" stroke-width="2" d="M379,-1224C385,-1224 391,-1230 391,-1236"/>
<polyline fill="none" stroke="#5682d8" stroke-width="2" points="391,-1236 391,-1248 "/>
<path fill="none" stroke="#5682d8" stroke-width="2" d="M391,-1248C391,-1254 385,-1260 379,-1260"/>
<text text-anchor="middle" x="355" y="-1239.5" font-family="sans" font-size="10.00">Sam2Fastq</text>
</g>
<!-- 16&#45;&gt;1 -->
<g id="edge6" class="edge"><title>16&#45;&gt;1</title>
<path fill="none" stroke="grey" stroke-width="2" d="M346.42,-1223.83C342.664,-1215.88 338.174,-1206.37 334.02,-1197.57"/>
<polygon fill="grey" stroke="grey" points="337.13,-1195.96 329.695,-1188.41 330.8,-1198.95 337.13,-1195.96"/>
</g>
<!-- 19 -->
<g id="node20" class="node"><title>19</title>
<polyline fill="none" stroke="#d89556" stroke-width="2" points="430,-1116 380,-1116 "/>
<path fill="none" stroke="#d89556" stroke-width="2" d="M380,-1116C374,-1116 368,-1110 368,-1104"/>
<polyline fill="none" stroke="#d89556" stroke-width="2" points="368,-1104 368,-1092 "/>
<path fill="none" stroke="#d89556" stroke-width="2" d="M368,-1092C368,-1086 374,-1080 380,-1080"/>
<polyline fill="none" stroke="#d89556" stroke-width="2" points="380,-1080 430,-1080 "/>
<path fill="none" stroke="#d89556" stroke-width="2" d="M430,-1080C436,-1080 442,-1086 442,-1092"/>
<polyline fill="none" stroke="#d89556" stroke-width="2" points="442,-1092 442,-1104 "/>
<path fill="none" stroke="#d89556" stroke-width="2" d="M442,-1104C442,-1110 436,-1116 430,-1116"/>
<text text-anchor="middle" x="405" y="-1095.5" font-family="sans" font-size="10.00">CountFastq</text>
</g>
<!-- 16&#45;&gt;19 -->
<g id="edge52" class="edge"><title>16&#45;&gt;19</title>
<path fill="none" stroke="grey" stroke-width="2" d="M361.333,-1223.76C369.936,-1198.98 385.392,-1154.47 395.419,-1125.59"/>
<polygon fill="grey" stroke="grey" points="398.745,-1126.68 398.719,-1116.09 392.132,-1124.39 398.745,-1126.68"/>
</g>
<!-- 17&#45;&gt;9 -->
<g id="edge28" class="edge"><title>17&#45;&gt;9</title>
<path fill="none" stroke="grey" stroke-width="2" d="M36.4338,-359.62C30.4757,-349.45 23.5302,-336.393 19,-324 4.96464,-285.603 1.77636e-15,-274.882 0,-234 0,-234 0,-234 0,-162 0,-106.189 54.7525,-64.5941 96.9673,-40.8184"/>
<polygon fill="grey" stroke="grey" points="98.6615,-43.8812 105.761,-36.0167 95.3067,-37.7374 98.6615,-43.8812"/>
</g>
<!-- 18 -->
<g id="node19" class="node"><title>18</title>
<polyline fill="none" stroke="#56d882" stroke-width="2" points="113,-252 55,-252 "/>
<path fill="none" stroke="#56d882" stroke-width="2" d="M55,-252C49,-252 43,-246 43,-240"/>
<polyline fill="none" stroke="#56d882" stroke-width="2" points="43,-240 43,-228 "/>
<path fill="none" stroke="#56d882" stroke-width="2" d="M43,-228C43,-222 49,-216 55,-216"/>
<polyline fill="none" stroke="#56d882" stroke-width="2" points="55,-216 113,-216 "/>
<path fill="none" stroke="#56d882" stroke-width="2" d="M113,-216C119,-216 125,-222 125,-228"/>
<polyline fill="none" stroke="#56d882" stroke-width="2" points="125,-228 125,-240 "/>
<path fill="none" stroke="#56d882" stroke-width="2" d="M125,-240C125,-246 119,-252 113,-252"/>
<text text-anchor="middle" x="84" y="-231.5" font-family="sans" font-size="10.00">NormalizeVcf</text>
</g>
<!-- 18&#45;&gt;5 -->
<g id="edge18" class="edge"><title>18&#45;&gt;5</title>
<path fill="none" stroke="grey" stroke-width="2" d="M99.3929,-215.831C106.49,-207.454 115.048,-197.353 122.824,-188.175"/>
<polygon fill="grey" stroke="grey" points="125.606,-190.306 129.4,-180.413 120.265,-185.781 125.606,-190.306"/>
</g>
<!-- 19&#45;&gt;9 -->
<g id="edge30" class="edge"><title>19&#45;&gt;9</title>
<path fill="none" stroke="grey" stroke-width="2" d="M405,-1079.81C405,-1052.5 405,-999.25 405,-954 405,-954 405,-954 405,-162 405,-70.766 280.973,-36.8655 204.243,-24.6224"/>
<polygon fill="grey" stroke="grey" points="204.621,-21.1399 194.21,-23.1011 203.572,-28.0607 204.621,-21.1399"/>
</g>
<!-- 20&#45;&gt;3 -->
<g id="edge12" class="edge"><title>20&#45;&gt;3</title>
<path fill="none" stroke="grey" stroke-width="2" d="M293,-1007.83C293,-1000.13 293,-990.974 293,-982.417"/>
<polygon fill="grey" stroke="grey" points="296.5,-982.413 293,-972.413 289.5,-982.413 296.5,-982.413"/>
</g>
<!-- 21&#45;&gt;9 -->
<g id="edge32" class="edge"><title>21&#45;&gt;9</title>
<path fill="none" stroke="grey" stroke-width="2" d="M145,-71.8314C145,-64.131 145,-54.9743 145,-46.4166"/>
<polygon fill="grey" stroke="grey" points="148.5,-46.4132 145,-36.4133 141.5,-46.4133 148.5,-46.4132"/>
</g>
<!-- 22 -->
<g id="node23" class="node"><title>22</title>
<polyline fill="none" stroke="#d88556" stroke-width="2" points="128,-324 40,-324 "/>
<path fill="none" stroke="#d88556" stroke-width="2" d="M40,-324C34,-324 28,-318 28,-312"/>
<polyline fill="none" stroke="#d88556" stroke-width="2" points="28,-312 28,-300 "/>
<path fill="none" stroke="#d88556" stroke-width="2" d="M28,-300C28,-294 34,-288 40,-288"/>
<polyline fill="none" stroke="#d88556" stroke-width="2" points="40,-288 128,-288 "/>
<path fill="none" stroke="#d88556" stroke-width="2" d="M128,-288C134,-288 140,-294 140,-300"/>
<polyline fill="none" stroke="#d88556" stroke-width="2" points="140,-300 140,-312 "/>
<path fill="none" stroke="#d88556" stroke-width="2" d="M140,-312C140,-318 134,-324 128,-324"/>
<text text-anchor="middle" x="84" y="-303.5" font-family="sans" font-size="10.00">FoundationXml2Vcf</text>
</g>
<!-- 22&#45;&gt;18 -->
<g id="edge50" class="edge"><title>22&#45;&gt;18</title>
<path fill="none" stroke="grey" stroke-width="2" d="M84,-287.831C84,-280.131 84,-270.974 84,-262.417"/>
<polygon fill="grey" stroke="grey" points="87.5001,-262.413 84,-252.413 80.5001,-262.413 87.5001,-262.413"/>
</g>
<!-- 23&#45;&gt;6 -->
<g id="edge22" class="edge"><title>23&#45;&gt;6</title>
<path fill="none" stroke="grey" stroke-width="2" d="M252.785,-359.831C254.389,-352.131 256.297,-342.974 258.08,-334.417"/>
<polygon fill="grey" stroke="grey" points="261.551,-334.917 260.164,-324.413 254.698,-333.489 261.551,-334.917"/>
</g>
</g>
</svg>
