<?xml version="1.0" encoding="UTF-8" standalone="no"?>
<!DOCTYPE svg PUBLIC "-//W3C//DTD SVG 1.1//EN"
 "http://www.w3.org/Graphics/SVG/1.1/DTD/svg11.dtd">
<!-- Generated by graphviz version 2.30.1 (20150306.0020)
 -->
<!-- Title: snakemake_dag Pages: 1 -->
<svg width="627pt" height="1196pt"
 viewBox="0.00 0.00 627.00 1196.00" xmlns="http://www.w3.org/2000/svg" xmlns:xlink="http://www.w3.org/1999/xlink">
<g id="graph0" class="graph" transform="scale(1 1) rotate(0) translate(4 1192)">
<title>snakemake_dag</title>
<polygon fill="white" stroke="white" points="-4,5 -4,-1192 624,-1192 624,5 -4,5"/>
<!-- 0 -->
<g id="node1" class="node"><title>0</title>
<path fill="none" stroke="#567bd8" stroke-width="2" d="M321,-756C321,-756 267,-756 267,-756 261,-756 255,-750 255,-744 255,-744 255,-732 255,-732 255,-726 261,-720 267,-720 267,-720 321,-720 321,-720 327,-720 333,-726 333,-732 333,-732 333,-744 333,-744 333,-750 327,-756 321,-756"/>
<text text-anchor="middle" x="294" y="-735.5" font-family="sans" font-size="10.00">RealignIndels</text>
</g>
<!-- 6 -->
<g id="node7" class="node"><title>6</title>
<path fill="none" stroke="#bed856" stroke-width="2" d="M372.25,-612C372.25,-612 277.75,-612 277.75,-612 271.75,-612 265.75,-606 265.75,-600 265.75,-600 265.75,-588 265.75,-588 265.75,-582 271.75,-576 277.75,-576 277.75,-576 372.25,-576 372.25,-576 378.25,-576 384.25,-582 384.25,-588 384.25,-588 384.25,-600 384.25,-600 384.25,-606 378.25,-612 372.25,-612"/>
<text text-anchor="middle" x="325" y="-591.5" font-family="sans" font-size="10.00">PrintRecalibratedBam</text>
</g>
<!-- 0&#45;&gt;6 -->
<g id="edge10" class="edge"><title>0&#45;&gt;6</title>
<path fill="none" stroke="grey" stroke-width="2" d="M316.153,-719.875C326.41,-710.524 337.519,-698.003 343,-684 350.903,-663.811 345.119,-639.627 338.074,-621.568"/>
<polygon fill="grey" stroke="grey" points="341.239,-620.066 334.109,-612.229 334.795,-622.802 341.239,-620.066"/>
</g>
<!-- 8 -->
<g id="node9" class="node"><title>8</title>
<path fill="none" stroke="#56d0d8" stroke-width="2" d="M322,-684C322,-684 248,-684 248,-684 242,-684 236,-678 236,-672 236,-672 236,-660 236,-660 236,-654 242,-648 248,-648 248,-648 322,-648 322,-648 328,-648 334,-654 334,-660 334,-660 334,-672 334,-672 334,-678 328,-684 322,-684"/>
<text text-anchor="middle" x="285" y="-663.5" font-family="sans" font-size="10.00">RecalibrateBases</text>
</g>
<!-- 0&#45;&gt;8 -->
<g id="edge14" class="edge"><title>0&#45;&gt;8</title>
<path fill="none" stroke="grey" stroke-width="2" d="M291.775,-719.697C290.783,-711.983 289.592,-702.712 288.486,-694.112"/>
<polygon fill="grey" stroke="grey" points="291.946,-693.576 287.199,-684.104 285.003,-694.469 291.946,-693.576"/>
</g>
<!-- 1 -->
<g id="node2" class="node"><title>1</title>
<path fill="none" stroke="#d8d356" stroke-width="2" d="M428,-36C428,-36 398,-36 398,-36 392,-36 386,-30 386,-24 386,-24 386,-12 386,-12 386,-6 392,-0 398,-0 398,-0 428,-0 428,-0 434,-0 440,-6 440,-12 440,-12 440,-24 440,-24 440,-30 434,-36 428,-36"/>
<text text-anchor="middle" x="413" y="-15.5" font-family="sans" font-size="10.00">Results</text>
</g>
<!-- 2 -->
<g id="node3" class="node"><title>2</title>
<path fill="none" stroke="#56d8c1" stroke-width="2" d="M58.25,-1044C58.25,-1044 11.75,-1044 11.75,-1044 5.75,-1044 -0.25,-1038 -0.25,-1032 -0.25,-1032 -0.25,-1020 -0.25,-1020 -0.25,-1014 5.75,-1008 11.75,-1008 11.75,-1008 58.25,-1008 58.25,-1008 64.25,-1008 70.25,-1014 70.25,-1020 70.25,-1020 70.25,-1032 70.25,-1032 70.25,-1038 64.25,-1044 58.25,-1044"/>
<text text-anchor="middle" x="35" y="-1023.5" font-family="sans" font-size="10.00">CountFastq</text>
</g>
<!-- 17 -->
<g id="node18" class="node"><title>17</title>
<path fill="none" stroke="#d85656" stroke-width="2" d="M145.25,-396C145.25,-396 62.75,-396 62.75,-396 56.75,-396 50.75,-390 50.75,-384 50.75,-384 50.75,-372 50.75,-372 50.75,-366 56.75,-360 62.75,-360 62.75,-360 145.25,-360 145.25,-360 151.25,-360 157.25,-366 157.25,-372 157.25,-372 157.25,-384 157.25,-384 157.25,-390 151.25,-396 145.25,-396"/>
<text text-anchor="middle" x="104" y="-375.5" font-family="sans" font-size="10.00">AggregateQCStats</text>
</g>
<!-- 2&#45;&gt;17 -->
<g id="edge23" class="edge"><title>2&#45;&gt;17</title>
<path fill="none" stroke="grey" stroke-width="2" d="M34.0122,-1007.96C32.555,-981.308 30,-928.143 30,-883 30,-883 30,-883 30,-521 30,-475.904 59.7135,-430.942 81.4836,-404.052"/>
<polygon fill="grey" stroke="grey" points="84.2261,-406.228 87.9431,-396.306 78.8503,-401.744 84.2261,-406.228"/>
</g>
<!-- 3 -->
<g id="node4" class="node"><title>3</title>
<path fill="none" stroke="#56d8d0" stroke-width="2" d="M607.25,-180C607.25,-180 538.75,-180 538.75,-180 532.75,-180 526.75,-174 526.75,-168 526.75,-168 526.75,-156 526.75,-156 526.75,-150 532.75,-144 538.75,-144 538.75,-144 607.25,-144 607.25,-144 613.25,-144 619.25,-150 619.25,-156 619.25,-156 619.25,-168 619.25,-168 619.25,-174 613.25,-180 607.25,-180"/>
<text text-anchor="middle" x="573" y="-159.5" font-family="sans" font-size="10.00">SplitMutectBam</text>
</g>
<!-- 3&#45;&gt;1 -->
<g id="edge3" class="edge"><title>3&#45;&gt;1</title>
<path fill="none" stroke="grey" stroke-width="2" d="M553.7,-143.871C525.35,-118.711 472.328,-71.6535 440.089,-43.0415"/>
<polygon fill="grey" stroke="grey" points="442.171,-40.2094 432.368,-36.1893 437.524,-45.4449 442.171,-40.2094"/>
</g>
<!-- 4 -->
<g id="node5" class="node"><title>4</title>
<path fill="none" stroke="#ced856" stroke-width="2" d="M268,-396C268,-396 188,-396 188,-396 182,-396 176,-390 176,-384 176,-384 176,-372 176,-372 176,-366 182,-360 188,-360 188,-360 268,-360 268,-360 274,-360 280,-366 280,-372 280,-372 280,-384 280,-384 280,-390 274,-396 268,-396"/>
<text text-anchor="middle" x="228" y="-375.5" font-family="sans" font-size="10.00">StrelkaRegionFilter</text>
</g>
<!-- 16 -->
<g id="node17" class="node"><title>16</title>
<path fill="none" stroke="#56a9d8" stroke-width="2" d="M252.25,-324C252.25,-324 203.75,-324 203.75,-324 197.75,-324 191.75,-318 191.75,-312 191.75,-312 191.75,-300 191.75,-300 191.75,-294 197.75,-288 203.75,-288 203.75,-288 252.25,-288 252.25,-288 258.25,-288 264.25,-294 264.25,-300 264.25,-300 264.25,-312 264.25,-312 264.25,-318 258.25,-324 252.25,-324"/>
<text text-anchor="middle" x="228" y="-303.5" font-family="sans" font-size="10.00">StrelkaFilter</text>
</g>
<!-- 4&#45;&gt;16 -->
<g id="edge21" class="edge"><title>4&#45;&gt;16</title>
<path fill="none" stroke="grey" stroke-width="2" d="M228,-359.697C228,-351.983 228,-342.712 228,-334.112"/>
<polygon fill="grey" stroke="grey" points="231.5,-334.104 228,-324.104 224.5,-334.104 231.5,-334.104"/>
</g>
<!-- 5 -->
<g id="node6" class="node"><title>5</title>
<path fill="none" stroke="#56d86b" stroke-width="2" d="M193.25,-468C193.25,-468 146.75,-468 146.75,-468 140.75,-468 134.75,-462 134.75,-456 134.75,-456 134.75,-444 134.75,-444 134.75,-438 140.75,-432 146.75,-432 146.75,-432 193.25,-432 193.25,-432 199.25,-432 205.25,-438 205.25,-444 205.25,-444 205.25,-456 205.25,-456 205.25,-462 199.25,-468 193.25,-468"/>
<text text-anchor="middle" x="170" y="-447.5" font-family="sans" font-size="10.00">Sam2USeq</text>
</g>
<!-- 5&#45;&gt;17 -->
<g id="edge24" class="edge"><title>5&#45;&gt;17</title>
<path fill="none" stroke="grey" stroke-width="2" d="M153.685,-431.697C145.693,-423.22 135.928,-412.864 127.178,-403.583"/>
<polygon fill="grey" stroke="grey" points="129.534,-400.979 120.127,-396.104 124.441,-405.781 129.534,-400.979"/>
</g>
<!-- 18 -->
<g id="node19" class="node"><title>18</title>
<path fill="none" stroke="#d8ac56" stroke-width="2" d="M436,-396C436,-396 406,-396 406,-396 400,-396 394,-390 394,-384 394,-384 394,-372 394,-372 394,-366 400,-360 406,-360 406,-360 436,-360 436,-360 442,-360 448,-366 448,-372 448,-372 448,-384 448,-384 448,-390 442,-396 436,-396"/>
<text text-anchor="middle" x="421" y="-375.5" font-family="sans" font-size="10.00">Mutect</text>
</g>
<!-- 6&#45;&gt;18 -->
<g id="edge26" class="edge"><title>6&#45;&gt;18</title>
<path fill="none" stroke="grey" stroke-width="2" d="M337.6,-575.713C344.8,-565.533 353.8,-552.283 361,-540 379.091,-509.134 384.279,-501.439 397,-468 404.753,-447.619 411.052,-423.721 415.249,-405.823"/>
<polygon fill="grey" stroke="grey" points="418.666,-406.577 417.471,-396.05 411.841,-405.025 418.666,-406.577"/>
</g>
<!-- 22 -->
<g id="node23" class="node"><title>22</title>
<path fill="none" stroke="#56c1d8" stroke-width="2" d="M223,-540C223,-540 117,-540 117,-540 111,-540 105,-534 105,-528 105,-528 105,-516 105,-516 105,-510 111,-504 117,-504 117,-504 223,-504 223,-504 229,-504 235,-510 235,-516 235,-516 235,-528 235,-528 235,-534 229,-540 223,-540"/>
<text text-anchor="middle" x="170" y="-519.5" font-family="sans" font-size="10.00">MergePairedAlignments</text>
</g>
<!-- 6&#45;&gt;22 -->
<g id="edge33" class="edge"><title>6&#45;&gt;22</title>
<path fill="none" stroke="grey" stroke-width="2" d="M287.083,-575.876C265.987,-566.349 239.544,-554.407 217.127,-544.283"/>
<polygon fill="grey" stroke="grey" points="218.348,-540.994 207.794,-540.068 215.467,-547.374 218.348,-540.994"/>
</g>
<!-- 24 -->
<g id="node25" class="node"><title>24</title>
<path fill="none" stroke="#566bd8" stroke-width="2" d="M376,-468C376,-468 346,-468 346,-468 340,-468 334,-462 334,-456 334,-456 334,-444 334,-444 334,-438 340,-432 346,-432 346,-432 376,-432 376,-432 382,-432 388,-438 388,-444 388,-444 388,-456 388,-456 388,-462 382,-468 376,-468"/>
<text text-anchor="middle" x="361" y="-447.5" font-family="sans" font-size="10.00">Lofreq</text>
</g>
<!-- 6&#45;&gt;24 -->
<g id="edge35" class="edge"><title>6&#45;&gt;24</title>
<path fill="none" stroke="grey" stroke-width="2" d="M330.951,-575.943C334.433,-565.616 338.766,-552.139 342,-540 347.456,-519.518 352.412,-496.062 355.893,-478.373"/>
<polygon fill="grey" stroke="grey" points="359.401,-478.665 357.861,-468.183 352.528,-477.337 359.401,-478.665"/>
</g>
<!-- 27 -->
<g id="node28" class="node"><title>27</title>
<path fill="none" stroke="#56d88a" stroke-width="2" d="M321,-540C321,-540 291,-540 291,-540 285,-540 279,-534 279,-528 279,-528 279,-516 279,-516 279,-510 285,-504 291,-504 291,-504 321,-504 321,-504 327,-504 333,-510 333,-516 333,-516 333,-528 333,-528 333,-534 327,-540 321,-540"/>
<text text-anchor="middle" x="306" y="-519.5" font-family="sans" font-size="10.00">Strelka</text>
</g>
<!-- 6&#45;&gt;27 -->
<g id="edge39" class="edge"><title>6&#45;&gt;27</title>
<path fill="none" stroke="grey" stroke-width="2" d="M320.303,-575.697C318.187,-567.898 315.638,-558.509 313.282,-549.829"/>
<polygon fill="grey" stroke="grey" points="316.64,-548.838 310.643,-540.104 309.884,-550.672 316.64,-548.838"/>
</g>
<!-- 7 -->
<g id="node8" class="node"><title>7</title>
<path fill="none" stroke="#56d87b" stroke-width="2" d="M472.25,-180C472.25,-180 353.75,-180 353.75,-180 347.75,-180 341.75,-174 341.75,-168 341.75,-168 341.75,-156 341.75,-156 341.75,-150 347.75,-144 353.75,-144 353.75,-144 472.25,-144 472.25,-144 478.25,-144 484.25,-150 484.25,-156 484.25,-156 484.25,-168 484.25,-168 484.25,-174 478.25,-180 472.25,-180"/>
<text text-anchor="middle" x="413" y="-159.5" font-family="sans" font-size="10.00">FoundationVcfComparator</text>
</g>
<!-- 9 -->
<g id="node10" class="node"><title>9</title>
<path fill="none" stroke="#d86656" stroke-width="2" d="M428.25,-108C428.25,-108 397.75,-108 397.75,-108 391.75,-108 385.75,-102 385.75,-96 385.75,-96 385.75,-84 385.75,-84 385.75,-78 391.75,-72 397.75,-72 397.75,-72 428.25,-72 428.25,-72 434.25,-72 440.25,-78 440.25,-84 440.25,-84 440.25,-96 440.25,-96 440.25,-102 434.25,-108 428.25,-108"/>
<text text-anchor="middle" x="413" y="-87.5" font-family="sans" font-size="10.00">VcfTabix</text>
</g>
<!-- 7&#45;&gt;9 -->
<g id="edge15" class="edge"><title>7&#45;&gt;9</title>
<path fill="none" stroke="grey" stroke-width="2" d="M413,-143.697C413,-135.983 413,-126.712 413,-118.112"/>
<polygon fill="grey" stroke="grey" points="416.5,-118.104 413,-108.104 409.5,-118.104 416.5,-118.104"/>
</g>
<!-- 8&#45;&gt;6 -->
<g id="edge11" class="edge"><title>8&#45;&gt;6</title>
<path fill="none" stroke="grey" stroke-width="2" d="M294.888,-647.697C299.489,-639.644 305.06,-629.894 310.153,-620.982"/>
<polygon fill="grey" stroke="grey" points="313.304,-622.523 315.226,-612.104 307.226,-619.05 313.304,-622.523"/>
</g>
<!-- 9&#45;&gt;1 -->
<g id="edge5" class="edge"><title>9&#45;&gt;1</title>
<path fill="none" stroke="grey" stroke-width="2" d="M413,-71.6966C413,-63.9827 413,-54.7125 413,-46.1124"/>
<polygon fill="grey" stroke="grey" points="416.5,-46.1043 413,-36.1043 409.5,-46.1044 416.5,-46.1043"/>
</g>
<!-- 10 -->
<g id="node11" class="node"><title>10</title>
<path fill="none" stroke="#59d856" stroke-width="2" d="M304,-468C304,-468 236,-468 236,-468 230,-468 224,-462 224,-456 224,-456 224,-444 224,-444 224,-438 230,-432 236,-432 236,-432 304,-432 304,-432 310,-432 316,-438 316,-444 316,-444 316,-456 316,-456 316,-462 310,-468 304,-468"/>
<text text-anchor="middle" x="270" y="-447.5" font-family="sans" font-size="10.00">StrelkaPostProc</text>
</g>
<!-- 10&#45;&gt;4 -->
<g id="edge8" class="edge"><title>10&#45;&gt;4</title>
<path fill="none" stroke="grey" stroke-width="2" d="M259.618,-431.697C254.735,-423.559 248.813,-413.689 243.421,-404.701"/>
<polygon fill="grey" stroke="grey" points="246.409,-402.879 238.263,-396.104 240.406,-406.48 246.409,-402.879"/>
</g>
<!-- 11 -->
<g id="node12" class="node"><title>11</title>
<path fill="none" stroke="#68d856" stroke-width="2" d="M128,-1116C128,-1116 98,-1116 98,-1116 92,-1116 86,-1110 86,-1104 86,-1104 86,-1092 86,-1092 86,-1086 92,-1080 98,-1080 98,-1080 128,-1080 128,-1080 134,-1080 140,-1086 140,-1092 140,-1092 140,-1104 140,-1104 140,-1110 134,-1116 128,-1116"/>
<text text-anchor="middle" x="113" y="-1095.5" font-family="sans" font-size="10.00">Align</text>
</g>
<!-- 14 -->
<g id="node15" class="node"><title>14</title>
<path fill="none" stroke="#78d856" stroke-width="2" d="M138.25,-1044C138.25,-1044 103.75,-1044 103.75,-1044 97.75,-1044 91.75,-1038 91.75,-1032 91.75,-1032 91.75,-1020 91.75,-1020 91.75,-1014 97.75,-1008 103.75,-1008 103.75,-1008 138.25,-1008 138.25,-1008 144.25,-1008 150.25,-1014 150.25,-1020 150.25,-1020 150.25,-1032 150.25,-1032 150.25,-1038 144.25,-1044 138.25,-1044"/>
<text text-anchor="middle" x="121" y="-1023.5" font-family="sans" font-size="10.00">SortSam</text>
</g>
<!-- 11&#45;&gt;14 -->
<g id="edge19" class="edge"><title>11&#45;&gt;14</title>
<path fill="none" stroke="grey" stroke-width="2" d="M114.978,-1079.7C115.859,-1071.98 116.919,-1062.71 117.901,-1054.11"/>
<polygon fill="grey" stroke="grey" points="121.387,-1054.44 119.045,-1044.1 114.432,-1053.64 121.387,-1054.44"/>
</g>
<!-- 12 -->
<g id="node13" class="node"><title>12</title>
<path fill="none" stroke="#d88d56" stroke-width="2" d="M363.25,-396C363.25,-396 310.75,-396 310.75,-396 304.75,-396 298.75,-390 298.75,-384 298.75,-384 298.75,-372 298.75,-372 298.75,-366 304.75,-360 310.75,-360 310.75,-360 363.25,-360 363.25,-360 369.25,-360 375.25,-366 375.25,-372 375.25,-372 375.25,-384 375.25,-384 375.25,-390 369.25,-396 363.25,-396"/>
<text text-anchor="middle" x="337" y="-375.5" font-family="sans" font-size="10.00">LofreqMerge</text>
</g>
<!-- 19 -->
<g id="node20" class="node"><title>19</title>
<path fill="none" stroke="#afd856" stroke-width="2" d="M339.25,-324C339.25,-324 294.75,-324 294.75,-324 288.75,-324 282.75,-318 282.75,-312 282.75,-312 282.75,-300 282.75,-300 282.75,-294 288.75,-288 294.75,-288 294.75,-288 339.25,-288 339.25,-288 345.25,-288 351.25,-294 351.25,-300 351.25,-300 351.25,-312 351.25,-312 351.25,-318 345.25,-324 339.25,-324"/>
<text text-anchor="middle" x="317" y="-303.5" font-family="sans" font-size="10.00">LofreqFilter</text>
</g>
<!-- 12&#45;&gt;19 -->
<g id="edge28" class="edge"><title>12&#45;&gt;19</title>
<path fill="none" stroke="grey" stroke-width="2" d="M332.056,-359.697C329.828,-351.898 327.145,-342.509 324.665,-333.829"/>
<polygon fill="grey" stroke="grey" points="328,-332.758 321.887,-324.104 321.269,-334.681 328,-332.758"/>
</g>
<!-- 13 -->
<g id="node14" class="node"><title>13</title>
<path fill="none" stroke="#56d8a9" stroke-width="2" d="M104.25,-1188C104.25,-1188 57.75,-1188 57.75,-1188 51.75,-1188 45.75,-1182 45.75,-1176 45.75,-1176 45.75,-1164 45.75,-1164 45.75,-1158 51.75,-1152 57.75,-1152 57.75,-1152 104.25,-1152 104.25,-1152 110.25,-1152 116.25,-1158 116.25,-1164 116.25,-1164 116.25,-1176 116.25,-1176 116.25,-1182 110.25,-1188 104.25,-1188"/>
<text text-anchor="middle" x="81" y="-1167.5" font-family="sans" font-size="10.00">Sam2Fastq</text>
</g>
<!-- 13&#45;&gt;2 -->
<g id="edge6" class="edge"><title>13&#45;&gt;2</title>
<path fill="none" stroke="grey" stroke-width="2" d="M75.4513,-1151.87C67.5769,-1127.56 53.0821,-1082.82 43.7508,-1054.01"/>
<polygon fill="grey" stroke="grey" points="46.9798,-1052.62 40.5684,-1044.19 40.3205,-1054.78 46.9798,-1052.62"/>
</g>
<!-- 13&#45;&gt;11 -->
<g id="edge17" class="edge"><title>13&#45;&gt;11</title>
<path fill="none" stroke="grey" stroke-width="2" d="M88.9101,-1151.7C92.5527,-1143.73 96.9545,-1134.1 100.994,-1125.26"/>
<polygon fill="grey" stroke="grey" points="104.206,-1126.65 105.181,-1116.1 97.8401,-1123.74 104.206,-1126.65"/>
</g>
<!-- 26 -->
<g id="node27" class="node"><title>26</title>
<path fill="none" stroke="#56d89a" stroke-width="2" d="M177.25,-972C177.25,-972 70.75,-972 70.75,-972 64.75,-972 58.75,-966 58.75,-960 58.75,-960 58.75,-948 58.75,-948 58.75,-942 64.75,-936 70.75,-936 70.75,-936 177.25,-936 177.25,-936 183.25,-936 189.25,-942 189.25,-948 189.25,-948 189.25,-960 189.25,-960 189.25,-966 183.25,-972 177.25,-972"/>
<text text-anchor="middle" x="124" y="-951.5" font-family="sans" font-size="10.00">SamAlignmentExtractor</text>
</g>
<!-- 14&#45;&gt;26 -->
<g id="edge38" class="edge"><title>14&#45;&gt;26</title>
<path fill="none" stroke="grey" stroke-width="2" d="M121.742,-1007.7C122.072,-999.983 122.469,-990.712 122.838,-982.112"/>
<polygon fill="grey" stroke="grey" points="126.335,-982.245 123.267,-972.104 119.342,-981.945 126.335,-982.245"/>
</g>
<!-- 15 -->
<g id="node16" class="node"><title>15</title>
<path fill="none" stroke="#d8bc56" stroke-width="2" d="M430,-324C430,-324 382,-324 382,-324 376,-324 370,-318 370,-312 370,-312 370,-300 370,-300 370,-294 376,-288 382,-288 382,-288 430,-288 430,-288 436,-288 442,-294 442,-300 442,-300 442,-312 442,-312 442,-318 436,-324 430,-324"/>
<text text-anchor="middle" x="406" y="-303.5" font-family="sans" font-size="10.00">MutectFilter</text>
</g>
<!-- 20 -->
<g id="node21" class="node"><title>20</title>
<path fill="none" stroke="#9fd856" stroke-width="2" d="M373,-252C373,-252 309,-252 309,-252 303,-252 297,-246 297,-240 297,-240 297,-228 297,-228 297,-222 303,-216 309,-216 309,-216 373,-216 373,-216 379,-216 385,-222 385,-228 385,-228 385,-240 385,-240 385,-246 379,-252 373,-252"/>
<text text-anchor="middle" x="341" y="-231.5" font-family="sans" font-size="10.00">VCFConsensus</text>
</g>
<!-- 15&#45;&gt;20 -->
<g id="edge29" class="edge"><title>15&#45;&gt;20</title>
<path fill="none" stroke="grey" stroke-width="2" d="M389.933,-287.697C382.061,-279.22 372.445,-268.864 363.827,-259.583"/>
<polygon fill="grey" stroke="grey" points="366.252,-257.051 356.883,-252.104 361.122,-261.814 366.252,-257.051"/>
</g>
<!-- 16&#45;&gt;20 -->
<g id="edge31" class="edge"><title>16&#45;&gt;20</title>
<path fill="none" stroke="grey" stroke-width="2" d="M255.643,-287.876C270.418,-278.724 288.791,-267.342 304.703,-257.485"/>
<polygon fill="grey" stroke="grey" points="306.593,-260.431 313.251,-252.19 302.907,-254.481 306.593,-260.431"/>
</g>
<!-- 17&#45;&gt;1 -->
<g id="edge4" class="edge"><title>17&#45;&gt;1</title>
<path fill="none" stroke="grey" stroke-width="2" d="M110.071,-359.76C118.837,-333.283 134,-280.858 134,-235 134,-235 134,-235 134,-161 134,-53.6787 299.994,-27.4347 375.908,-21.0442"/>
<polygon fill="grey" stroke="grey" points="376.293,-24.525 385.995,-20.2678 375.756,-17.5456 376.293,-24.525"/>
</g>
<!-- 18&#45;&gt;3 -->
<g id="edge7" class="edge"><title>18&#45;&gt;3</title>
<path fill="none" stroke="grey" stroke-width="2" d="M448.142,-376.791C484.62,-374.866 548.306,-365.365 578,-324 606.302,-284.575 593.933,-224.612 583.03,-190.077"/>
<polygon fill="grey" stroke="grey" points="586.227,-188.602 579.74,-180.226 579.588,-190.82 586.227,-188.602"/>
</g>
<!-- 18&#45;&gt;15 -->
<g id="edge20" class="edge"><title>18&#45;&gt;15</title>
<path fill="none" stroke="grey" stroke-width="2" d="M417.292,-359.697C415.639,-351.983 413.653,-342.712 411.81,-334.112"/>
<polygon fill="grey" stroke="grey" points="415.183,-333.149 409.665,-324.104 408.338,-334.616 415.183,-333.149"/>
</g>
<!-- 19&#45;&gt;20 -->
<g id="edge30" class="edge"><title>19&#45;&gt;20</title>
<path fill="none" stroke="grey" stroke-width="2" d="M322.933,-287.697C325.606,-279.898 328.826,-270.509 331.801,-261.829"/>
<polygon fill="grey" stroke="grey" points="335.203,-262.699 335.136,-252.104 328.582,-260.429 335.203,-262.699"/>
</g>
<!-- 20&#45;&gt;7 -->
<g id="edge13" class="edge"><title>20&#45;&gt;7</title>
<path fill="none" stroke="grey" stroke-width="2" d="M358.798,-215.697C367.604,-207.135 378.382,-196.656 388.001,-187.304"/>
<polygon fill="grey" stroke="grey" points="390.677,-189.585 395.407,-180.104 385.797,-184.566 390.677,-189.585"/>
</g>
<!-- 21 -->
<g id="node22" class="node"><title>21</title>
<path fill="none" stroke="#d87556" stroke-width="2" d="M226.25,-900C226.25,-900 145.75,-900 145.75,-900 139.75,-900 133.75,-894 133.75,-888 133.75,-888 133.75,-876 133.75,-876 133.75,-870 139.75,-864 145.75,-864 145.75,-864 226.25,-864 226.25,-864 232.25,-864 238.25,-870 238.25,-876 238.25,-876 238.25,-888 238.25,-888 238.25,-894 232.25,-900 226.25,-900"/>
<text text-anchor="middle" x="186" y="-879.5" font-family="sans" font-size="10.00">RemoveDuplicates</text>
</g>
<!-- 21&#45;&gt;0 -->
<g id="edge1" class="edge"><title>21&#45;&gt;0</title>
<path fill="none" stroke="grey" stroke-width="2" d="M238.363,-864.475C255.972,-856.294 273.936,-844.523 285,-828 297.046,-810.009 298.641,-785.219 297.596,-766.37"/>
<polygon fill="grey" stroke="grey" points="301.077,-766 296.763,-756.323 294.101,-766.578 301.077,-766"/>
</g>
<!-- 25 -->
<g id="node26" class="node"><title>25</title>
<path fill="none" stroke="#568ad8" stroke-width="2" d="M264,-828C264,-828 108,-828 108,-828 102,-828 96,-822 96,-816 96,-816 96,-804 96,-804 96,-798 102,-792 108,-792 108,-792 264,-792 264,-792 270,-792 276,-798 276,-804 276,-804 276,-816 276,-816 276,-822 270,-828 264,-828"/>
<text text-anchor="middle" x="186" y="-807.5" font-family="sans" font-size="10.00">CreateTargetsForIndelRealignment</text>
</g>
<!-- 21&#45;&gt;25 -->
<g id="edge37" class="edge"><title>21&#45;&gt;25</title>
<path fill="none" stroke="grey" stroke-width="2" d="M186,-863.697C186,-855.983 186,-846.712 186,-838.112"/>
<polygon fill="grey" stroke="grey" points="189.5,-838.104 186,-828.104 182.5,-838.104 189.5,-838.104"/>
</g>
<!-- 22&#45;&gt;5 -->
<g id="edge9" class="edge"><title>22&#45;&gt;5</title>
<path fill="none" stroke="grey" stroke-width="2" d="M170,-503.697C170,-495.983 170,-486.712 170,-478.112"/>
<polygon fill="grey" stroke="grey" points="173.5,-478.104 170,-468.104 166.5,-478.104 173.5,-478.104"/>
</g>
<!-- 22&#45;&gt;17 -->
<g id="edge22" class="edge"><title>22&#45;&gt;17</title>
<path fill="none" stroke="grey" stroke-width="2" d="M151.829,-503.914C142.518,-494.212 131.75,-481.359 125,-468 115.185,-448.574 109.86,-424.43 107.031,-406.193"/>
<polygon fill="grey" stroke="grey" points="110.487,-405.638 105.638,-396.218 103.554,-406.606 110.487,-405.638"/>
</g>
<!-- 23 -->
<g id="node24" class="node"><title>23</title>
<path fill="none" stroke="#88d856" stroke-width="2" d="M495,-252C495,-252 439,-252 439,-252 433,-252 427,-246 427,-240 427,-240 427,-228 427,-228 427,-222 433,-216 439,-216 439,-216 495,-216 495,-216 501,-216 507,-222 507,-228 507,-228 507,-240 507,-240 507,-246 501,-252 495,-252"/>
<text text-anchor="middle" x="467" y="-231.5" font-family="sans" font-size="10.00">NormalizeVcf</text>
</g>
<!-- 23&#45;&gt;7 -->
<g id="edge12" class="edge"><title>23&#45;&gt;7</title>
<path fill="none" stroke="grey" stroke-width="2" d="M453.652,-215.697C447.243,-207.389 439.442,-197.277 432.394,-188.141"/>
<polygon fill="grey" stroke="grey" points="435.074,-185.884 426.195,-180.104 429.532,-190.16 435.074,-185.884"/>
</g>
<!-- 24&#45;&gt;12 -->
<g id="edge18" class="edge"><title>24&#45;&gt;12</title>
<path fill="none" stroke="grey" stroke-width="2" d="M355.067,-431.697C352.394,-423.898 349.174,-414.509 346.199,-405.829"/>
<polygon fill="grey" stroke="grey" points="349.418,-404.429 342.864,-396.104 342.797,-406.699 349.418,-404.429"/>
</g>
<!-- 24&#45;&gt;18 -->
<g id="edge27" class="edge"><title>24&#45;&gt;18</title>
<path fill="none" stroke="grey" stroke-width="2" d="M375.831,-431.697C383.025,-423.305 391.797,-413.07 399.69,-403.861"/>
<polygon fill="grey" stroke="grey" points="402.489,-405.975 406.339,-396.104 397.174,-401.419 402.489,-405.975"/>
</g>
<!-- 25&#45;&gt;0 -->
<g id="edge2" class="edge"><title>25&#45;&gt;0</title>
<path fill="none" stroke="grey" stroke-width="2" d="M212.42,-791.876C226.41,-782.808 243.776,-771.552 258.886,-761.759"/>
<polygon fill="grey" stroke="grey" points="260.991,-764.566 267.479,-756.19 257.183,-758.692 260.991,-764.566"/>
</g>
<!-- 26&#45;&gt;17 -->
<g id="edge25" class="edge"><title>26&#45;&gt;17</title>
<path fill="none" stroke="grey" stroke-width="2" d="M112.397,-935.928C95.994,-910.09 68,-858.966 68,-811 68,-811 68,-811 68,-521 68,-479.775 82.433,-433.826 93.0216,-405.662"/>
<polygon fill="grey" stroke="grey" points="96.3646,-406.722 96.7149,-396.133 89.8376,-404.192 96.3646,-406.722"/>
</g>
<!-- 26&#45;&gt;21 -->
<g id="edge32" class="edge"><title>26&#45;&gt;21</title>
<path fill="none" stroke="grey" stroke-width="2" d="M139.326,-935.697C146.759,-927.305 155.823,-917.07 163.98,-907.861"/>
<polygon fill="grey" stroke="grey" points="166.84,-909.911 170.85,-900.104 161.6,-905.27 166.84,-909.911"/>
</g>
<!-- 27&#45;&gt;10 -->
<g id="edge16" class="edge"><title>27&#45;&gt;10</title>
<path fill="none" stroke="grey" stroke-width="2" d="M297.101,-503.697C293.003,-495.728 288.051,-486.1 283.507,-477.264"/>
<polygon fill="grey" stroke="grey" points="286.483,-475.396 278.797,-468.104 280.258,-478.598 286.483,-475.396"/>
</g>
<!-- 27&#45;&gt;24 -->
<g id="edge36" class="edge"><title>27&#45;&gt;24</title>
<path fill="none" stroke="grey" stroke-width="2" d="M319.596,-503.697C326.123,-495.389 334.068,-485.277 341.247,-476.141"/>
<polygon fill="grey" stroke="grey" points="344.135,-478.13 347.561,-468.104 338.631,-473.805 344.135,-478.13"/>
</g>
<!-- 28 -->
<g id="node29" class="node"><title>28</title>
<path fill="none" stroke="#569ad8" stroke-width="2" d="M557.25,-324C557.25,-324 472.75,-324 472.75,-324 466.75,-324 460.75,-318 460.75,-312 460.75,-312 460.75,-300 460.75,-300 460.75,-294 466.75,-288 472.75,-288 472.75,-288 557.25,-288 557.25,-288 563.25,-288 569.25,-294 569.25,-300 569.25,-300 569.25,-312 569.25,-312 569.25,-318 563.25,-324 557.25,-324"/>
<text text-anchor="middle" x="515" y="-303.5" font-family="sans" font-size="10.00">FoundationXml2Vcf</text>
</g>
<!-- 28&#45;&gt;23 -->
<g id="edge34" class="edge"><title>28&#45;&gt;23</title>
<path fill="none" stroke="grey" stroke-width="2" d="M503.135,-287.697C497.497,-279.474 490.646,-269.483 484.431,-260.421"/>
<polygon fill="grey" stroke="grey" points="487.271,-258.372 478.729,-252.104 481.497,-262.331 487.271,-258.372"/>
</g>
</g>
</svg>
