<?xml version="1.0" encoding="UTF-8" standalone="no"?>
<!DOCTYPE svg PUBLIC "-//W3C//DTD SVG 1.1//EN"
 "http://www.w3.org/Graphics/SVG/1.1/DTD/svg11.dtd">
<!-- Generated by graphviz version 2.40.1 (20161225.0304)
 -->
<!-- Title: snakemake_dag Pages: 1 -->
<svg width="458pt" height="980pt"
 viewBox="0.00 0.00 458.25 980.00" xmlns="http://www.w3.org/2000/svg" xmlns:xlink="http://www.w3.org/1999/xlink">
<g id="graph0" class="graph" transform="scale(1 1) rotate(0) translate(4 976)">
<title>snakemake_dag</title>
<polygon fill="#ffffff" stroke="transparent" points="-4,4 -4,-976 454.2503,-976 454.2503,4 -4,4"/>
<!-- 0 -->
<g id="node1" class="node">
<title>0</title>
<path fill="none" stroke="#56c9d8" stroke-width="2" d="M263.7503,-36C263.7503,-36 181.7503,-36 181.7503,-36 175.7503,-36 169.7503,-30 169.7503,-24 169.7503,-24 169.7503,-12 169.7503,-12 169.7503,-6 175.7503,0 181.7503,0 181.7503,0 263.7503,0 263.7503,0 269.7503,0 275.7503,-6 275.7503,-12 275.7503,-12 275.7503,-24 275.7503,-24 275.7503,-30 269.7503,-36 263.7503,-36"/>
<text text-anchor="middle" x="222.7503" y="-15.5" font-family="sans" font-size="10.00" fill="#000000">AggregateQCStats</text>
</g>
<!-- 1 -->
<g id="node2" class="node">
<title>1</title>
<path fill="none" stroke="#56d8a9" stroke-width="2" d="M163.2503,-180C163.2503,-180 92.2503,-180 92.2503,-180 86.2503,-180 80.2503,-174 80.2503,-168 80.2503,-168 80.2503,-156 80.2503,-156 80.2503,-150 86.2503,-144 92.2503,-144 92.2503,-144 163.2503,-144 163.2503,-144 169.2503,-144 175.2503,-150 175.2503,-156 175.2503,-156 175.2503,-168 175.2503,-168 175.2503,-174 169.2503,-180 163.2503,-180"/>
<text text-anchor="middle" x="127.7503" y="-159.5" font-family="sans" font-size="10.00" fill="#000000">HaplotypeCaller</text>
</g>
<!-- 1&#45;&gt;0 -->
<g id="edge1" class="edge">
<title>1&#45;&gt;0</title>
<path fill="none" stroke="#c0c0c0" stroke-width="2" d="M139.7821,-143.7623C156.3426,-118.66 186.2665,-73.3017 205.2893,-44.4671"/>
<polygon fill="#c0c0c0" stroke="#c0c0c0" stroke-width="2" points="208.2308,-46.3642 210.8161,-36.0896 202.3878,-42.5094 208.2308,-46.3642"/>
</g>
<!-- 2 -->
<g id="node3" class="node">
<title>2</title>
<path fill="none" stroke="#56d873" stroke-width="2" d="M349.2503,-108C349.2503,-108 282.2503,-108 282.2503,-108 276.2503,-108 270.2503,-102 270.2503,-96 270.2503,-96 270.2503,-84 270.2503,-84 270.2503,-78 276.2503,-72 282.2503,-72 282.2503,-72 349.2503,-72 349.2503,-72 355.2503,-72 361.2503,-78 361.2503,-84 361.2503,-84 361.2503,-96 361.2503,-96 361.2503,-102 355.2503,-108 349.2503,-108"/>
<text text-anchor="middle" x="315.7503" y="-87.5" font-family="sans" font-size="10.00" fill="#000000">USeq2UCSCBig</text>
</g>
<!-- 2&#45;&gt;0 -->
<g id="edge2" class="edge">
<title>2&#45;&gt;0</title>
<path fill="none" stroke="#c0c0c0" stroke-width="2" d="M292.2824,-71.8314C280.7176,-62.8779 266.6099,-51.9558 254.1319,-42.2955"/>
<polygon fill="#c0c0c0" stroke="#c0c0c0" stroke-width="2" points="256.2605,-39.5171 246.2106,-36.1628 251.9752,-45.0521 256.2605,-39.5171"/>
</g>
<!-- 3 -->
<g id="node4" class="node">
<title>3</title>
<path fill="none" stroke="#56d8c9" stroke-width="2" d="M144.2503,-468C144.2503,-468 35.2503,-468 35.2503,-468 29.2503,-468 23.2503,-462 23.2503,-456 23.2503,-456 23.2503,-444 23.2503,-444 23.2503,-438 29.2503,-432 35.2503,-432 35.2503,-432 144.2503,-432 144.2503,-432 150.2503,-432 156.2503,-438 156.2503,-444 156.2503,-444 156.2503,-456 156.2503,-456 156.2503,-462 150.2503,-468 144.2503,-468"/>
<text text-anchor="middle" x="89.7503" y="-447.5" font-family="sans" font-size="10.00" fill="#000000">SamAlignmentExtractor</text>
</g>
<!-- 3&#45;&gt;0 -->
<g id="edge3" class="edge">
<title>3&#45;&gt;0</title>
<path fill="none" stroke="#c0c0c0" stroke-width="2" d="M81.6914,-431.7668C70.5369,-404.8248 51.7503,-352.5405 51.7503,-306 51.7503,-306 51.7503,-306 51.7503,-162 51.7503,-102.5673 112.9348,-62.7122 162.1067,-40.2786"/>
<polygon fill="#c0c0c0" stroke="#c0c0c0" stroke-width="2" points="163.709,-43.3972 171.4446,-36.1576 160.8828,-36.9931 163.709,-43.3972"/>
</g>
<!-- 7 -->
<g id="node8" class="node">
<title>7</title>
<path fill="none" stroke="#d85656" stroke-width="2" d="M203.7503,-324C203.7503,-324 105.7503,-324 105.7503,-324 99.7503,-324 93.7503,-318 93.7503,-312 93.7503,-312 93.7503,-300 93.7503,-300 93.7503,-294 99.7503,-288 105.7503,-288 105.7503,-288 203.7503,-288 203.7503,-288 209.7503,-288 215.7503,-294 215.7503,-300 215.7503,-300 215.7503,-312 215.7503,-312 215.7503,-318 209.7503,-324 203.7503,-324"/>
<text text-anchor="middle" x="154.7503" y="-303.5" font-family="sans" font-size="10.00" fill="#000000">PrintRecalibratedBam</text>
</g>
<!-- 3&#45;&gt;7 -->
<g id="edge12" class="edge">
<title>3&#45;&gt;7</title>
<path fill="none" stroke="#c0c0c0" stroke-width="2" d="M90.9385,-431.8991C92.7616,-413.0912 97.3391,-383.2177 108.7503,-360 113.6901,-349.949 120.925,-340.2248 128.201,-331.8635"/>
<polygon fill="#c0c0c0" stroke="#c0c0c0" stroke-width="2" points="130.9526,-334.0409 135.116,-324.2983 125.7858,-329.3181 130.9526,-334.0409"/>
</g>
<!-- 9 -->
<g id="node10" class="node">
<title>9</title>
<path fill="none" stroke="#c6d856" stroke-width="2" d="M207.2503,-396C207.2503,-396 130.2503,-396 130.2503,-396 124.2503,-396 118.2503,-390 118.2503,-384 118.2503,-384 118.2503,-372 118.2503,-372 118.2503,-366 124.2503,-360 130.2503,-360 130.2503,-360 207.2503,-360 207.2503,-360 213.2503,-360 219.2503,-366 219.2503,-372 219.2503,-372 219.2503,-384 219.2503,-384 219.2503,-390 213.2503,-396 207.2503,-396"/>
<text text-anchor="middle" x="168.7503" y="-375.5" font-family="sans" font-size="10.00" fill="#000000">RecalibrateBases</text>
</g>
<!-- 3&#45;&gt;9 -->
<g id="edge15" class="edge">
<title>3&#45;&gt;9</title>
<path fill="none" stroke="#c0c0c0" stroke-width="2" d="M109.6853,-431.8314C119.2285,-423.1337 130.8101,-412.5783 141.1809,-403.1265"/>
<polygon fill="#c0c0c0" stroke="#c0c0c0" stroke-width="2" points="143.7883,-405.4857 148.8216,-396.1628 139.073,-400.3121 143.7883,-405.4857"/>
</g>
<!-- 4 -->
<g id="node5" class="node">
<title>4</title>
<path fill="none" stroke="#5692d8" stroke-width="2" d="M438.2503,-108C438.2503,-108 391.2503,-108 391.2503,-108 385.2503,-108 379.2503,-102 379.2503,-96 379.2503,-96 379.2503,-84 379.2503,-84 379.2503,-78 385.2503,-72 391.2503,-72 391.2503,-72 438.2503,-72 438.2503,-72 444.2503,-72 450.2503,-78 450.2503,-84 450.2503,-84 450.2503,-96 450.2503,-96 450.2503,-102 444.2503,-108 438.2503,-108"/>
<text text-anchor="middle" x="414.7503" y="-87.5" font-family="sans" font-size="10.00" fill="#000000">CountFastq</text>
</g>
<!-- 4&#45;&gt;0 -->
<g id="edge4" class="edge">
<title>4&#45;&gt;0</title>
<path fill="none" stroke="#c0c0c0" stroke-width="2" d="M378.7769,-75.1521C376.0655,-74.0733 373.3674,-73.0124 370.7503,-72 342.1239,-60.9269 310.1557,-49.1854 283.2761,-39.4891"/>
<polygon fill="#c0c0c0" stroke="#c0c0c0" stroke-width="2" points="284.2133,-36.1068 273.6189,-36.0144 281.8434,-42.6934 284.2133,-36.1068"/>
</g>
<!-- 5 -->
<g id="node6" class="node">
<title>5</title>
<path fill="none" stroke="#56d892" stroke-width="2" d="M289.7503,-180C289.7503,-180 243.7503,-180 243.7503,-180 237.7503,-180 231.7503,-174 231.7503,-168 231.7503,-168 231.7503,-156 231.7503,-156 231.7503,-150 237.7503,-144 243.7503,-144 243.7503,-144 289.7503,-144 289.7503,-144 295.7503,-144 301.7503,-150 301.7503,-156 301.7503,-156 301.7503,-168 301.7503,-168 301.7503,-174 295.7503,-180 289.7503,-180"/>
<text text-anchor="middle" x="266.7503" y="-159.5" font-family="sans" font-size="10.00" fill="#000000">Sam2USeq</text>
</g>
<!-- 5&#45;&gt;0 -->
<g id="edge5" class="edge">
<title>5&#45;&gt;0</title>
<path fill="none" stroke="#c0c0c0" stroke-width="2" d="M261.1776,-143.7623C253.6397,-119.0928 240.1241,-74.8598 231.2976,-45.9731"/>
<polygon fill="#c0c0c0" stroke="#c0c0c0" stroke-width="2" points="234.5471,-44.6303 228.2776,-36.0896 227.8527,-46.6759 234.5471,-44.6303"/>
</g>
<!-- 5&#45;&gt;2 -->
<g id="edge8" class="edge">
<title>5&#45;&gt;2</title>
<path fill="none" stroke="#c0c0c0" stroke-width="2" d="M279.115,-143.8314C284.7011,-135.6232 291.4132,-125.7606 297.5574,-116.7323"/>
<polygon fill="#c0c0c0" stroke="#c0c0c0" stroke-width="2" points="300.4862,-118.6496 303.219,-108.4133 294.6992,-114.7112 300.4862,-118.6496"/>
</g>
<!-- 6 -->
<g id="node7" class="node">
<title>6</title>
<path fill="none" stroke="#56a9d8" stroke-width="2" d="M275.7503,-252C275.7503,-252 167.7503,-252 167.7503,-252 161.7503,-252 155.7503,-246 155.7503,-240 155.7503,-240 155.7503,-228 155.7503,-228 155.7503,-222 161.7503,-216 167.7503,-216 167.7503,-216 275.7503,-216 275.7503,-216 281.7503,-216 287.7503,-222 287.7503,-228 287.7503,-228 287.7503,-240 287.7503,-240 287.7503,-246 281.7503,-252 275.7503,-252"/>
<text text-anchor="middle" x="221.7503" y="-231.5" font-family="sans" font-size="10.00" fill="#000000">MergePairedAlignments</text>
</g>
<!-- 6&#45;&gt;0 -->
<g id="edge6" class="edge">
<title>6&#45;&gt;0</title>
<path fill="none" stroke="#c0c0c0" stroke-width="2" d="M221.8338,-215.9555C222.0077,-178.3938 222.4097,-91.5541 222.6187,-46.4103"/>
<polygon fill="#c0c0c0" stroke="#c0c0c0" stroke-width="2" points="226.1198,-46.1612 222.6663,-36.1451 219.1199,-46.1287 226.1198,-46.1612"/>
</g>
<!-- 6&#45;&gt;5 -->
<g id="edge10" class="edge">
<title>6&#45;&gt;5</title>
<path fill="none" stroke="#c0c0c0" stroke-width="2" d="M233.1057,-215.8314C238.1828,-207.7079 244.2729,-197.9637 249.8679,-189.0118"/>
<polygon fill="#c0c0c0" stroke="#c0c0c0" stroke-width="2" points="252.9099,-190.7483 255.242,-180.4133 246.9739,-187.0383 252.9099,-190.7483"/>
</g>
<!-- 7&#45;&gt;1 -->
<g id="edge7" class="edge">
<title>7&#45;&gt;1</title>
<path fill="none" stroke="#c0c0c0" stroke-width="2" d="M151.3307,-287.7623C146.7052,-263.0928 138.4115,-218.8598 132.9952,-189.9731"/>
<polygon fill="#c0c0c0" stroke="#c0c0c0" stroke-width="2" points="136.4251,-189.2733 131.1421,-180.0896 129.545,-190.5634 136.4251,-189.2733"/>
</g>
<!-- 7&#45;&gt;6 -->
<g id="edge11" class="edge">
<title>7&#45;&gt;6</title>
<path fill="none" stroke="#c0c0c0" stroke-width="2" d="M171.6572,-287.8314C179.5315,-279.3694 189.0422,-269.1489 197.6516,-259.8971"/>
<polygon fill="#c0c0c0" stroke="#c0c0c0" stroke-width="2" points="200.3656,-262.1183 204.6157,-252.4133 195.2411,-257.3497 200.3656,-262.1183"/>
</g>
<!-- 8 -->
<g id="node9" class="node">
<title>8</title>
<path fill="none" stroke="#d8ac56" stroke-width="2" d="M133.2503,-540C133.2503,-540 46.2503,-540 46.2503,-540 40.2503,-540 34.2503,-534 34.2503,-528 34.2503,-528 34.2503,-516 34.2503,-516 34.2503,-510 40.2503,-504 46.2503,-504 46.2503,-504 133.2503,-504 133.2503,-504 139.2503,-504 145.2503,-510 145.2503,-516 145.2503,-516 145.2503,-528 145.2503,-528 145.2503,-534 139.2503,-540 133.2503,-540"/>
<text text-anchor="middle" x="89.7503" y="-519.5" font-family="sans" font-size="10.00" fill="#000000">FixMateInformation</text>
</g>
<!-- 8&#45;&gt;3 -->
<g id="edge9" class="edge">
<title>8&#45;&gt;3</title>
<path fill="none" stroke="#c0c0c0" stroke-width="2" d="M89.7503,-503.8314C89.7503,-496.131 89.7503,-486.9743 89.7503,-478.4166"/>
<polygon fill="#c0c0c0" stroke="#c0c0c0" stroke-width="2" points="93.2504,-478.4132 89.7503,-468.4133 86.2504,-478.4133 93.2504,-478.4132"/>
</g>
<!-- 9&#45;&gt;7 -->
<g id="edge13" class="edge">
<title>9&#45;&gt;7</title>
<path fill="none" stroke="#c0c0c0" stroke-width="2" d="M165.2175,-359.8314C163.7202,-352.131 161.9397,-342.9743 160.2757,-334.4166"/>
<polygon fill="#c0c0c0" stroke="#c0c0c0" stroke-width="2" points="163.675,-333.5614 158.3306,-324.4133 156.8037,-334.8975 163.675,-333.5614"/>
</g>
<!-- 10 -->
<g id="node11" class="node">
<title>10</title>
<path fill="none" stroke="#8fd856" stroke-width="2" d="M143.2503,-612C143.2503,-612 36.2503,-612 36.2503,-612 30.2503,-612 24.2503,-606 24.2503,-600 24.2503,-600 24.2503,-588 24.2503,-588 24.2503,-582 30.2503,-576 36.2503,-576 36.2503,-576 143.2503,-576 143.2503,-576 149.2503,-576 155.2503,-582 155.2503,-588 155.2503,-588 155.2503,-600 155.2503,-600 155.2503,-606 149.2503,-612 143.2503,-612"/>
<text text-anchor="middle" x="89.7503" y="-591.5" font-family="sans" font-size="10.00" fill="#000000">ConcatinateAlignments</text>
</g>
<!-- 10&#45;&gt;8 -->
<g id="edge14" class="edge">
<title>10&#45;&gt;8</title>
<path fill="none" stroke="#c0c0c0" stroke-width="2" d="M89.7503,-575.8314C89.7503,-568.131 89.7503,-558.9743 89.7503,-550.4166"/>
<polygon fill="#c0c0c0" stroke="#c0c0c0" stroke-width="2" points="93.2504,-550.4132 89.7503,-540.4133 86.2504,-550.4133 93.2504,-550.4132"/>
</g>
<!-- 11 -->
<g id="node12" class="node">
<title>11</title>
<path fill="none" stroke="#d87556" stroke-width="2" d="M112.2503,-756C112.2503,-756 67.2503,-756 67.2503,-756 61.2503,-756 55.2503,-750 55.2503,-744 55.2503,-744 55.2503,-732 55.2503,-732 55.2503,-726 61.2503,-720 67.2503,-720 67.2503,-720 112.2503,-720 112.2503,-720 118.2503,-720 124.2503,-726 124.2503,-732 124.2503,-732 124.2503,-744 124.2503,-744 124.2503,-750 118.2503,-756 112.2503,-756"/>
<text text-anchor="middle" x="89.7503" y="-735.5" font-family="sans" font-size="10.00" fill="#000000">Consensus</text>
</g>
<!-- 11&#45;&gt;10 -->
<g id="edge16" class="edge">
<title>11&#45;&gt;10</title>
<path fill="none" stroke="#c0c0c0" stroke-width="2" d="M54.8639,-725.1999C36.7302,-716.5541 16.2178,-703.1731 5.7503,-684 -1.9168,-669.9566 -1.9168,-662.0434 5.7503,-648 12.6358,-635.388 23.8678,-625.2822 35.9101,-617.3817"/>
<polygon fill="#c0c0c0" stroke="#c0c0c0" stroke-width="2" points="38.0312,-620.189 44.7713,-612.0145 34.4047,-614.2016 38.0312,-620.189"/>
</g>
<!-- 12 -->
<g id="node13" class="node">
<title>12</title>
<path fill="none" stroke="#d88d56" stroke-width="2" d="M152.2503,-684C152.2503,-684 27.2503,-684 27.2503,-684 21.2503,-684 15.2503,-678 15.2503,-672 15.2503,-672 15.2503,-660 15.2503,-660 15.2503,-654 21.2503,-648 27.2503,-648 27.2503,-648 152.2503,-648 152.2503,-648 158.2503,-648 164.2503,-654 164.2503,-660 164.2503,-660 164.2503,-672 164.2503,-672 164.2503,-678 158.2503,-684 152.2503,-684"/>
<text text-anchor="middle" x="89.7503" y="-663.5" font-family="sans" font-size="10.00" fill="#000000">AlignPairedConsensusFastq</text>
</g>
<!-- 11&#45;&gt;12 -->
<g id="edge20" class="edge">
<title>11&#45;&gt;12</title>
<path fill="none" stroke="#c0c0c0" stroke-width="2" d="M89.7503,-719.8314C89.7503,-712.131 89.7503,-702.9743 89.7503,-694.4166"/>
<polygon fill="#c0c0c0" stroke="#c0c0c0" stroke-width="2" points="93.2504,-694.4132 89.7503,-684.4133 86.2504,-694.4133 93.2504,-694.4132"/>
</g>
<!-- 13 -->
<g id="node14" class="node">
<title>13</title>
<path fill="none" stroke="#d8cb56" stroke-width="2" d="M334.7503,-684C334.7503,-684 194.7503,-684 194.7503,-684 188.7503,-684 182.7503,-678 182.7503,-672 182.7503,-672 182.7503,-660 182.7503,-660 182.7503,-654 188.7503,-648 194.7503,-648 194.7503,-648 334.7503,-648 334.7503,-648 340.7503,-648 346.7503,-654 346.7503,-660 346.7503,-660 346.7503,-672 346.7503,-672 346.7503,-678 340.7503,-684 334.7503,-684"/>
<text text-anchor="middle" x="264.7503" y="-663.5" font-family="sans" font-size="10.00" fill="#000000">AlignUnpairedConsensusFastq</text>
</g>
<!-- 11&#45;&gt;13 -->
<g id="edge21" class="edge">
<title>11&#45;&gt;13</title>
<path fill="none" stroke="#c0c0c0" stroke-width="2" d="M124.3246,-723.7751C149.2038,-713.5391 183.227,-699.541 211.5524,-687.8871"/>
<polygon fill="#c0c0c0" stroke="#c0c0c0" stroke-width="2" points="213.0023,-691.0753 220.9185,-684.0336 210.3389,-684.6018 213.0023,-691.0753"/>
</g>
<!-- 12&#45;&gt;10 -->
<g id="edge17" class="edge">
<title>12&#45;&gt;10</title>
<path fill="none" stroke="#c0c0c0" stroke-width="2" d="M89.7503,-647.8314C89.7503,-640.131 89.7503,-630.9743 89.7503,-622.4166"/>
<polygon fill="#c0c0c0" stroke="#c0c0c0" stroke-width="2" points="93.2504,-622.4132 89.7503,-612.4133 86.2504,-622.4133 93.2504,-622.4132"/>
</g>
<!-- 13&#45;&gt;10 -->
<g id="edge18" class="edge">
<title>13&#45;&gt;10</title>
<path fill="none" stroke="#c0c0c0" stroke-width="2" d="M220.5904,-647.8314C196.9771,-638.1162 167.73,-626.0831 142.8803,-615.8592"/>
<polygon fill="#c0c0c0" stroke="#c0c0c0" stroke-width="2" points="144.1722,-612.6061 133.5926,-612.038 141.5088,-619.0797 144.1722,-612.6061"/>
</g>
<!-- 14 -->
<g id="node15" class="node">
<title>14</title>
<path fill="none" stroke="#afd856" stroke-width="2" d="M115.2503,-828C115.2503,-828 64.2503,-828 64.2503,-828 58.2503,-828 52.2503,-822 52.2503,-816 52.2503,-816 52.2503,-804 52.2503,-804 52.2503,-798 58.2503,-792 64.2503,-792 64.2503,-792 115.2503,-792 115.2503,-792 121.2503,-792 127.2503,-798 127.2503,-804 127.2503,-804 127.2503,-816 127.2503,-816 127.2503,-822 121.2503,-828 115.2503,-828"/>
<text text-anchor="middle" x="89.7503" y="-807.5" font-family="sans" font-size="10.00" fill="#000000">MatchMates</text>
</g>
<!-- 14&#45;&gt;11 -->
<g id="edge19" class="edge">
<title>14&#45;&gt;11</title>
<path fill="none" stroke="#c0c0c0" stroke-width="2" d="M89.7503,-791.8314C89.7503,-784.131 89.7503,-774.9743 89.7503,-766.4166"/>
<polygon fill="#c0c0c0" stroke="#c0c0c0" stroke-width="2" points="93.2504,-766.4132 89.7503,-756.4133 86.2504,-766.4133 93.2504,-766.4132"/>
</g>
<!-- 15 -->
<g id="node16" class="node">
<title>15</title>
<path fill="none" stroke="#70d856" stroke-width="2" d="M111.2503,-900C111.2503,-900 68.2503,-900 68.2503,-900 62.2503,-900 56.2503,-894 56.2503,-888 56.2503,-888 56.2503,-876 56.2503,-876 56.2503,-870 62.2503,-864 68.2503,-864 68.2503,-864 111.2503,-864 111.2503,-864 117.2503,-864 123.2503,-870 123.2503,-876 123.2503,-876 123.2503,-888 123.2503,-888 123.2503,-894 117.2503,-900 111.2503,-900"/>
<text text-anchor="middle" x="89.7503" y="-879.5" font-family="sans" font-size="10.00" fill="#000000">AlignHg38</text>
</g>
<!-- 15&#45;&gt;14 -->
<g id="edge22" class="edge">
<title>15&#45;&gt;14</title>
<path fill="none" stroke="#c0c0c0" stroke-width="2" d="M89.7503,-863.8314C89.7503,-856.131 89.7503,-846.9743 89.7503,-838.4166"/>
<polygon fill="#c0c0c0" stroke="#c0c0c0" stroke-width="2" points="93.2504,-838.4132 89.7503,-828.4133 86.2504,-838.4133 93.2504,-838.4132"/>
</g>
<!-- 16 -->
<g id="node17" class="node">
<title>16</title>
<path fill="none" stroke="#5673d8" stroke-width="2" d="M134.7503,-972C134.7503,-972 44.7503,-972 44.7503,-972 38.7503,-972 32.7503,-966 32.7503,-960 32.7503,-960 32.7503,-948 32.7503,-948 32.7503,-942 38.7503,-936 44.7503,-936 44.7503,-936 134.7503,-936 134.7503,-936 140.7503,-936 146.7503,-942 146.7503,-948 146.7503,-948 146.7503,-960 146.7503,-960 146.7503,-966 140.7503,-972 134.7503,-972"/>
<text text-anchor="middle" x="89.7503" y="-951.5" font-family="sans" font-size="10.00" fill="#000000">FastqBarcodeTagger</text>
</g>
<!-- 16&#45;&gt;15 -->
<g id="edge23" class="edge">
<title>16&#45;&gt;15</title>
<path fill="none" stroke="#c0c0c0" stroke-width="2" d="M89.7503,-935.8314C89.7503,-928.131 89.7503,-918.9743 89.7503,-910.4166"/>
<polygon fill="#c0c0c0" stroke="#c0c0c0" stroke-width="2" points="93.2504,-910.4132 89.7503,-900.4133 86.2504,-910.4133 93.2504,-910.4132"/>
</g>
</g>
</svg>
